<?xml version="1.0" encoding="utf-8"?>
<svg viewBox="0 0 77.034 76.874" xmlns="http://www.w3.org/2000/svg">
  <defs>
    <linearGradient id="linear-gradient" x1="0.5" x2="0.5" y2="1" gradientUnits="objectBoundingBox">
      <stop offset="0" stop-color="#fe8464"/>
      <stop offset="1" stop-color="#fe6e9a"/>
    </linearGradient>
  </defs>
  <path id="Path_7" data-name="Path 7" d="M44.629,1896.9c20.551-4.888,58.959,28.731,58.959,46.987s-53.043,34.067-67.837,28.142S24.078,1901.789,44.629,1896.9Z" transform="matrix(1, 0, 0, 1, -26.554001, -1896.421021)" fill="url(#linear-gradient)"/>
  <path d="M 33.883 42.502 C 33.916 42.477 33.946 42.448 33.973 42.418 C 34.105 42.269 34.177 42.077 34.176 41.878 C 34.175 41.689 34.117 41.505 34.009 41.35 C 33.889 41.179 33.71 41.057 33.507 41.005 L 33.471 40.999 L 32.542 38.16 C 32.332 37.532 32.142 36.957 31.975 36.435 C 31.803 35.896 31.635 35.44 31.472 35.067 C 31.334 34.73 31.153 34.414 30.934 34.123 C 30.626 33.738 30.299 33.657 30.08 33.657 C 29.77 33.657 29.485 33.816 29.232 34.13 C 29.009 34.424 28.824 34.744 28.679 35.083 C 28.508 35.463 28.332 35.914 28.148 36.431 C 27.965 36.949 27.787 37.5 27.591 38.111 L 25.48 44.659 C 25.466 44.726 25.459 44.794 25.459 44.864 C 25.453 45.102 25.56 45.328 25.746 45.476 C 25.901 45.595 26.09 45.659 26.286 45.658 C 26.521 45.658 26.866 45.569 27.165 45.153 C 27.194 45.112 27.217 45.066 27.23 45.018 L 27.948 42.67 L 32.1 42.67 L 32.727 45.105 C 32.872 45.423 33.193 45.624 33.542 45.613 C 34.072 45.613 34.433 45.295 34.486 44.783 C 34.491 44.728 34.486 44.674 34.472 44.622 Z M 30.388 37.597 L 31.271 40.222 C 31.342 40.449 31.406 40.668 31.481 40.879 L 28.57 40.879 L 30.029 36.552 C 30.135 36.867 30.254 37.215 30.388 37.595 Z" style="fill: rgb(255, 255, 255);"/>
  <path d="M 39.024 41.729 C 39.048 41.131 39.07 40.492 39.091 39.825 L 39.196 36.226 C 39.203 35.956 39.207 35.721 39.212 35.521 C 39.275 35.521 39.346 35.521 39.419 35.521 C 39.739 35.535 40.018 35.55 40.255 35.567 C 40.748 35.6 41.122 35.309 41.198 34.73 C 41.206 34.284 40.885 33.899 40.443 33.827 C 40.308 33.808 40.111 33.788 39.832 33.764 C 39.553 33.739 38.512 33.752 36.813 33.796 C 35.891 33.771 35.021 33.834 34.858 34.47 C 34.723 35.025 34.915 35.298 35.102 35.43 C 35.299 35.572 35.543 35.631 35.783 35.594 C 35.933 35.577 36.085 35.567 36.237 35.566 L 37.127 35.552 L 37.442 35.552 C 37.442 35.631 37.442 35.714 37.442 35.806 C 37.442 36.11 37.43 36.465 37.416 36.873 L 37.28 40.61 C 37.234 41.729 37.204 42.553 37.189 43.079 C 37.178 43.383 37.167 43.651 37.157 43.879 C 36.375 43.864 35.871 43.86 35.644 43.86 C 35.468 43.858 35.293 43.902 35.138 43.987 C 34.97 44.08 34.77 44.282 34.77 44.699 C 34.762 44.888 34.815 45.352 35.486 45.581 C 35.529 45.596 35.575 45.605 35.621 45.607 L 40.272 45.685 C 40.735 45.711 41.127 45.353 41.143 44.89 C 41.174 44.655 41.104 44.416 40.951 44.233 C 40.76 44.033 40.493 43.921 40.214 43.925 L 38.922 43.906 C 38.939 43.737 38.951 43.544 38.961 43.33 C 38.981 42.862 39.004 42.328 39.024 41.729 Z" style="fill: rgb(255, 255, 255);"/>
  <path d="M 57.036 47.324 L 57.036 44.263 C 57.034 42.28 55.427 40.672 53.444 40.669 L 46.722 40.669 L 46.722 38.672 L 53.444 38.672 C 55.427 38.67 57.034 37.063 57.036 35.079 L 57.036 32.02 C 60.033 31.326 61.155 27.647 59.056 25.398 C 56.956 23.15 53.209 24.018 52.312 26.961 C 51.636 29.174 52.977 31.498 55.232 32.02 L 55.232 35.079 C 55.232 36.068 54.432 36.868 53.444 36.871 L 46.722 36.871 L 46.722 29.517 C 46.717 27.731 45.272 26.285 43.488 26.282 L 36.128 26.282 L 36.128 19.558 C 36.129 18.569 36.93 17.768 37.919 17.768 L 40.982 17.768 C 41.676 20.764 45.354 21.885 47.603 19.785 C 49.851 17.687 48.984 13.939 46.041 13.042 C 43.827 12.367 41.504 13.709 40.982 15.964 L 37.919 15.964 C 35.935 15.966 34.328 17.575 34.326 19.558 L 34.326 26.277 L 32.331 26.277 L 32.331 19.558 C 32.329 17.574 30.72 15.966 28.736 15.964 L 25.675 15.964 C 24.981 12.966 21.302 11.845 19.054 13.943 C 16.805 16.043 17.673 19.79 20.616 20.688 C 22.829 21.363 25.152 20.022 25.675 17.768 L 28.736 17.768 C 29.725 17.768 30.527 18.569 30.527 19.558 L 30.527 26.277 L 23.174 26.277 C 21.388 26.282 19.942 27.727 19.938 29.512 L 19.938 36.866 L 13.213 36.866 C 12.224 36.866 11.423 36.064 11.423 35.076 L 11.423 32.015 C 14.42 31.321 15.542 27.643 13.442 25.394 C 11.343 23.146 7.596 24.013 6.699 26.956 C 6.024 29.17 7.365 31.493 9.62 32.015 L 9.62 35.076 C 9.622 37.059 11.23 38.667 13.213 38.668 L 19.934 38.668 L 19.934 40.669 L 13.213 40.669 C 11.23 40.672 9.622 42.28 9.62 44.263 L 9.62 47.324 C 6.623 48.018 5.501 51.696 7.6 53.945 C 9.7 56.193 13.447 55.325 14.343 52.383 C 15.02 50.169 13.678 47.846 11.423 47.324 L 11.423 44.263 C 11.423 43.275 12.224 42.473 13.213 42.472 L 19.934 42.472 L 19.934 49.826 C 19.938 51.612 21.384 53.057 23.169 53.062 L 30.523 53.062 L 30.523 59.781 C 30.522 60.77 29.721 61.572 28.732 61.572 L 25.675 61.572 C 24.981 58.575 21.302 57.453 19.054 59.552 C 16.805 61.653 17.673 65.399 20.616 66.297 C 22.829 66.972 25.152 65.631 25.675 63.376 L 28.736 63.376 C 30.72 63.374 32.329 61.765 32.331 59.781 L 32.331 53.065 L 34.326 53.065 L 34.326 59.785 C 34.328 61.769 35.935 63.377 37.919 63.38 L 40.982 63.38 C 41.676 66.376 45.354 67.498 47.603 65.399 C 49.851 63.3 48.984 59.552 46.041 58.656 C 43.827 57.98 41.504 59.321 40.982 61.577 L 37.919 61.577 C 36.93 61.576 36.129 60.774 36.128 59.785 L 36.128 53.065 L 43.483 53.065 C 45.268 53.061 46.714 51.616 46.717 49.831 L 46.717 42.472 L 53.439 42.472 C 54.427 42.474 55.229 43.275 55.23 44.263 L 55.23 47.324 C 52.232 48.018 51.11 51.696 53.209 53.945 C 55.309 56.193 59.056 55.325 59.953 52.383 C 60.629 50.169 59.288 47.846 57.033 47.324 Z M 53.937 28.134 C 53.937 26.444 55.764 25.389 57.228 26.233 C 58.691 27.078 58.691 29.189 57.228 30.034 C 56.895 30.227 56.516 30.328 56.131 30.328 C 54.921 30.324 53.942 29.343 53.941 28.134 Z M 44.866 14.672 C 46.555 14.671 47.612 16.498 46.769 17.963 C 45.925 19.426 43.814 19.427 42.968 17.965 C 42.774 17.631 42.674 17.251 42.674 16.865 C 42.675 15.654 43.656 14.674 44.866 14.672 Z M 21.791 19.059 C 20.101 19.06 19.044 17.233 19.888 15.769 C 20.732 14.305 22.843 14.304 23.688 15.767 C 23.882 16.1 23.983 16.479 23.983 16.865 C 23.982 18.076 23.001 19.058 21.791 19.059 Z M 8.329 28.134 C 8.329 26.444 10.157 25.389 11.62 26.233 C 13.084 27.078 13.084 29.189 11.62 30.034 C 11.287 30.227 10.908 30.328 10.522 30.328 C 9.311 30.326 8.33 29.345 8.329 28.134 Z M 12.716 51.209 C 12.716 52.899 10.888 53.954 9.425 53.11 C 7.961 52.266 7.961 50.154 9.425 49.309 C 9.758 49.117 10.136 49.015 10.522 49.015 C 11.733 49.017 12.714 49.998 12.716 51.209 Z M 21.791 64.671 C 20.101 64.672 19.044 62.844 19.888 61.381 C 20.732 59.917 22.843 59.916 23.688 61.378 C 23.882 61.713 23.983 62.092 23.983 62.478 C 23.982 63.688 23 64.669 21.791 64.671 Z M 44.866 60.284 C 46.555 60.283 47.612 62.11 46.769 63.574 C 45.925 65.038 43.814 65.039 42.968 63.576 C 42.774 63.243 42.674 62.864 42.674 62.478 C 42.675 61.268 43.656 60.286 44.866 60.284 Z M 44.919 49.826 C 44.917 50.619 44.276 51.262 43.483 51.263 L 23.174 51.263 C 22.38 51.262 21.737 50.619 21.737 49.826 L 21.737 29.517 C 21.737 28.723 22.38 28.08 23.174 28.08 L 43.483 28.08 C 44.276 28.08 44.92 28.723 44.92 29.517 Z M 56.134 53.404 C 54.445 53.404 53.389 51.576 54.232 50.112 C 55.076 48.649 57.187 48.647 58.033 50.11 C 58.227 50.445 58.328 50.824 58.328 51.209 C 58.326 52.42 57.345 53.401 56.134 53.404 Z" style="fill: rgb(255, 255, 255);"/>
</svg>