<svg xmlns="http://www.w3.org/2000/svg" viewBox="0 0 750 500"><g id="freepik--background-complete--inject-84"><rect x="45.87" y="64.14" width="658.26" height="10.06" style="fill:#ebebeb"></rect><rect x="45.87" y="16.81" width="658.26" height="10.06" style="fill:#ebebeb"></rect><rect x="45.87" y="26.87" width="17.13" height="37.28" style="fill:#ebebeb"></rect><rect x="259.58" y="26.87" width="17.13" height="37.28" style="fill:#ebebeb"></rect><rect x="473.29" y="26.87" width="17.13" height="37.28" style="fill:#ebebeb"></rect><rect x="687" y="26.87" width="17.13" height="37.28" style="fill:#ebebeb"></rect><polygon points="161.29 65.96 128.53 29.5 95.77 65.96 60.77 27.17 62.57 25.55 95.76 62.33 128.53 25.88 161.29 62.33 194.06 25.88 226.82 62.33 260.77 24.79 262.57 26.42 226.82 65.96 194.06 29.5 161.29 65.96" style="fill:#ebebeb"></polygon><polygon points="374.63 65.96 341.86 29.5 309.1 65.96 274.11 27.17 275.91 25.55 309.1 62.33 341.86 25.88 374.63 62.33 407.39 25.88 440.15 62.33 474.1 24.79 475.9 26.42 440.15 65.96 407.39 29.5 374.63 65.96" style="fill:#ebebeb"></polygon><polygon points="587.96 65.96 555.19 29.5 522.43 65.96 487.44 27.17 489.24 25.55 522.43 62.33 555.19 25.88 587.96 62.33 620.72 25.88 653.49 62.33 687.43 24.79 689.23 26.42 653.48 65.96 620.72 29.5 587.96 65.96" style="fill:#ebebeb"></polygon><rect x="45.87" y="64.15" width="10.06" height="276.45" style="fill:#ebebeb"></rect><rect x="93.2" y="64.15" width="10.06" height="276.45" style="fill:#ebebeb"></rect><rect x="65.99" y="54.07" width="17.13" height="37.28" transform="translate(147.27 -1.84) rotate(90)" style="fill:#ebebeb"></rect><rect x="65.99" y="267.78" width="17.13" height="37.28" transform="translate(360.98 211.87) rotate(90)" style="fill:#ebebeb"></rect><polygon points="54.1 179.57 90.56 146.8 54.1 114.04 92.89 79.05 94.51 80.85 57.73 114.04 94.19 146.8 57.73 179.57 94.19 212.33 57.73 245.1 95.27 279.04 93.64 280.84 54.1 245.09 90.56 212.33 54.1 179.57" style="fill:#ebebeb"></polygon><polygon points="93.19 295.37 57.73 327.37 72.44 340.6 68.83 340.6 55.92 329.01 54.1 327.37 55.92 325.73 90 294.99 92.89 292.38 93.19 292.72 94.52 294.18 93.19 295.37" style="fill:#ebebeb"></polygon><rect x="694.07" y="64.15" width="10.06" height="276.45" style="fill:#ebebeb"></rect><rect x="646.74" y="64.15" width="10.06" height="276.45" style="fill:#ebebeb"></rect><rect x="666.88" y="54.07" width="17.13" height="37.28" transform="translate(748.16 -602.73) rotate(90)" style="fill:#ebebeb"></rect><rect x="666.88" y="267.78" width="17.13" height="37.28" transform="translate(961.87 -389.02) rotate(90)" style="fill:#ebebeb"></rect><polygon points="695.9 179.57 659.44 146.8 695.9 114.04 657.11 79.05 655.49 80.85 692.27 114.04 655.81 146.8 692.27 179.57 655.81 212.33 692.27 245.1 654.73 279.04 656.36 280.84 695.89 245.09 659.44 212.33 695.9 179.57" style="fill:#ebebeb"></polygon><polygon points="656.8 295.37 692.27 327.37 677.55 340.6 681.17 340.6 694.08 329.01 695.89 327.37 694.08 325.73 660 294.99 657.12 292.38 656.8 292.72 655.49 294.18 656.8 295.37" style="fill:#ebebeb"></polygon><rect x="35.12" y="163.65" width="109.02" height="176.94" style="fill:#dbdbdb"></rect><circle cx="89.63" cy="284.99" r="43.87" transform="translate(-208.4 305.72) rotate(-76.52)" style="fill:#ebebeb"></circle><circle cx="89.63" cy="284.99" r="31.81" style="fill:#dbdbdb"></circle><circle cx="70.97" cy="205.11" r="24.9" style="fill:#ebebeb"></circle><circle cx="70.97" cy="205.11" r="14.4" style="fill:#dbdbdb"></circle><circle cx="119.69" cy="194.51" r="14.31" transform="translate(-101.21 136.51) rotate(-43.68)" style="fill:#ebebeb"></circle><circle cx="119.69" cy="194.51" r="8.27" transform="translate(-101.03 135.84) rotate(-43.51)" style="fill:#dbdbdb"></circle><rect x="605.86" y="163.65" width="109.02" height="176.94" transform="translate(1320.74 504.25) rotate(180)" style="fill:#dbdbdb"></rect><circle cx="660.37" cy="284.99" r="43.87" transform="translate(-48.37 162.54) rotate(-13.54)" style="fill:#ebebeb"></circle><circle cx="660.37" cy="284.99" r="31.81" style="fill:#dbdbdb"></circle><circle cx="679.03" cy="205.11" r="24.9" style="fill:#ebebeb"></circle><circle cx="679.03" cy="205.11" r="14.4" style="fill:#dbdbdb"></circle><circle cx="630.31" cy="194.51" r="14.31" transform="translate(5.28 405.38) rotate(-35.79)" style="fill:#ebebeb"></circle><circle cx="630.31" cy="194.51" r="8.27" transform="translate(5.87 407.1) rotate(-35.95)" style="fill:#dbdbdb"></circle><polygon points="385.79 91.33 364.21 91.33 364.21 83.01 364.21 61.43 364.21 53.12 385.79 53.12 385.79 61.43 385.79 83.01 385.79 91.33" style="fill:#dbdbdb"></polygon><rect x="364.21" y="53.12" width="21.58" height="38.21" transform="translate(447.22 -302.78) rotate(90)" style="fill:#dbdbdb"></rect><circle cx="375" cy="72.22" r="11.38" transform="translate(240.28 429.56) rotate(-80.24)" style="fill:#fff"></circle><polygon points="276.94 91.33 255.36 91.33 257.36 83.01 257.36 61.43 255.36 53.12 276.94 53.12 278.94 61.43 278.94 83.01 276.94 91.33" style="fill:#dbdbdb"></polygon><rect x="257.36" y="53.12" width="21.58" height="38.21" transform="translate(340.37 -195.92) rotate(90)" style="fill:#dbdbdb"></rect><circle cx="268.15" cy="72.22" r="11.38" transform="translate(152.28 324.6) rotate(-80.41)" style="fill:#fff"></circle><polygon points="473.07 91.33 494.65 91.33 492.65 83.01 492.65 61.43 494.65 53.12 473.07 53.12 471.07 61.43 471.07 83.01 473.07 91.33" style="fill:#dbdbdb"></polygon><rect x="471.07" y="53.12" width="21.58" height="38.21" transform="translate(554.08 -409.64) rotate(90)" style="fill:#dbdbdb"></rect><circle cx="481.86" cy="72.22" r="11.38" transform="translate(90.06 361.88) rotate(-45)" style="fill:#fff"></circle></g><g id="freepik--Shadows--inject-84"><ellipse cx="375" cy="457.86" rx="135.34" ry="22.69" style="fill:#ebebeb"></ellipse><ellipse cx="182.81" cy="385.13" rx="135.34" ry="22.69" style="fill:#ebebeb"></ellipse><ellipse cx="534.57" cy="385.13" rx="163.7" ry="22.69" style="fill:#ebebeb"></ellipse></g><g id="freepik--Floor--inject-84"><polygon points="35.12 340.6 120.09 340.35 205.06 340.26 375 340.1 544.94 340.26 629.91 340.35 714.88 340.6 629.91 340.84 544.94 340.93 375 341.1 205.06 340.93 120.09 340.84 35.12 340.6" style="fill:#263238"></polygon></g><g id="freepik--character-3--inject-84"><rect x="593.88" y="332.05" width="31.05" height="2.28" style="fill:#c7c7c7"></rect><polygon points="622.34 261.05 622.5 271.86 623.55 338.86 623.59 341.14 624.05 371.21 625.8 371.21 626.26 341.14 626.3 338.86 627.35 271.86 627.51 261.05 622.34 261.05" style="fill:#c7c7c7"></polygon><polygon points="627.51 261.05 622.34 261.05 622.5 271.86 627.35 271.86 627.51 261.05" style="fill:#a6a6a6"></polygon><polygon points="591.29 261.05 591.45 271.86 593 371.21 594.76 371.21 595.22 341.14 595.25 338.86 596.3 271.86 596.47 261.05 591.29 261.05" style="fill:#c7c7c7"></polygon><polygon points="591.29 261.05 591.45 271.86 596.3 271.86 596.47 261.05 591.29 261.05" style="fill:#a6a6a6"></polygon><rect x="609.95" y="332.05" width="30.48" height="2.28" style="fill:#c7c7c7"></rect><polygon points="637.85 261.05 638.01 271.86 639.06 338.86 639.1 341.14 639.56 371.21 641.31 371.21 642.86 271.86 643.02 261.05 637.85 261.05" style="fill:#c7c7c7"></polygon><polygon points="643.02 261.05 637.85 261.05 638.01 271.86 642.86 271.86 643.02 261.05" style="fill:#a6a6a6"></polygon><polygon points="607.36 261.05 607.53 271.86 608.58 338.86 608.61 341.14 609.07 371.21 610.83 371.21 611.29 341.14 611.33 338.86 612.38 271.86 612.54 261.05 607.36 261.05" style="fill:#c7c7c7"></polygon><polygon points="612.54 261.05 607.36 261.05 607.53 271.86 612.38 271.86 612.54 261.05" style="fill:#a6a6a6"></polygon><rect x="588.6" y="256.02" width="56.48" height="11.61" style="fill:#FFC727"></rect><rect x="588.6" y="256.02" width="44.69" height="11.61" style="fill:#263238;opacity:0.1"></rect><path d="M435.72,362.73c2,.67,58.22.87,60.36-.49.83-.5,1.33-8.7,1.66-18.61,0,0,24.59-34.08,24.59-34.08l-38.74-.24L461.47,343.4S439.9,353,437.7,354.69,433.75,362.07,435.72,362.73Z" style="fill:#f7a9a0"></path><path d="M435.43,363c1.29.42,25.29.48,42.77.1,4.05-.09,7.74-.21,10.73-.34,4.11-.2,6.87-.42,7.32-.71.77-.5,1.48-8,1.48-17.24,0-.49,3.77-6.17,5.13-8.17l-37.46,0-4.16,6.65s-21.66,9.79-23.87,11.56S433.46,362.33,435.43,363Z" style="fill:#263238"></path><path d="M436.76,360.72c9.5-.27,47.84-.47,57.25,0,.07,0,.07.06,0,.06-9.41.48-47.75.37-57.25.12C436.56,360.87,436.56,360.73,436.76,360.72Z" style="fill:#455a64"></path><path d="M460.41,341.22c3.73-.72,8.31-.16,11.18,2.49.11.1,0,.26-.16.22a52.14,52.14,0,0,0-11-2.24A.24.24,0,0,1,460.41,341.22Z" style="fill:#455a64"></path><path d="M457.72,342.85c3.73-.71,8.31-.15,11.17,2.5.12.1,0,.26-.15.22a52.23,52.23,0,0,0-11-2.24A.24.24,0,0,1,457.72,342.85Z" style="fill:#455a64"></path><path d="M455,344.49c3.73-.71,8.31-.16,11.17,2.49.11.11,0,.26-.16.23A52.79,52.79,0,0,0,455,345,.24.24,0,0,1,455,344.49Z" style="fill:#455a64"></path><path d="M452.33,346.13c3.74-.72,8.31-.16,11.18,2.49.11.1,0,.26-.16.22a52.77,52.77,0,0,0-11-2.24A.24.24,0,0,1,452.33,346.13Z" style="fill:#455a64"></path><path d="M455.17,337.92c2.65,2,6.09,2.87,9.19,4,.32.12.57-.19.58-.47a.11.11,0,0,0,.09-.14,20.08,20.08,0,0,0-5.79-8.54c-1.57-1.3-4.31-2.2-5.77-.17S453.62,336.72,455.17,337.92Zm-1-3c-.67-4.1,3.74-2,4.86-1a22.37,22.37,0,0,1,2,2.13c1.3,1.55,2.35,3.25,3.49,4.91-1.49-.65-3-1.16-4.52-1.75C458.22,338.54,454.58,337.17,454.2,334.91Z" style="fill:#455a64"></path><path d="M477.48,335.57c-.91-2.33-3.79-2.14-5.63-1.26a20,20,0,0,0-7.72,6.84.1.1,0,0,0,.05.15c-.06.28.11.64.45.6,3.28-.33,6.82-.28,9.89-1.6C476.32,339.53,478.35,337.77,477.48,335.57Zm-8,4.82c-1.6.2-3.21.32-4.81.58,1.51-1.33,3-2.72,4.6-3.9a20.94,20.94,0,0,1,2.46-1.57c1.33-.7,6.13-1.68,4.46,2.13C475.28,339.72,471.41,340.15,469.49,340.39Z" style="fill:#455a64"></path><path d="M468.71,331.41l38.66,3.44s36.87-50.2,39.56-52.89c6.09-6.11,55.23-15,68.38-28,13.92-13.84,7.85-31.34,7.85-31.34H585s.42,8.42-1.52,9c-21,6.52-59.32,21.62-68.4,29.65C498.8,275.65,468.71,331.41,468.71,331.41Z" style="fill:#455a64"></path><path d="M508.2,328.88a18.48,18.48,0,0,0-3.23-.55c-1.11-.13-2.22-.27-3.34-.39l-6.81-.77c-4.54-.51-9.08-1-13.63-1.36-2.56-.21-5.13-.33-7.7-.45a.08.08,0,1,0,0,.15c9,1.4,18.13,2.25,27.24,3.07l3.72.32a22.37,22.37,0,0,0,3.75.15A.09.09,0,0,0,508.2,328.88Z" style="fill:#263238"></path><path d="M621.5,233a72.44,72.44,0,0,1-5.64,12,27.4,27.4,0,0,1-9.4,9.29c-4.05,2.39-8.55,3.9-13,5.46q-7.47,2.63-15,5.12t-15,4.88q-3.79,1.2-7.61,2.36c-2.38.73-4.8,1.37-7.15,2.2a13,13,0,0,0-5.55,3.55c-1.66,1.85-3.1,3.92-4.6,5.9q-4.86,6.39-9.67,12.81c-6.33,8.44-12.62,16.93-18.69,25.57L508,325.33c0,.07.07.16.13.09,6.41-8.55,12.89-17.05,19.32-25.58q4.79-6.36,9.62-12.68,2.43-3.2,4.88-6.37a15.9,15.9,0,0,1,4.92-4.81,36.85,36.85,0,0,1,6.95-2.4c2.55-.77,5.09-1.54,7.62-2.33q7.61-2.37,15.18-4.85t15-5.09a102.12,102.12,0,0,0,13.22-5.19,27.08,27.08,0,0,0,9.92-8.35,51.73,51.73,0,0,0,5.8-11.68q.59-1.53,1.14-3.06C621.66,233,621.53,232.9,621.5,233Z" style="fill:#263238"></path><path d="M536.38,374.41c2,.64,53.93-.09,56-1.48.81-.52,1.18-8.72,1.35-18.64V354c0-2.05.07-4.16.07-6.29,0-.29,0-.59,0-.88.08-14.32-1.5-28.84-1.5-28.84l-36.28,0,1.14,28.91,0,1.15.23,6,0,.62s-17.11,9.91-19.29,11.68S534.4,373.78,536.38,374.41Z" style="fill:#f7a9a0"></path><path d="M536,374.4c1.28.42,21,.48,38.47.1,4-.1,7.74-.21,10.72-.34,4.12-.2,6.87-.43,7.32-.71,1-.64,1.45-12.7,1.66-25.41l-36.87,0,.2,6.65s-17.36,9.79-19.56,11.55S534,373.74,536,374.4Z" style="fill:#263238"></path><path d="M536.75,372.13c9.5-.27,43.54-.47,53,0,.08,0,.08.06,0,.06-9.41.47-43.45.36-53,.11C536.55,372.28,536.55,372.13,536.75,372.13Z" style="fill:#455a64"></path><path d="M558.87,352.93c3.56-1.34,8.16-1.58,11.44.54.13.08,0,.26-.12.24a53.25,53.25,0,0,0-11.22-.32A.24.24,0,0,1,558.87,352.93Z" style="fill:#455a64"></path><path d="M556.5,355c3.56-1.35,8.16-1.59,11.44.53.13.08,0,.26-.12.25a52,52,0,0,0-11.22-.32A.24.24,0,0,1,556.5,355Z" style="fill:#455a64"></path><path d="M554.13,357.08c3.56-1.34,8.16-1.58,11.44.54.13.08,0,.26-.11.24a52.7,52.7,0,0,0-11.23-.31A.24.24,0,0,1,554.13,357.08Z" style="fill:#455a64"></path><path d="M551.76,359.16c3.56-1.35,8.16-1.59,11.44.53.13.08,0,.26-.11.25a52.7,52.7,0,0,0-11.23-.32A.24.24,0,0,1,551.76,359.16Z" style="fill:#455a64"></path><path d="M553.85,349.32c2.65,2.05,6.09,2.87,9.18,4a.46.46,0,0,0,.59-.46c.06,0,.11-.06.09-.14a19.9,19.9,0,0,0-5.8-8.54c-1.56-1.3-4.3-2.2-5.76-.17S552.3,348.13,553.85,349.32Zm-1-3c-.67-4.1,3.74-2,4.85-1a21.19,21.19,0,0,1,2,2.14,58.28,58.28,0,0,1,3.5,4.91c-1.49-.65-3-1.16-4.52-1.76C556.9,350,553.25,348.58,552.88,346.32Z" style="fill:#455a64"></path><path d="M576.16,347c-.91-2.32-3.79-2.13-5.63-1.25a19.9,19.9,0,0,0-7.72,6.84.1.1,0,0,0,.05.15.47.47,0,0,0,.45.6c3.28-.33,6.82-.28,9.89-1.6C575,350.93,577,349.18,576.16,347Zm-8,4.82c-1.6.21-3.21.33-4.81.59,1.51-1.33,3-2.72,4.6-3.9a21.67,21.67,0,0,1,2.45-1.57c1.34-.7,6.14-1.68,4.47,2.12C574,351.13,570.09,351.55,568.17,351.79Z" style="fill:#455a64"></path><path d="M557.06,342.81l37.52.81s-1-56.63.9-61.63,32-15.48,41.36-23.65c14.79-12.92,1.63-35.74,1.63-35.74l-37.56,0s-.77,10.47,1.88,17.56c0,0-37.29,13.91-43.79,26.61C552.06,280.31,557.06,342.81,557.06,342.81Z" style="fill:#455a64"></path><path d="M613.5,241a49.52,49.52,0,0,0-10.65-1.26,74.07,74.07,0,0,0-10.84.54.08.08,0,0,0,0,.16c3.58.12,7.17.31,10.75.51s7.13.49,10.69.49A.22.22,0,0,0,613.5,241Z" style="fill:#263238"></path><path d="M638.34,228.69c-.31-1.11-.64-2.22-1-3.32a.11.11,0,0,0-.21.06c2.27,8.21,4.75,17.73.17,25.64-2.1,3.62-5.57,5.91-9.21,7.76-4.17,2.12-8.45,4-12.68,6-4.4,2.09-8.8,4.21-13.2,6.31-2,1-4.09,1.91-6.09,2.94a11.71,11.71,0,0,0-4.31,3.35,11.16,11.16,0,0,0-1.71,5.51c-.24,2.33-.41,4.66-.58,7q-.52,7.27-.7,14.58a270.8,270.8,0,0,0,.86,29.05c.1,1.19.27,1.2.21,0-.18-3.67-.22-7.35-.26-11-.06-4.87,0-9.74.07-14.6s.26-9.73.54-14.59c.14-2.43.3-4.85.48-7.28a26,26,0,0,1,.91-6.52,8.15,8.15,0,0,1,3.89-4.25c1.93-1.11,4-2,6-2.94,4.37-2.07,8.74-4.13,13.11-6.22s8.59-4.06,12.85-6.16c3.56-1.76,7.1-3.82,9.46-7.1C642.09,245.83,640.57,236.53,638.34,228.69Z" style="fill:#263238"></path><path d="M637,236.11a27.08,27.08,0,0,1-5-1.12,7.13,7.13,0,0,1-3.55-1.88c-1.89-2-2.68-4.82-4.15-7.12a.08.08,0,0,0-.14.06,33.75,33.75,0,0,0,1.39,4.73,9.79,9.79,0,0,0,2.08,3.57c2.35,2.44,6.23,2.13,9.33,2.08C637.2,236.43,637.18,236.13,637,236.11Z" style="fill:#263238"></path><path d="M601.23,240.59a163.52,163.52,0,0,0-29.39,14.14,40.62,40.62,0,0,0-10.36,8.5A21.79,21.79,0,0,0,558,269a29.74,29.74,0,0,0-1.69,7.51c-.34,3-.58,6-.75,9-.17,3.18-.13,6.36-.28,9.54,0,.1.15.09.16,0,.1-2.73.46-5.48.74-8.21s.55-5.44.87-8.15c.57-4.86,1.47-9.63,4.4-13.67a35.68,35.68,0,0,1,9.86-8.65c4.18-2.7,8.54-5.16,12.95-7.47,5.23-2.73,11.61-5.65,17-8C601.55,240.85,601.45,240.51,601.23,240.59Z" style="fill:#263238"></path><path d="M592.68,336.39a18.88,18.88,0,0,0-3.27-.25l-3.36-.09-6.85-.15c-4.57-.08-9.13-.14-13.7-.1-2.57,0-5.14.14-7.71.25a.08.08,0,0,0,0,.15c9.13.57,18.26.59,27.4.57l3.74,0a22.34,22.34,0,0,0,3.75-.19A.09.09,0,0,0,592.68,336.39Z" style="fill:#263238"></path><path d="M586,277.15a23.34,23.34,0,0,0-2.78-.24,29.93,29.93,0,0,1-3.12-.41c-.93-.17-1.84-.44-2.77-.58l-.29,0h0c2-.17,4.07-.28,6.11-.37.13,0,.17-.24,0-.26-1.95-.32-3.9-.69-5.84-1.06l-.68-.11c1.57-.12,3.15-.13,4.71-.35a.09.09,0,0,0,0-.18,24.45,24.45,0,0,1-4.89-.71,24.36,24.36,0,0,0-4.7-.82,24,24,0,0,0-4.64,0c-1.63.19-3.25.47-4.87.69-.11,0-.1.19,0,.17a16.59,16.59,0,0,1,4.87.31l2.28.39c-.39,0-.78,0-1.17,0-1,0-2,.11-3,.15-2,.08-4.08.17-6.12.18-.09,0-.11.16,0,.17,2,.25,3.93.53,5.88.88,1,.18,2,.41,3,.52l.34,0c-2,0-4,.54-5.93.43-.11,0-.1.17,0,.18,1.75.2,3.43.83,5.16,1.18-1.05.06-2.09.15-3.13.18-1.83,0-3.65.19-5.48.1-.1,0-.1.17,0,.17a50.58,50.58,0,0,1,5.49.72c1.75.26,3.46.76,5.23.91a50.13,50.13,0,0,0,5.2.23c1.82,0,3.64-.12,5.45-.15a.14.14,0,0,0,0-.28c-1.68-.39-3.35-.82-5-1.16a16.26,16.26,0,0,0,1.71,0c1-.05,1.91-.24,2.86-.33s1.91-.17,2.87-.18a25,25,0,0,0,3.12-.08C586.13,277.37,586.17,277.18,586,277.15Z" style="fill:#f7a9a0"></path><path d="M578.91,269.5c-1.4-.26-2.82-.48-4.22-.77a32,32,0,0,0-4.2-.88,29.26,29.26,0,0,0-4.18.2c-.74,0-1.48.1-2.22.15a21,21,0,0,1-2.22.19c-.11,0-.1.17,0,.17a19.61,19.61,0,0,1,2.27.4l2,.36a40.61,40.61,0,0,0,4.23.72,36.32,36.32,0,0,0,4.17-.25c1.44-.07,2.87-.05,4.31-.05C579,269.74,579,269.52,578.91,269.5Z" style="fill:#f7a9a0"></path><path d="M583.29,267.8a27.28,27.28,0,0,1-4.93-.49c-.82-.15-1.62-.41-2.44-.55s-1.58-.16-2.38-.22a80.71,80.71,0,0,0-9.71.21c-.11,0-.1.17,0,.17,3.29,0,6.54.92,9.78,1.44a17.3,17.3,0,0,0,2.37.24c.8,0,1.6-.12,2.39-.15,1.64-.06,3.29-.22,4.92-.41C583.43,268,583.43,267.8,583.29,267.8Z" style="fill:#f7a9a0"></path><path d="M580.87,281.33c-2.76-.32-5.51-.8-8.26-1.28a25.67,25.67,0,0,0-3.92-.41,36,36,0,0,1-4.4.09.09.09,0,0,0,0,.18,38.36,38.36,0,0,1,4.29,1.06,22.92,22.92,0,0,0,4,.45c2.76.09,5.52.09,8.28,0C581,281.44,580.94,281.33,580.87,281.33Z" style="fill:#f7a9a0"></path><path d="M598,224.13c.18,2.27.31,4.55.59,6.81.13,1.07.23,2.15.44,3.21a2.07,2.07,0,0,0,.57,1.22,2.55,2.55,0,0,0,1.37.46,1.49,1.49,0,0,0,1.85-1.45c.19-2.07-.42-9.26-.43-9.85,0-.12.38-.12.39,0,.56,4.54,1.31,10.33.35,11.32a3,3,0,0,1-3.94.27,2.85,2.85,0,0,1-.87-1.85c-.14-1-.19-2-.26-3-.18-2.37-.38-4.74-.43-7.12C597.66,223.93,598,223.92,598,224.13Z" style="fill:#263238"></path><path d="M602.17,236.56a6.23,6.23,0,0,1,.17.86c.06.29.13.58.2.87s.13.57.21.86.12.57.18.86a.1.1,0,0,1-.2.06,5.7,5.7,0,0,1-.35-.8q-.15-.44-.27-.87c-.07-.28-.14-.57-.2-.86a4.59,4.59,0,0,1-.16-.9C601.76,236.43,602.1,236.36,602.17,236.56Z" style="fill:#263238"></path><path d="M589.36,171.68c-17.61,4.12-46.18.87-52.18-6.51-5.63-6.93-5.82-38.11-.77-52.72,1.1-3.18,24.64,4.37,24,7.91-1.51,8.3-4.18,27-1.59,30.23,2.31,2.84,16.06,6.56,28.82,9.19C603.12,163,596.37,170,589.36,171.68Z" style="fill:#f7a9a0"></path><path d="M539.63,99.33c-3.5,7.6-4.49,17.86-3.77,20.74s20,5.93,22.26,3.84,12.16-18.76,11.21-24S541.9,94.4,539.63,99.33Z" style="fill:#f7a9a0"></path><path d="M581.9,99.67c.09,1-1.07,2-2.59,2.1a2.93,2.93,0,0,1-2.67-1L530.57,106l-.29-3.13,46.24-3.34A3,3,0,0,1,579,98.08C580.49,97.94,581.8,98.65,581.9,99.67Z" style="fill:#37474f"></path><path d="M564.3,98.36s-.33,6.16-.56,8.2c-.2,1.74-.84,5.32-3.87,5.81s-3.11-3.92-3.13-4.23c0,.28-1,5.14-4,5.33s-2.65-4.26-2.61-4.54c-.07.14,2.67-10.17.58-11.65-2.35-1.67-11.54,3.88-11.62,3.88s7.21-23,10.86-23c4.38,0,0,15.16,0,15.16S551.59,90,554,89.8c1.24-.11,2.53,1.79,2.53,1.79a3.64,3.64,0,0,1,3-2.26c1.74-.06,2.76,1.86,2.76,1.86s-.66-16.32,4.58-14.35c3.21,1.2,2.27,18.49,2.41,23C569.33,99.89,566.65,97,564.3,98.36Z" style="fill:#f7a9a0"></path><path d="M562.55,91.46a0,0,0,1,1,.07,0,25.82,25.82,0,0,1,1.16,15.32c0,.16-.32.16-.31,0A52.91,52.91,0,0,0,562.55,91.46Z" style="fill:#263238"></path><path d="M556.57,91.51a.05.05,0,0,1,.1,0,24.13,24.13,0,0,1,.23,16.79c-.07.19-.33.28-.26.06C557.78,104.58,557.62,96.21,556.57,91.51Z" style="fill:#263238"></path><path d="M549.65,108.85c1.84-5.34,1.62-7.68.77-13.2,0-.08.09-.09.12,0a13,13,0,0,1,1.39,5.92,13.82,13.82,0,0,1-2.09,7.37C549.79,109,549.61,109,549.65,108.85Z" style="fill:#263238"></path><path d="M563.74,106.56a13.94,13.94,0,0,1-.79,3,5.84,5.84,0,0,1-1.78,2.66,2.34,2.34,0,0,1-1.64.45,3.25,3.25,0,0,1-1.6-.59,3.43,3.43,0,0,1-1.19-1.61,11.32,11.32,0,0,0,.49-1.26l-.79-.13a4.67,4.67,0,0,0,.3,1.39,9.61,9.61,0,0,1-1,1.7,4.27,4.27,0,0,1-2.92,1.85,3.14,3.14,0,0,1-1.81-.37,2.79,2.79,0,0,1-1.19-1.44,5.19,5.19,0,0,1-.32-1.66,9.11,9.11,0,0,0,1-1.45l-.84-.29a.56.56,0,0,1,.05-.08l1.24-2.41-.4,2.66a5.69,5.69,0,0,0,.19,2.88,1.93,1.93,0,0,0,2,1.25,3.38,3.38,0,0,0,2.3-1.46,9.21,9.21,0,0,0,1.38-2.68l.73-2.16.07,2.27a3.33,3.33,0,0,0,1.07,2.48,2.75,2.75,0,0,0,1.26.55,1.87,1.87,0,0,0,1.31-.31,5.56,5.56,0,0,0,1.81-2.35A17.48,17.48,0,0,0,563.74,106.56Z" style="fill:#263238"></path><path d="M550.48,109.13a9.11,9.11,0,0,1-1,1.45,8.49,8.49,0,0,1,.12-1.74Z" style="fill:#263238"></path><path d="M557.23,109.24a11.32,11.32,0,0,1-.49,1.26,4.67,4.67,0,0,1-.3-1.39Z" style="fill:#263238"></path><path d="M559.83,121.37s17.42-13.8,8.68-18c-2.59-1.24-14.72-3.22-15.17-.8-.57,3.14,4.34,4.91,7.6,5.54,0,0-6.59,3.86-5.27,9.24A5.51,5.51,0,0,0,559.83,121.37Z" style="fill:#f7a9a0"></path><path d="M569.22,103.8a11.19,11.19,0,0,0-3.1-1.37,24.87,24.87,0,0,0-3.31-.78A38.27,38.27,0,0,0,556,101a6,6,0,0,0-1.79.25,2.45,2.45,0,0,0-.9.5,1.63,1.63,0,0,0-.36.44,1.91,1.91,0,0,0-.18.54,2.85,2.85,0,0,0,.37,1.94,5.36,5.36,0,0,0,1.25,1.38,10.27,10.27,0,0,0,3.12,1.6,22.87,22.87,0,0,0,3.33.84l-.12-.73a14.07,14.07,0,0,0-2,1.6,12.2,12.2,0,0,0-1.71,1.95,8.75,8.75,0,0,0-1.15,2.31,6.79,6.79,0,0,0-.33,2.52,7.78,7.78,0,0,1,.58-2.43,9.44,9.44,0,0,1,1.3-2.1,11.52,11.52,0,0,1,1.73-1.76,12.37,12.37,0,0,1,2-1.4L562,108l-1-.24a24.16,24.16,0,0,1-3.18-.91,10,10,0,0,1-2.84-1.49,2.79,2.79,0,0,1-1.28-2.41c.08-.76,1.3-1,2.35-1a30.73,30.73,0,0,1,3.32,0c1.12.06,2.24.13,3.35.26A21.39,21.39,0,0,1,569.22,103.8Z" style="fill:#263238"></path><path d="M582.17,230.39c1,.89,60.28-3.38,60.54-3.77.71-1.06-20.41-56.84-33.85-66.74-6.9-5.08-16.35-2.27-18.78,1.45-1,1.49-3.68,7.8-5.14,14.5C582,189.23,581.31,229.62,582.17,230.39Z" style="fill:#263238"></path><circle cx="595.05" cy="183.75" r="8.57" transform="translate(279.97 720.93) rotate(-76.77)" style="fill:#455a64"></circle><polygon points="594.51 176.29 596.67 180.67 601.51 181.37 598.01 184.78 598.84 189.59 594.51 187.32 590.19 189.59 591.02 184.78 587.52 181.37 592.35 180.67 594.51 176.29" style="fill:#263238"></polygon><path d="M591.81,159.8c-2.77,2.26-5.22,12,.94,13.35S605.48,166.59,606,161C606.38,156.75,597.06,155.49,591.81,159.8Z" style="fill:#f7a9a0"></path><path d="M593.45,168.42c3.08,1,8.87-3.33,11.33-7a63.74,63.74,0,0,0,0-6.57c0-2.1,0-4.44.19-6.58l-13.67,2.12a34.06,34.06,0,0,1,.6,8.31,4.63,4.63,0,0,1-.16.87.57.57,0,0,0,0,.15C591.24,161.32,590.48,167.45,593.45,168.42Z" style="fill:#f7a9a0"></path><path d="M591.25,150.35a34.11,34.11,0,0,1,.6,8.32,4.68,4.68,0,0,1-.16.86.58.58,0,0,0,0,.14,6.2,6.2,0,0,0,1.37.19c7.81.49,10.82-9,11.49-11.57Z" style="fill:#263238"></path><path d="M607,131.1c1.4,4.78-1.28,18.52-4.71,21.55-5,4.39-13,4.72-16.73-1.23-3.59-5.77.22-23.61,4-26.35C595.21,121,604.92,124,607,131.1Z" style="fill:#f7a9a0"></path><path d="M603.77,152h0" style="fill:none;stroke:#f5a79e;stroke-linecap:round;stroke-linejoin:round;stroke-width:0px"></path><path d="M587.11,130.22c4.07,3.91,11.14.2,11.14.2a5.06,5.06,0,0,0,4.54,4s-.39,7.92,1.66,8.24c3.12.5,5.85-9.93,5.21-12.18a5.68,5.68,0,0,0-3.2-3.22,5.14,5.14,0,0,0-1.61-3.44c-1.86-2-9.58-1-9.58-1a7,7,0,0,0-1.46-2.86,2,2,0,0,0-2.82-.21,4.79,4.79,0,0,1,.43,2c0,2.34-1.87,2-1.51,0a3.26,3.26,0,0,1,1.08-2c-.69-1.5-2.12-2.18-3.15-1.61C586,119.16,583.73,127,587.11,130.22Z" style="fill:#263238"></path><path d="M593.12,139.53s.07.05.06.09c-.23.91-.34,2,.42,2.47a0,0,0,0,1,0,0C592.61,141.78,592.76,140.35,593.12,139.53Z" style="fill:#263238"></path><path d="M594.15,138.75c1.49.2,1,3.18-.42,3S592.89,138.57,594.15,138.75Z" style="fill:#263238"></path><path d="M587.71,138.56s-.08,0-.09.07c-.13.93-.44,2-1.33,2.13,0,0,0,.05,0,.05C587.34,140.84,587.73,139.46,587.71,138.56Z" style="fill:#263238"></path><path d="M587.06,137.45c-1.47-.37-2.11,2.58-.75,2.93S588.28,137.77,587.06,137.45Z" style="fill:#263238"></path><path d="M595.58,136.31c-.42.08-.82.09-1.24.13a1.94,1.94,0,0,1-1.28-.1.64.64,0,0,1-.24-.74,1.58,1.58,0,0,1,1.37-.84,2.26,2.26,0,0,1,1.64.33A.68.68,0,0,1,595.58,136.31Z" style="fill:#263238"></path><path d="M585.45,136.07a11.61,11.61,0,0,0,1.17.42,2,2,0,0,0,1.27.19.64.64,0,0,0,.41-.66,1.57,1.57,0,0,0-1.14-1.13,2.32,2.32,0,0,0-1.68-.06A.68.68,0,0,0,585.45,136.07Z" style="fill:#263238"></path><path d="M592.66,147.84c-.22.23-.43.53-.77.57a2.51,2.51,0,0,1-1-.22s-.06,0,0,.05a1.25,1.25,0,0,0,1.19.49,1,1,0,0,0,.72-.85S592.7,147.81,592.66,147.84Z" style="fill:#263238"></path><path d="M592,145a3.21,3.21,0,0,1-2.34,1,4.41,4.41,0,0,1-1.14-.15l-.41-.13a.25.25,0,0,1-.15-.24h0s.41-2,.41-2c-.28.09-1.71.45-1.62.08a47.81,47.81,0,0,1,2.89-9.29.09.09,0,0,1,.16.06c-.58,2.94-1.67,5.77-2.3,8.72a5.93,5.93,0,0,1,1.56-.19c.05,0-.56,2.39-.56,2.42a4.42,4.42,0,0,0,3.43-.44C592,144.85,592,144.92,592,145Z" style="fill:#263238"></path><path d="M603.36,143.11s3.25-4.35,5.23-3.18-.56,7.56-3,8.36a2.42,2.42,0,0,1-3.19-1.4Z" style="fill:#f7a9a0"></path><path d="M607.82,141.74s0,.06,0,.07a6.09,6.09,0,0,0-3.27,3.71,1.33,1.33,0,0,1,2-.3s0,.1,0,.09a1.48,1.48,0,0,0-1.65.46,7.92,7.92,0,0,0-.82,1.3c-.08.14-.35.06-.29-.11l0,0C603.79,144.8,605.54,141.89,607.82,141.74Z" style="fill:#263238"></path><path d="M607.94,160.68c-5.45,2.7,8.48,28.56,17,27.36S613.07,158.13,607.94,160.68Z" style="fill:#f7a9a0"></path><path d="M570.3,158.6c.93-.41,2.2.39,2.81,1.78a2.94,2.94,0,0,1,0,2.84l19.58,42-2.88,1.27-17.93-42.74a2.93,2.93,0,0,1-2.11-1.88C569.11,160.49,569.36,159,570.3,158.6Z" style="fill:#37474f"></path><path d="M621,165.47c19.82,13.13,44,38.07,38.13,46.12-5.38,7.36-35.75,6.53-53,4.41-3.27-.4,3.25-27,6.69-26.2,6,1.39,13.55.92,14,.93.92,0-6.76-9.48-15.11-20.57C602.38,157.78,609.62,158,621,165.47Z" style="fill:#f7a9a0"></path><path d="M578.3,183.48a4.12,4.12,0,0,0,.33,4.68,6,6,0,0,0-2.93,2.93c-1,2.32,2.25,4.84,2.25,4.84a7.45,7.45,0,0,0-2.59,3.58c-.7,2.31,2.18,5.32,2.18,5.32a6.59,6.59,0,0,0-.3,4.58c1.38,4,7.67,5.47,11.66,6.44s16.23,0,18.58,0l6.43-25.57s-16.66-9.44-21.52-9.91C588.3,180,580.05,180.79,578.3,183.48Z" style="fill:#f7a9a0"></path><path d="M578.91,187.79c4.45-.62,8.84.11,13.26.59.1,0,.08.17,0,.15-4.4-.52-8.84-.17-13.25-.52C578.79,188,578.79,187.81,578.91,187.79Z" style="fill:#263238"></path><path d="M578.12,195.61a12,12,0,0,1,3,.27c1.07.18,2.14.36,3.21.57,2.13.41,4.26.87,6.37,1.4.09,0,.08.17,0,.15q-3.19-.62-6.4-1.1c-1.08-.16-2.15-.31-3.23-.45a14,14,0,0,1-3-.54A.16.16,0,0,1,578.12,195.61Z" style="fill:#263238"></path><path d="M577.64,204.84a8.24,8.24,0,0,1,2.73.39l2.91.61c1.94.39,3.88.79,5.83,1.11a.08.08,0,0,1,0,.16c-2-.33-4-.62-6-1l-2.92-.51a7.78,7.78,0,0,1-2.6-.7A.06.06,0,0,1,577.64,204.84Z" style="fill:#263238"></path><rect x="426.78" y="178.5" width="2.6" height="5.8" transform="translate(-8.63 21.89) rotate(-2.9)" style="fill:#c7c7c7"></rect><path d="M470.92,193.84c.36,7-18.2,13.65-41.46,14.83s-42.38-3.55-42.74-10.56,18.14-14.89,41.4-16.07S470.57,186.83,470.92,193.84Z" style="fill:#FFC727"></path><path d="M470.92,193.84c.36,7-18.2,13.65-41.46,14.83s-42.38-3.55-42.74-10.56,18.14-14.89,41.4-16.07S470.57,186.83,470.92,193.84Z" style="opacity:0.1"></path><ellipse cx="428.7" cy="203.3" rx="12.71" ry="42.15" transform="translate(191.82 614.4) rotate(-85.42)" style="fill:#FFC727"></ellipse><polygon points="430.58 376.39 426.82 376.39 426.82 207.67 428.7 206.96 430.58 207.67 430.58 376.39" style="fill:#c7c7c7"></polygon><polygon points="432.75 380.95 424.65 380.95 425.89 375.08 431.51 375.08 432.75 380.95" style="fill:#263238"></polygon><path d="M433.37,254.75a4.67,4.67,0,1,1-4.67-4.7A4.68,4.68,0,0,1,433.37,254.75Z" style="fill:#263238"></path><polygon points="388.57 364.71 385.59 362.48 427.09 306.4 430.07 308.63 388.57 364.71" style="fill:#c7c7c7"></polygon><polygon points="389.65 367.84 381.55 367.84 385.27 361.97 390.89 361.97 389.65 367.84" style="fill:#263238"></polygon><polygon points="468.83 364.71 471.81 362.48 430.31 306.4 427.33 308.63 468.83 364.71" style="fill:#c7c7c7"></polygon><polygon points="467.75 367.84 475.85 367.84 472.13 361.97 466.51 361.97 467.75 367.84" style="fill:#263238"></polygon><path d="M573.4,306.52l-.83-56.82s11.54-9.37,43.55-9.37,41.8,7.91,41.8,7.91l.93,58.28Z" style="fill:#FFC727"></path><path d="M573.4,306.52l-.83-56.82s11.54-9.37,43.55-9.37,41.8,7.91,41.8,7.91l.93,58.28Z" style="opacity:0.1"></path><ellipse cx="616.12" cy="306.52" rx="42.72" ry="10.2" style="fill:#dbdbdb"></ellipse><path d="M571.74,252.47l-1.13-6.39c.65-.35,14.61-7.69,45.39-8.88,30.4-1.17,43.72,6.71,44.37,7.1l-.71,6.64c-.14-.09-15-8.57-43.42-7.48C587.05,244.58,571.89,252.39,571.74,252.47Z" style="fill:#a6a6a6"></path><path d="M573.46,307.05l-1.31-7.12c.66-.35,13.07-7,43.85-8.14,30.4-1.17,42.81,7.18,43.47,7.57l-.62,7.16c-.15-.08-14.2-9.57-42.61-8.47C587.05,299.17,573.61,307,573.46,307.05Z" style="fill:#a6a6a6"></path><rect x="590.28" y="244.7" width="1.67" height="52.25" style="fill:#a6a6a6"></rect><path d="M593.43,245.12a2.32,2.32,0,1,1-2.32-2.31A2.32,2.32,0,0,1,593.43,245.12Z" style="fill:#c7c7c7"></path><path d="M593.43,295.8a2.32,2.32,0,1,1-2.32-2.31A2.31,2.31,0,0,1,593.43,295.8Z" style="fill:#c7c7c7"></path><rect x="640.63" y="242.81" width="1.67" height="52.25" style="fill:#a6a6a6"></rect><path d="M643.77,244.39a2.31,2.31,0,1,1-2.31-2.31A2.31,2.31,0,0,1,643.77,244.39Z" style="fill:#c7c7c7"></path><path d="M643.77,295.07a2.31,2.31,0,1,1-2.31-2.31A2.3,2.3,0,0,1,643.77,295.07Z" style="fill:#c7c7c7"></path><path d="M654.28,286.11a5.13,5.13,0,1,1-5.13-5.12A5.13,5.13,0,0,1,654.28,286.11Z" style="fill:#c7c7c7"></path><rect x="647.05" y="286.11" width="4.21" height="92.51" style="fill:#c7c7c7"></rect><polygon points="653.69 383.69 644.61 383.69 646 377.16 652.3 377.16 653.69 383.69" style="fill:#263238"></polygon><path d="M586.68,286.11a5.13,5.13,0,1,1-5.13-5.12A5.13,5.13,0,0,1,586.68,286.11Z" style="fill:#c7c7c7"></path><rect x="579.45" y="286.11" width="4.21" height="92.51" style="fill:#c7c7c7"></rect><polygon points="586.09 383.69 577.01 383.69 578.4 377.16 584.7 377.16 586.09 383.69" style="fill:#263238"></polygon><path d="M451,248.59l-.56-38.47s7.81-6.34,29.49-6.34,28.29,5.35,28.29,5.35l.63,39.46Z" style="fill:#FFC727"></path><path d="M508.81,248.59c0,3.81-12.95,6.9-28.92,6.9S451,252.4,451,248.59s13-6.91,28.93-6.91S508.81,244.77,508.81,248.59Z" style="fill:#dbdbdb"></path><path d="M449.84,212l-.77-4.32c.45-.24,9.9-5.21,30.73-6,20.58-.79,29.6,4.54,30,4.8l-.48,4.5c-.1-.06-10.16-5.8-29.39-5.06C460.2,206.65,449.94,211.94,449.84,212Z" style="fill:#a6a6a6"></path><path d="M451,249l-.88-4.82c.44-.24,8.85-4.71,29.68-5.51,20.58-.8,29,4.86,29.43,5.12l-.42,4.85c-.1-.06-9.61-6.48-28.84-5.74C460.2,243.61,451.1,248.89,451,249Z" style="fill:#a6a6a6"></path><rect x="479.32" y="203.78" width="1.13" height="35.37" style="fill:#a6a6a6"></rect><circle cx="479.89" cy="204.74" r="1.56" style="fill:#c7c7c7"></circle><path d="M481.45,239.15a1.57,1.57,0,1,1-1.56-1.56A1.56,1.56,0,0,1,481.45,239.15Z" style="fill:#c7c7c7"></path><rect x="457.31" y="207.58" width="1.13" height="35.37" style="fill:#a6a6a6"></rect><circle cx="457.87" cy="207.87" r="1.56" style="fill:#c7c7c7"></circle><circle cx="457.87" cy="242.18" r="1.56" style="fill:#c7c7c7"></circle><rect x="501.56" y="206.31" width="1.13" height="35.37" style="fill:#a6a6a6"></rect><circle cx="502.12" cy="207.37" r="1.56" style="fill:#c7c7c7"></circle><circle cx="502.12" cy="241.68" r="1.56" style="fill:#c7c7c7"></circle><path d="M464.39,230.07a5.13,5.13,0,1,1-5.12-5.12A5.13,5.13,0,0,1,464.39,230.07Z" style="fill:#c7c7c7"></path><rect x="457.16" y="230.07" width="4.21" height="148.08" style="fill:#c7c7c7"></rect><polygon points="463.8 383.23 454.73 383.23 456.12 376.69 462.42 376.69 463.8 383.23" style="fill:#263238"></polygon><path d="M505.63,230.07a5.13,5.13,0,1,1-5.12-5.12A5.13,5.13,0,0,1,505.63,230.07Z" style="fill:#c7c7c7"></path><rect x="498.4" y="230.07" width="4.21" height="148.08" style="fill:#c7c7c7"></rect><polygon points="505.04 383.23 495.97 383.23 497.36 376.69 503.65 376.69 505.04 383.23" style="fill:#263238"></polygon><circle cx="468.29" cy="306.46" r="5.12" style="fill:#c7c7c7"></circle><rect x="466.18" y="306.46" width="4.21" height="71.69" style="fill:#c7c7c7"></rect><polygon points="472.82 383.23 463.75 383.23 465.13 376.69 471.44 376.69 472.82 383.23" style="fill:#263238"></polygon><path d="M494.54,240.29l53.94,6.23s44.67,23.14,41.71,64.31S547.41,369.5,545.79,369s-56,3.77-56,3.77Z" style="fill:#FFC727"></path><ellipse cx="489.82" cy="306.39" rx="55.97" ry="66.34" style="fill:#dbdbdb"></ellipse><path d="M502.07,372.06h-5.51c21.41-4.25,44.75-26,46-65.77,1.23-39.31-27.18-63.59-48-66h4.51c23.29,2.69,51.34,22.79,50,66.21S525.93,367.33,502.07,372.06Z" style="fill:#a6a6a6"></path><rect x="567.82" y="287.99" width="2.15" height="38.41" transform="translate(261.69 876.09) rotate(-90)" style="fill:#a6a6a6"></rect><circle cx="551.53" cy="307.2" r="2.99" style="fill:#c7c7c7"></circle><circle cx="588.1" cy="307.2" r="2.99" style="fill:#c7c7c7"></circle><rect x="550.85" y="246.83" width="2.15" height="30.32" transform="translate(289.94 813.92) rotate(-90)" style="fill:#a6a6a6"></rect><circle cx="538.61" cy="261.99" r="2.99" style="fill:#c7c7c7"></circle><circle cx="567.09" cy="261.99" r="2.99" style="fill:#c7c7c7"></circle><rect x="543.08" y="344.65" width="2.15" height="30.32" transform="translate(184.34 903.96) rotate(-90)" style="fill:#a6a6a6"></rect><path d="M530.83,356.83a3,3,0,1,1-3,3A3,3,0,0,1,530.83,356.83Z" style="fill:#c7c7c7"></path><path d="M559.31,356.83a3,3,0,1,1-3,3A3,3,0,0,1,559.31,356.83Z" style="fill:#c7c7c7"></path><path d="M566.64,306.46a5.13,5.13,0,1,1-5.12-5.12A5.13,5.13,0,0,1,566.64,306.46Z" style="fill:#c7c7c7"></path><rect x="559.42" y="306.46" width="4.21" height="71.69" style="fill:#c7c7c7"></rect><polygon points="566.06 383.23 556.98 383.23 558.37 376.69 564.67 376.69 566.06 383.23" style="fill:#263238"></polygon><rect x="614.39" y="181.45" width="2.91" height="6.46" style="fill:#c7c7c7"></rect><path d="M663.07,200.93c0,7.82-21.15,14.15-47.23,14.15s-47.22-6.33-47.22-14.15,21.14-15.54,47.22-15.54S663.07,193.12,663.07,200.93Z" style="fill:#FFC727"></path><path d="M663.07,200.93c0,7.82-21.15,14.15-47.23,14.15s-47.22-6.33-47.22-14.15,21.14-15.54,47.22-15.54S663.07,193.12,663.07,200.93Z" style="opacity:0.1"></path><ellipse cx="615.84" cy="205.32" rx="47.22" ry="14.15" style="fill:#FFC727"></ellipse><polygon points="617.95 394.67 613.74 394.67 613.74 206.79 615.84 206 617.95 206.79 617.95 394.67" style="fill:#c7c7c7"></polygon><polygon points="620.38 399.75 611.3 399.75 612.69 393.21 618.99 393.21 620.38 399.75" style="fill:#263238"></polygon><circle cx="615.84" cy="259.21" r="5.23" style="fill:#263238"></circle><rect x="553.53" y="347.12" width="77.86" height="4.16" transform="translate(-41.41 615.96) rotate(-53.34)" style="fill:#c7c7c7"></rect><polygon points="572.1 385.16 563.02 385.16 567.19 378.62 573.49 378.62 572.1 385.16" style="fill:#263238"></polygon><rect x="637.14" y="310.27" width="4.16" height="77.86" transform="translate(-82.05 450.76) rotate(-36.66)" style="fill:#c7c7c7"></rect><polygon points="659.59 385.16 668.66 385.16 664.5 378.62 658.2 378.62 659.59 385.16" style="fill:#263238"></polygon></g><g id="freepik--character-2--inject-84"><path d="M429.52,391.85l-37.12.06s7.2-73.13,6.88-74.79c-.16-.86-14.82-20.64-24.34-34.78-5.32-7.92-11.11-16.47-16.26-24.07-8.51-12.54-15.28-22.44-15.28-22.44H387s5.87,7.09,13.56,17.12c10.89,14.2,28.87,38.24,35.53,52.46C441.28,316.45,429.52,391.85,429.52,391.85Z" style="fill:#ad6359"></path><path d="M453.54,423.38c-2,.65-58.75-.09-60.89-1.49-.83-.52-1.2-8.8-1.37-18.81v-.31c0-2.07,3.41-36.68,3.41-36.68l38.4.39-5.18,36.35,0,.62s21.6,10,23.8,11.79S455.53,422.75,453.54,423.38Z" style="fill:#263238"></path><path d="M453.54,423.38c-1,.33-16.44.29-31.51,0-3-.06-6-.13-8.92-.21-10.75-.29-21.5-.74-22.32-1.27s-.63-10.51.51-18.39a3,3,0,0,0,0-.42c0-.1,0-.22,0-.32h0l36.58.07v.62s21.6,10,23.79,11.79S455.53,422.75,453.54,423.38Z" style="fill:#263238"></path><path d="M452.93,421.17c-9.57-.35-48.18-.9-57.66-.53-.08,0-.08.06,0,.06,9.47.57,48.08.8,57.65.63C453.13,421.33,453.13,421.18,452.93,421.17Z" style="fill:#263238"></path><path d="M433.28,373.28c-3.52-1.52-8.14-2-11.53,0-.13.07,0,.26.1.25a52.16,52.16,0,0,1,11.31.19A.24.24,0,0,0,433.28,373.28Z" style="fill:#FFC727"></path><path d="M432.75,376.49c-3.52-1.51-8.14-2-11.54,0-.13.08,0,.26.11.25a53.47,53.47,0,0,1,11.31.19A.24.24,0,0,0,432.75,376.49Z" style="fill:#FFC727"></path><path d="M432.21,379.71c-3.52-1.52-8.14-2-11.53,0-.14.07,0,.26.1.25a52.17,52.17,0,0,1,11.31.19A.24.24,0,0,0,432.21,379.71Z" style="fill:#FFC727"></path><path d="M431.67,382.92c-3.51-1.51-8.13-2-11.53,0-.13.08,0,.26.11.25a53.47,53.47,0,0,1,11.31.19A.24.24,0,0,0,431.67,382.92Z" style="fill:#FFC727"></path><path d="M431.14,386.14c-3.52-1.52-8.14-2-11.54,0-.13.08,0,.27.11.26a52.17,52.17,0,0,1,11.31.19A.24.24,0,0,0,431.14,386.14Z" style="fill:#FFC727"></path><path d="M430.6,389.35c-3.52-1.51-8.13-2-11.53,0-.13.08,0,.26.1.25a53.45,53.45,0,0,1,11.31.19A.24.24,0,0,0,430.6,389.35Z" style="fill:#FFC727"></path><path d="M430.07,392.57c-3.52-1.52-8.14-2-11.54,0-.13.08,0,.27.11.26A52.17,52.17,0,0,1,430,393,.24.24,0,0,0,430.07,392.57Z" style="fill:#FFC727"></path><path d="M429.53,395.78c-3.52-1.51-8.14-2-11.53,0-.14.08,0,.26.1.25a53.47,53.47,0,0,1,11.31.19A.24.24,0,0,0,429.53,395.78Z" style="fill:#FFC727"></path><polygon points="373.54 285.61 417.98 274.1 387.02 235.83 343.4 235.83 373.54 285.61" style="fill:#263238"></polygon><path d="M377.73,287.53a9.36,9.36,0,0,1-1.92-1.1,2.47,2.47,0,0,1-.65-.68,3,3,0,0,1-.29-.94c-.35-1.59-1.12-3.08-1.36-4.7a.08.08,0,1,0-.16,0c.39,1.77.13,3.61.49,5.39a1.91,1.91,0,0,0,1.41,1.47c.79.28,1.59.52,2.4.76C377.77,287.79,377.86,287.59,377.73,287.53Z" style="fill:#263238"></path><path d="M382,286.23a4.71,4.71,0,0,0-1.75-2.14,8.08,8.08,0,0,1-2.32-1.49,3.14,3.14,0,0,1-.61-2.62c0-.09-.13-.13-.16,0a5.28,5.28,0,0,0-.31,1.23,4.46,4.46,0,0,0,.13,1.26,3.58,3.58,0,0,0,1.48,2.2c.8.56,1.69,1,2.45,1.63a5.47,5.47,0,0,1,1.57,2.55.13.13,0,0,0,.26,0A6.57,6.57,0,0,0,382,286.23Z" style="fill:#263238"></path><path d="M382.92,282.76c-.35-.49-.73-1-1.08-1.46a2.49,2.49,0,0,1-.61-2.14c0-.09-.12-.13-.15,0a5.21,5.21,0,0,0,.54,3.72c.26.56.52,1.13.83,1.66a4.43,4.43,0,0,1,.7,1.64.24.24,0,0,0,.48.05A4,4,0,0,0,382.92,282.76Z" style="fill:#263238"></path><path d="M388.18,283.93a5.81,5.81,0,0,0-1.24-1.79,6.35,6.35,0,0,1-1.23-1.73,2.62,2.62,0,0,1,0-2.3c0-.09-.09-.16-.14-.08a4.14,4.14,0,0,0-.7,1.88,4.64,4.64,0,0,0,.4,2.23,7.37,7.37,0,0,0,1.38,1.86,5.59,5.59,0,0,1,.69.77,3.36,3.36,0,0,1,.37,1.35c0,.26.46.36.51.05A4.59,4.59,0,0,0,388.18,283.93Z" style="fill:#263238"></path><path d="M390.88,284.33c-1-.27-1-1.67-.95-2.47a9.77,9.77,0,0,0,0-1.95,2.58,2.58,0,0,0-.22-.91c-.11-.22-.46-.64-.15-.86.08-.06,0-.19-.08-.13-.47.28-.38,1-.38,1.46,0,.86-.32,1.68-.32,2.54a2.55,2.55,0,0,0,2,2.71A.2.2,0,0,0,390.88,284.33Z" style="fill:#263238"></path><path d="M394.18,281.23a2.18,2.18,0,0,0-.24-1.64c-.34-.47-.89-.68-1.2-1.17a4.58,4.58,0,0,1-.36-.78c-.08-.22-.27-.55.06-.64.1,0,.05-.17-.05-.15-.43.09-.59.67-.55,1a3.23,3.23,0,0,0,.8,1.88,1.13,1.13,0,0,1,.35.65c0,.24,0,.59.06.87s.06.57.12.85a2.24,2.24,0,0,0,.39.77.28.28,0,0,0,.48-.3,1.21,1.21,0,0,1,0-.68C394,281.69,394.14,281.47,394.18,281.23Z" style="fill:#263238"></path><path d="M398.06,281.49c-.55-.06-.84-.51-1.12-.92a9.62,9.62,0,0,1-.68-1.41,4.16,4.16,0,0,1-.32-3.18c0-.08-.11-.14-.15-.06a5.56,5.56,0,0,0-.57,3.79,2.94,2.94,0,0,0,2.85,2.17C398.33,281.87,398.3,281.51,398.06,281.49Z" style="fill:#263238"></path><path d="M404.25,275.7c-.35-.54-.68-1.1-1.08-1.61a.08.08,0,0,0-.14.07c.1.55.25,1.09.4,1.63a4.6,4.6,0,0,1,.35,1.53c0,.53-.21,1-.24,1.58,0,.27,0,.54-.06.81s0,.64,0,1c0,.15.21.29.28.11s.32-.59.46-.89.24-.53.37-.8a3.72,3.72,0,0,0,.44-1.75A3.79,3.79,0,0,0,404.25,275.7Z" style="fill:#263238"></path><path d="M410.58,278.32a4,4,0,0,1-1.26-.69,5.32,5.32,0,0,1-.9-1.05c-.14-.22-.25-.45-.39-.66a2.29,2.29,0,0,1-.31-.65,2.87,2.87,0,0,1-.08-1.64c0-.08-.11-.14-.14-.06-.11.28-.21.56-.29.84a3.71,3.71,0,0,0-.1.88,4,4,0,0,0,.07.92,2.23,2.23,0,0,0,.39.89,3.49,3.49,0,0,0,3,1.39A.09.09,0,0,0,410.58,278.32Z" style="fill:#263238"></path><path d="M412.15,278.19a1.39,1.39,0,0,1-.63-1.07,12.49,12.49,0,0,0-.15-1.5,3.3,3.3,0,0,0-.71-1.3c-.27-.35-.59-.92-.22-1.32.07-.07,0-.17-.11-.1a1.28,1.28,0,0,0-.34,1.19,8.21,8.21,0,0,0,.27.84,6.56,6.56,0,0,1,.19.88,3.69,3.69,0,0,0,.53,1.68,3.75,3.75,0,0,0,.47.57,1.51,1.51,0,0,0,.63.32A.1.1,0,0,0,412.15,278.19Z" style="fill:#263238"></path><path d="M414.57,276.49a3.13,3.13,0,0,0-.16-.62,4.25,4.25,0,0,0-.63-1.12,12.45,12.45,0,0,0-.81-1c-.27-.29-.67-.63-.55-1.08,0-.09-.11-.12-.15,0-.32.83.29,1.57.64,2.29.19.39.38.79.58,1.18a4.73,4.73,0,0,0,.35.56l.19.24a3,3,0,0,0,.26.24c.1.11.25,0,.26-.12a2.5,2.5,0,0,0,.05-.29Z" style="fill:#263238"></path><path d="M418,274.36a3.7,3.7,0,0,0-1.15-1,13.67,13.67,0,0,1-1.21-.76,5.17,5.17,0,0,0-1.09-.78c-.09,0-.17.1-.08.14a2.25,2.25,0,0,1,.84.94,4.32,4.32,0,0,0,.91,1,10.12,10.12,0,0,1,1,.82,4.2,4.2,0,0,1,.41.44,1.57,1.57,0,0,1,.25.58c0,.15.24.12.27,0A1.89,1.89,0,0,0,418,274.36Z" style="fill:#263238"></path><path d="M416.55,276.12a2.9,2.9,0,0,1-.25-.36l-.22-.35c-.17-.25-.36-.49-.55-.73a4.12,4.12,0,0,0-.28-.31l-.34-.28a7.31,7.31,0,0,1-.64-.6c-.08-.09-.21,0-.16.13s.28.5.4.76.13.27.21.39a2.72,2.72,0,0,0,.29.38,4.93,4.93,0,0,0,.61.6l.34.26a3.37,3.37,0,0,1,.37.29C416.45,276.4,416.66,276.25,416.55,276.12Z" style="fill:#263238"></path><path d="M398.91,280.05a3.79,3.79,0,0,0-.35-1.22c-.16-.38-.39-.73-.57-1.1a5.72,5.72,0,0,1-.24-.57,1.61,1.61,0,0,1-.16-.67.08.08,0,1,0-.16,0c0,.21-.1.39-.11.59a3.08,3.08,0,0,0,0,.61,6.35,6.35,0,0,0,.28,1.22,9.74,9.74,0,0,0,.52,1.14,3.08,3.08,0,0,1,.44,1.17.13.13,0,0,0,.26,0A4.55,4.55,0,0,0,398.91,280.05Z" style="fill:#263238"></path><path d="M401.86,280.06c0-.18,0-.35,0-.52,0-.4,0-.78-.06-1.18s-.11-.75-.16-1.12a5.87,5.87,0,0,1-.09-1.18c0-.09-.14-.11-.15,0-.07.39-.19.78-.27,1.18a5,5,0,0,0-.11,1.16,5.27,5.27,0,0,0,.18,1.18c.05.18.1.38.17.56a6,6,0,0,1,.26.58c.05.13.28.11.26,0A4,4,0,0,1,401.86,280.06Z" style="fill:#263238"></path><path d="M378.43,282.66c-3.39-5.92-7-11.72-10.67-17.48s-7.31-11.34-11-17c-2.12-3.19-4.31-6.35-6.37-9.57-.05-.09-.18,0-.13.08,3.67,5.75,7.06,11.69,10.69,17.47s7.18,11.42,10.93,17c2.12,3.19,4.22,6.39,6.44,9.52A.09.09,0,0,0,378.43,282.66Z" style="fill:#455a64"></path><polygon points="388.16 237.24 377.67 284.53 373.54 285.6 343.4 235.83 387.02 235.83 388.16 237.24" style="fill:#37474f"></polygon><path d="M387,235.83s-5.23,31.86-5.58,32.88c0,0-.36.57-3.87,2.19L359.56,416H323.24l19.18-180.21Z" style="fill:#ad6359"></path><polygon points="342.42 235.83 387.02 235.83 381.62 268.72 377.57 270.9 376.23 291.03 333.36 291.82 342.42 235.83" style="fill:#263238"></polygon><path d="M334.38,290.53a8,8,0,0,0,.66-3.63.08.08,0,0,0-.15,0c.07,1.47-.82,2.62-1.51,3.83a3.87,3.87,0,0,0-.47,1.92,5.58,5.58,0,0,0,.82,2.22c.09.17.31,0,.29-.13a10,10,0,0,1-.19-1.24,8.29,8.29,0,0,1,.08-1.11A11.35,11.35,0,0,1,334.38,290.53Z" style="fill:#263238"></path><path d="M376.31,290.29a10.08,10.08,0,0,0-1.56-3.19c-.06-.08-.19,0-.14.08a6.53,6.53,0,0,1,.79,3.21c0,.54,0,1.08.05,1.62a7,7,0,0,1,0,1.65c0,.18.24.31.31.12a8.52,8.52,0,0,0,.6-1.62A4.22,4.22,0,0,0,376.31,290.29Z" style="fill:#263238"></path><path d="M337.21,288.14a.08.08,0,0,0-.11-.11,6.32,6.32,0,0,0-1.17,1.14,3.83,3.83,0,0,0-.66,1.52c-.25,1.33.48,2.42.86,3.63.06.19.4.22.43,0a24.63,24.63,0,0,0-.21-3.31,5.43,5.43,0,0,1,.17-1.45A3.11,3.11,0,0,1,337.21,288.14Z" style="fill:#263238"></path><path d="M338.84,290.1a5.65,5.65,0,0,1-.23-.57,1.86,1.86,0,0,0-.13-.54.08.08,0,0,0-.11,0c-.26.18-.23.68-.22,1s.12.82.1,1.23a10.62,10.62,0,0,1-.29,1.36c-.09.48-.15,1-.28,1.45,0,.17.23.28.3.11a9.36,9.36,0,0,0,1.12-2.7A2.81,2.81,0,0,0,338.84,290.1Z" style="fill:#263238"></path><path d="M351.12,291.19a6.83,6.83,0,0,1-.08-1.43,3.64,3.64,0,0,1,.28-1.5c.05-.09-.08-.16-.14-.08-.16.24-.37.43-.52.67a3.27,3.27,0,0,0-.35.73,3.94,3.94,0,0,0-.23,1.6,7,7,0,0,0,1.28,3.12.14.14,0,0,0,.26-.11C351.39,293.19,351.28,292.19,351.12,291.19Z" style="fill:#263238"></path><path d="M353,288.39a.08.08,0,0,0-.15,0,6.29,6.29,0,0,1,0,2.83c-.09.45-.19.9-.28,1.36a7.75,7.75,0,0,1-.46,1.33c-.08.18.15.41.3.23a5.22,5.22,0,0,0,1.17-2.8A7.35,7.35,0,0,0,353,288.39Z" style="fill:#263238"></path><path d="M341.64,288a6.5,6.5,0,0,0-1,1.52,6.36,6.36,0,0,0-.47,1.92,6.11,6.11,0,0,0,1.11,3.64c.14.22.55.07.44-.2a8.34,8.34,0,0,1-.56-3.36,7.88,7.88,0,0,1,.57-3.43C341.8,288,341.7,287.89,341.64,288Z" style="fill:#263238"></path><path d="M343.73,289.77c-.06-.55-.15-1.08-.17-1.63a.08.08,0,0,0-.15,0,12.68,12.68,0,0,0-.25,1.52,13.45,13.45,0,0,1-.33,1.53,8.37,8.37,0,0,0-.24,1.4,7,7,0,0,0-.06,1.45c0,.06.12.09.13,0a4,4,0,0,1,.46-1.38,4.57,4.57,0,0,0,.59-1.36A4.91,4.91,0,0,0,343.73,289.77Z" style="fill:#263238"></path><path d="M346.25,288.68a2.33,2.33,0,0,0-.47.52,5.9,5.9,0,0,0-1.06,2,3.21,3.21,0,0,0,.07,1.57,5.47,5.47,0,0,0,.64,1.36.13.13,0,0,0,.24-.11,4.88,4.88,0,0,1-.07-1.32c0-.46.09-.91.13-1.36a8.21,8.21,0,0,1,.15-1.31,4.21,4.21,0,0,1,.2-.63c.09-.21.24-.39.31-.6S346.32,288.65,346.25,288.68Z" style="fill:#263238"></path><path d="M348.61,291.18c-.06-.51-.22-1-.32-1.48a10.62,10.62,0,0,0-.3-1.49.08.08,0,0,0-.15,0,3.72,3.72,0,0,1,.07,1.33c0,.46,0,.92,0,1.37a4.48,4.48,0,0,1-.1,1.15,1.93,1.93,0,0,1-.41.92.23.23,0,0,0,.29.36,1.76,1.76,0,0,0,.8-.88A2.69,2.69,0,0,0,348.61,291.18Z" style="fill:#263238"></path><path d="M356.22,288.18c.06-.08-.08-.15-.13-.07l-.52.69a3.66,3.66,0,0,0-.37.67,5.51,5.51,0,0,0-.44,1.55,4.11,4.11,0,0,0,.93,3c.12.14.31,0,.28-.17a12.41,12.41,0,0,1-.34-2.85,6.89,6.89,0,0,1,.11-1.44A4.36,4.36,0,0,1,356.22,288.18Z" style="fill:#263238"></path><path d="M358.68,288c.05-.09-.08-.16-.14-.08a6.61,6.61,0,0,0-1.44,3.24,3.91,3.91,0,0,0,1.28,2.85c.06.06.19,0,.13-.11a3.89,3.89,0,0,1-.57-2.81A7.88,7.88,0,0,1,358.68,288Z" style="fill:#263238"></path><path d="M359.88,288.5a.08.08,0,0,0-.15,0c0,.91-.1,1.81-.13,2.71,0,.22,0,.43,0,.65s0,.41,0,.62c0,.43,0,.87,0,1.3,0,.07.12.1.13,0a5.24,5.24,0,0,1,.44-1.28,3.63,3.63,0,0,0,.34-1.33A7.32,7.32,0,0,0,359.88,288.5Z" style="fill:#263238"></path><path d="M361.74,288.48c0-.08-.16-.06-.15,0a7.58,7.58,0,0,1-.21,2.22c-.14.74-.13,1.5-.28,2.23a.09.09,0,0,0,.16.06,4.76,4.76,0,0,0,.79-2.21A10.21,10.21,0,0,0,361.74,288.48Z" style="fill:#263238"></path><path d="M365.08,293.15a4.63,4.63,0,0,1-.93-2.31c-.11-.41-.2-.83-.28-1.24-.05-.22-.08-.44-.12-.66s-.18-.52,0-.66,0-.17-.06-.14c-.37.15-.36.7-.39,1a8.15,8.15,0,0,0,0,1.71,4.43,4.43,0,0,0,.54,1.58c.22.4.54,1,1.08,1A.17.17,0,0,0,365.08,293.15Z" style="fill:#263238"></path><path d="M367.46,290.07a4.24,4.24,0,0,0-.69-1.25c0-.06-.16,0-.13.08a7.7,7.7,0,0,1,.4,1.26,7.48,7.48,0,0,1,.06,1.34,12,12,0,0,1-.07,1.34,6.25,6.25,0,0,1-.33,1.27.06.06,0,0,0,.1.05,4.21,4.21,0,0,0,1-2.67A4.36,4.36,0,0,0,367.46,290.07Z" style="fill:#263238"></path><path d="M369.82,289.44c0-.2,0-.4,0-.61s-.19-.14-.22,0-.15.36-.21.55-.16.35-.22.54c-.12.34-.27.68-.39,1s-.25.68-.33,1c0,.18-.05.36-.09.53s-.11.39-.16.59.17.27.27.15c.25-.29.47-.6.69-.91a4.22,4.22,0,0,0,.47-1.14,6.3,6.3,0,0,0,.21-1.15A5.56,5.56,0,0,0,369.82,289.44Z" style="fill:#263238"></path><path d="M366,291.76a3.42,3.42,0,0,0-.13-.34c-.09-.24-.19-.48-.26-.72s-.12-.49-.18-.74a4.07,4.07,0,0,1-.11-.78.08.08,0,0,0-.15,0q-.08.4-.12.81a3.39,3.39,0,0,0,.05.84,4.07,4.07,0,0,0,.22.83,1.79,1.79,0,0,0,.2.39c.09.11.18.22.28.32s.36,0,.31-.19S366,291.89,366,291.76Z" style="fill:#263238"></path><path d="M371.34,289.51a3.53,3.53,0,0,0-.16-.58c-.05-.13-.1-.38.05-.45s0-.18-.06-.14c-.32.12-.34.43-.34.74a3.31,3.31,0,0,1,0,.77c-.05.29-.13.56-.2.84-.22.9-.39,2,.45,2.64.1.08.29,0,.23-.13a4.64,4.64,0,0,1,0-2.34A4.69,4.69,0,0,0,371.34,289.51Z" style="fill:#263238"></path><path d="M374.26,292.23c-.05-.17-.11-.33-.16-.5-.1-.32-.22-.64-.33-1s-.22-.63-.32-.95-.2-.67-.32-1a.1.1,0,0,0-.2,0,8.43,8.43,0,0,0,.1,1c.06.35.11.7.18,1a6,6,0,0,0,.65,2c.12.21.52.12.48-.14A3.12,3.12,0,0,0,374.26,292.23Z" style="fill:#263238"></path><path d="M345.45,238.64c-.73,3.21-1.12,6.53-1.66,9.78s-1.12,6.6-1.66,9.91-1.13,6.51-1.69,9.77-1.05,6.63-1.57,9.94c-.57,3.69-1,7.4-1.51,11.1,0,.1.13.14.15,0,.63-3.29,1.39-6.55,2-9.84s1.14-6.6,1.69-9.91c1.07-6.53,2-13.1,2.93-19.66.27-1.89.55-3.77.83-5.66s.59-3.62.74-5.45C345.68,238.53,345.47,238.52,345.45,238.64Z" style="fill:#455a64"></path><path d="M383.13,267.73a75.51,75.51,0,0,0-11.68,6.12.13.13,0,0,0,.12.24c3.95-1.92,8-3.76,11.8-5.89A.26.26,0,0,0,383.13,267.73Z" style="fill:#455a64"></path><path d="M381.63,249.48c-.64,3.81-1,7.68-1.43,11.52-.1.92-.21,1.84-.31,2.77a5.38,5.38,0,0,1-.66,2.42,7.67,7.67,0,0,1-3.66,2.47c-.16.07-.09.32.08.26a8.88,8.88,0,0,0,3.88-2.05c1.23-1.3,1.19-3.26,1.38-4.93a107.93,107.93,0,0,0,.9-12.45C381.81,249.4,381.65,249.38,381.63,249.48Z" style="fill:#455a64"></path><path d="M377,250.65c-.14,2.74-.45,5.49-.67,8.23-.12,1.35-.21,2.7-.3,4.06s-.24,2.79-.2,4.16a.09.09,0,0,0,.17,0c.23-1.3.26-2.66.37-4s.2-2.77.28-4.16c.16-2.78.23-5.57.48-8.34C377.14,250.56,377,250.56,377,250.65Z" style="fill:#455a64"></path><path d="M360.06,245.33c-.74,2.07-1.26,4-1.92,5.92a22.5,22.5,0,0,1-2,5,6.58,6.58,0,0,1-4.33,2.81c-1,.25-2.08.48-3.14.64a29.85,29.85,0,0,1-3.24.4c-.11,0-.1.15,0,.16a25.64,25.64,0,0,0,3.5.26,19.39,19.39,0,0,0,3.32-.37,7,7,0,0,0,4.55-2.8,15.74,15.74,0,0,0,2-4.91c.61-2.28,1.13-4.66,1.6-7C360.35,245.28,360.11,245.17,360.06,245.33Z" style="fill:#455a64"></path><path d="M295.47,456.77c2,.62,58.75-.7,60.87-2.12.82-.53,1.11-8.81,1.18-18.82v-.31c0-2.07,3.9-35.83,3.9-35.83l-38-.16L320.89,436l0,.62s-21.49,10.22-23.67,12S293.47,456.16,295.47,456.77Z" style="fill:#263238"></path><path d="M295.47,456.77c2,.62,58.75-.7,60.87-2.12.82-.53,1.11-8.81,1.18-18.82v-.31l-36.62.44,0,.62s-21.49,10.22-23.67,12S293.47,456.16,295.47,456.77Z" style="fill:#263238"></path><path d="M296.06,454.55c9.56-.45,48.17-1.39,57.65-1.12.08,0,.08.06,0,.06-9.46.66-48.07,1.29-57.65,1.22C295.86,454.71,295.86,454.56,296.06,454.55Z" style="fill:#263238"></path><path d="M321.65,407.32c3.57-1.41,8.2-1.72,11.53.36.13.08,0,.26-.11.25a52.79,52.79,0,0,0-11.31-.14A.25.25,0,0,1,321.65,407.32Z" style="fill:#FFC727"></path><path d="M321.23,410.9c3.56-1.41,8.19-1.73,11.53.35.13.08,0,.27-.12.25a52.79,52.79,0,0,0-11.31-.14A.24.24,0,0,1,321.23,410.9Z" style="fill:#FFC727"></path><path d="M320.8,414.47c3.56-1.41,8.19-1.73,11.53.36.13.08,0,.26-.12.24a53.44,53.44,0,0,0-11.31-.14A.24.24,0,0,1,320.8,414.47Z" style="fill:#FFC727"></path><path d="M320.37,418c3.56-1.41,8.19-1.72,11.53.36.13.08,0,.26-.12.25a52.79,52.79,0,0,0-11.31-.15A.24.24,0,0,1,320.37,418Z" style="fill:#FFC727"></path><path d="M319.94,421.61c3.56-1.41,8.19-1.72,11.53.36.13.08,0,.26-.11.25a52.79,52.79,0,0,0-11.31-.14A.24.24,0,0,1,319.94,421.61Z" style="fill:#FFC727"></path><path d="M319.51,425.18c3.56-1.41,8.19-1.72,11.53.36.13.08,0,.26-.11.25a52.79,52.79,0,0,0-11.31-.14A.24.24,0,0,1,319.51,425.18Z" style="fill:#FFC727"></path><path d="M319.08,428.76c3.56-1.41,8.19-1.73,11.53.35.13.08,0,.27-.11.25a52.79,52.79,0,0,0-11.31-.14A.24.24,0,0,1,319.08,428.76Z" style="fill:#FFC727"></path><path d="M318.65,432.33c3.57-1.41,8.2-1.73,11.53.36.13.08,0,.26-.11.24a53.44,53.44,0,0,0-11.31-.14A.24.24,0,0,1,318.65,432.33Z" style="fill:#FFC727"></path><polygon points="427.96 454.72 399.73 454.72 399.73 437.33 409.19 422.69 427.96 422.69 427.96 454.72" style="fill:#455a64"></polygon><polygon points="502.91 454.72 427.96 454.72 427.96 422.69 495.46 422.69 502.91 454.72" style="fill:#37474f"></polygon><path d="M385.24,204.14,379.45,202a19,19,0,0,1,2.44-11.27c.43-.79-3.46,3.17-5.38,10.16-6.12-2.31-14.43-5.45-21.67-8.27,1-2.87,1.8-5.57,1.8-5.57a32.65,32.65,0,0,1-3.38,5l-2.88-1.13a116.63,116.63,0,0,0,4.31-12.18,41.23,41.23,0,0,1-8.42,10.56c-4.57-1.84-7.55-3.13-7.27-3.27,10.13-5.12,6.91-11.74,11.71-17.92,5.75-7.41,13.5-5.81,15.83-12.18,1.91-5.17,5-14.7,12.29-14.07a13.43,13.43,0,0,1,14.55,2.89c8.62,8-1.81,22.17-2.41,25.65-.87,5,.66,7.48.17,13.37s-4.32,8.49-6,12S386.39,204.59,385.24,204.14Z" style="fill:#263238"></path><path d="M339.26,184.73a19.21,19.21,0,0,0,4-3.58,10,10,0,0,0,1.92-4.8,53.36,53.36,0,0,1,1.21-5.39,14.35,14.35,0,0,1,2.64-5.06,12.6,12.6,0,0,1,4.59-3.42,33.16,33.16,0,0,1,5.27-1.74,20.89,20.89,0,0,0,5-1.89A10,10,0,0,0,367.6,155a9.25,9.25,0,0,1-3.32,4.38,18.71,18.71,0,0,1-5,2.37,42.75,42.75,0,0,0-5,1.91,12,12,0,0,0-4.05,3.14,14.19,14.19,0,0,0-2.41,4.57c-.57,1.67-.93,3.44-1.4,5.22a17.79,17.79,0,0,1-.89,2.67,7.83,7.83,0,0,1-1.63,2.37A15.71,15.71,0,0,1,339.26,184.73Z" style="fill:#263238"></path><path d="M396.77,152.86a27.9,27.9,0,0,1-1.08,6.66c-.58,2.18-1.27,4.32-2,6.45l-1,3.18a17.26,17.26,0,0,0-.73,3.15,17.91,17.91,0,0,0,.65,6.41,26.65,26.65,0,0,1,.56,3.41,15.86,15.86,0,0,1-.1,3.51,23.74,23.74,0,0,1-.85,3.37,14.44,14.44,0,0,1-1.48,3.16c-.62,1-1.33,1.87-2,2.76a16.67,16.67,0,0,0-1.69,2.8,6.85,6.85,0,0,0,.37,6.29,7,7,0,0,1-1-6.55,17,17,0,0,1,1.56-3.07c.6-1,1.27-1.86,1.78-2.81a17.84,17.84,0,0,0,1.94-6.14,15.55,15.55,0,0,0,.05-3.2,25,25,0,0,0-.57-3.22c-.23-1.09-.48-2.21-.61-3.37a13.9,13.9,0,0,1,0-3.53,17.46,17.46,0,0,1,.89-3.36c.36-1.08.77-2.13,1.17-3.17.8-2.1,1.63-4.17,2.36-6.28A32.11,32.11,0,0,0,396.77,152.86Z" style="fill:#263238"></path><path d="M393.3,184c7.6,4.38,46.57,24,50.9,40.1,2.94,10.94-10.7,10-18,8.5-15.23-3.1-33.05-31.79-40-41S380.56,176.66,393.3,184Z" style="fill:#ad6359"></path><path d="M397.22,221.85l1.86,28.32s-45.68-2.94-56.94-4.63c0,0,13.38-51.61,26.6-63.87,6.62-6.13,13.73-5.07,17.92-.09,1.06,1.27,13.38,20.54,14.29,27.6C401.72,215.41,397.22,221.85,397.22,221.85Z" style="fill:#FFC727"></path><path d="M385.6,180.47H370.16a15.62,15.62,0,0,1,1.87-1.25h12A11,11,0,0,1,385.6,180.47Zm1.53,1.76h-19c-.38.39-.76.8-1.14,1.25H388C387.63,183,387.35,182.55,387.13,182.23Zm2,3H365.63c-.3.4-.6.82-.89,1.25h25.14C389.61,186.06,389.34,185.64,389.09,185.25Zm1.88,3H363.59l-.76,1.25h28.89C391.46,189.09,391.21,188.68,391,188.27Zm1.78,3H361.84c-.23.41-.46.83-.68,1.25h32.32Zm1.72,3H360.24l-.63,1.25h35.55C394.94,195.13,394.71,194.71,394.47,194.3Zm1.65,3H358.77c-.19.41-.39.83-.58,1.25h38.58Zm1.53,3H357.4l-.54,1.25h41.39C398.06,201.17,397.86,200.75,397.65,200.33Zm1.4,3H356.1l-.51,1.25h44C399.42,204.19,399.25,203.78,399.05,203.35Zm1.19,3H354.87c-.17.41-.33.83-.5,1.25h46.25C400.52,207.23,400.39,206.81,400.24,206.37Zm.73,3H353.7q-.26.63-.48,1.26H401A10.64,10.64,0,0,0,401,209.38Zm-48.41,3c-.16.42-.31.83-.46,1.25h48.62c.09-.41.16-.83.21-1.25Zm-1.1,3-.45,1.25h48.84c.15-.4.29-.82.42-1.25Zm-1.06,3c-.15.42-.29.84-.43,1.26H398.5c.2-.38.41-.8.62-1.26Zm47.08,3H349.37c-.14.42-.28.84-.41,1.25h48.32l-.06-.85S397.32,221.71,397.48,221.45Zm-.09,3h-49c-.13.42-.27.84-.4,1.25h49.5Zm.2,3H347.41c-.14.42-.27.85-.4,1.26h50.66Zm.2,3H346.47c-.14.42-.26.84-.39,1.25h51.79Zm.2,3H345.54c-.12.43-.25.84-.37,1.25h52.9Zm.19,3H344.66c-.13.43-.25.85-.37,1.26h54Zm.2,3h-54.6c-.12.44-.24.85-.35,1.25h55Zm.2,3H342.94l-.34,1.25h56.06Zm.2,3H342.42c2.59.37,6.83.81,11.85,1.26h44.59Zm.2,3H376.29c7.14.52,13.72,1,17.95,1.25h4.82Z" style="fill:#030402;opacity:0.1"></path><path d="M375.07,179.15c.27.88,3.1,6.89,7.2,7.22,2.58.2,2.65-8.7,2.65-8.7l.09-.54,1.21-7.67L377,164.32l-1.33-.67s-.19,2.12-.41,4.77l0,.37c0,.15,0,.29,0,.43,0,.4-.07.8-.1,1.2s0,.6-.06.93,0,.63-.05,1A50.82,50.82,0,0,0,375.07,179.15Z" style="fill:#ad6359"></path><path d="M375.23,168.42a15.59,15.59,0,0,0,9.78,8.71l1.21-7.67L377,164.32l-1.33-.67S375.45,165.77,375.23,168.42Z" style="fill:#263238"></path><path d="M396.77,158.73c.19,13.63-7.94,15.28-10.88,15.32-2.67,0-11.76-.19-13.36-13.72s4.68-17.93,10.78-18.33S396.58,145.11,396.77,158.73Z" style="fill:#ad6359"></path><path d="M394.27,155.27a7.67,7.67,0,0,1-.92.22,1.57,1.57,0,0,1-1,0,.5.5,0,0,1-.25-.54,1.21,1.21,0,0,1,.95-.76,1.79,1.79,0,0,1,1.27.09A.51.51,0,0,1,394.27,155.27Z" style="fill:#263238"></path><path d="M384.84,156.2c.31.08.61.1.93.15a1.53,1.53,0,0,0,1,0,.48.48,0,0,0,.22-.55,1.21,1.21,0,0,0-1-.69,1.74,1.74,0,0,0-1.26.19A.52.52,0,0,0,384.84,156.2Z" style="fill:#263238"></path><path d="M386.84,159.14s-.07,0-.07.08c0,.93-.09,2-.93,2.3,0,0,0,.06,0,0C386.87,161.43,387,160,386.84,159.14Z" style="fill:#263238"></path><path d="M386,158.17c-1.49-.12-1.61,2.88-.22,3S387.26,158.26,386,158.17Z" style="fill:#263238"></path><path d="M385.42,158.3c-.27.16-.54.45-.85.47s-.63-.3-.86-.61c0,0,0,0,0,0,0,.57.17,1.17.78,1.28s1-.39,1.14-1C385.61,158.4,385.53,158.24,385.42,158.3Z" style="fill:#263238"></path><path d="M392.11,159s.07.05.06.08c-.07.93,0,2,.83,2.35,0,0,0,.06,0,0C392,161.29,391.89,159.86,392.11,159Z" style="fill:#263238"></path><path d="M393,158.07c1.5,0,1.47,3,.09,3S391.73,158.11,393,158.07Z" style="fill:#263238"></path><path d="M393.6,158.27c.24.16.47.45.75.47s.58-.29.79-.6c0,0,0,0,0,0,0,.57-.18,1.17-.73,1.27s-.87-.4-1-1C393.43,158.37,393.51,158.21,393.6,158.27Z" style="fill:#263238"></path><path d="M386.81,166.34c.2.24.4.56.73.61a2.33,2.33,0,0,0,1-.15s.06,0,0,0a1.25,1.25,0,0,1-1.22.41,1,1,0,0,1-.65-.88C386.71,166.32,386.78,166.31,386.81,166.34Z" style="fill:#263238"></path><path d="M390.78,163.1s.15,1.39.13,2c0,.06-.16.09-.38.09,0,0,0,0,0,0a3.12,3.12,0,0,1-3-1.24c0-.06,0-.13.1-.09a4.61,4.61,0,0,0,2.81.89c.05-.18-.34-2.37-.24-2.38a6,6,0,0,1,1.48.38c-.24-2.9-.94-5.75-1.13-8.65a.09.09,0,0,1,.17,0,46.66,46.66,0,0,1,1.61,9.26C392.37,163.74,391,163.21,390.78,163.1Z" style="fill:#263238"></path><path d="M390.1,164.87a3.34,3.34,0,0,1-1.32,1.06,1.51,1.51,0,0,1-.92.07c-.66-.16-.69-.77-.57-1.29a3.58,3.58,0,0,1,.28-.8A4.32,4.32,0,0,0,390.1,164.87Z" style="fill:#263238"></path><path d="M388.78,165.93a1.51,1.51,0,0,1-.92.07c-.66-.16-.69-.77-.57-1.29A1.55,1.55,0,0,1,388.78,165.93Z" style="fill:#ff9bbc"></path><path d="M372.78,161.84a5.64,5.64,0,0,0,3.47-4.35,14.73,14.73,0,0,0,6.31-4.39c-.11.27-.91,2.26-1.35,3.25,8.76-1,11.91-7.43,11.91-7.43a15.13,15.13,0,0,1,3.38,5.75s.44-5.3-2-9a8.58,8.58,0,0,0-7.64-4.08,12.25,12.25,0,0,0-12.2,2.83C368.57,150.09,372.78,161.84,372.78,161.84Z" style="fill:#263238"></path><path d="M387.88,155.39a15.81,15.81,0,0,1-4.55,1.31s0,0,0,0a13.56,13.56,0,0,0,6.62-3.39,12.82,12.82,0,0,0,2.05-2.47,8.86,8.86,0,0,0,1.38-3.22c0-.08.15-.06.14,0a10.57,10.57,0,0,1-.93,3.36,9.42,9.42,0,0,1-2.13,2.73,10.81,10.81,0,0,1-2.58,1.68" style="fill:#263238"></path><path d="M374.82,160s-2.66-4.45-4.66-3.54-.22,7.23,2,8.24a2.31,2.31,0,0,0,3.17-1Z" style="fill:#ad6359"></path><path d="M370.72,158.27s-.05,0,0,.06a5.82,5.82,0,0,1,2.74,3.85,1.27,1.27,0,0,0-1.87-.48c-.05,0,0,.09,0,.09a1.4,1.4,0,0,1,1.52.6,6.27,6.27,0,0,1,.66,1.32c.06.14.32.09.28-.08v0C374.24,161.57,372.87,158.63,370.72,158.27Z" style="fill:#263238"></path><polygon points="307.84 356.79 309.21 312.69 269.08 294.36 352.66 275.86 359.94 281.19 361.49 290.08 307.84 356.79" style="fill:#FFC727"></polygon><polygon points="438.33 228.09 442.41 234.65 356.12 291.79 348.74 279.92 438.33 228.09" style="fill:#a6a6a6"></polygon><rect x="312.61" y="304.24" width="16.2" height="2.6" transform="translate(387.13 -132.41) rotate(55.01)" style="fill:#263238"></rect><rect x="321.45" y="296.15" width="16.2" height="7.82" transform="translate(410.64 -138.2) rotate(58.16)" style="fill:#263238"></rect><rect x="322.81" y="299.41" width="11.94" height="2.26" transform="translate(410.68 -137.31) rotate(58.16)" style="fill:#fff"></rect><path d="M328.22,294.74a.38.38,0,1,1-.4-.64.38.38,0,0,1,.4.64Z" style="fill:#fff"></path><path d="M329.06,296.1a.38.38,0,1,1,.12-.52A.38.38,0,0,1,329.06,296.1Z" style="fill:#fff"></path><path d="M329.9,297.46a.37.37,0,1,1,.12-.52A.37.37,0,0,1,329.9,297.46Z" style="fill:#fff"></path><path d="M330.75,298.82a.38.38,0,0,1-.52-.12.38.38,0,0,1,.64-.4A.38.38,0,0,1,330.75,298.82Z" style="fill:#fff"></path><path d="M331.59,300.17a.37.37,0,1,1,.12-.51A.36.36,0,0,1,331.59,300.17Z" style="fill:#fff"></path><path d="M332.43,301.53a.37.37,0,1,1,.12-.51A.36.36,0,0,1,332.43,301.53Z" style="fill:#fff"></path><path d="M333.28,302.89a.37.37,0,1,1,.12-.51A.37.37,0,0,1,333.28,302.89Z" style="fill:#fff"></path><path d="M334.12,304.25a.37.37,0,0,1-.52-.12.38.38,0,0,1,.64-.4A.37.37,0,0,1,334.12,304.25Z" style="fill:#fff"></path><rect x="332.17" y="289.49" width="16.2" height="7.82" transform="translate(270.5 737.25) rotate(-121.84)" style="fill:#263238"></rect><rect x="335.08" y="291.79" width="11.94" height="2.25" transform="matrix(-0.53, -0.85, 0.85, -0.53, 272.1, 737.17)" style="fill:#fff"></rect><path d="M341.62,298.71a.37.37,0,0,1,.39.64.36.36,0,0,1-.51-.12A.37.37,0,0,1,341.62,298.71Z" style="fill:#fff"></path><path d="M340.77,297.36a.37.37,0,1,1-.12.51A.37.37,0,0,1,340.77,297.36Z" style="fill:#fff"></path><path d="M339.93,296a.37.37,0,1,1,.39.63.37.37,0,1,1-.39-.63Z" style="fill:#fff"></path><path d="M339.09,294.64a.36.36,0,0,1,.51.12.38.38,0,0,1-.12.52.39.39,0,0,1-.52-.13A.38.38,0,0,1,339.09,294.64Z" style="fill:#fff"></path><path d="M338.24,293.28a.37.37,0,0,1,.52.12.38.38,0,1,1-.52-.12Z" style="fill:#fff"></path><path d="M337.4,291.92a.37.37,0,1,1-.12.52A.37.37,0,0,1,337.4,291.92Z" style="fill:#fff"></path><path d="M336.56,290.56a.37.37,0,0,1,.39.64.37.37,0,1,1-.39-.64Z" style="fill:#fff"></path><path d="M335.71,289.2a.38.38,0,1,1-.12.52A.38.38,0,0,1,335.71,289.2Z" style="fill:#fff"></path><polygon points="441.12 220.59 441.3 225.71 438.33 228.09 442.41 234.65 466.12 223.22 463.02 221.53 441.12 220.59" style="fill:#263238"></polygon><path d="M312.23,304l15.09-9.07,15.12-9,30.3-17.95,37.66-22.37q15.21-8.86,30.45-17.69v0l2.44-5.53-2.38,5.56h0Q425.8,237,410.66,246l-37.6,22.46-30.38,17.82-15.21,8.87Z" style="fill:#fff"></path><path d="M318,313.22l16.81-11,16.85-10.91,41-26.34,33.83-21.63,16.92-10.81,2.12-1.34c.7-.46,1.45-.83,2.17-1.25l4.38-2.46,8.76-4.91-8.68,5-4.34,2.52c-.71.43-1.46.81-2.15,1.28l-2.1,1.38-16.86,10.9L393,265.52l-41.13,26.16L335,302.49Z" style="fill:#fff"></path><path d="M318.87,305l14.64-9.13,14.67-9.08,29.4-18.08,36.76-22.51c9.84-6,19.67-11.93,29.54-17.84h0l6.62-5.84L444,228.51h0c-9.75,6.1-19.55,12.13-29.33,18.18L377.9,269.28l-29.47,18-14.77,8.93Z" style="fill:#fff"></path><path d="M316.13,304.22,331,295.13l14.87-9.05,29.79-18,37.16-22.44q15-8.89,29.94-17.75h0l4.21-5.49L442.8,228h0Q428,237.09,413.06,246.1L376,268.61l-29.87,17.87-15,8.9Z" style="fill:#fff"></path><polygon points="320 306.85 334.63 297.6 349.29 288.39 378.67 270.06 415.41 247.29 430.15 238.22 444.92 229.18 444.91 229.19 453.89 222.44 445.03 229.34 445.02 229.34 445.02 229.34 430.37 238.56 415.69 247.76 379 270.58 349.54 288.78 334.78 297.84 320 306.85" style="fill:#fff"></polygon><path d="M319.54,309.72l16.25-10.44,16.28-10.4L392,263.65l32.69-20.58c10.91-6.84,21.87-13.6,32.69-20.59l-8.05,5.34-4,2.66-4.06,2.61L425,243.48l-32.62,20.7-40,25.11L336,299.54Z" style="fill:#fff"></path><rect x="442.44" y="218.3" width="2.24" height="1.52" transform="translate(7.1 -13.83) rotate(1.8)" style="fill:#263238"></rect><rect x="443.28" y="219.06" width="0.48" height="2.06" transform="matrix(1, 0.03, -0.03, 1, 7.14, -13.84)" style="fill:#263238"></rect><rect x="445.91" y="218.41" width="2.24" height="1.52" transform="matrix(1, 0.03, -0.03, 1, 7.11, -13.94)" style="fill:#263238"></rect><rect x="446.76" y="219.17" width="0.48" height="2.06" transform="matrix(1, 0.03, -0.03, 1, 7.14, -13.95)" style="fill:#263238"></rect><rect x="449.39" y="218.52" width="2.24" height="1.52" transform="translate(7.11 -14.05) rotate(1.8)" style="fill:#263238"></rect><rect x="450.24" y="219.28" width="0.48" height="2.06" transform="matrix(1, 0.03, -0.03, 1, 7.15, -14.05)" style="fill:#263238"></rect><rect x="452.87" y="218.63" width="2.24" height="1.52" transform="translate(7.11 -14.14) rotate(1.8)" style="fill:#263238"></rect><rect x="453.71" y="219.38" width="0.48" height="2.06" transform="translate(7.11 -14.07) rotate(1.79)" style="fill:#263238"></rect><rect x="456.34" y="218.73" width="2.24" height="1.52" transform="matrix(1, 0.03, -0.03, 1, 7.12, -14.27)" style="fill:#263238"></rect><rect x="457.19" y="219.49" width="0.48" height="2.06" transform="translate(7.16 -14.28) rotate(1.8)" style="fill:#263238"></rect><rect x="459.82" y="218.84" width="2.24" height="1.52" transform="translate(7.13 -14.38) rotate(1.8)" style="fill:#263238"></rect><rect x="460.67" y="219.6" width="0.48" height="2.06" transform="matrix(1, 0.03, -0.03, 1, 7.16, -14.38)" style="fill:#263238"></rect><path d="M443.51,222.72a.44.44,0,1,1-.46-.76.45.45,0,0,1,.61.16A.43.43,0,0,1,443.51,222.72Z" style="fill:#a6a6a6"></path><path d="M447.16,222.79a.44.44,0,1,1,.15-.61A.44.44,0,0,1,447.16,222.79Z" style="fill:#a6a6a6"></path><path d="M450.64,222.83a.45.45,0,0,1-.61-.16.44.44,0,0,1,.76-.45A.44.44,0,0,1,450.64,222.83Z" style="fill:#a6a6a6"></path><path d="M454.12,222.82a.45.45,0,0,1-.61-.16.44.44,0,0,1,.16-.6.43.43,0,0,1,.6.15A.44.44,0,0,1,454.12,222.82Z" style="fill:#a6a6a6"></path><path d="M457.6,222.87a.45.45,0,0,1-.46-.77.45.45,0,0,1,.61.16A.44.44,0,0,1,457.6,222.87Z" style="fill:#a6a6a6"></path><path d="M461.08,223a.44.44,0,1,1,.15-.61A.44.44,0,0,1,461.08,223Z" style="fill:#a6a6a6"></path><path d="M328,324.07a2,2,0,1,1,.65-2.75A2,2,0,0,1,328,324.07Z" style="fill:#263238"></path><path d="M324,329.52a2,2,0,1,1,.64-2.75A2,2,0,0,1,324,329.52Z" style="fill:#263238"></path><path d="M319.46,334.93a1.09,1.09,0,0,1-1.51-.36,1.1,1.1,0,0,1,1.87-1.16A1.1,1.1,0,0,1,319.46,334.93Z" style="fill:#263238"></path><path d="M372,179.24c-4.89,4.82-73.75,105-73.75,105l-4.72,1.12S341.81,212,367.6,182.15A8,8,0,0,1,372,179.24Z" style="fill:#455a64"></path><rect x="293.11" y="284.73" width="6.56" height="3.56" transform="translate(-53.95 69.26) rotate(-12.23)" style="fill:#37474f"></rect><path d="M384.82,179.77C384,185.66,346,277,346,277l6.67-1.17S385.1,195.64,386,182.72C386.21,179.76,384.82,179.77,384.82,179.77Z" style="fill:#455a64"></path><path d="M339.67,269.72c-3-13.17-8.67-41-4.62-47.94s25.21-34.68,30.5-39.25,9.09-1.84,5.79,7.17C367.52,200.14,357,226.52,356,228.43s9.15,27.09,10.07,31.59S340.28,272.38,339.67,269.72Z" style="fill:#ad6359"></path><path d="M374.57,286.85a4.07,4.07,0,0,1-4.62.31,6,6,0,0,1-2.47,3.25c-2.15,1.25-5-1.56-5-1.56a7.43,7.43,0,0,1-3.16,3c-2.17,1-5.5-1.43-5.5-1.43a6.52,6.52,0,0,1-4.45.91c-4.1-.81-6.37-6.78-7.85-10.56s-2.14-15.88-2.5-18.17l24.17-9.71s11.46,15,12.57,19.74C376.65,276.6,377,284.78,374.57,286.85Z" style="fill:#ad6359"></path><path d="M370.27,286.83c0-4.44-1.28-8.64-2.34-12.9a.08.08,0,0,0-.15,0c1.1,4.24,1.35,8.63,2.28,12.9A.11.11,0,0,0,370.27,286.83Z" style="fill:#263238"></path><path d="M362.72,288.65a11.08,11.08,0,0,0-.67-2.95c-.31-1-.64-2.05-1-3.07-.69-2-1.42-4.05-2.22-6,0-.09-.18-.06-.14,0,.68,2,1.33,4.07,1.93,6.12l.87,3.1a13.83,13.83,0,0,0,.93,2.88A.15.15,0,0,0,362.72,288.65Z" style="fill:#263238"></path><path d="M353.76,290.35a8.18,8.18,0,0,0-.75-2.62c-.33-.92-.66-1.84-1-2.77-.65-1.84-1.29-3.69-1.87-5.56,0-.09-.18-.06-.15,0,.58,1.9,1.13,3.81,1.73,5.71.29.93.59,1.86.89,2.78a7.45,7.45,0,0,0,1,2.46A.05.05,0,0,0,353.76,290.35Z" style="fill:#263238"></path><rect x="269.34" y="316.22" width="269.16" height="2.79" transform="translate(29.86 669.91) rotate(-81.46)" style="fill:#a6a6a6"></rect><ellipse cx="384.82" cy="447.44" rx="6.19" ry="31.53" transform="translate(-106.75 774.02) rotate(-82.9)" style="fill:#a6a6a6"></ellipse><polygon points="412.76 170.45 436.66 186.12 433.43 191.42 408.53 177.42 412.76 170.45" style="fill:#263238"></polygon><path d="M400.54,167.8h0a6.46,6.46,0,0,0,2.17,8.87l1.91,1.16a6,6,0,0,0,8.31-2l.43-.7a6.06,6.06,0,0,0-2-8.31l-1.91-1.16A6.47,6.47,0,0,0,400.54,167.8Z" style="fill:#a6a6a6"></path><rect x="400.45" y="171.18" width="13.74" height="1.41" transform="matrix(0.52, -0.85, 0.85, 0.52, 48.89, 430.7)" style="fill:#c7c7c7"></rect><path d="M386.16,438.26h0A44.69,44.69,0,0,0,392.6,423c1.42-6.05.89-16.45.33-27.46-.6-11.66-1.21-23.72.31-32.53,1-6,3.92-12.72,7-19.85,3.69-8.6,7.5-17.5,8.22-25.63.48-5.48-.52-12.88-1.57-20.7-1.51-11.14-3.06-22.66-.72-30.76s10.32-16.1,18.76-24.54,17.46-17.44,19.49-26.25c3.13-13.56-6.25-24-11-26.64l.46-.81c5,2.78,14.71,13.59,11.46,27.66-2.09,9.07-11.06,18-19.74,26.7-8,8-16.24,16.23-18.53,24.14s-.74,19.33.75,30.37c1.06,7.88,2.07,15.32,1.57,20.92-.72,8.27-4.57,17.24-8.28,25.91-3,7.08-5.9,13.76-6.91,19.64-1.51,8.71-.9,20.71-.3,32.33.56,11.07,1.1,21.54-.36,27.71C391.19,433.08,386.37,438.05,386.16,438.26Z" style="fill:#263238"></path><path d="M438,210.86c3.8,3.57,14.89,17,11.36,22.89S436,238,422.58,233.44Z" style="fill:#ad6359"></path><path d="M408.53,194.55a4.06,4.06,0,0,0-1.22,4.47,6,6,0,0,0-3.68,1.78c-1.65,1.85.52,5.24.52,5.24a7.47,7.47,0,0,0-3.59,2.5c-1.4,1.93.31,5.67.31,5.67a6.55,6.55,0,0,0-1.78,4.18c0,4.18,5.38,7.59,8.78,9.8s15.14,5.26,17.31,6.07l14.34-21.74s-12.47-14.23-16.84-16.26C419,194.56,411,192.61,408.53,194.55Z" style="fill:#ad6359"></path><path d="M407.47,199c4.36.87,8.21,3,12.18,4.87.09,0,0,.18-.06.14-3.93-1.93-8.19-3.05-12.18-4.81C407.3,199.14,407.36,199,407.47,199Z" style="fill:#263238"></path><path d="M404.41,205.81a11.39,11.39,0,0,1,2.76,1.24c.94.51,1.88,1,2.8,1.58q2.79,1.62,5.49,3.37c.08.05,0,.19-.07.14-1.85-1.07-3.72-2.12-5.61-3.11-.95-.5-1.9-1-2.86-1.47a14,14,0,0,1-2.64-1.49A.15.15,0,0,1,404.41,205.81Z" style="fill:#263238"></path><path d="M401,214.25a7.88,7.88,0,0,1,2.42,1.26l2.52,1.51c1.68,1,3.36,2,5.08,2.94.08,0,0,.19-.07.14-1.75-.95-3.51-1.87-5.25-2.83l-2.55-1.44a7.6,7.6,0,0,1-2.2-1.5S400.91,214.24,401,214.25Z" style="fill:#263238"></path><path d="M400.56,208.54a6.47,6.47,0,0,1,1.55-1.71,5.45,5.45,0,0,1,2.13-1l-.15.41a6.75,6.75,0,0,1-1.24-2.28,4,4,0,0,1,0-2.66,3.79,3.79,0,0,1,1.87-1.93,7,7,0,0,1,2.53-.68l-.29.46a4.54,4.54,0,0,1-.18-1.93,4.15,4.15,0,0,1,.64-1.8,3.14,3.14,0,0,1,1.45-1.2,4.65,4.65,0,0,1,1.78-.4,4.14,4.14,0,0,0-2.86,1.83,3.66,3.66,0,0,0-.43,1.62,4.69,4.69,0,0,0,.23,1.64l.14.4-.44.06a6.9,6.9,0,0,0-2.23.65,3.28,3.28,0,0,0-1.53,1.55,3.47,3.47,0,0,0-.08,2.21,7.07,7.07,0,0,0,1,2.14l.24.35-.39.06a5.77,5.77,0,0,0-2,.77A7.46,7.46,0,0,0,400.56,208.54Z" style="fill:#263238"></path></g><g id="freepik--character-1--inject-84"><path d="M278,382.09c-1,.33-16.51.3-31.64,0l-9-.2c-10.79-.3-19.71-.75-20.54-1.29s-1.19-8.59-1.36-18.46c0-.14,0-.28,0-.42s0-.21,0-.32h.05l36.72.07,0,.63s21.69,10,23.88,11.83S280,381.46,278,382.09Z" style="fill:#455a64"></path><path d="M277.39,379.88c-9.6-.36-48.37-.91-57.89-.54-.07,0-.07.06,0,.07,9.51.56,48.28.79,57.89.63C277.59,380,277.59,379.89,277.39,379.88Z" style="fill:#263238"></path><path d="M256.36,361.62c-3.77-.75-8.4-.23-11.32,2.42-.12.11,0,.27.15.23a52.87,52.87,0,0,1,11.15-2.17A.24.24,0,0,0,256.36,361.62Z" style="fill:#263238"></path><path d="M259.07,363.3c-3.77-.75-8.4-.23-11.33,2.42-.11.11,0,.27.16.23a52.87,52.87,0,0,1,11.15-2.17A.24.24,0,0,0,259.07,363.3Z" style="fill:#263238"></path><path d="M261.77,365c-3.77-.75-8.4-.23-11.32,2.42-.11.11,0,.27.16.23a52.66,52.66,0,0,1,11.14-2.17A.24.24,0,0,0,261.77,365Z" style="fill:#263238"></path><path d="M253,361.6H214.3s13-81.61,12.64-83.29c-.16-.86-50.07-89.13-50.07-89.13h43.79s40.52,63.14,46.08,79C270.78,279.77,253,361.6,253,361.6Z" style="fill:#263238"></path><path d="M254,354.08c-2.34-.19-4.66-.38-7-.49s-4.67-.12-7-.17q-7-.15-14-.23c-1.33,0-2.66,0-4,0s-2.67.14-4,0c-.1,0-.1.16,0,.16,1.16,0,2.33.24,3.49.32s2.33.21,3.5.28q3.5.22,7,.37c4.66.19,9.32.25,14,.27,2.67,0,5.33-.19,8-.37A.1.1,0,0,0,254,354.08Z" style="fill:#455a64"></path><path d="M232.2,275a25.15,25.15,0,0,0-3.31-6.79l-8.77-14.52q-8.9-14.73-17.87-29.39c-3-4.84-5.95-9.67-8.93-14.5-2.75-4.46-9-16.39-9.69-17.54,0-.09-.19-.05-.15,0,2,4.2,4.63,9.45,7.1,13.83,2.7,4.81,5.6,9.52,8.41,14.26,5.77,9.73,11.64,19.4,17.49,29.08,2.94,4.89,5.91,9.76,8.87,14.64,1.42,2.35,2.88,4.67,4.25,7a14.1,14.1,0,0,1,2.14,7.55,78,78,0,0,1-.9,8.33c-.36,2.78-.73,5.57-1.11,8.35q-1.12,8.35-2.35,16.7-2.44,16.75-5.08,33.49c-.22,1.39-.45,2.78-.68,4.16,0,.14.18.19.2.06,2-11.16,4-22.32,5.64-33.53s3.22-22.45,4.71-33.69A20.39,20.39,0,0,0,232.2,275Z" style="fill:#455a64"></path><path d="M266.21,268.62a41.76,41.76,0,0,1-5.25-.23c-.35-.06-.71-.1-1.06-.14a23.6,23.6,0,0,1,2.61-.63c1.14-.16,2.35,0,3.48-.22a.14.14,0,0,0,0-.26,31.85,31.85,0,0,0-3.25-.18c-1.17-.14-2.28-.53-3.44-.77l2-.29c.84-.11,1.68-.09,2.51-.19.07,0,.09-.1,0-.11-.68-.12-1.37-.14-2.05-.23s-1.63-.29-2.44-.45a19.62,19.62,0,0,0-4.52-.48c-3.1.09-6.13.95-9.23,1a.1.1,0,0,0,0,.19,43.4,43.4,0,0,1,6.32.65c-2.23.12-4.41.62-6.63.83-1.11.11-2.23.16-3.35.27s-2.42.33-3.63.39a.09.09,0,1,0,0,.18c1.15,0,2.34.07,3.5.09s2.33,0,3.49,0c2.35.06,4.66.49,7,.47h.56l-2.19.34c-1.78.24-3.58.41-5.37.57a.09.09,0,0,0,0,.18c1.74,0,3.49,0,5.24.14s3.49.3,5.24.32a17,17,0,0,0,2.47-.08c.84-.11,1.65-.34,2.48-.49,1.81-.34,3.64-.52,5.49-.7A.1.1,0,0,0,266.21,268.62Z" style="fill:#d3766a"></path><path d="M267.31,272.84c-1.18-.15-2.34-.21-3.52-.32a34.54,34.54,0,0,0-3.79-.4c-1.28,0-2.51.17-3.78.31a34.25,34.25,0,0,1-3.78.48c-.11,0-.11.19,0,.18a35,35,0,0,1,3.8.42c1.22.12,2.41.24,3.64.25a26.05,26.05,0,0,0,3.63-.43c1.26-.17,2.52-.23,3.78-.41C267.34,272.91,267.36,272.85,267.31,272.84Z" style="fill:#d3766a"></path><path d="M256,261.51c-1.51-.05-3,.05-4.5-.11a17.61,17.61,0,0,0-4,0c-2.76.33-5.49.92-8.23,1.37-.1,0-.07.18,0,.18,2.8-.07,5.59.06,8.38,0a19.6,19.6,0,0,0,3.89-.54c1.48-.35,3-.47,4.48-.69A.09.09,0,0,0,256,261.51Z" style="fill:#d3766a"></path><path d="M82,385.19c2,.63,59-.7,61.11-2.13.82-.52,1.11-8.84,1.18-18.89v-.32s2.54-7,2.55-7.27l-36.77.65-2.55,7.07,0,.62S86,375.18,83.8,377,80,384.58,82,385.19Z" style="fill:#ebebeb"></path><path d="M82,385.19c2,.63,59-.7,61.11-2.13.82-.52,1.11-8.84,1.18-18.89v-.32l-36.77.45,0,.62S86,375.18,83.8,377,80,384.58,82,385.19Z" style="fill:#455a64"></path><path d="M82.6,383c9.6-.46,48.36-1.41,57.88-1.13.08,0,.08.06,0,.06-9.5.66-48.26,1.29-57.87,1.22C82.41,383.12,82.4,383,82.6,383Z" style="fill:#263238"></path><path d="M103.44,364.5c3.77-.8,8.4-.32,11.35,2.3.12.1,0,.26-.15.23A53.63,53.63,0,0,0,103.47,365,.24.24,0,0,1,103.44,364.5Z" style="fill:#263238"></path><path d="M100.75,366.2c3.77-.79,8.4-.32,11.35,2.31.12.1,0,.26-.15.23a53,53,0,0,0-11.17-2.06A.24.24,0,0,1,100.75,366.2Z" style="fill:#263238"></path><path d="M98.06,367.91c3.77-.79,8.4-.32,11.35,2.31.12.1,0,.26-.15.22a53,53,0,0,0-11.17-2.05A.24.24,0,0,1,98.06,367.91Z" style="fill:#263238"></path><path d="M216.05,189.18s-5.24,32-5.6,33c0,0-1.95.92-5.47,2.55L152.49,364.79l-47.05.17,65.84-175.78Z" style="fill:#263238"></path><path d="M212.15,221.2a75.57,75.57,0,0,0-11.72,6.14.13.13,0,0,0,.12.24c4-1.92,8-3.77,11.85-5.91A.27.27,0,0,0,212.15,221.2Z" style="fill:#455a64"></path><path d="M210.65,202.87c-.65,3.83-1,7.72-1.44,11.57-.1.93-.21,1.85-.31,2.78a5.27,5.27,0,0,1-.67,2.43,7.69,7.69,0,0,1-3.67,2.49.14.14,0,0,0,.08.26,9,9,0,0,0,3.9-2.07c1.23-1.3,1.19-3.27,1.38-4.94a106.74,106.74,0,0,0,.9-12.5C210.82,202.79,210.66,202.77,210.65,202.87Z" style="fill:#455a64"></path><path d="M206,204.05c-.13,2.75-.44,5.51-.67,8.26-.11,1.36-.21,2.72-.29,4.08a41.77,41.77,0,0,0-.2,4.18c0,.09.15.12.16,0,.23-1.31.26-2.67.37-4s.21-2.78.29-4.18c.15-2.78.23-5.59.48-8.37C206.14,204,206,204,206,204.05Z" style="fill:#455a64"></path><path d="M200,230.61q-4.89,11.91-9.69,23.85t-9.56,23.92q-4.76,12-9.47,24t-9.48,24.11c-3.11,7.95-6.11,15.94-9.13,23.93l-1.11,3c0,.08.1.14.13.06,3.28-7.93,6.55-15.86,9.75-23.82s6.34-16,9.5-24,6.32-16,9.46-24,6.32-16.08,9.43-24.14S196,241.63,199,233.63l1.11-3C200.14,230.58,200,230.53,200,230.61Z" style="fill:#455a64"></path><path d="M152.84,356.91c-1.36-.19-2.77-.19-4.14-.28s-2.75-.13-4.13-.16c-2.76-.06-5.52-.09-8.28-.12-5.48-.07-11-.09-16.44-.09-3.13,0-6.26.16-9.39.23a.08.08,0,0,0,0,.15c2.76.12,5.51.29,8.27.39s5.52.12,8.28.16c5.56.08,11.12.17,16.69.15,1.54,0,3.08,0,4.62-.06s3.05,0,4.54-.21C153,357.06,152.92,356.92,152.84,356.91Z" style="fill:#455a64"></path><path d="M170.91,294.2c-3.13-.17-6.28-.18-9.4-.54-1.51-.17-3-.44-4.54-.48s-3.14,0-4.7,0a76.42,76.42,0,0,0-9.21.35,75.52,75.52,0,0,1-9.49.85c-.12,0-.13.2,0,.2a70.23,70.23,0,0,1,9.39.78,48.71,48.71,0,0,0,6.5.32,32.39,32.39,0,0,0-4,.35c-2.22.34-4.45.72-6.69.91-.12,0-.13.19,0,.19a58.68,58.68,0,0,1,6.48.61l.93.11c-.77,0-1.54,0-2.31.11-1.11.09-2.22.25-3.33.35-.51.05-1,.1-1.52.13h-.25a1.5,1.5,0,0,0-1.3.17.06.06,0,0,0,0,.12c2.11.28,4.22.66,6.33.94s4.34.33,6.5.44a59.1,59.1,0,0,0,12.68-.44.41.41,0,0,0,0-.77,45.16,45.16,0,0,0-5.41-.77l.34,0c2.12-.18,4.24-.56,6.35-.86.11,0,.12-.21,0-.23-2-.44-4.09-.94-6.16-1.19-.66-.09-1.34-.13-2-.16h.83a41.94,41.94,0,0,0,4.46-.49c3.15-.42,6.36-.42,9.53-.61A.19.19,0,0,0,170.91,294.2Z" style="fill:#d3766a"></path><path d="M164,289.44c-2.1-.32-4.23-.48-6.32-.84a30.54,30.54,0,0,0-6.18-.6c-4.21.15-8.35,1-12.56,1.12-.13,0-.13.2,0,.2,4.21-.08,8.33.79,12.51,1.06a36.76,36.76,0,0,0,6.2-.31c2.11-.21,4.24-.2,6.35-.31A.16.16,0,0,0,164,289.44Z" style="fill:#d3766a"></path><path d="M156.45,304.92c-3.9-.53-7.73-1.51-11.63-2a25.32,25.32,0,0,0-5.64,0c-2,.21-4,.66-6.07.75a.1.1,0,0,0,0,.19,48.83,48.83,0,0,1,5.88.9,31.89,31.89,0,0,0,5.77.49c3.91-.06,7.78-.39,11.68-.07C156.59,305.18,156.59,304.94,156.45,304.92Z" style="fill:#d3766a"></path><path d="M227.88,93.52S222,86.62,211.4,91s-13.25,30-12.34,34.14c0,0,16.91,11.14,34,6.33,0,0-6.19-19.9-3.58-28.62A11.68,11.68,0,0,0,227.88,93.52Z" style="fill:#263238"></path><path d="M229.24,109.92c0,.18,0,.36.09.54a38.38,38.38,0,0,0,1.88,6.62,23.14,23.14,0,0,0,3,5.81s.12,0,.08,0a21,21,0,0,1-2.71-6.12,55.77,55.77,0,0,1-1.55-6.37,53.74,53.74,0,0,1-.82-13.28c0-.09-.15-.11-.16,0-.08.62-.16,1.23-.22,1.84a.08.08,0,0,0-.11.07,60.68,60.68,0,0,0-.1,12.35,45.32,45.32,0,0,0,3.14,11.81,55.84,55.84,0,0,0,2.94,6.21s.06,0,0,0A59.45,59.45,0,0,1,229.24,109.92Z" style="fill:#263238"></path><path d="M213.53,90.36c-9.71,4.21-13.82,14.6-15.11,24.16a44.69,44.69,0,0,0-.4,8.88s.08,0,.08,0a53,53,0,0,1,2.41-15.14c1.45-4.59,3.43-9.28,6.7-13a18.54,18.54,0,0,1,6.37-4.78C213.67,90.47,213.63,90.32,213.53,90.36Z" style="fill:#263238"></path><path d="M201.36,124c-4.89,4.82-39.54,97.45-39.54,97.45l-4.64,2.8s21.62-59.09,37.52-92.95C197.41,125.54,201.36,124,201.36,124Z" style="fill:#455a64"></path><rect x="157.04" y="222.6" width="6.56" height="3.56" transform="translate(-90.71 110.22) rotate(-30)" style="fill:#37474f"></rect><path d="M212.31,140c3.35,17.29,15.21,57.54,24.17,59.93,8.4,2.25,29.47-2,41.12-10.37,2.66-1.92-5.59-24.85-9-24.15-7.21,1.46-19.59,7-23.46,5.93-3.45-.93-16.94-28.11-24.36-38.41C211.75,120.44,211,133.12,212.31,140Z" style="fill:#d3766a"></path><path d="M258.2,190.47c-2.69-2.13,3.31-23,6.57-24.32.62-.25,1.52-.59,3.49-1.54h0a50,50,0,0,0,12.06-8.23c4.15-4.09,9.85-10.65,12.13-8.5,3.35,3.13-2.86,12.29-6.75,17.33,3.43.49,6.33,1.24,7.86,2.29,5.08,3.51-7.68,28.18-13.94,28.63C273.59,196.56,260.9,192.6,258.2,190.47Z" style="fill:#d3766a"></path><path d="M225.31,213.2c-2.9.36-6.32-3.67-5.78-7.46s7.1-6,7.25-6.82-9.86-4.09-15.56-.73c-8.52,5-9.66,13.08-14,16.47-8.54,6.64-29.77,1-42.14,14.55s-4.34,31.63,3.46,41.65S181.73,293.79,196,287c13.84-6.58,14.22-20,20.39-26.18,5.63-5.59,13.55-5.63,22.14-13.75,6-5.68,8-14.61,6.37-15.14-.84-.26-8.38,6.69-12.55,2.17-3.4-3.69,1-10.56,1-10.56Z" style="fill:#a6a6a6"></path><path d="M224.91,215.87c-5.45-3.67-21.1,2.89-30.26,8.95s-8.44,11.63-4.45,16.6,9.39,10.75,10.4,14.45c1.52,5.62-1.67,15.76,2.3,18.63,4.54,3.29,7.57-11.31,13.22-15.8,6.07-4.81,14.75-6.58,20.16-11.4,6.63-5.93,8.09-12.73,7.54-13.1s-8.48,6.06-12.78.53c-3.4-4.38.38-9.81.15-11.37S227,217.25,224.91,215.87Z" style="fill:#ebebeb"></path><path d="M202.89,274.5c-3.52-2.55-1.4-10.82-1.94-16.58,0,0,7.81-2.56,12.49,3.81C209.39,267.63,206.67,277.23,202.89,274.5Z" style="fill:#c7c7c7"></path><path d="M207.05,264.86a1.54,1.54,0,1,1,.27-2.16A1.54,1.54,0,0,1,207.05,264.86Z" style="fill:#263238"></path><path d="M235.49,243.09a1.54,1.54,0,1,1,.27-2.16A1.54,1.54,0,0,1,235.49,243.09Z" style="fill:#c7c7c7"></path><path d="M205.64,271a1.52,1.52,0,0,1-2.16-.27,1.54,1.54,0,1,1,2.16.27Z" style="fill:#263238"></path><polygon points="298.56 159.77 303.31 165.87 223.5 231.77 214.92 220.73 298.56 159.77" style="fill:#FFC727"></polygon><rect x="180.98" y="247.54" width="16.2" height="4.28" transform="translate(270.11 -52.85) rotate(52.13)" style="fill:#fff"></rect><rect x="195.18" y="235.84" width="8.4" height="2.67" transform="translate(264.21 -65.82) rotate(52.13)" style="fill:#263238"></rect><rect x="196.14" y="241.42" width="8.4" height="2.67" transform="translate(268.98 -64.42) rotate(52.13)" style="fill:#263238"></rect><polygon points="296.79 157.5 304.9 167.92 325.23 149.19 321.06 147.45 296.79 157.5" style="fill:#a6a6a6"></polygon><polygon points="186.14 244.58 199.83 234.25 213.57 223.96 241.11 203.48 275.51 177.84 289.36 167.7 303.24 157.61 289.54 167.95 275.81 178.23 241.49 203.99 213.86 224.35 200.02 234.5 186.14 244.58" style="fill:#263238"></polygon><polygon points="192.83 253.19 206.1 242.32 219.41 231.49 246.1 209.93 279.67 183.2 293.1 172.51 306.56 161.88 293.29 172.75 279.98 183.58 246.5 210.42 219.72 231.87 206.3 242.56 192.83 253.19" style="fill:#263238"></polygon><polygon points="188.37 247.45 201.91 236.92 215.49 226.44 242.72 205.56 276.82 179.53 290.51 169.19 304.24 158.9 290.7 169.43 277.12 179.91 243.1 206.06 215.79 226.83 202.1 237.17 188.37 247.45" style="fill:#263238"></polygon><polygon points="190.6 250.32 204.01 239.62 217.45 228.97 244.41 207.74 278.24 181.36 291.8 170.84 305.4 160.38 291.99 171.09 278.54 181.74 244.8 208.24 217.75 229.35 204.2 239.86 190.6 250.32" style="fill:#263238"></polygon><path d="M284.65,163.66c-2.62,1.85,1.06,3.88,1.06,3.88s-6-1.64-8,1.31,2.65,5.15,3,5.31c-.32-.08-5.87-1.45-7.54,1.72s3.21,4.82,3.53,4.92c-.32,0-4.62.28-5.34,3-1.23,4.63,9.78,4.25,12.51,7,0,0-4.16,5.16-4.25,5.33,0,0,10.48-.15,14-4a3.34,3.34,0,0,0,.31-4.18s3.39.33,4.78-2.13c.71-1.26-.67-3.52-.67-3.52a4.18,4.18,0,0,0,3.82-2.11c.89-1.81-.64-3.79-.64-3.79s2.68-1.07,3-3.21C304.85,168.84,290.27,159.71,284.65,163.66Z" style="fill:#d3766a"></path><path d="M301,176s.11,0,.07-.07a30,30,0,0,0-15.58-8.52c-.19,0-.33.26-.13.34A60.84,60.84,0,0,1,301,176Z" style="fill:#263238"></path><path d="M298.15,182.27c.05,0,.12-.05.07-.1a27.93,27.93,0,0,0-17.57-8.24c-.24,0-.46.21-.19.24C285,174.76,293.7,178.92,298.15,182.27Z" style="fill:#263238"></path><path d="M276.23,180.94c6.5.61,12.15,3.24,17.56,6.77.07,0,.13-.06.08-.11-2.18-2.45-5.86-4.35-8.85-5.58a17.16,17.16,0,0,0-8.77-1.31C276.13,180.72,276.09,180.92,276.23,180.94Z" style="fill:#263238"></path><path d="M285.67,167.44c-.23,0,0,.34-.27.31-1-.14-6.81-.45-7.54,1.51-.58,1.57,1.13,3.44,2.07,3.9l2.37,1.16-2.63-.27a11,11,0,0,0-3.48.19,3.86,3.86,0,0,0-2.63,1.72,2.2,2.2,0,0,0,.34,2.75,6.61,6.61,0,0,0,2.94,1.58l3,.85-3.09.18a10.53,10.53,0,0,0-2.54.47,4.19,4.19,0,0,0-2,1.29,2,2,0,0,0-.23,2.08,4.37,4.37,0,0,0,1.87,1.57,35.27,35.27,0,0,0,5.08,1.86c.86.27,1.74.55,2.6.87a6.62,6.62,0,0,1,2.39,1.33,6.94,6.94,0,0,0-2.47-1.09c-.87-.25-1.76-.46-2.65-.67a30,30,0,0,1-5.28-1.62,5.17,5.17,0,0,1-2.31-1.82,2.81,2.81,0,0,1,.23-3.07,5,5,0,0,1,2.47-1.67,10.87,10.87,0,0,1,2.82-.57l-.1,1a7.64,7.64,0,0,1-3.48-1.84,3.19,3.19,0,0,1-.94-1.94,3.62,3.62,0,0,1,.47-2.08,4.85,4.85,0,0,1,3.33-2.18,11.47,11.47,0,0,1,3.83-.15l-.26.89c-1.17-.62-3.31-2.5-2.72-5C278.09,165.74,284.51,167.11,285.67,167.44Z" style="fill:#263238"></path><path d="M285.71,167.54a6.29,6.29,0,0,1-1.29-1.48,1.46,1.46,0,0,1-.09-1.5,3,3,0,0,1,1.34-1.08c.59-.27,1.22-.52,1.88-.76a5.07,5.07,0,0,0-2.12.11,3,3,0,0,0-1.89,1.29,2.14,2.14,0,0,0-.22,1.26,2.23,2.23,0,0,0,.53,1.09A3.44,3.44,0,0,0,285.71,167.54Z" style="fill:#263238"></path><path d="M230,146.34,215.1,158.9s-3.42-14.06-3.68-23.23,3-12,11.05-1.07A97.39,97.39,0,0,1,230,146.34Z" style="fill:#37474f"></path><path d="M225.53,195.67c-.95.92-58,.35-58.26,0-.75-1,17.7-59.28,30.74-69.7,6.69-5.35,15.09-1.68,17.67,1.94,1,1.45,3.21,6.74,4.93,13.37C224.06,154.53,226.36,194.86,225.53,195.67Z" style="fill:#FFC727"></path><path d="M207.22,154.93s-4.94-2.71-5.1-3.77,3.6-7.7,4.88-8.25,7-1,7.92-.84,4.62,6.6,4.44,7.45c-.34,1.53-2.89,4-2.89,4s.06,3.91-.77,4.12-7.15,1.42-7.6.59A17.56,17.56,0,0,1,207.22,154.93Z" style="fill:#fff"></path><path d="M205.32,149.57c1-1.06,2.78-.53,3.56.27s1.39,2.47.8,3.09a2.84,2.84,0,0,1-3.31.18C205,152.38,204.38,150.62,205.32,149.57Z" style="fill:#37474f"></path><path d="M217.13,148.19c-1.15-.53-2.56.52-3,1.43s-.47,2.45.22,2.75a2.85,2.85,0,0,0,2.92-1C218.25,150.32,218.26,148.7,217.13,148.19Z" style="fill:#37474f"></path><path d="M212.05,151.93c-.25,0-.74,1.56-.4,1.61s1.14,0,1.2-.18S212.41,151.84,212.05,151.93Z" style="fill:#37474f"></path><path d="M210.29,155.52a8.43,8.43,0,0,1,.27,1.47,7.52,7.52,0,0,1,0,1.5,9.27,9.27,0,0,1-.27-1.47A9.38,9.38,0,0,1,210.29,155.52Z" style="fill:#37474f"></path><path d="M212.42,155.26a8.1,8.1,0,0,1,.27,1.47,9.25,9.25,0,0,1,0,1.49,8.1,8.1,0,0,1-.27-1.47A8.23,8.23,0,0,1,212.42,155.26Z" style="fill:#37474f"></path><path d="M214.18,155a8.37,8.37,0,0,1,.27,1.48,7.41,7.41,0,0,1,0,1.49,9.27,9.27,0,0,1-.27-1.47A9.38,9.38,0,0,1,214.18,155Z" style="fill:#37474f"></path><path d="M211,135.49c-3.28.07-7.62-5.84-8.91-10.16-.08-.3.92-3,2-6.35.64-2,1.3-4.31,1.75-6.43.1-.44,12.63,6.08,12.63,6.08a34.68,34.68,0,0,0-3,7.87,5.77,5.77,0,0,0-.1.89.76.76,0,0,1,0,.15C215.26,129.26,214.19,135.42,211,135.49Z" style="fill:#d3766a"></path><path d="M215.34,127.54a8.2,8.2,0,0,1-1.38-.22c-7-1.64-7.63-10.73-7.6-14.65,2.36.89,12.12,6,12.12,6a34.63,34.63,0,0,0-3,7.88,4.57,4.57,0,0,0-.1.88A.81.81,0,0,1,215.34,127.54Z" style="fill:#263238"></path><path d="M210.88,94.72c-3.26,3.85-6.43,17.67-4.51,21.88,2.79,6.11,10.1,9.72,16,5.74,5.7-3.86,9.51-21.93,7.11-26C225.93,90.24,215.7,89,210.88,94.72Z" style="fill:#d3766a"></path><path d="M206.11,116.34h0" style="fill:none;stroke:#f7a9a0;stroke-linecap:round;stroke-linejoin:round;stroke-width:0px"></path><path d="M220,108.11s-.08,0-.09.06c-.19.94-.56,2-1.48,2.09a0,0,0,0,0,0,.06C219.44,110.41,219.92,109,220,108.11Z" style="fill:#263238"></path><path d="M219.35,106.94c-1.47-.46-2.29,2.51-.93,2.94S220.58,107.33,219.35,106.94Z" style="fill:#263238"></path><path d="M225.12,109.3s.06.06,0,.1c-.29.91-.46,2,.29,2.54,0,0,0,.06,0,0C224.46,111.57,224.7,110.12,225.12,109.3Z" style="fill:#263238"></path><path d="M226.21,108.57c1.51.29.8,3.29-.6,3S224.94,108.32,226.21,108.57Z" style="fill:#263238"></path><path d="M218.93,103.74c.35.25.72.42,1.1.64a2.06,2.06,0,0,0,1.23.43.65.65,0,0,0,.54-.59,1.61,1.61,0,0,0-.93-1.35,2.4,2.4,0,0,0-1.67-.37A.69.69,0,0,0,218.93,103.74Z" style="fill:#263238"></path><path d="M228.3,107a10.61,10.61,0,0,1-1.26,0,2,2,0,0,1-1.28-.28.66.66,0,0,1-.15-.78,1.63,1.63,0,0,1,1.5-.66,2.37,2.37,0,0,1,1.62.56A.7.7,0,0,1,228.3,107Z" style="fill:#263238"></path><path d="M216.58,116.18c.16.28.3.64.62.76a2.7,2.7,0,0,0,1.06,0s.05,0,0,.06a1.27,1.27,0,0,1-1.3.17,1,1,0,0,1-.5-1C216.48,116.14,216.55,116.14,216.58,116.18Z" style="fill:#263238"></path><path d="M218.31,113.69a3.28,3.28,0,0,0,1.7,2,4.31,4.31,0,0,0,1.12.36.83.83,0,0,0,.22,0l.21,0a.25.25,0,0,0,.24-.16h0a.36.36,0,0,0,0-.1h0l0-.08c.22-.7.44-1.8.44-1.8.23.2,1.38,1.16,1.47.79a49.05,49.05,0,0,0,1.4-9.82c0-.11-.16-.13-.17,0-.76,3-1,6.05-1.7,9.05a5.69,5.69,0,0,0-1.36-.86c-.11,0-.4,2.13-.52,2.44l0,0a4.51,4.51,0,0,1-3-1.91C218.36,113.56,218.27,113.61,218.31,113.69Z" style="fill:#263238"></path><path d="M220.75,115.66a3.78,3.78,0,0,1-1.83.66,1.76,1.76,0,0,1-1-.26c-.66-.43-.46-1.1-.14-1.62a4.14,4.14,0,0,1,.6-.77A5,5,0,0,0,220.75,115.66Z" style="fill:#263238"></path><path d="M218.92,116.32a1.76,1.76,0,0,1-1-.26c-.66-.43-.46-1.1-.14-1.62A1.79,1.79,0,0,1,218.92,116.32Z" style="fill:#ff9bbc"></path><path d="M216,117.32a2.58,2.58,0,0,0,2.4.9,3,3,0,0,1-1.2,2l.26-.75a5.3,5.3,0,0,1-1.8,1.93,3.1,3.1,0,0,1,0-1.75l-.33.91A3.76,3.76,0,0,1,216,117.32Z" style="fill:#263238"></path><path d="M208.75,106.1c1-.27,3.95-3.9,3.95-3.9s9.26.91,13.75-5.6c0,0,.6,5.87,3.37,8.43,0,0,4.18-7.13-1.94-11.51,0,0-4.8-5.81-13.47-2.48s-7.72,14.19-7.72,14.19Z" style="fill:#263238"></path><path d="M226.93,95.19a7.34,7.34,0,0,1-2,3.38,13.75,13.75,0,0,1-3.1,2.43,12.28,12.28,0,0,1-3.71,1.53,15.69,15.69,0,0,1-4.59,0s-.05.08,0,.08a17.27,17.27,0,0,0,4.76.19,12.29,12.29,0,0,0,3.95-1.37,10,10,0,0,0,3.3-2.58,8.57,8.57,0,0,0,1.57-3.65A.08.08,0,0,0,226.93,95.19Z" style="fill:#263238"></path><path d="M209.13,106.34s-1.23-5.37-3.54-5.1-2.59,7.22-.7,9a2.43,2.43,0,0,0,3.52,0Z" style="fill:#d3766a"></path><path d="M205.56,103.23a0,0,0,0,0,0,.06,6.13,6.13,0,0,1,1.5,4.78,1.34,1.34,0,0,0-1.73-1.1s0,.09,0,.1a1.5,1.5,0,0,1,1.34,1.11,7.15,7.15,0,0,1,.22,1.54c0,.16.3.19.32,0v0C208,107.72,207.61,104.3,205.56,103.23Z" style="fill:#263238"></path><path d="M243.81,232.48a4.54,4.54,0,0,1-4.68,2.23,6.73,6.73,0,0,1-1.22,4.41c-1.71,2.18-5.88.46-5.88.46a8.27,8.27,0,0,1-2,4.44c-1.85,1.93-6.3.79-6.3.79a7.28,7.28,0,0,1-4.25,2.78c-4.59.85-9.42-4.41-12.52-7.72s-8.79-15.61-10.11-17.84L217.9,202s18.13,10.9,21.22,15.31C241.73,221,245.44,229.34,243.81,232.48Z" style="fill:#d3766a"></path><path d="M239.33,234.24c-1.82-4.61-4.9-8.44-7.77-12.43-.06-.09-.2,0-.14.1,2.9,3.94,5,8.4,7.71,12.45C239.2,234.47,239.38,234.37,239.33,234.24Z" style="fill:#263238"></path><path d="M232.24,239.25a12.6,12.6,0,0,0-1.92-2.79c-.74-.94-1.51-1.86-2.28-2.77-1.56-1.83-3.15-3.62-4.8-5.37-.08-.08-.21,0-.14.1,1.55,1.83,3.07,3.67,4.53,5.56q1.11,1.43,2.19,2.85a15.07,15.07,0,0,0,2.16,2.61A.17.17,0,0,0,232.24,239.25Z" style="fill:#263238"></path><path d="M223.63,244.73a8.85,8.85,0,0,0-1.86-2.42l-2.16-2.46c-1.43-1.66-2.87-3.31-4.24-5-.07-.08-.21,0-.14.1,1.39,1.74,2.75,3.49,4.16,5.21.69.85,1.38,1.69,2.08,2.53a8.39,8.39,0,0,0,2.08,2.12A.06.06,0,0,0,223.63,244.73Z" style="fill:#263238"></path><path d="M196.82,222c-7.39-11.32-24.61-39.23-23.19-47.11s15.81-38.11,19.2-44.22,8.34-5.85,7.55,3.71-4.53,37.4-4.77,39.53,22,25.41,24.42,29.31S198.31,224.31,196.82,222Z" style="fill:#d3766a"></path><path d="M200.38,150.66l-19.45.92s5.84-13.24,11.2-20.68,9.65-7.75,9.43,5.87A98.67,98.67,0,0,1,200.38,150.66Z" style="fill:#37474f"></path><path d="M215.35,127.46c1.59,2.9,3.13,69.27,3.13,69.27l5.16.78s-5.35-64.19-6.69-68.46C216.22,126.7,215.35,127.46,215.35,127.46Z" style="fill:#455a64"></path><path d="M248.28,223.94c2.29-1.53,4.66-2.88,7.06-4.17s4.85-2.49,7.3-3.66,4.95-2.25,7.49-3.26,5.08-2,7.72-2.76c-2.29,1.53-4.66,2.88-7.06,4.17s-4.85,2.49-7.3,3.66-5,2.25-7.49,3.26S250.92,223.16,248.28,223.94Z" style="fill:#263238"></path><path d="M252.86,237c2.62.85,5.15,1.88,7.65,3s4.95,2.25,7.39,3.45,4.84,2.5,7.2,3.86,4.7,2.76,6.95,4.35c-2.62-.85-5.15-1.87-7.65-3s-4.95-2.26-7.39-3.46-4.84-2.49-7.2-3.85S255.11,238.61,252.86,237Z" style="fill:#263238"></path><path d="M256.49,231.36c3.94-.09,7.86,0,11.78.21s7.83.46,11.73.77,7.81.72,11.7,1.21,7.78,1,11.65,1.77c-3.94.09-7.87,0-11.78-.21s-7.83-.46-11.74-.78-7.8-.72-11.69-1.21S260.36,232.1,256.49,231.36Z" style="fill:#263238"></path><path d="M260.14,224.13c3.66-1.46,7.37-2.73,11.1-3.94s7.49-2.32,11.26-3.4,7.56-2.07,11.37-3,7.64-1.78,11.53-2.44c-3.66,1.46-7.38,2.74-11.11,3.94s-7.49,2.32-11.25,3.4-7.56,2.07-11.38,3S264,223.46,260.14,224.13Z" style="fill:#263238"></path></g><g id="freepik--Speakers--inject-84"><polygon points="610.18 432.92 581.96 432.92 581.96 415.54 591.41 400.9 610.18 400.9 610.18 432.92" style="fill:#455a64"></polygon><polygon points="685.13 432.92 610.18 432.92 610.18 400.9 677.68 400.9 685.13 432.92" style="fill:#37474f"></polygon><rect x="77.45" y="370.25" width="103.86" height="73.63" style="fill:#a6a6a6"></rect><rect x="82.93" y="390.34" width="92.9" height="47.77" style="fill:#ebebeb"></rect><rect x="84.79" y="391.7" width="89.18" height="45.04" style="fill:#263238"></rect><path d="M87.43,392.74c.1,7.16.08,14.32.12,21.48s0,14.32-.12,21.48c-.11-7.16-.09-14.32-.13-21.48S87.32,399.9,87.43,392.74Z" style="fill:#455a64"></path><path d="M90.42,392.74c.11,7.16.08,14.32.13,21.48s0,14.32-.13,21.48c-.11-7.16-.08-14.32-.12-21.48S90.31,399.9,90.42,392.74Z" style="fill:#455a64"></path><path d="M93.42,392.74c.11,7.16.08,14.32.12,21.48s0,14.32-.12,21.48c-.11-7.16-.08-14.32-.13-21.48S93.31,399.9,93.42,392.74Z" style="fill:#455a64"></path><path d="M96.42,392.74c.1,7.16.08,14.32.12,21.48s0,14.32-.12,21.48c-.11-7.16-.08-14.32-.13-21.48S96.31,399.9,96.42,392.74Z" style="fill:#455a64"></path><path d="M99.41,392.74c.11,7.16.08,14.32.13,21.48s0,14.32-.13,21.48c-.11-7.16-.08-14.32-.12-21.48S99.31,399.9,99.41,392.74Z" style="fill:#455a64"></path><path d="M102.41,392.74c.11,7.16.08,14.32.12,21.48s0,14.32-.12,21.48c-.11-7.16-.08-14.32-.13-21.48S102.3,399.9,102.41,392.74Z" style="fill:#455a64"></path><path d="M105.41,392.74c.1,7.16.08,14.32.12,21.48s0,14.32-.12,21.48c-.11-7.16-.08-14.32-.13-21.48S105.3,399.9,105.41,392.74Z" style="fill:#455a64"></path><path d="M108.4,392.74c.11,7.16.08,14.32.13,21.48s0,14.32-.13,21.48c-.1-7.16-.08-14.32-.12-21.48S108.3,399.9,108.4,392.74Z" style="fill:#455a64"></path><path d="M111.4,392.74c.11,7.16.08,14.32.13,21.48s0,14.32-.13,21.48c-.11-7.16-.08-14.32-.12-21.48S111.29,399.9,111.4,392.74Z" style="fill:#455a64"></path><path d="M114.4,392.74c.1,7.16.08,14.32.12,21.48s0,14.32-.12,21.48c-.11-7.16-.08-14.32-.13-21.48S114.29,399.9,114.4,392.74Z" style="fill:#455a64"></path><path d="M117.39,392.74c.11,7.16.08,14.32.13,21.48s0,14.32-.13,21.48c-.1-7.16-.08-14.32-.12-21.48S117.29,399.9,117.39,392.74Z" style="fill:#455a64"></path><path d="M120.39,392.74c.11,7.16.08,14.32.13,21.48s0,14.32-.13,21.48c-.11-7.16-.08-14.32-.12-21.48S120.28,399.9,120.39,392.74Z" style="fill:#455a64"></path><path d="M123.39,392.74c.11,7.16.08,14.32.12,21.48s0,14.32-.12,21.48c-.11-7.16-.08-14.32-.13-21.48S123.28,399.9,123.39,392.74Z" style="fill:#455a64"></path><path d="M126.38,392.74c.11,7.16.08,14.32.13,21.48s0,14.32-.13,21.48c-.1-7.16-.08-14.32-.12-21.48S126.28,399.9,126.38,392.74Z" style="fill:#455a64"></path><path d="M129.38,392.74c.11,7.16.08,14.32.13,21.48s0,14.32-.13,21.48c-.11-7.16-.08-14.32-.12-21.48S129.27,399.9,129.38,392.74Z" style="fill:#455a64"></path><path d="M132.38,392.74c.11,7.16.08,14.32.12,21.48s0,14.32-.12,21.48c-.11-7.16-.08-14.32-.13-21.48S132.27,399.9,132.38,392.74Z" style="fill:#455a64"></path><path d="M135.38,392.74c.1,7.16.08,14.32.12,21.48s0,14.32-.12,21.48c-.11-7.16-.09-14.32-.13-21.48S135.27,399.9,135.38,392.74Z" style="fill:#455a64"></path><path d="M138.37,392.74c.11,7.16.08,14.32.13,21.48s0,14.32-.13,21.48c-.11-7.16-.08-14.32-.12-21.48S138.26,399.9,138.37,392.74Z" style="fill:#455a64"></path><path d="M141.37,392.74c.11,7.16.08,14.32.12,21.48s0,14.32-.12,21.48c-.11-7.16-.08-14.32-.13-21.48S141.26,399.9,141.37,392.74Z" style="fill:#455a64"></path><path d="M144.37,392.74c.1,7.16.08,14.32.12,21.48s0,14.32-.12,21.48c-.11-7.16-.08-14.32-.13-21.48S144.26,399.9,144.37,392.74Z" style="fill:#455a64"></path><path d="M147.36,392.74c.11,7.16.08,14.32.13,21.48s0,14.32-.13,21.48c-.11-7.16-.08-14.32-.12-21.48S147.26,399.9,147.36,392.74Z" style="fill:#455a64"></path><path d="M150.36,392.74c.11,7.16.08,14.32.12,21.48s0,14.32-.12,21.48c-.11-7.16-.08-14.32-.13-21.48S150.25,399.9,150.36,392.74Z" style="fill:#455a64"></path><path d="M153.36,392.74c.1,7.16.08,14.32.12,21.48s0,14.32-.12,21.48c-.11-7.16-.08-14.32-.13-21.48S153.25,399.9,153.36,392.74Z" style="fill:#455a64"></path><path d="M156.35,392.74c.11,7.16.08,14.32.13,21.48s0,14.32-.13,21.48c-.1-7.16-.08-14.32-.12-21.48S156.25,399.9,156.35,392.74Z" style="fill:#455a64"></path><path d="M159.35,392.74c.11,7.16.08,14.32.13,21.48s0,14.32-.13,21.48c-.11-7.16-.08-14.32-.12-21.48S159.24,399.9,159.35,392.74Z" style="fill:#455a64"></path><path d="M162.35,392.74c.1,7.16.08,14.32.12,21.48s0,14.32-.12,21.48c-.11-7.16-.08-14.32-.13-21.48S162.24,399.9,162.35,392.74Z" style="fill:#455a64"></path><path d="M165.34,392.74c.11,7.16.08,14.32.13,21.48s0,14.32-.13,21.48c-.1-7.16-.08-14.32-.12-21.48S165.24,399.9,165.34,392.74Z" style="fill:#455a64"></path><path d="M168.34,392.74c.11,7.16.08,14.32.13,21.48s0,14.32-.13,21.48c-.11-7.16-.08-14.32-.12-21.48S168.23,399.9,168.34,392.74Z" style="fill:#455a64"></path><path d="M171.34,392.74c.11,7.16.08,14.32.12,21.48s0,14.32-.12,21.48c-.11-7.16-.08-14.32-.13-21.48S171.23,399.9,171.34,392.74Z" style="fill:#455a64"></path><path d="M172.78,396.24c-14.46.1-28.93.08-43.4.12s-28.93,0-43.4-.12c14.47-.11,28.93-.08,43.4-.13S158.32,396.13,172.78,396.24Z" style="fill:#455a64"></path><path d="M172.78,399.23c-14.46.11-28.93.08-43.4.13s-28.93,0-43.4-.13c14.47-.1,28.93-.08,43.4-.12S158.32,399.13,172.78,399.23Z" style="fill:#455a64"></path><path d="M172.78,402.23c-14.46.11-28.93.08-43.4.13s-28.93,0-43.4-.13c14.47-.11,28.93-.08,43.4-.12S158.32,402.12,172.78,402.23Z" style="fill:#455a64"></path><path d="M172.78,405.23c-14.46.11-28.93.08-43.4.12s-28.93,0-43.4-.12c14.47-.11,28.93-.08,43.4-.13S158.32,405.12,172.78,405.23Z" style="fill:#455a64"></path><path d="M172.78,408.23c-14.46.1-28.93.08-43.4.12s-28.93,0-43.4-.12c14.47-.11,28.93-.09,43.4-.13S158.32,408.12,172.78,408.23Z" style="fill:#455a64"></path><path d="M172.78,411.22c-14.46.11-28.93.08-43.4.13s-28.93,0-43.4-.13c14.47-.11,28.93-.08,43.4-.12S158.32,411.11,172.78,411.22Z" style="fill:#455a64"></path><path d="M172.78,414.22c-14.46.11-28.93.08-43.4.12s-28.93,0-43.4-.12c14.47-.11,28.93-.08,43.4-.13S158.32,414.11,172.78,414.22Z" style="fill:#455a64"></path><path d="M172.78,417.22c-14.46.1-28.93.08-43.4.12s-28.93,0-43.4-.12c14.47-.11,28.93-.08,43.4-.13S158.32,417.11,172.78,417.22Z" style="fill:#455a64"></path><path d="M172.78,420.21c-14.46.11-28.93.08-43.4.13s-28.93,0-43.4-.13c14.47-.11,28.93-.08,43.4-.12S158.32,420.11,172.78,420.21Z" style="fill:#455a64"></path><path d="M172.78,423.21c-14.46.11-28.93.08-43.4.12s-28.93,0-43.4-.12c14.47-.11,28.93-.08,43.4-.13S158.32,423.1,172.78,423.21Z" style="fill:#455a64"></path><path d="M172.78,426.21c-14.46.1-28.93.08-43.4.12s-28.93,0-43.4-.12c14.47-.11,28.93-.08,43.4-.13S158.32,426.1,172.78,426.21Z" style="fill:#455a64"></path><path d="M172.78,429.2c-14.46.11-28.93.08-43.4.13s-28.93,0-43.4-.13c14.47-.1,28.93-.08,43.4-.12S158.32,429.1,172.78,429.2Z" style="fill:#455a64"></path><path d="M172.78,432.2c-14.46.11-28.93.08-43.4.12s-28.93,0-43.4-.12c14.47-.11,28.93-.08,43.4-.12S158.32,432.09,172.78,432.2Z" style="fill:#455a64"></path><rect x="82.93" y="376.01" width="44.51" height="10.06" style="fill:#37474f"></rect><rect x="132.46" y="376.01" width="14.07" height="4.4" rx="2.2" style="fill:#37474f"></rect><path d="M155.94,378.21a2.2,2.2,0,1,1-2.2-2.2A2.2,2.2,0,0,1,155.94,378.21Z" style="fill:#37474f"></path><path d="M162.52,378.21a2.2,2.2,0,1,1-2.2-2.2A2.21,2.21,0,0,1,162.52,378.21Z" style="fill:#37474f"></path><path d="M169.09,378.21a2.2,2.2,0,1,1-2.2-2.2A2.2,2.2,0,0,1,169.09,378.21Z" style="fill:#37474f"></path><circle cx="173.47" cy="378.21" r="2.2" style="fill:#37474f"></circle><path d="M91.73,381a3.15,3.15,0,1,1-3.15-3.15A3.15,3.15,0,0,1,91.73,381Z" style="fill:#FFC727"></path><path d="M102.8,381a3.15,3.15,0,1,1-3.15-3.15A3.15,3.15,0,0,1,102.8,381Z" style="fill:#FFC727"></path><path d="M113.87,381a3.15,3.15,0,1,1-3.15-3.15A3.15,3.15,0,0,1,113.87,381Z" style="fill:#FFC727"></path><path d="M124.94,381a3.15,3.15,0,1,1-3.15-3.15A3.15,3.15,0,0,1,124.94,381Z" style="fill:#FFC727"></path><rect x="83.01" y="443.88" width="12.08" height="2.59" style="fill:#37474f"></rect><rect x="163.67" y="443.88" width="12.08" height="2.59" style="fill:#37474f"></rect><rect x="168.22" y="367.66" width="8.67" height="2.59" style="fill:#37474f"></rect></g></svg>