<?xml version="1.0" encoding="UTF-8" standalone="no"?>
<svg
   viewBox="0 0 500 500"
   version="1.1"
   id="svg262"
   sodipodi:docname="facts.svg"
   inkscape:version="1.1 (c4e8f9e, 2021-05-24)"
   xmlns:inkscape="http://www.inkscape.org/namespaces/inkscape"
   xmlns:sodipodi="http://sodipodi.sourceforge.net/DTD/sodipodi-0.dtd"
   xmlns="http://www.w3.org/2000/svg"
   xmlns:svg="http://www.w3.org/2000/svg">
  <defs
     id="defs266" />
  <sodipodi:namedview
     id="namedview264"
     pagecolor="#ffffff"
     bordercolor="#666666"
     borderopacity="1.0"
     inkscape:pageshadow="2"
     inkscape:pageopacity="0.0"
     inkscape:pagecheckerboard="0"
     showgrid="false"
     inkscape:zoom="1.506"
     inkscape:cx="250"
     inkscape:cy="256.3081"
     inkscape:window-width="1792"
     inkscape:window-height="984"
     inkscape:window-x="0"
     inkscape:window-y="25"
     inkscape:window-maximized="1"
     inkscape:current-layer="svg262" />
  <g
     id="freepik--background-complete--inject-8"
     transform="matrix(1.1354582,0,0,1.1354582,-32.528548,-29.978751)">
    <rect
       y="382.39999"
       width="500"
       height="0.25"
       style="fill:#ebebeb"
       id="rect9"
       x="0" />
    <rect
       x="52.459999"
       y="391.92001"
       width="33.119999"
       height="0.25"
       style="fill:#ebebeb"
       id="rect11" />
    <rect
       x="171.14"
       y="389.20999"
       width="55.419998"
       height="0.25"
       style="fill:#ebebeb"
       id="rect13" />
    <rect
       x="91"
       y="397.85999"
       width="19.190001"
       height="0.25"
       style="fill:#ebebeb"
       id="rect15" />
    <rect
       x="385.45999"
       y="391.79999"
       width="43.189999"
       height="0.25"
       style="fill:#ebebeb"
       id="rect17" />
    <rect
       x="437.56"
       y="391.79999"
       width="6.3299999"
       height="0.25"
       style="fill:#ebebeb"
       id="rect19" />
    <rect
       x="277.20999"
       y="395.31"
       width="46.84"
       height="0.25"
       style="fill:#ebebeb"
       id="rect21" />
    <path
       d="M 237,337.8 H 43.91 a 5.71,5.71 0 0 1 -5.7,-5.71 V 60.66 A 5.71,5.71 0 0 1 43.91,55 H 237 a 5.71,5.71 0 0 1 5.71,5.71 V 332.09 A 5.71,5.71 0 0 1 237,337.8 Z M 43.91,55.2 a 5.46,5.46 0 0 0 -5.45,5.46 v 271.43 a 5.46,5.46 0 0 0 5.45,5.46 H 237 a 5.47,5.47 0 0 0 5.46,-5.46 V 60.66 A 5.47,5.47 0 0 0 237,55.2 Z"
       style="fill:#ebebeb"
       id="path23" />
    <path
       d="m 453.31,337.8 h -193.1 a 5.72,5.72 0 0 1 -5.71,-5.71 V 60.66 A 5.72,5.72 0 0 1 260.21,55 h 193.1 a 5.71,5.71 0 0 1 5.69,5.66 v 271.43 a 5.71,5.71 0 0 1 -5.69,5.71 z M 260.21,55.2 a 5.47,5.47 0 0 0 -5.46,5.46 v 271.43 a 5.47,5.47 0 0 0 5.46,5.46 h 193.1 a 5.47,5.47 0 0 0 5.46,-5.46 V 60.66 a 5.47,5.47 0 0 0 -5.46,-5.46 z"
       style="fill:#ebebeb"
       id="path25" />
    <rect
       x="104.78"
       y="74.389999"
       width="193.06"
       height="138.59"
       style="fill:#fafafa"
       id="rect27" />
    <polygon
       points="200.9,74.39 250,212.99 286.85,212.99 237.75,74.39 "
       style="fill:#ffffff"
       id="polygon29" />
    <polygon
       points="125.22,74.39 174.32,212.99 187.76,212.99 138.66,74.39 "
       style="fill:#ffffff"
       id="polygon31" />
    <path
       d="m 95.58,69.63 h 211.47 a 0.85,0.85 0 0 1 0.85,0.86 v 0 a 0.85,0.85 0 0 1 -0.85,0.85 H 95.58 a 0.86,0.86 0 0 1 -0.86,-0.85 v 0 a 0.86,0.86 0 0 1 0.86,-0.86 z"
       style="fill:#e0e0e0"
       id="path33" />
    <rect
       x="200.17"
       y="74.099998"
       width="2.29"
       height="139.19"
       style="fill:#f0f0f0"
       id="rect35" />
    <rect
       x="199.02"
       y="74.099998"
       width="1.14"
       height="139.19"
       style="fill:#e0e0e0"
       id="rect37" />
    <rect
       x="200.17"
       y="45.830002"
       width="2.29"
       height="195.73"
       transform="rotate(-90,201.31,143.69)"
       style="fill:#f0f0f0"
       id="rect39" />
    <path
       d="m 103.45,212 v 0 -139 h 195.72 v 139 0 2.29 H 103.45 Z m 193.44,0 V 75.35 H 105.74 V 212 Z"
       style="fill:#f0f0f0"
       id="path41" />
    <rect
       x="102.3"
       y="73.059998"
       width="1.14"
       height="141.25999"
       style="fill:#e0e0e0"
       id="rect43" />
    <polygon
       points="90.51,230.29 98.09,67.53 131.83,67.53 131.83,230.29 "
       style="opacity:0.5;fill:#ebebeb"
       id="polygon45" />
    <polygon
       points="310.97,230.29 303.39,67.53 269.65,67.53 269.65,230.29 "
       style="opacity:0.5;fill:#ebebeb"
       id="polygon47" />
    <rect
       x="61.919998"
       y="249.78999"
       width="15.76"
       height="127.83"
       style="fill:#f0f0f0"
       id="rect49" />
    <rect
       x="64.949997"
       y="377.62"
       width="173.63"
       height="4.7800002"
       style="fill:#f0f0f0"
       id="rect51" />
    <rect
       x="77.68"
       y="249.78999"
       width="163.92"
       height="127.83"
       transform="rotate(180,159.645,313.705)"
       style="fill:#f5f5f5"
       id="rect53" />
    <rect
       x="59.939999"
       y="245.62"
       width="16.110001"
       height="4.1700001"
       style="fill:#f0f0f0"
       id="rect55" />
    <rect
       x="76.050003"
       y="245.62"
       width="167.53999"
       height="4.1700001"
       transform="rotate(180,159.815,247.705)"
       style="fill:#fafafa"
       id="rect57" />
    <path
       d="M 235.94,321.73 H 83.35 V 258.54 H 235.94 Z M 84.41,320.67 H 234.88 V 259.6 H 84.41 Z"
       style="fill:#e0e0e0"
       id="path59" />
    <path
       d="M 235.94,368.86 H 83.35 V 328.05 H 235.94 Z M 84.41,367.8 H 234.88 V 329.11 H 84.41 Z"
       style="fill:#e0e0e0"
       id="path61" />
    <rect
       x="103.91"
       y="259.07001"
       width="111.47"
       height="3.3900001"
       rx="1.4"
       style="fill:#e0e0e0"
       id="rect63" />
    <rect
       x="103.91"
       y="328.57999"
       width="111.47"
       height="3.3900001"
       rx="1.4"
       style="fill:#e0e0e0"
       id="rect65" />
    <rect
       x="347.85999"
       y="96.550003"
       width="91.68"
       height="279.72"
       transform="rotate(180,393.7,236.405)"
       style="fill:#f0f0f0"
       id="rect67" />
    <rect
       x="344.95001"
       y="96.550003"
       width="2.9100001"
       height="279.72"
       style="fill:#e0e0e0"
       id="rect69" />
    <rect
       x="362.73001"
       y="107.22"
       width="61.93"
       height="258.38"
       transform="rotate(180,393.7,236.405)"
       style="fill:#fafafa"
       id="rect71" />
  </g>
  <g
     id="freepik--Shadow--inject-8"
     transform="matrix(1.1354582,0,0,1.1354582,-32.528548,-29.978751)">
    <ellipse
       id="freepik--path--inject-8"
       cx="250"
       cy="416.23999"
       rx="193.89"
       ry="11.32"
       style="fill:#f5f5f5" />
  </g>
  <g
     id="freepik--Character--inject-8"
     transform="matrix(1.1354582,0,0,1.1354582,-32.528548,-29.978751)">
    <polygon
       points="146.39,385.64 138.56,388.61 143.36,407.53 151.19,404.56 "
       style="fill:#b55b52"
       id="polygon76" />
    <polygon
       points="94.16,388.29 85.78,388.29 84.53,407.69 92.9,407.69 "
       style="fill:#b55b52"
       id="polygon78" />
    <path
       d="M 93.74,406.72 H 83.53 a 0.69,0.69 0 0 0 -0.69,0.57 l -1.28,7.44 a 1.31,1.31 0 0 0 1.3,1.49 c 3.28,-0.06 5.67,-0.25 9.81,-0.25 2.54,0 10.23,0.27 13.75,0.27 3.52,0 3.8,-3.48 2.34,-3.8 -6.52,-1.41 -11.48,-3.35 -13.64,-5.21 a 2.14,2.14 0 0 0 -1.38,-0.51 z"
       style="fill:#263238"
       id="path80" />
    <path
       d="m 150.79,403.68 -8.55,3.24 a 0.74,0.74 0 0 0 -0.47,0.79 l 1.1,7.54 a 1.21,1.21 0 0 0 1.65,1 c 3.06,-1.22 5.67,-2.77 9.57,-4.17 a 64.73,64.73 0 0 0 12.78,-5.75 c 2.9,-1.84 1.68,-5.34 0.31,-4.79 -6.22,2.5 -7.75,3.32 -14.28,2.06 a 3.87,3.87 0 0 0 -2.11,0.08 z"
       style="fill:#263238"
       id="path82" />
    <path
       d="m 128.7,152.49 c 2.63,4.66 5.41,9.46 8.21,14.1 2.8,4.64 5.67,9.28 8.72,13.6 0.73,1.09 1.55,2.14 2.29,3.15 a 2.53,2.53 0 0 0 0.65,0.76 2.47,2.47 0 0 0 1.52,0.24 10.74,10.74 0 0 0 2.79,-0.67 33.78,33.78 0 0 0 6.46,-3.38 c 1.08,-0.71 2.18,-1.44 3.25,-2.22 1.07,-0.78 2.15,-1.62 3.13,-2.37 l 4.69,4.18 a 44.24,44.24 0 0 1 -2.75,3.57 44.8,44.8 0 0 1 -3,3.31 39,39 0 0 1 -3.43,3.07 28.58,28.58 0 0 1 -4,2.74 19.91,19.91 0 0 1 -5.08,2.07 13.51,13.51 0 0 1 -6.75,0 12.71,12.71 0 0 1 -6.17,-3.89 c -1,-1.16 -2,-2.25 -2.9,-3.4 A 155.64,155.64 0 0 1 126.24,173.3 c -3.1,-4.82 -6,-9.65 -8.66,-14.79 z"
       style="fill:#b65b52"
       id="path84" />
    <path
       d="m 113.84,152.88 c -2.25,7.68 13.64,28.62 13.64,28.62 l 16,-10.31 a 102.06,102.06 0 0 0 -11.11,-18.84 c -6.53,-8.35 -16.05,-7.9 -18.53,0.53 z"
       style="fill:#407bff"
       id="path86" />
    <path
       d="m 113.84,152.88 c -2.25,7.68 13.64,28.62 13.64,28.62 l 16,-10.31 a 102.06,102.06 0 0 0 -11.11,-18.84 c -6.53,-8.35 -16.05,-7.9 -18.53,0.53 z"
       style="opacity:0.2"
       id="path88" />
    <path
       d="m 123.61,161.89 c 3.3,1.41 8.15,9.35 10.68,15.24 l -6.81,4.37 a 128.61,128.61 0 0 1 -10.22,-16 c 2.15,-2.39 4.61,-4.35 6.35,-3.61 z"
       style="opacity:0.2"
       id="path90" />
    <path
       d="m 164.73,178.31 2.94,-8.23 8.33,4 c 0,0 -1.73,7.33 -7.83,7.32 z"
       style="fill:#b55b52"
       id="path92" />
    <polygon
       points="176,174.06 167.67,170.08 175.08,164.67 178.61,168.56 "
       style="fill:#b55b52"
       id="polygon94" />
    <polygon
       points="141.03,398.37 138.56,388.62 146.39,385.65 148.86,395.4 "
       style="opacity:0.2"
       id="polygon96" />
    <polygon
       points="93.51,398.29 85.13,398.29 85.78,388.3 94.16,388.3 "
       style="opacity:0.2"
       id="polygon98" />
    <path
       d="m 76.52,149.48 c 9,31.81 7.54,65.56 8.1,72.42 l 44.76,-1.68 c 7.61,-47.42 -6,-73.81 -6,-73.81 0,0 -2.87,-0.55 -6.78,-0.95 -1.22,-0.13 -2.54,-0.24 -3.92,-0.31 -0.76,-0.05 -1.53,-0.07 -2.31,-0.09 a 165.25,165.25 0 0 0 -19,1.42 c -1.19,0.15 -2.4,0.32 -3.58,0.52 -1.18,0.2 -2.15,0.38 -3.16,0.58 -4.63,0.91 -8.11,1.9 -8.11,1.9 z"
       style="fill:#407bff"
       id="path100" />
    <path
       d="m 76.52,149.48 c 9,31.81 7.54,65.56 8.1,72.42 l 44.76,-1.68 c 7.61,-47.42 -6,-73.81 -6,-73.81 0,0 -2.87,-0.55 -6.78,-0.95 -1.22,-0.13 -2.54,-0.24 -3.92,-0.31 -0.76,-0.05 -1.53,-0.07 -2.31,-0.09 a 165.25,165.25 0 0 0 -19,1.42 c -1.19,0.15 -2.4,0.32 -3.58,0.52 -1.18,0.2 -2.15,0.38 -3.16,0.58 -4.63,0.91 -8.11,1.9 -8.11,1.9 z"
       style="opacity:0.2"
       id="path102" />
    <path
       d="m 86.05,163.13 c 0.8,3.07 -0.12,17.12 -3.33,20.58 -0.44,-4.5 -1,-9.19 -1.8,-14 z"
       style="opacity:0.2"
       id="path104" />
    <path
       d="m 91.62,125 c 1.65,6 3.68,17.12 -0.29,21.51 3.57,3.06 8.19,6.55 15.46,6.26 7.27,-0.29 5.64,-5.18 3.53,-7.67 -6.94,-1.12 -7.14,-6.18 -6.3,-11 z"
       style="fill:#b55b52"
       id="path106" />
    <polygon
       points="103.48,154 104.72,151.76 106.98,151.7 108.3,152.59 "
       style="fill:#407bff"
       id="polygon108" />
    <polygon
       points="113.14,154 112.81,151.41 108.8,151.23 108.3,152.59 "
       style="fill:#407bff"
       id="polygon110" />
    <path
       d="m 88.44,146 1.9,-0.95 a 1.85,1.85 0 0 1 1.92,0.16 38.13,38.13 0 0 0 14.74,6.49 c -3.82,1.82 -2.88,6.72 -2.88,6.72 0,0 -12.15,-4 -16,-11.26 A 0.86,0.86 0 0 1 88.44,146 Z"
       style="fill:#ffffff"
       id="path112" />
    <path
       d="m 112.44,144.75 -2.79,-0.42 a 0.37,0.37 0 0 0 -0.36,0.58 c 1,1.39 2.6,4.44 -0.49,6.32 3.82,1.82 5,6.29 5,6.29 0,0 5,-5.37 -0.82,-12.46 a 0.93,0.93 0 0 0 -0.54,-0.31 z"
       style="fill:#ffffff"
       id="path114" />
    <path
       d="M 96.67,128.66 104,134 a 19.21,19.21 0 0 0 -0.33,3.42 c -2.63,-0.18 -6.42,-2.77 -6.9,-5.48 a 9.29,9.29 0 0 1 -0.1,-3.28 z"
       style="opacity:0.2"
       id="path116" />
    <path
       d="m 112.87,112.61 c -0.34,2.91 -3.13,5.41 -4.93,6 L 105.69,106 c 5.05,-3.57 7.65,2.53 7.18,6.61 z"
       style="fill:#263238"
       id="path118" />
    <path
       d="m 89.09,116.1 c 1.46,8.18 1.89,13.05 6.54,16.8 7,5.64 16.73,0.69 17.75,-7.76 0.92,-7.61 -1.62,-19.71 -10.06,-22.06 A 11.34,11.34 0 0 0 89.09,116.1 Z"
       style="fill:#b55b52"
       id="path120" />
    <path
       d="m 90.65,121.62 c 3.79,2 5.45,-2.51 5.49,-4.35 0,-2.92 -1.22,-6.13 -2.73,-7.3 7.32,0 21.8,-0.36 18.14,-7.33 -3.66,-6.97 -11,-6.18 -16.47,-2.36 -2.91,2 -12.33,0.26 -10,5.69 -4.91,2.61 -0.65,12.34 5.57,15.65 z"
       style="fill:#263238"
       id="path122" />
    <path
       d="m 85.88,105.52 a 6,6 0 0 1 -3.61,-1.23 3.43,3.43 0 0 0 3.2,2.65 z"
       style="fill:#263238"
       id="path124" />
    <path
       d="m 86,122.83 a 8,8 0 0 0 4.57,4 c 2.64,0.85 3.24,-1.57 2.6,-4.11 -0.58,-2.3 -1.82,-5.41 -4.51,-5.16 -2.69,0.25 -3.78,2.97 -2.66,5.27 z"
       style="fill:#b55b52"
       id="path126" />
    <path
       d="m 139.13,308.75 c -3.4,-25.33 -9.75,-88.53 -9.75,-88.53 L 100,221.33 c 0,0 13.88,63.15 18.9,88.76 5.02,25.61 19,87.41 19,87.41 l 13.26,-5 c 0,0 -8.48,-57.41 -12.03,-83.75 z"
       style="fill:#263238"
       id="path128" />
    <path
       d="m 111,238.35 a 15.58,15.58 0 0 0 -6.55,3.35 c 2.78,12.77 6.41,29.58 9.53,44.39 2.08,-12.83 2.14,-37.04 -2.98,-47.74 z"
       style="opacity:0.2"
       id="path130" />
    <path
       d="m 113.51,220.82 c 0,0 -6.25,68.56 -9.11,92.92 -3.13,26.69 -7,82.62 -7,82.62 H 82 c 0,0 -0.63,-49.47 1.36,-75.59 2.27,-29.75 1.25,-98.87 1.25,-98.87 z"
       style="fill:#263238"
       id="path132" />
    <polygon
       points="80.96,391.29 101.12,390.94 99.4,396.69 81.34,396.69 "
       style="fill:#407bff"
       id="polygon134" />
    <polygon
       points="135.16,393.04 152.72,386.08 152.89,392.16 137.09,398.15 "
       style="fill:#407bff"
       id="polygon136" />
    <path
       d="m 101.86,117 c 0.07,0.68 0.49,1.18 0.93,1.13 0.44,-0.05 0.73,-0.64 0.65,-1.31 -0.08,-0.67 -0.49,-1.17 -0.93,-1.12 -0.44,0.05 -0.73,0.59 -0.65,1.3 z"
       style="fill:#263238"
       id="path138" />
    <path
       d="m 109.44,116.09 c 0.08,0.67 0.5,1.17 0.93,1.12 0.43,-0.05 0.74,-0.63 0.66,-1.3 -0.08,-0.67 -0.5,-1.18 -0.94,-1.13 -0.44,0.05 -0.73,0.64 -0.65,1.31 z"
       style="fill:#263238"
       id="path140" />
    <path
       d="m 107.07,116.7 a 24.13,24.13 0 0 0 3.86,5.37 3.86,3.86 0 0 1 -3.13,1 z"
       style="fill:#a02724"
       id="path142" />
    <path
       d="m 105.18,125.16 a 5.57,5.57 0 0 1 -4.05,-1.76 0.2,0.2 0 1 1 0.31,-0.25 5.36,5.36 0 0 0 4.57,1.58 0.19,0.19 0 0 1 0.22,0.17 0.2,0.2 0 0 1 -0.17,0.22 5.33,5.33 0 0 1 -0.88,0.04 z"
       style="fill:#263238"
       id="path144" />
    <path
       d="m 99.24,114.78 a 0.35,0.35 0 0 1 -0.2,0 0.39,0.39 0 0 1 -0.14,-0.54 3.94,3.94 0 0 1 3,-2 0.4,0.4 0 0 1 0.42,0.38 0.39,0.39 0 0 1 -0.38,0.41 v 0 a 3.18,3.18 0 0 0 -2.38,1.61 0.36,0.36 0 0 1 -0.32,0.14 z"
       style="fill:#263238"
       id="path146" />
    <path
       d="m 112.41,113.11 a 0.41,0.41 0 0 1 -0.33,-0.19 3.12,3.12 0 0 0 -2.43,-1.52 0.4,0.4 0 0 1 0,-0.8 4,4 0 0 1 3.09,1.9 0.39,0.39 0 0 1 -0.12,0.54 0.38,0.38 0 0 1 -0.21,0.07 z"
       style="fill:#263238"
       id="path148" />
    <path
       d="m 96.58,408.18 a 10.18,10.18 0 0 1 -2.21,-0.3 0.2,0.2 0 0 1 -0.15,-0.16 0.18,0.18 0 0 1 0.08,-0.2 c 0.29,-0.19 2.91,-1.85 3.86,-1.38 a 0.68,0.68 0 0 1 0.37,0.56 1.13,1.13 0 0 1 -0.36,1.05 2.42,2.42 0 0 1 -1.59,0.43 z m -1.64,-0.58 c 1.43,0.28 2.52,0.23 3,-0.15 a 0.8,0.8 0 0 0 0.24,-0.72 c 0,-0.16 -0.09,-0.21 -0.14,-0.23 -0.53,-0.25 -2.04,0.5 -3.1,1.1 z"
       style="fill:#407bff"
       id="path150" />
    <path
       d="m 94.42,407.88 a 0.23,0.23 0 0 1 -0.11,0 0.22,0.22 0 0 1 -0.1,-0.18 c 0,-0.1 0.09,-2.52 1,-3.31 a 1,1 0 0 1 0.83,-0.26 v 0 a 0.69,0.69 0 0 1 0.66,0.52 c 0.22,0.93 -1.36,2.77 -2.21,3.24 a 0.13,0.13 0 0 1 -0.07,-0.01 z m 1.52,-3.39 a 0.67,0.67 0 0 0 -0.44,0.17 4.54,4.54 0 0 0 -0.86,2.63 c 0.83,-0.66 1.82,-2 1.69,-2.6 0,-0.05 0,-0.16 -0.3,-0.2 z"
       style="fill:#407bff"
       id="path152" />
    <path
       d="m 152,404.47 a 0.19,0.19 0 0 1 -0.18,-0.11 0.2,0.2 0 0 1 0,-0.22 c 0.29,-0.32 2.83,-3.11 4,-2.94 a 0.62,0.62 0 0 1 0.5,0.37 v 0 a 1.1,1.1 0 0 1 0,1 c -0.57,1.08 -2.93,1.63 -4.29,1.85 z m 3.69,-2.88 c -0.67,0 -2.13,1.31 -3.15,2.38 1.84,-0.37 3.1,-0.94 3.42,-1.55 a 0.74,0.74 0 0 0 0,-0.68 0.24,0.24 0 0 0 -0.19,-0.15 z"
       style="fill:#407bff"
       id="path154" />
    <path
       d="m 152,404.47 h -0.06 a 0.2,0.2 0 0 1 -0.14,-0.14 c 0,-0.09 -0.61,-2.28 0.07,-3.48 a 1.45,1.45 0 0 1 0.91,-0.7 v 0 c 0.53,-0.15 0.77,0.06 0.89,0.25 0.48,0.83 -0.75,3.24 -1.54,4 a 0.16,0.16 0 0 1 -0.13,0.07 z m 1.09,-4 h -0.21 v 0 a 1,1 0 0 0 -0.66,0.52 4.62,4.62 0 0 0 -0.12,2.81 c 0.74,-1 1.51,-2.76 1.22,-3.26 -0.04,0.02 -0.09,-0.06 -0.26,-0.05 z m -0.26,-0.16 z"
       style="fill:#407bff"
       id="path156" />
    <path
       d="m 85.72,161.32 c -2.51,5.17 -5.07,10.51 -7.55,15.77 -1.23,2.65 -2.47,5.29 -3.63,7.94 l -1.74,4 -0.8,1.97 -0.2,0.5 -0.15,0.37 c -0.1,0.23 -0.17,0.48 -0.26,0.71 a 12.2,12.2 0 0 0 -0.32,6.09 21,21 0 0 0 2.63,6.65 41.73,41.73 0 0 0 4.76,6.44 c 0.91,1 1.87,2.06 2.87,3 0.5,0.48 1,1 1.53,1.43 0.53,0.43 1.06,1 1.5,1.35 L 81,222.89 a 40.15,40.15 0 0 1 -4.19,-2.46 c -1.33,-0.87 -2.63,-1.79 -3.89,-2.79 a 43,43 0 0 1 -7,-7 29.33,29.33 0 0 1 -5.05,-9.36 22.54,22.54 0 0 1 -0.49,-11.58 c 0.13,-0.47 0.23,-1 0.38,-1.42 l 0.39,-1.24 0.7,-2.21 c 0.5,-1.45 1,-2.91 1.52,-4.34 1.05,-2.87 2.15,-5.71 3.34,-8.51 C 69,166.4 71.57,161 74.43,155.53 Z"
       style="fill:#b65b52"
       id="path158" />
    <path
       d="m 76.52,149.48 c -7.64,2.39 -15.15,28.3 -15.15,28.3 L 79,185.52 c 0,0 5.72,-12.52 9,-22.33 3.63,-10.69 -2.23,-16.61 -11.48,-13.71 z"
       style="fill:#407bff"
       id="path160" />
    <path
       d="m 76.52,149.48 c -7.64,2.39 -15.15,28.3 -15.15,28.3 L 79,185.52 c 0,0 5.72,-12.52 9,-22.33 3.63,-10.69 -2.23,-16.61 -11.48,-13.71 z"
       style="opacity:0.2"
       id="path162" />
    <path
       d="m 82.46,215.92 7.31,4.34 -7.11,7.08 c 0,0 -6.17,-4.75 -4.33,-8.47 z"
       style="fill:#b55b52"
       id="path164" />
    <polygon
       points="82.66,227.34 89.77,220.26 94.66,227.19 87.32,232.33 "
       style="fill:#b55b52"
       id="polygon166" />
  </g>
  <g
     id="freepik--Screen--inject-8"
     transform="matrix(1.1354582,0,0,1.1354582,-32.528548,-29.978751)">
    <rect
       x="446.29999"
       y="215.99001"
       width="4.8299999"
       height="1"
       transform="rotate(-85.86,448.69963,216.50124)"
       style="fill:#407bff"
       id="rect169" />
    <rect
       x="442.69"
       y="202.34"
       width="14.01"
       height="1"
       transform="rotate(-85.86,449.67588,202.84137)"
       style="fill:#407bff"
       id="rect171" />
    <path
       d="M 422.32,353 H 177.39 a 12.54,12.54 0 0 1 -12.64,-13.61 l 13,-180.8 A 14.9,14.9 0 0 1 192.3,145 h 244.93 a 12.53,12.53 0 0 1 12.64,13.6 l -13,180.8 A 14.9,14.9 0 0 1 422.32,353 Z"
       style="fill:#407bff"
       id="path173" />
    <polygon
       points="271.67,318 351.18,318 365.35,416.24 285.84,416.24 "
       style="fill:#407bff"
       id="polygon175" />
    <polygon
       points="265.01,416.24 351.02,416.24 352.72,410.38 266.72,410.38 "
       style="fill:#407bff"
       id="polygon177" />
    <polygon
       points="271.67,318 348.55,318 355.37,365.29 277.88,361.06 "
       style="fill:#263238"
       id="polygon179" />
    <path
       d="M 419.56,353 H 174.62 A 12.53,12.53 0 0 1 162,339.35 l 13,-180.8 A 14.9,14.9 0 0 1 189.53,145 h 244.94 a 12.53,12.53 0 0 1 12.63,13.6 l -13,180.8 A 14.89,14.89 0 0 1 419.56,353 Z"
       style="fill:#263238"
       id="path181" />
    <rect
       x="391.26001"
       y="211.73"
       width="103.98"
       height="0.95999998"
       transform="rotate(-85.9,443.22664,212.21016)"
       style="fill:#ffffff"
       id="rect183" />
    <rect
       x="419.60001"
       y="290.54999"
       width="36.009998"
       height="0.95999998"
       transform="rotate(-85.9,437.61043,291.02721)"
       style="fill:#ffffff"
       id="rect185" />
    <path
       d="M 419,349.58 H 175.62 a 9.76,9.76 0 0 1 -9.83,-10.6 L 178.7,158.92 a 11.6,11.6 0 0 1 11.35,-10.59 h 243.42 a 9.76,9.76 0 0 1 9.83,10.59 L 430.39,339 A 11.6,11.6 0 0 1 419,349.58 Z"
       style="fill:#ffffff"
       id="path187" />
    <path
       d="M 419,349.58 H 175.62 a 9.76,9.76 0 0 1 -9.83,-10.6 L 178.7,158.92 a 11.6,11.6 0 0 1 11.35,-10.59 h 243.42 a 9.76,9.76 0 0 1 9.83,10.59 L 430.39,339 A 11.6,11.6 0 0 1 419,349.58 Z"
       style="opacity:0.2;fill:#407bff"
       id="path189" />
    <path
       d="m 238.06,341.6 h -56.84 a 4.71,4.71 0 0 1 -4.75,-5.12 l 12.54,-175 a 5.6,5.6 0 0 1 5.49,-5.12 h 56.84 a 4.7,4.7 0 0 1 4.75,5.12 l -12.54,175 a 5.61,5.61 0 0 1 -5.49,5.12 z"
       style="opacity:0.5;fill:#ffffff"
       id="path191" />
    <path
       d="m 235.86,181 h -29.42 a 4.25,4.25 0 0 1 -4.28,-4.61 l 0.32,-4.51 a 5.05,5.05 0 0 1 4.94,-4.61 h 29.43 a 4.25,4.25 0 0 1 4.28,4.61 l -0.33,4.51 a 5,5 0 0 1 -4.94,4.61 z"
       style="opacity:0.4;fill:#407bff"
       id="path193" />
    <path
       d="m 217.15,251.8 h -44.91 a 7.4,7.4 0 0 1 -7.47,-8 L 168,198.84 a 8.81,8.81 0 0 1 8.62,-8 h 44.92 a 7.4,7.4 0 0 1 7.46,8 l -3.22,44.92 a 8.8,8.8 0 0 1 -8.63,8.04 z"
       style="fill:#407bff"
       id="path195" />
    <path
       d="m 223.59,215 a 3.36,3.36 0 0 0 -3.28,3.07 l -0.47,6.52 a 2.82,2.82 0 0 0 2.85,3.06 h 4.56 a 0.82,0.82 0 0 0 0.81,-0.76 l 0.8,-11.13 A 0.7,0.7 0 0 0 228.15,215 Z"
       style="fill:#ffffff"
       id="path197" />
    <path
       d="M 206.26,202.23 H 178 A 1.13,1.13 0 0 1 176.86,201 v 0 a 1.34,1.34 0 0 1 1.32,-1.23 h 28.31 a 1.13,1.13 0 0 1 1.14,1.23 v 0 a 1.35,1.35 0 0 1 -1.37,1.23 z"
       style="fill:#ffffff"
       id="path199" />
    <path
       d="M 205.82,208.48 H 177.5 a 1.13,1.13 0 0 1 -1.14,-1.23 v 0 a 1.34,1.34 0 0 1 1.32,-1.22 H 206 a 1.12,1.12 0 0 1 1.14,1.22 v 0 a 1.34,1.34 0 0 1 -1.32,1.23 z"
       style="fill:#ffffff"
       id="path201" />
    <path
       d="m 195.58,214.74 h -18.53 a 1.14,1.14 0 0 1 -1.14,-1.23 v 0 a 1.34,1.34 0 0 1 1.32,-1.23 h 18.53 a 1.13,1.13 0 0 1 1.14,1.23 v 0 a 1.35,1.35 0 0 1 -1.32,1.23 z"
       style="fill:#ffffff"
       id="path203" />
    <path
       d="M 206.34,244.54 H 179 a 4.84,4.84 0 0 1 -4.88,-5.26 l 1,-14.39 a 5.74,5.74 0 0 1 5.63,-5.25 h 27.39 a 4.84,4.84 0 0 1 4.88,5.25 l -1,14.39 a 5.76,5.76 0 0 1 -5.68,5.26 z"
       style="opacity:0.5;fill:#ffffff"
       id="path205" />
    <path
       d="m 231.91,268.62 h -34.08 a 2.1,2.1 0 0 1 -2.12,-2.28 v 0 a 2.5,2.5 0 0 1 2.45,-2.28 h 34.08 a 2.1,2.1 0 0 1 2.11,2.28 v 0 a 2.49,2.49 0 0 1 -2.44,2.28 z"
       style="opacity:0.4;fill:#407bff"
       id="path207" />
    <path
       d="m 225,277.57 h -21.58 a 2.1,2.1 0 0 1 -2.12,-2.28 v 0 a 2.49,2.49 0 0 1 2.44,-2.28 h 21.63 a 2.09,2.09 0 0 1 2.11,2.28 v 0 a 2.49,2.49 0 0 1 -2.48,2.28 z"
       style="opacity:0.8;fill:#ffffff"
       id="path209" />
    <path
       d="m 230.14,293.31 h -34.08 a 2.11,2.11 0 0 1 -2.12,-2.28 v 0 a 2.5,2.5 0 0 1 2.45,-2.28 h 34.08 a 2.1,2.1 0 0 1 2.11,2.28 v 0 a 2.49,2.49 0 0 1 -2.44,2.28 z"
       style="opacity:0.4;fill:#407bff"
       id="path211" />
    <path
       d="m 223.27,302.25 h -21.62 a 2.09,2.09 0 0 1 -2.12,-2.27 v 0 A 2.49,2.49 0 0 1 202,297.7 h 21.6 a 2.1,2.1 0 0 1 2.12,2.28 v 0 a 2.49,2.49 0 0 1 -2.45,2.27 z"
       style="opacity:0.8;fill:#ffffff"
       id="path213" />
    <path
       d="m 228.37,318 h -34.08 a 2.11,2.11 0 0 1 -2.12,-2.28 v 0 a 2.49,2.49 0 0 1 2.45,-2.28 h 34.08 a 2.09,2.09 0 0 1 2.11,2.28 v 0 a 2.49,2.49 0 0 1 -2.44,2.28 z"
       style="opacity:0.4;fill:#407bff"
       id="path215" />
    <path
       d="m 221.5,326.94 h -21.62 a 2.1,2.1 0 0 1 -2.12,-2.28 v 0 a 2.5,2.5 0 0 1 2.44,-2.28 h 21.63 a 2.11,2.11 0 0 1 2.12,2.28 v 0 a 2.49,2.49 0 0 1 -2.45,2.28 z"
       style="opacity:0.8;fill:#ffffff"
       id="path217" />
    <path
       d="m 421.68,290.27 c 1.48,-2.26 4.87,-1.31 4.68,1.3 l -3.28,45.76 c -0.17,2.35 -1.95,4.27 -4,4.27 H 254.27 c -2,0 -3.52,-1.92 -3.35,-4.27 l 2,-27.19 a 5.89,5.89 0 0 1 7.42,-5.23 c 9.29,2.89 17.25,1.19 24.65,-2.48 15.82,-7.85 29.06,-24.71 47.25,-24.71 0.7,0 1.39,0 2.06,0.06 27.06,1.63 35.3,35.25 56.26,35.25 6.2,0 11.85,-2.68 16.78,-6.49 5.98,-4.67 10.91,-11.04 14.34,-16.27 z"
       style="opacity:0.5;fill:#407bff"
       id="path219" />
    <path
       d="m 425.1,309.12 -2,28.21 c -0.17,2.35 -1.95,4.27 -4,4.27 H 254.27 c -2,0 -3.52,-1.92 -3.35,-4.27 l 4,-56.06 c 0.27,-3.84 5.3,-5.46 7.34,-2.35 5.26,8 13.35,18.39 22.66,23.51 a 23.15,23.15 0 0 0 11.13,3.15 c 13.32,0 24.65,-15.79 38.18,-27.8 8.29,-7.36 17.41,-13.3 28.32,-13.3 22.77,0 26.13,37 44.72,42.06 3.58,1 7.73,0.77 12.69,-1.13 a 3.69,3.69 0 0 1 5.14,3.71 z"
       style="opacity:0.5;fill:#407bff"
       id="path221" />
    <g
       style="opacity:0.8"
       id="g229">
      <path
         d="m 425.91,298.18 a 0.37,0.37 0 0 1 -0.24,-0.1 0.26,0.26 0 0 1 -0.07,-0.11 0.31,0.31 0 0 1 0,-0.13 0.33,0.33 0 0 1 0.1,-0.24 0.34,0.34 0 0 1 0.48,0 0.31,0.31 0 0 1 0.1,0.24 0.59,0.59 0 0 1 0,0.13 0.44,0.44 0 0 1 -0.08,0.11 0.35,0.35 0 0 1 -0.29,0.1 z"
         style="fill:#ffffff"
         id="path223" />
      <path
         d="m 265.64,321.61 a 0.34,0.34 0 0 1 -0.34,-0.34 v 0 a 0.34,0.34 0 0 1 0.34,-0.33 v 0 a 0.34,0.34 0 0 1 0.34,0.34 v 0 a 0.35,0.35 0 0 1 -0.34,0.35 v 0 z m -3.43,-0.19 v 0 a 0.33,0.33 0 0 1 -0.31,-0.37 v 0 a 0.34,0.34 0 0 1 0.38,-0.3 v 0 a 0.34,0.34 0 0 1 0.3,0.37 v 0 a 0.35,0.35 0 0 1 -0.34,0.31 v 0 z m 6.47,-0.3 a 0.34,0.34 0 0 1 0.3,-0.38 v 0 a 0.34,0.34 0 0 1 0.38,0.3 v 0 a 0.34,0.34 0 0 1 -0.3,0.38 v 0 a 0.34,0.34 0 0 1 -0.38,-0.3 z m -9.85,-0.22 a 0.36,0.36 0 0 1 -0.27,-0.41 v 0 a 0.36,0.36 0 0 1 0.41,-0.27 v 0 a 0.36,0.36 0 0 1 0.27,0.41 v 0 a 0.35,0.35 0 0 1 -0.34,0.27 z m 13.19,-0.34 a 0.34,0.34 0 0 1 0.25,-0.42 v 0 a 0.35,0.35 0 0 1 0.41,0.25 v 0 a 0.35,0.35 0 0 1 -0.25,0.42 h -0.08 A 0.33,0.33 0 0 1 272,320.56 Z m 109.37,0.14 a 0.34,0.34 0 0 1 -0.34,-0.34 v 0 a 0.34,0.34 0 0 1 0.34,-0.34 v 0 a 0.34,0.34 0 0 1 0.34,0.34 v 0 a 0.34,0.34 0 0 1 -0.34,0.34 z m 3.05,-0.48 a 0.33,0.33 0 0 1 0.3,-0.37 v 0 a 0.33,0.33 0 0 1 0.38,0.3 v 0 a 0.35,0.35 0 0 1 -0.31,0.38 v 0 a 0.35,0.35 0 0 1 -0.37,-0.31 z m -6.47,0.27 a 0.33,0.33 0 0 1 -0.29,-0.38 v 0 a 0.34,0.34 0 0 1 0.38,-0.3 v 0 a 0.35,0.35 0 0 1 0.3,0.38 v 0 a 0.35,0.35 0 0 1 -0.34,0.31 v 0 z m -122.46,-0.41 a 0.34,0.34 0 0 1 -0.24,-0.42 v 0 a 0.36,0.36 0 0 1 0.43,-0.24 v 0 a 0.35,0.35 0 0 1 0.23,0.43 v 0 a 0.33,0.33 0 0 1 -0.33,0.24 h -0.09 z m 132.29,-0.33 a 0.33,0.33 0 0 1 0.27,-0.4 v 0 a 0.34,0.34 0 0 1 0.4,0.27 v 0 a 0.34,0.34 0 0 1 -0.27,0.4 h -0.06 a 0.35,0.35 0 0 1 -0.34,-0.27 z m -13.19,0.12 a 0.32,0.32 0 0 1 -0.25,-0.41 v 0 a 0.34,0.34 0 0 1 0.41,-0.25 v 0 a 0.34,0.34 0 0 1 0.25,0.41 v 0 a 0.34,0.34 0 0 1 -0.33,0.26 h -0.08 z m -99.35,-0.28 a 0.33,0.33 0 0 1 0.2,-0.44 v 0 a 0.34,0.34 0 0 1 0.44,0.19 v 0 a 0.34,0.34 0 0 1 -0.2,0.44 v 0 a 0.27,0.27 0 0 1 -0.12,0 v 0 a 0.35,0.35 0 0 1 -0.32,-0.19 z M 391.11,319 a 0.34,0.34 0 0 1 0.24,-0.43 v 0 a 0.34,0.34 0 0 1 0.42,0.24 v 0 a 0.34,0.34 0 0 1 -0.24,0.42 v 0 h -0.09 v 0 A 0.34,0.34 0 0 1 391.11,319 Z m -19.78,-0.12 v 0 a 0.34,0.34 0 0 1 -0.21,-0.43 v 0 a 0.35,0.35 0 0 1 0.44,-0.21 v 0 a 0.35,0.35 0 0 1 0.21,0.44 v 0 a 0.35,0.35 0 0 1 -0.33,0.22 v 0 a 0.2,0.2 0 0 1 -0.11,-0.02 z m -93,-0.64 a 0.34,0.34 0 0 1 0.15,-0.46 v 0 a 0.35,0.35 0 0 1 0.46,0.16 v 0 a 0.33,0.33 0 0 1 -0.15,0.45 v 0 a 0.29,0.29 0 0 1 -0.16,0 v 0 a 0.34,0.34 0 0 1 -0.26,-0.15 z m 116,-0.24 a 0.33,0.33 0 0 1 0.2,-0.43 v 0 a 0.35,0.35 0 0 1 0.43,0.21 v 0 a 0.35,0.35 0 0 1 -0.21,0.44 v 0 h -0.11 v 0 A 0.34,0.34 0 0 1 394.36,318 Z m -26.19,-0.42 v 0 a 0.34,0.34 0 0 1 -0.17,-0.45 v 0 a 0.35,0.35 0 0 1 0.45,-0.17 v 0 a 0.34,0.34 0 0 1 0.17,0.46 v 0 a 0.35,0.35 0 0 1 -0.31,0.2 v 0 a 0.23,0.23 0 0 1 -0.11,-0.04 z m 29.36,-0.78 a 0.33,0.33 0 0 1 0.19,-0.44 v 0 a 0.32,0.32 0 0 1 0.44,0.18 v 0 a 0.34,0.34 0 0 1 -0.18,0.45 v 0 a 0.3,0.3 0 0 1 -0.13,0 v 0 a 0.35,0.35 0 0 1 -0.29,-0.19 z m -116.2,-0.2 a 0.35,0.35 0 0 1 0.11,-0.48 v 0 a 0.34,0.34 0 0 1 0.47,0.11 v 0 a 0.34,0.34 0 0 1 -0.11,0.47 v 0 a 0.3,0.3 0 0 1 -0.18,0.06 v 0 a 0.36,0.36 0 0 1 -0.26,-0.16 z m 83.79,-0.55 v 0 a 0.35,0.35 0 0 1 -0.14,-0.47 v 0 a 0.35,0.35 0 0 1 0.47,-0.13 v 0 a 0.34,0.34 0 0 1 0.13,0.46 v 0 a 0.35,0.35 0 0 1 -0.3,0.18 v 0 a 0.47,0.47 0 0 1 -0.13,-0.04 z m 35.52,-0.62 a 0.34,0.34 0 0 1 0.16,-0.45 v 0 a 0.35,0.35 0 0 1 0.46,0.16 v 0 a 0.34,0.34 0 0 1 -0.17,0.45 v 0 h -0.15 v 0 a 0.34,0.34 0 0 1 -0.27,-0.16 z m -116.49,-0.71 a 0.35,0.35 0 0 1 0.08,-0.48 v 0 a 0.35,0.35 0 0 1 0.48,0.07 v 0 a 0.35,0.35 0 0 1 -0.08,0.48 v 0 a 0.37,0.37 0 0 1 -0.2,0.07 v 0 a 0.35,0.35 0 0 1 -0.25,-0.14 z m 78,-0.38 v 0 a 0.33,0.33 0 0 1 -0.11,-0.46 v 0 a 0.32,0.32 0 0 1 0.46,-0.12 v 0 a 0.34,0.34 0 0 1 0.12,0.47 v 0 a 0.35,0.35 0 0 1 -0.29,0.17 v 0 a 0.37,0.37 0 0 1 -0.13,-0.06 z m 41.51,-0.43 a 0.34,0.34 0 0 1 0.14,-0.46 v 0 a 0.35,0.35 0 0 1 0.46,0.14 v 0 a 0.35,0.35 0 0 1 -0.14,0.47 v 0 a 0.47,0.47 0 0 1 -0.16,0 v 0 a 0.34,0.34 0 0 1 -0.25,-0.15 z m -116.81,-1.24 a 0.34,0.34 0 0 1 0.05,-0.48 v 0 a 0.35,0.35 0 0 1 0.48,0.05 v 0 a 0.36,0.36 0 0 1 0,0.49 v 0 a 0.36,0.36 0 0 1 -0.22,0.07 v 0 a 0.3,0.3 0 0 1 -0.26,-0.13 z m 72.42,-0.15 v 0 a 0.34,0.34 0 0 1 -0.1,-0.47 v 0 a 0.35,0.35 0 0 1 0.48,-0.1 v 0 a 0.35,0.35 0 0 1 0.1,0.47 v 0 a 0.34,0.34 0 0 1 -0.29,0.16 v 0 a 0.41,0.41 0 0 1 -0.14,-0.06 z m 47.36,-0.25 a 0.34,0.34 0 0 1 0.12,-0.47 v 0 a 0.35,0.35 0 0 1 0.47,0.12 v 0 a 0.35,0.35 0 0 1 -0.12,0.47 v 0 a 0.41,0.41 0 0 1 -0.18,0.05 v 0 a 0.34,0.34 0 0 1 -0.24,-0.17 z m -50.19,-1.64 a 0.35,0.35 0 0 1 -0.09,-0.48 v 0 a 0.36,0.36 0 0 1 0.48,-0.09 v 0 a 0.36,0.36 0 0 1 0.09,0.48 v 0 a 0.35,0.35 0 0 1 -0.29,0.15 v 0 a 0.35,0.35 0 0 1 -0.14,-0.06 z m 53.09,-0.12 a 0.36,0.36 0 0 1 0.11,-0.48 v 0 a 0.34,0.34 0 0 1 0.47,0.11 v 0 a 0.34,0.34 0 0 1 -0.11,0.47 v 0 a 0.28,0.28 0 0 1 -0.18,0.06 v 0 a 0.36,0.36 0 0 1 -0.24,-0.16 z m -120,0 a 0.35,0.35 0 0 1 0,-0.48 v 0 a 0.36,0.36 0 0 1 0.49,0 v 0 a 0.34,0.34 0 0 1 0,0.48 v 0 a 0.3,0.3 0 0 1 -0.22,0.08 v 0 a 0.35,0.35 0 0 1 -0.27,-0.06 z m 122.9,-1.88 a 0.35,0.35 0 0 1 0.08,-0.48 v 0 a 0.34,0.34 0 0 1 0.48,0.09 v 0 a 0.34,0.34 0 0 1 -0.09,0.47 v 0 a 0.35,0.35 0 0 1 -0.19,0.06 v 0 a 0.34,0.34 0 0 1 -0.28,-0.12 z m -58.75,0.08 a 0.33,0.33 0 0 1 -0.09,-0.47 v 0 a 0.34,0.34 0 0 1 0.47,-0.1 v 0 a 0.34,0.34 0 0 1 0.09,0.48 v 0 a 0.32,0.32 0 0 1 -0.28,0.15 v 0 a 0.35,0.35 0 0 1 -0.19,-0.04 z m -61.54,-0.38 a 0.33,0.33 0 0 1 0,-0.48 v 0 a 0.35,0.35 0 0 1 0.48,0 v 0 a 0.34,0.34 0 0 1 0,0.48 v 0 a 0.32,0.32 0 0 1 -0.22,0.08 v 0 a 0.32,0.32 0 0 1 -0.26,-0.06 z m 58.72,-1.5 a 0.33,0.33 0 0 1 -0.1,-0.47 v 0 a 0.33,0.33 0 0 1 0.47,-0.1 v 0 a 0.34,0.34 0 0 1 0.1,0.47 v 0 a 0.32,0.32 0 0 1 -0.28,0.15 v 0 a 0.32,0.32 0 0 1 -0.19,-0.03 z m 64.35,-0.16 a 0.33,0.33 0 0 1 0.07,-0.47 v 0 a 0.35,0.35 0 0 1 0.48,0.07 v 0 a 0.35,0.35 0 0 1 -0.08,0.48 v 0 a 0.36,0.36 0 0 1 -0.2,0.06 v 0 a 0.31,0.31 0 0 1 -0.27,-0.12 z m -120.46,-0.51 a 0.34,0.34 0 0 1 0,-0.48 v 0 a 0.35,0.35 0 0 1 0.48,0.05 v 0 a 0.34,0.34 0 0 1 -0.05,0.48 v 0 a 0.3,0.3 0 0 1 -0.22,0.08 v 0 a 0.33,0.33 0 0 1 -0.21,-0.11 z M 348,305 a 0.34,0.34 0 0 1 -0.11,-0.47 v 0 a 0.34,0.34 0 0 1 0.47,-0.11 v 0 a 0.34,0.34 0 0 1 0.11,0.47 v 0 a 0.35,0.35 0 0 1 -0.29,0.17 v 0 A 0.3,0.3 0 0 1 348,305 Z m 69.92,-0.36 a 0.34,0.34 0 0 1 0.06,-0.48 v 0 a 0.34,0.34 0 0 1 0.48,0.06 v 0 a 0.36,0.36 0 0 1 -0.06,0.48 v 0 a 0.31,0.31 0 0 1 -0.2,0.07 v 0 a 0.34,0.34 0 0 1 -0.3,-0.11 z M 297.4,304.06 a 0.35,0.35 0 0 1 0.07,-0.48 v 0 a 0.35,0.35 0 0 1 0.48,0.07 v 0 a 0.35,0.35 0 0 1 -0.07,0.48 v 0 a 0.37,0.37 0 0 1 -0.2,0.07 v 0 a 0.35,0.35 0 0 1 -0.3,-0.12 z m 47.69,-0.79 a 0.34,0.34 0 0 1 -0.12,-0.47 v 0 a 0.33,0.33 0 0 1 0.46,-0.12 v 0 a 0.33,0.33 0 0 1 0.13,0.46 v 0 a 0.35,0.35 0 0 1 -0.3,0.18 v 0 a 0.41,0.41 0 0 1 -0.19,-0.03 z m 75.48,-0.75 a 0.34,0.34 0 0 1 0.05,-0.48 v 0 a 0.34,0.34 0 0 1 0.48,0.05 v 0 a 0.35,0.35 0 0 1 0,0.48 v 0 a 0.4,0.4 0 0 1 -0.22,0.08 v 0 a 0.34,0.34 0 0 1 -0.33,-0.11 z m -120.41,-0.44 a 0.34,0.34 0 0 1 0.09,-0.48 v 0 a 0.35,0.35 0 0 1 0.48,0.1 v 0 a 0.34,0.34 0 0 1 -0.1,0.47 v 0 a 0.33,0.33 0 0 1 -0.19,0.06 v 0 a 0.35,0.35 0 0 1 -0.3,-0.13 z m 42,-0.42 a 0.34,0.34 0 0 1 -0.14,-0.46 v 0 a 0.34,0.34 0 0 1 0.46,-0.15 v 0 a 0.37,0.37 0 0 1 0.15,0.47 v 0 a 0.37,0.37 0 0 1 -0.31,0.18 v 0 a 0.32,0.32 0 0 1 -0.22,-0.02 z m 81,-1.33 a 0.34,0.34 0 0 1 0,-0.48 v 0 a 0.35,0.35 0 0 1 0.48,0 v 0 a 0.35,0.35 0 0 1 0,0.48 v 0 a 0.31,0.31 0 0 1 -0.22,0.09 v 0 a 0.34,0.34 0 0 1 -0.27,-0.07 z M 303,300.29 a 0.34,0.34 0 0 1 0.13,-0.47 v 0 a 0.34,0.34 0 0 1 0.46,0.13 v 0 a 0.34,0.34 0 0 1 -0.13,0.47 v 0 a 0.38,0.38 0 0 1 -0.17,0 v 0 A 0.34,0.34 0 0 1 303,300.29 Z m 36.05,-0.06 v 0 a 0.34,0.34 0 0 1 -0.17,-0.45 v 0 a 0.34,0.34 0 0 1 0.45,-0.17 v 0 a 0.33,0.33 0 0 1 0.17,0.45 v 0 a 0.34,0.34 0 0 1 -0.31,0.2 v 0 a 0.35,0.35 0 0 1 -0.13,-0.03 z M 335.94,299 a 0.33,0.33 0 0 1 -0.2,-0.44 v 0 a 0.35,0.35 0 0 1 0.44,-0.2 v 0 a 0.35,0.35 0 0 1 0.2,0.44 v 0 a 0.33,0.33 0 0 1 -0.32,0.22 v 0 A 0.25,0.25 0 0 1 335.94,299 Z M 306,298.72 a 0.35,0.35 0 0 1 0.17,-0.45 v 0 a 0.34,0.34 0 0 1 0.46,0.17 v 0 a 0.34,0.34 0 0 1 -0.18,0.45 v 0 a 0.32,0.32 0 0 1 -0.14,0 v 0 A 0.34,0.34 0 0 1 306,298.72 Z m 26.73,-0.81 a 0.35,0.35 0 0 1 -0.23,-0.43 v 0 a 0.35,0.35 0 0 1 0.43,-0.23 v 0 a 0.35,0.35 0 0 1 0.23,0.43 v 0 a 0.35,0.35 0 0 1 -0.33,0.24 h -0.1 z m -23.59,-0.47 a 0.34,0.34 0 0 1 0.22,-0.43 v 0 a 0.34,0.34 0 0 1 0.43,0.22 v 0 a 0.34,0.34 0 0 1 -0.22,0.43 v 0 h -0.11 v 0 a 0.34,0.34 0 0 1 -0.31,-0.22 z m 20.33,-0.36 a 0.34,0.34 0 0 1 -0.26,-0.4 v 0 a 0.33,0.33 0 0 1 0.41,-0.26 v 0 a 0.33,0.33 0 0 1 0.26,0.4 v 0 a 0.34,0.34 0 0 1 -0.34,0.27 h -0.07 z m -17.08,-0.57 a 0.34,0.34 0 0 1 0.27,-0.41 v 0 a 0.34,0.34 0 0 1 0.4,0.26 v 0 a 0.34,0.34 0 0 1 -0.26,0.41 h -0.07 a 0.35,0.35 0 0 1 -0.33,-0.26 z m 13.77,0 v 0 a 0.35,0.35 0 0 1 -0.29,-0.39 v 0 a 0.33,0.33 0 0 1 0.38,-0.29 v 0 a 0.35,0.35 0 0 1 0.29,0.39 v 0 a 0.35,0.35 0 0 1 -0.34,0.29 h -0.05 z m -10.43,-0.57 a 0.34,0.34 0 0 1 0.3,-0.37 v 0 a 0.33,0.33 0 0 1 0.38,0.3 v 0 a 0.35,0.35 0 0 1 -0.31,0.38 v 0 a 0.35,0.35 0 0 1 -0.36,-0.32 z m 7.08,0.22 v 0 a 0.33,0.33 0 0 1 -0.32,-0.36 v 0 a 0.34,0.34 0 0 1 0.36,-0.32 v 0 a 0.35,0.35 0 0 1 0.32,0.37 v 0 a 0.34,0.34 0 0 1 -0.34,0.32 v 0 z m -3.7,-0.44 a 0.33,0.33 0 0 1 0.34,-0.34 v 0 a 0.34,0.34 0 0 1 0.34,0.34 v 0 a 0.34,0.34 0 0 1 -0.34,0.34 v 0 a 0.34,0.34 0 0 1 -0.33,-0.35 z"
         style="fill:#ffffff"
         id="path225" />
      <path
         d="m 252.25,319 a 0.31,0.31 0 0 1 -0.13,0 0.28,0.28 0 0 1 -0.11,-0.08 0.21,0.21 0 0 1 -0.07,-0.11 0.28,0.28 0 0 1 0,-0.13 0.37,0.37 0 0 1 0.1,-0.24 0.26,0.26 0 0 1 0.11,-0.07 0.3,0.3 0 0 1 0.26,0 0.21,0.21 0 0 1 0.11,0.07 0.33,0.33 0 0 1 0.1,0.24 0.27,0.27 0 0 1 0,0.13 0.23,0.23 0 0 1 -0.08,0.11 0.28,0.28 0 0 1 -0.11,0.08 0.28,0.28 0 0 1 -0.18,0 z"
         style="fill:#ffffff"
         id="path227" />
    </g>
    <path
       d="m 307.08,216.61 v 0 l -2.33,-2.52 a 22.89,22.89 0 0 1 -15.56,6.26 19.57,19.57 0 0 1 -19.52,-15.84 l -3.5,0.92 v 0 l -3.2,0.84 a 25.76,25.76 0 0 0 6.39,12.63 c 10.15,10.94 28.14,10.94 39.86,0 z"
       style="fill:#ffffff"
       id="path231" />
    <path
       d="M 312.07,179.05 309,181.9 v 0 l -2.11,2 a 19.9,19.9 0 0 1 5.2,15.1 23,23 0 0 1 -7.34,15.11 l 1.83,2 v 0 l 2.64,2.84 A 30.39,30.39 0 0 0 318.9,199 26.32,26.32 0 0 0 312.07,179.05 Z"
       style="fill:#263238"
       id="path233" />
    <path
       d="m 312.07,179.05 c -10.15,-10.93 -28.14,-10.93 -39.85,0 A 29.81,29.81 0 0 0 263,206.27 l 4,-1 v 0 l 2.74,-0.72 a 21.05,21.05 0 0 1 -0.32,-5.53 23.33,23.33 0 0 1 22.9,-21.37 19.79,19.79 0 0 1 14.66,6.26 l 2.7,-2.53 v 0 z"
       style="fill:#407bff"
       id="path235" />
    <path
       d="m 340.8,216.61 v 0 l 2.69,-2.52 A 19.88,19.88 0 0 1 338.32,199 23.43,23.43 0 0 1 355.64,178.35 l -0.68,-3.44 v 0 l -0.61,-3.14 a 30.9,30.9 0 0 0 -13.16,7.3 c -11.72,10.93 -13,28.92 -2.86,39.86 z"
       style="fill:#ffffff"
       id="path237" />
    <path
       d="m 378.19,218.91 -2.65,-2.86 v 0 l -1.82,-2 a 22.88,22.88 0 0 1 -15.56,6.27 19.81,19.81 0 0 1 -14.67,-6.26 l -2.11,2 v 0 l -3.05,2.85 a 26.24,26.24 0 0 0 19.34,8.25 30.29,30.29 0 0 0 20.52,-8.25 z"
       style="fill:#263238"
       id="path239" />
    <path
       d="m 378.19,218.91 c 11.71,-10.94 13,-28.93 2.86,-39.86 a 26.87,26.87 0 0 0 -26.7,-7.3 l 0.76,3.89 v 0 l 0.53,2.69 a 22,22 0 0 1 5.58,-0.72 19.63,19.63 0 0 1 19.84,21.39 23,23 0 0 1 -7.34,15.1 l 2.34,2.53 v 0 z"
       style="fill:#407bff"
       id="path241" />
    <path
       d="m 425.42,173.31 a 2,2 0 0 1 2,2.14 l -1.24,17.25 a 2.51,2.51 0 0 1 -2.43,2.27 h -17.26 a 2,2 0 0 1 -2,-2.15 l 1.23,-17.25 a 2.5,2.5 0 0 1 2.43,-2.26 h 17.25 m 0,-0.89 h -17.23 a 3.39,3.39 0 0 0 -3.31,3.09 l -1.23,17.25 a 2.85,2.85 0 0 0 2.86,3.09 h 17.25 a 3.38,3.38 0 0 0 3.31,-3.09 l 1.24,-17.25 a 2.85,2.85 0 0 0 -2.87,-3.09 z"
       style="opacity:0.3;fill:#407bff"
       id="path243" />
    <path
       d="m 423.29,203 a 2,2 0 0 1 2,2.14 l -1.23,17.25 a 2.52,2.52 0 0 1 -2.43,2.27 h -17.26 a 2,2 0 0 1 -2,-2.15 l 1.24,-17.25 a 2.5,2.5 0 0 1 2.43,-2.26 h 17.24 m 0,-0.89 h -17.23 a 3.38,3.38 0 0 0 -3.31,3.09 l -1.24,17.25 a 2.85,2.85 0 0 0 2.87,3.09 h 17.25 a 3.39,3.39 0 0 0 3.31,-3.09 l 1.23,-17.25 a 2.85,2.85 0 0 0 -2.87,-3.09 z"
       style="opacity:0.3;fill:#407bff"
       id="path245" />
    <path
       d="m 398,298.43 a 1.64,1.64 0 0 1 1.24,0.52 1.67,1.67 0 0 1 0.43,1.28 2.11,2.11 0 0 1 -2.06,1.93 1.63,1.63 0 0 1 -1.67,-1.8 2.1,2.1 0 0 1 2.06,-1.93 m 0,-0.88 a 3,3 0 0 0 -2.94,2.74 2.52,2.52 0 0 0 2.55,2.75 3,3 0 0 0 2.94,-2.75 2.52,2.52 0 0 0 -2.55,-2.74 z"
       style="fill:#407bff"
       id="path247" />
    <polygon
       points="397.89,296.65 398.32,296.68 398.26,297.56 397.82,297.53 "
       style="fill:#407bff"
       id="polygon249" />
    <path
       d="m 398.45,294.88 h -0.44 l 0.13,-1.8 h 0.44 z m 0.26,-3.62 h -0.44 l 0.13,-1.8 h 0.44 z m 0.26,-3.61 h -0.44 l 0.13,-1.81 h 0.44 z m 0.26,-3.61 h -0.44 l 0.13,-1.81 h 0.44 z m 0.26,-3.61 h -0.44 l 0.13,-1.81 h 0.44 z m 0.26,-3.61 h -0.44 l 0.13,-1.81 h 0.44 z m 0.26,-3.62 h -0.44 l 0.13,-1.8 h 0.44 z m 0.26,-3.61 h -0.44 l 0.13,-1.81 h 0.44 z m 0.26,-3.61 h -0.44 l 0.13,-1.81 h 0.44 z m 0.25,-3.61 h -0.44 l 0.13,-1.81 h 0.44 z m 0.26,-3.61 h -0.44 l 0.13,-1.81 h 0.44 z"
       style="fill:#407bff"
       id="path251" />
    <rect
       x="400.67001"
       y="254.47"
       width="0.88"
       height="0.44"
       transform="rotate(-85.94,401.10436,254.69491)"
       style="fill:#407bff"
       id="rect253" />
    <path
       d="M 419.78,254.73 H 261.44 a 3.1,3.1 0 0 1 -2.31,-1 3.14,3.14 0 0 1 -0.83,-2.39 l 0.79,-10.9 a 3.6,3.6 0 0 1 3.54,-3.3 H 421 a 3.12,3.12 0 0 1 3.13,3.37 l -0.78,10.9 a 3.61,3.61 0 0 1 -3.57,3.32 z M 262.63,238.1 a 2.64,2.64 0 0 0 -2.59,2.42 l -0.78,10.9 a 2.2,2.2 0 0 0 0.57,1.67 2.17,2.17 0 0 0 1.61,0.68 h 158.34 a 2.63,2.63 0 0 0 2.59,-2.42 l 0.79,-10.9 A 2.18,2.18 0 0 0 421,238.1 Z"
       style="fill:#407bff"
       id="path255" />
    <path
       d="m 416.38,244.18 h -150.1 a 1.37,1.37 0 0 1 -1.38,-1.49 v 0 a 1.63,1.63 0 0 1 1.59,-1.48 H 416.6 a 1.36,1.36 0 0 1 1.37,1.48 v 0 a 1.62,1.62 0 0 1 -1.59,1.49 z"
       style="opacity:0.8;fill:#ffffff;fill-rule:evenodd"
       id="path257" />
    <path
       d="M 391.37,250.43 H 265.83 a 1.36,1.36 0 0 1 -1.37,-1.48 v 0 a 1.62,1.62 0 0 1 1.59,-1.49 H 391.58 A 1.37,1.37 0 0 1 393,249 v 0 a 1.63,1.63 0 0 1 -1.63,1.43 z"
       style="opacity:0.8;fill:#ffffff;fill-rule:evenodd"
       id="path259" />
  </g>
</svg>
