<?xml version="1.0" encoding="UTF-8" standalone="no"?>
<svg
   viewBox="0 0 500 500"
   version="1.1"
   id="svg2003"
   sodipodi:docname="hiw_2.svg"
   inkscape:version="1.1 (c4e8f9e, 2021-05-24)"
   xmlns:inkscape="http://www.inkscape.org/namespaces/inkscape"
   xmlns:sodipodi="http://sodipodi.sourceforge.net/DTD/sodipodi-0.dtd"
   xmlns="http://www.w3.org/2000/svg"
   xmlns:svg="http://www.w3.org/2000/svg">
  <defs
     id="defs2007" />
  <sodipodi:namedview
     id="namedview2005"
     pagecolor="#ffffff"
     bordercolor="#666666"
     borderopacity="1.0"
     inkscape:pageshadow="2"
     inkscape:pageopacity="0.0"
     inkscape:pagecheckerboard="0"
     showgrid="false"
     inkscape:zoom="1.506"
     inkscape:cx="250"
     inkscape:cy="249.66799"
     inkscape:window-width="1792"
     inkscape:window-height="988"
     inkscape:window-x="0"
     inkscape:window-y="25"
     inkscape:window-maximized="1"
     inkscape:current-layer="svg2003" />
  <g
     id="freepik--background-complete--inject-50"
     transform="matrix(1.1242622,0,0,1.1242622,-29.562729,-19.402816)">
    <rect
       x="416.78"
       y="398.48999"
       width="33.119999"
       height="0.25"
       style="fill:#ebebeb"
       id="rect1244" />
    <rect
       x="322.53"
       y="401.20999"
       width="8.6899996"
       height="0.25"
       style="fill:#ebebeb"
       id="rect1246" />
    <rect
       x="396.59"
       y="389.20999"
       width="19.190001"
       height="0.25"
       style="fill:#ebebeb"
       id="rect1248" />
    <rect
       x="52.459999"
       y="390.89001"
       width="43.189999"
       height="0.25"
       style="fill:#ebebeb"
       id="rect1250" />
    <rect
       x="104.56"
       y="390.89001"
       width="6.3299999"
       height="0.25"
       style="fill:#ebebeb"
       id="rect1252" />
    <rect
       x="131.47"
       y="395.10999"
       width="93.68"
       height="0.25"
       style="fill:#ebebeb"
       id="rect1254" />
    <path
       d="M 237,337.8 H 43.92 a 5.71,5.71 0 0 1 -5.71,-5.71 V 60.66 A 5.71,5.71 0 0 1 43.92,55 H 237 a 5.71,5.71 0 0 1 5.71,5.71 V 332.09 A 5.71,5.71 0 0 1 237,337.8 Z M 43.92,55.2 a 5.47,5.47 0 0 0 -5.46,5.46 v 271.43 a 5.47,5.47 0 0 0 5.46,5.46 H 237 a 5.47,5.47 0 0 0 5.46,-5.46 V 60.66 A 5.47,5.47 0 0 0 237,55.2 Z"
       style="fill:#ebebeb"
       id="path1256" />
    <path
       d="m 453.31,337.8 h -193.1 a 5.72,5.72 0 0 1 -5.71,-5.71 V 60.66 A 5.72,5.72 0 0 1 260.21,55 h 193.1 a 5.71,5.71 0 0 1 5.69,5.66 v 271.43 a 5.71,5.71 0 0 1 -5.69,5.71 z M 260.21,55.2 a 5.47,5.47 0 0 0 -5.46,5.46 v 271.43 a 5.47,5.47 0 0 0 5.46,5.46 h 193.1 a 5.47,5.47 0 0 0 5.46,-5.46 V 60.66 a 5.47,5.47 0 0 0 -5.46,-5.46 z"
       style="fill:#ebebeb"
       id="path1258" />
    <rect
       y="382.39999"
       width="500"
       height="0.25"
       style="fill:#ebebeb"
       id="rect1260"
       x="0" />
    <rect
       x="264.10999"
       y="69.949997"
       width="28.99"
       height="38.91"
       transform="rotate(180,278.605,89.405)"
       style="fill:#f0f0f0"
       id="rect1262" />
    <rect
       x="261.70999"
       y="70.75"
       width="28.99"
       height="38.91"
       transform="rotate(180,276.205,90.205)"
       style="fill:#f5f5f5"
       id="rect1264" />
    <rect
       x="288.92001"
       y="73.190002"
       width="9.1899996"
       height="43.43"
       style="fill:#e0e0e0"
       id="rect1266" />
    <polygon
       points="288.92,73.19 281.56,73.19 260.69,102.66 260.69,116.62 288.92,116.62 "
       style="fill:#ebebeb"
       id="polygon1268" />
    <path
       d="m 296.34,109.66 a 2.82,2.82 0 1 1 -2.82,-2.82 2.82,2.82 0 0 1 2.82,2.82 z"
       style="fill:#fafafa"
       id="path1270" />
    <rect
       x="290.70001"
       y="83.379997"
       width="5.6399999"
       height="18.34"
       style="fill:#f0f0f0"
       id="rect1272" />
    <rect
       x="290.70001"
       y="83.379997"
       width="5.6399999"
       height="2.5899999"
       style="opacity:0.6;fill:#fafafa"
       id="rect1274" />
    <path
       d="M 252.89,105.87 V 98.8 a 0.68,0.68 0 0 0 0,-1.36 h -8.09 v 9.82 h 8.09 a 0.695,0.695 0 0 0 0,-1.39 z"
       style="fill:#ebebeb"
       id="path1276" />
    <rect
       x="246.61"
       y="98.800003"
       width="6.2800002"
       height="7.0599999"
       style="fill:#f5f5f5"
       id="rect1278" />
    <path
       d="m 247.93,106.55 h -21.79 c -1.5,0 -2.71,-1.89 -2.71,-4.22 0,-2.33 1.21,-4.21 2.71,-4.21 h 21.79 z"
       style="fill:#fafafa"
       id="path1280" />
    <path
       d="m 247.93,97.44 c -7.13,0 -14.28,-0.12 -21.41,0 -4.88,0.09 -5.15,9.46 -0.36,9.79 3.34,0.22 6.78,0 10.13,0 h 11.64 a 0.68,0.68 0 0 0 0,-1.36 h -20.28 c -1.57,0 -2.69,0 -3.29,-1.86 -0.52,-1.6 -0.36,-4.86 1.78,-5.21 a 4.57,4.57 0 0 1 0.74,0 h 21.05 a 0.68,0.68 0 0 0 0,-1.36 z"
       style="fill:#e6e6e6"
       id="path1282" />
    <path
       d="M 253,96.32 V 90 a 0.61,0.61 0 0 0 0,-1.21 c -2.4,0 -4.79,0 -7.19,0 v 8.72 H 253 a 0.6,0.6 0 0 0 0,-1.19 z"
       style="fill:#ebebeb"
       id="path1284" />
    <rect
       x="247.38"
       y="90.040001"
       width="5.5799999"
       height="6.2800002"
       style="fill:#f5f5f5"
       id="rect1286" />
    <path
       d="m 248.55,96.92 h -19.36 c -1.33,0 -2.41,-1.67 -2.41,-3.74 0,-2.07 1.08,-3.75 2.41,-3.75 h 19.36 z"
       style="fill:#fafafa"
       id="path1288" />
    <path
       d="m 248.55,88.83 c -6.33,0 -12.68,-0.11 -19,0 -4.34,0.08 -4.58,8.4 -0.32,8.69 3,0.21 6,0 9,0 h 10.34 a 0.6,0.6 0 0 0 0,-1.2 h -18 c -1.39,0 -2.38,0 -2.92,-1.66 -0.47,-1.41 -0.32,-4.31 1.58,-4.62 a 3.64,3.64 0 0 1 0.66,0 h 18.7 a 0.61,0.61 0 0 0 0,-1.21 z"
       style="fill:#e6e6e6"
       id="path1290" />
    <path
       d="m 252.89,115.48 v -7.07 a 0.68,0.68 0 0 0 0,-1.35 c -2.69,0 -5.39,0 -8.09,0 v 9.82 h 8.09 a 0.7,0.7 0 0 0 0,-1.4 z"
       style="fill:#ebebeb"
       id="path1292" />
    <rect
       x="246.61"
       y="108.41"
       width="6.2800002"
       height="7.0599999"
       style="fill:#f5f5f5"
       id="rect1294" />
    <path
       d="m 247.93,116.16 h -21.79 c -1.5,0 -2.71,-1.89 -2.71,-4.21 0,-2.32 1.21,-4.22 2.71,-4.22 h 21.79 z"
       style="fill:#fafafa"
       id="path1296" />
    <path
       d="m 247.93,107.06 c -7.13,0 -14.28,-0.13 -21.41,0 -4.88,0.08 -5.15,9.45 -0.36,9.78 3.34,0.23 6.78,0 10.13,0 h 11.64 a 0.68,0.68 0 0 0 0,-1.36 h -20.28 c -1.57,0 -2.69,0 -3.29,-1.86 -0.52,-1.6 -0.36,-4.86 1.78,-5.21 a 4.57,4.57 0 0 1 0.74,0 h 21.05 a 0.68,0.68 0 0 0 0,-1.35 z"
       style="fill:#e6e6e6"
       id="path1298" />
    <rect
       x="128.25999"
       y="116.27"
       width="243.48"
       height="7.0500002"
       style="fill:#f5f5f5"
       id="rect1300" />
    <polygon
       points="367.18,123.31 358.62,140.44 358.62,123.31 "
       style="fill:#e0e0e0"
       id="polygon1302" />
    <polygon
       points="367.18,123.31 358.62,140.44 362.9,140.44 371.47,123.31 "
       style="fill:#f5f5f5"
       id="polygon1304" />
    <polygon
       points="132.54,123.31 141.11,140.44 141.11,123.31 "
       style="fill:#e0e0e0"
       id="polygon1306" />
    <polygon
       points="132.54,123.31 141.11,140.44 136.82,140.44 128.26,123.31 "
       style="fill:#f5f5f5"
       id="polygon1308" />
    <path
       d="m 344.56,97.73 v -0.64 a 18.64,18.64 0 1 0 -37.27,0 v 19.28 h 37.27 z"
       style="fill:#f0f0f0"
       id="path1310" />
    <path
       d="M 311.37,97.09 A 14.56,14.56 0 1 0 325.92,82.53 14.56,14.56 0 0 0 311.37,97.09 Z"
       style="fill:#fafafa"
       id="path1312" />
    <path
       d="m 325.92,84.83 a 14.53,14.53 0 0 0 -14.49,13.4 c 0,-0.38 -0.06,-0.76 -0.06,-1.14 a 14.56,14.56 0 1 1 29.11,0 c 0,0.38 0,0.76 -0.06,1.14 a 14.53,14.53 0 0 0 -14.5,-13.4 z"
       style="fill:#e6e6e6"
       id="path1314" />
    <path
       d="m 316.73,97.08 h 7.65 v -7.66 a 1.54,1.54 0 1 1 3.08,0 v 9.2 a 1.53,1.53 0 0 1 -1.54,1.54 h -9.19 a 1.54,1.54 0 0 1 0,-3.08 z"
       style="fill:#e0e0e0"
       id="path1316" />
    <path
       d="m 316.73,98.63 a 1.54,1.54 0 0 1 0,-3.08 h 9.19 a 1.54,1.54 0 0 1 0,3.08 z"
       style="fill:#f5f5f5"
       id="path1318" />
    <path
       d="m 324.38,87.89 a 1.54,1.54 0 1 1 3.08,0 v 9.2 a 1.54,1.54 0 1 1 -3.08,0 z"
       style="fill:#ebebeb"
       id="path1320" />
    <polygon
       points="186.55,81.61 214.01,81.61 210.96,116.43 183.51,116.43 "
       style="fill:#ebebeb"
       id="polygon1322" />
    <polygon
       points="215.32,81.61 214.01,81.61 210.96,116.43 212.27,116.43 "
       style="fill:#e0e0e0"
       id="polygon1324" />
    <polygon
       points="189.04,85.16 210.9,85.16 208.47,112.88 186.62,112.88 "
       style="fill:#e0e0e0"
       id="polygon1326" />
    <polygon
       points="190.64,87.44 208.9,87.44 206.88,110.6 188.62,110.6 "
       style="fill:#fafafa"
       id="polygon1328" />
    <path
       d="m 198.48,103.8 a 6.29,6.29 0 1 0 0,-12.57 c -3.48,0 -3.48,12.57 0,12.57 z"
       style="fill:#e6e6e6"
       id="path1330" />
    <polygon
       points="161.7,94.88 159.81,116.43 187.15,116.43 189.03,94.88 "
       style="fill:#f0f0f0"
       id="polygon1332" />
    <polygon
       points="190.51,94.88 188.62,116.43 187.15,116.43 189.03,94.88 "
       style="fill:#e0e0e0"
       id="polygon1334" />
    <polygon
       points="164.29,97.08 162.79,114.24 184.55,114.24 186.06,97.08 "
       style="fill:#fafafa"
       id="polygon1336" />
    <polygon
       points="165.96,98.49 164.71,112.82 182.89,112.82 184.14,98.49 "
       style="fill:#ebebeb"
       id="polygon1338" />
    <path
       d="m 174.45,108.86 a 4.06,4.06 0 0 0 0,-8.12 c -2.25,0 -2.25,8.12 0,8.12 z"
       style="fill:#f5f5f5"
       id="path1340" />
    <path
       d="m 78.48,340.3 a 0.37,0.37 0 0 1 -0.13,-0.28 c -0.09,-2 -1.27,-21.23 -13.07,-34.42 -10,-11.17 0.26,-3.2 4.7,0.39 a 0.41,0.41 0 0 0 0.61,-0.53 c -3.13,-5.29 -11,-19.28 -8.26,-22 2.57,-2.57 7.89,10.21 10.26,16.41 a 0.42,0.42 0 0 0 0.8,-0.19 c -0.69,-6.56 -1.68,-20.28 2,-19.8 3.68,0.48 2.64,18.6 1.92,27.47 a 0.41,0.41 0 0 0 0.8,0.15 c 1.66,-5.5 4.8,-13.5 8.49,-11.39 5.46,3.16 -8,14.27 -7.19,26.32 0.83,11.82 1.05,19.57 -0.93,17.87 z"
       style="fill:#f5f5f5"
       id="path1342" />
    <path
       d="m 84.1,343.71 c 0,0 0.07,-0.19 0.18,-0.27 13.59,-9.41 10.24,-30.11 6.11,-42.95 a 34.92,34.92 0 0 1 -2,-8.87 c 2.89,3.46 4.62,8 6.55,12.13 0.26,0.54 0.89,0.35 0.8,-0.24 -1,-6.62 -1.44,-27.43 4.57,-27.06 2.72,0.17 -0.3,18.27 -0.42,22 0,0.59 0.72,0.82 0.87,0.27 1.78,-6.43 14,-19.69 16.28,-17 1,1.13 -4.79,7.36 -6.74,10.29 -3.67,5.49 -6.18,11.62 -8.52,17.76 -0.2,0.54 0.46,1.11 0.75,0.65 2.18,-3.43 10.29,-11.68 13,-7.59 2,3 -3.33,7.25 -5.94,9.8 -4.59,4.43 -9.05,9.37 -11.3,15.37 -1.53,4.12 -12.55,17.9 -14.19,15.71 z"
       style="fill:#f5f5f5"
       id="path1344" />
    <path
       d="m 85.76,341.73 a 0.46,0.46 0 0 0 0.14,-0.35 c 0,-2.39 0.15,-25.85 13.6,-42.65 11.38,-14.22 -0.52,-3.87 -5.68,0.78 a 0.5,0.5 0 0 1 -0.78,-0.6 c 3.46,-6.63 12.07,-24.14 8.59,-27.26 -3.3,-3 -8.91,12.91 -11.39,20.59 a 0.50803543,0.50803543 0 0 1 -1,-0.18 c 0.39,-8 0.7,-24.73 -3.75,-23.9 -4.45,0.83 -2,22.76 -0.52,33.48 a 0.51419841,0.51419841 0 0 1 -1,0.24 c -2.37,-6.52 -6.71,-16.11 -11.05,-13.27 -6.42,4.2 10.7,16.8 10.47,31.49 -0.16,14.4 0.08,23.82 2.37,21.63 z"
       style="fill:#e6e6e6"
       id="path1346" />
    <path
       d="m 94.85,377.68 c 4.08,-15.2 6.77,-36.62 6.77,-41.89 H 71.2 c 0,5.27 2.68,26.69 6.76,41.89 a 6.4,6.4 0 0 0 6.19,4.73 h 4.52 a 6.4,6.4 0 0 0 6.18,-4.73 z"
       style="fill:#e6e6e6"
       id="path1348" />
    <path
       d="m 427.66,381.43 h -27.38 a 6.26,6.26 0 0 1 -6.25,-5.92 l -3.35,-62.79 h 46.57 l -3.34,62.79 a 6.26,6.26 0 0 1 -6.25,5.92 z"
       style="fill:#e6e6e6"
       id="path1350" />
    <rect
       x="407.66"
       y="316.57999"
       width="12.62"
       height="12.62"
       style="fill:#fafafa"
       id="rect1352" />
    <rect
       x="407.66"
       y="332.29999"
       width="12.62"
       height="12.62"
       style="fill:#fafafa"
       id="rect1354" />
    <rect
       x="407.66"
       y="348.03"
       width="12.62"
       height="12.62"
       style="fill:#fafafa"
       id="rect1356" />
    <rect
       x="407.66"
       y="363.76001"
       width="12.62"
       height="12.62"
       style="fill:#fafafa"
       id="rect1358" />
    <rect
       x="388.01001"
       y="308.14999"
       width="51.91"
       height="4.5799999"
       rx="1.25"
       style="fill:#f5f5f5"
       id="rect1360" />
    <path
       d="m 430.86,363.76 h -7.33 v 12.61 h 6.41 a 2.51,2.51 0 0 0 0.31,-1.06 z"
       style="fill:#fafafa"
       id="path1362" />
    <path
       d="m 404.41,363.76 h -7.34 l 0.62,11.55 a 2.51,2.51 0 0 0 0.31,1.06 h 6.41 z"
       style="fill:#fafafa"
       id="path1364" />
    <polygon
       points="396.91,360.65 404.41,360.65 404.41,348.03 396.24,348.03 "
       style="fill:#fafafa"
       id="polygon1366" />
    <polygon
       points="396.07,344.92 404.41,344.92 404.41,332.3 395.4,332.3 "
       style="fill:#fafafa"
       id="polygon1368" />
    <polygon
       points="395.23,329.19 404.41,329.19 404.41,316.57 394.56,316.57 "
       style="fill:#fafafa"
       id="polygon1370" />
    <polygon
       points="431.03,360.65 431.7,348.03 423.53,348.03 423.53,360.65 "
       style="fill:#fafafa"
       id="polygon1372" />
    <polygon
       points="431.87,344.92 432.54,332.3 423.53,332.3 423.53,344.92 "
       style="fill:#fafafa"
       id="polygon1374" />
    <polygon
       points="432.71,329.19 433.38,316.57 423.53,316.57 423.53,329.19 "
       style="fill:#fafafa"
       id="polygon1376" />
  </g>
  <g
     id="freepik--Shadow--inject-50"
     transform="matrix(1.1242622,0,0,1.1242622,-29.562729,-19.402816)">
    <ellipse
       id="freepik--path--inject-50"
       cx="245.17999"
       cy="412.39001"
       rx="193.89"
       ry="11.32"
       style="fill:#f5f5f5" />
  </g>
  <g
     id="freepik--Extraction--inject-50"
     transform="matrix(1.1242622,0,0,1.1242622,-29.562729,-19.402816)">
    <path
       d="m 396.51,241.47 c -7.08,0 -15.44,-12.93 -22.82,-24.35 -4.84,-7.48 -9.54,-14.75 -14.54,-20 h 16.55 v -8 h -20.3 c 3.63,-4.14 7.07,-9.45 10.6,-14.9 5.54,-8.58 12.44,-19.25 17.71,-19.25 h 15.52 v -8 h -15.52 c -9.63,0 -16.82,11.13 -24.43,22.91 -5.54,8.57 -12.44,19.24 -17.72,19.24 H 164.42 c -5.27,0 -12.17,-10.67 -17.71,-19.24 C 139.09,158.1 131.9,147 122.28,147 h -15.53 v 8 h 15.53 c 5.27,0 12.17,10.67 17.71,19.25 3.52,5.45 7,10.76 10.59,14.9 h -71.9 v 8 h 80.66 c -5,5.25 -9.71,12.52 -14.54,20 -7.38,11.41 -15.74,24.35 -22.82,24.35 H 92.56 v 8 H 122 c 11.43,0 20.23,-13.6 29.53,-28 7.38,-11.42 15.74,-24.35 22.82,-24.35 h 169.8 c 7.08,0 15.44,12.93 22.82,24.35 9.31,14.4 18.1,28 29.54,28 h 29.42 v -8 z"
       style="fill:#263238"
       id="path1381" />
    <g
       style="opacity:0.4"
       id="g1435">
      <path
         d="m 351.72,195.21 -0.42,0.62 c 5.89,4.06 11.47,12.26 17.62,21.76 l 0.63,-0.41 c -6.2,-9.57 -11.82,-17.83 -17.83,-21.97 z"
         style="fill:#ffffff"
         id="path1383" />
      <path
         d="m 377.34,229 -0.62,0.43 a 69.87,69.87 0 0 0 9,11 l 0.51,-0.55 A 68.36,68.36 0 0 1 377.34,229 Z"
         style="fill:#ffffff"
         id="path1385" />
      <path
         d="m 370.83,220.55 c 1.3,2 2.59,4 3.89,5.92 l 0.62,-0.42 c -1.29,-1.93 -2.58,-3.92 -3.88,-5.91 z"
         style="fill:#ffffff"
         id="path1387" />
      <path
         d="m 389,242 -0.44,0.6 a 13.58,13.58 0 0 0 8,3 h 19.84 v -0.75 H 396.51 A 12.88,12.88 0 0 1 389,242 Z"
         style="fill:#ffffff"
         id="path1389" />
      <rect
         x="419.92999"
         y="244.88"
         width="6"
         height="0.75"
         style="fill:#ffffff"
         id="rect1391" />
      <rect
         x="78.68"
         y="192.53"
         width="6"
         height="0.75"
         style="fill:#ffffff"
         id="rect1393" />
      <rect
         x="90.489998"
         y="192.53"
         width="23.27"
         height="0.75"
         style="fill:#ffffff"
         id="rect1395" />
      <path
         d="m 119.58,192.53 v 0.75 h 46.53 v -0.75 h -1.69 a 9.73,9.73 0 0 1 -5.4,-1.84 l -0.41,0.63 a 13.72,13.72 0 0 0 2.24,1.21 z"
         style="fill:#ffffff"
         id="path1397" />
      <rect
         x="288.26001"
         y="192.53"
         width="23.27"
         height="0.75"
         style="fill:#ffffff"
         id="rect1399" />
      <path
         d="m 363.88,193.28 v -0.75 h -18.74 a 14.14,14.14 0 0 0 2.24,-1.21 l -0.42,-0.63 a 9.7,9.7 0 0 1 -5.4,1.84 h -24.21 v 0.75 h 26.8 a 10.71,10.71 0 0 1 4.13,0.87 l 0.29,-0.69 -0.5,-0.18 z"
         style="fill:#ffffff"
         id="path1401" />
      <rect
         x="270.81"
         y="192.53"
         width="11.63"
         height="0.75"
         style="fill:#ffffff"
         id="rect1403" />
      <rect
         x="218.46001"
         y="192.53"
         width="46.529999"
         height="0.75"
         style="fill:#ffffff"
         id="rect1405" />
      <rect
         x="369.70001"
         y="192.53"
         width="6"
         height="0.75"
         style="fill:#ffffff"
         id="rect1407" />
      <path
         d="m 361.28,174.62 -0.63,-0.41 c -3.12,4.79 -6.75,10.19 -10.4,13.78 l 0.52,0.53 c 3.71,-3.64 7.37,-9.08 10.51,-13.9 z"
         style="fill:#ffffff"
         id="path1409" />
      <path
         d="m 383.71,151.13 h 5.18 v -0.75 h -5.18 c -7.64,0 -14.58,10.72 -20.7,20.18 l 0.63,0.41 c 6.02,-9.3 12.84,-19.84 20.07,-19.84 z"
         style="fill:#ffffff"
         id="path1411" />
      <rect
         x="393.23001"
         y="150.38"
         width="6"
         height="0.75"
         style="fill:#ffffff"
         id="rect1413" />
      <path
         d="m 155.74,188 c -3.66,-3.59 -7.29,-9 -10.4,-13.78 l -0.63,0.41 c 3.14,4.82 6.8,10.26 10.5,13.9 z"
         style="fill:#ffffff"
         id="path1415" />
      <path
         d="m 142.35,171 0.63,-0.41 c -6.13,-9.46 -13.07,-20.18 -20.7,-20.18 h -5.19 v 0.75 h 5.19 c 7.22,-0.03 14.05,10.51 20.07,19.84 z"
         style="fill:#ffffff"
         id="path1417" />
      <rect
         x="106.75"
         y="150.38"
         width="6"
         height="0.75"
         style="fill:#ffffff"
         id="rect1419" />
      <polygon
         points="212.65,192.53 193.61,192.53 189.38,192.53 187.61,192.53 187.61,193.28 189.38,193.28 193.61,193.28 212.65,193.28 "
         style="fill:#ffffff"
         id="polygon1421" />
      <path
         d="m 148.94,217.18 0.63,0.41 c 6.15,-9.5 11.72,-17.7 17.62,-21.76 l -0.43,-0.62 c -6.01,4.14 -11.63,12.4 -17.82,21.97 z"
         style="fill:#ffffff"
         id="path1423" />
      <path
         d="m 174.33,192.53 h -2.4 v 0.29 a 12.4,12.4 0 0 0 -2,0.64 l 0.29,0.69 a 10.79,10.79 0 0 1 4.13,-0.87 h 9.74 v -0.75 h -9.74 z"
         style="fill:#ffffff"
         id="path1425" />
      <path
         d="m 122,244.88 h -19.86 v 0.75 H 122 a 13.55,13.55 0 0 0 8,-3 l -0.44,-0.6 a 12.88,12.88 0 0 1 -7.56,2.85 z"
         style="fill:#ffffff"
         id="path1427" />
      <path
         d="m 143.14,226.05 0.63,0.42 c 1.29,-1.94 2.59,-3.93 3.88,-5.92 l -0.63,-0.41 c -1.29,1.99 -2.58,3.98 -3.88,5.91 z"
         style="fill:#ffffff"
         id="path1429" />
      <path
         d="m 132.21,239.8 0.52,0.55 a 69.34,69.34 0 0 0 9,-11 l -0.61,-0.43 a 68.33,68.33 0 0 1 -8.91,10.88 z"
         style="fill:#ffffff"
         id="path1431" />
      <rect
         x="92.559998"
         y="244.88"
         width="6"
         height="0.75"
         style="fill:#ffffff"
         id="rect1433" />
    </g>
  </g>
  <g
     id="freepik--Folders--inject-50"
     transform="matrix(1.1242622,0,0,1.1242622,-29.562729,-19.402816)">
    <path
       d="M 122.32,226.15 H 115 a 5.16,5.16 0 0 0 -4.29,2.3 l -1.07,1.62 a 4.71,4.71 0 0 1 -3.93,2.11 H 86.78 a 3.07,3.07 0 0 0 -3.07,3.08 v 29.53 h 42.65 v -32.61 l -0.38,-2.83 a 3.69,3.69 0 0 0 -3.66,-3.2 z"
       style="fill:#407bff"
       id="path1438" />
    <path
       d="M 122.32,226.15 H 115 a 5.16,5.16 0 0 0 -4.29,2.3 l -1.07,1.62 a 4.71,4.71 0 0 1 -3.93,2.11 H 86.78 a 3.07,3.07 0 0 0 -3.07,3.08 v 29.53 h 42.65 v -32.61 l -0.38,-2.83 a 3.69,3.69 0 0 0 -3.66,-3.2 z"
       style="opacity:0.2;fill:#ffffff"
       id="path1440" />
    <rect
       x="86.910004"
       y="235.92"
       width="36.25"
       height="24.790001"
       style="fill:#263238"
       id="rect1442" />
    <rect
       x="86.910004"
       y="235.92"
       width="36.25"
       height="24.790001"
       style="opacity:0.9;fill:#ffffff"
       id="rect1444" />
    <path
       d="M 126.36,264.79 H 83.71 L 77.45,242 a 2.72,2.72 0 0 1 2.62,-3.43 h 35 a 5.45,5.45 0 0 1 5.24,4 z"
       style="fill:#407bff"
       id="path1446" />
    <path
       d="M 126.36,264.79 H 83.71 L 77.45,242 a 2.72,2.72 0 0 1 2.62,-3.43 h 35 a 5.45,5.45 0 0 1 5.24,4 z"
       style="opacity:0.6;fill:#ffffff"
       id="path1448" />
    <path
       d="m 75.2,117.57 h 7.91 a 5.56,5.56 0 0 1 4.63,2.48 l 1.15,1.75 a 5.12,5.12 0 0 0 4.25,2.28 h 20.41 a 3.31,3.31 0 0 1 3.31,3.31 v 29.16 a 2.71,2.71 0 0 1 -2.71,2.71 H 73.56 a 2.71,2.71 0 0 1 -2.71,-2.71 v -32.47 l 0.41,-3.06 a 4,4 0 0 1 3.94,-3.45 z"
       style="fill:#407bff"
       id="path1450" />
    <path
       d="m 75.2,117.57 h 7.91 a 5.56,5.56 0 0 1 4.63,2.48 l 1.15,1.75 a 5.12,5.12 0 0 0 4.25,2.28 h 20.41 a 3.31,3.31 0 0 1 3.31,3.31 v 29.16 a 2.71,2.71 0 0 1 -2.71,2.71 H 73.56 a 2.71,2.71 0 0 1 -2.71,-2.71 v -32.47 l 0.41,-3.06 a 4,4 0 0 1 3.94,-3.45 z"
       style="opacity:0.6;fill:#ffffff"
       id="path1452" />
    <rect
       x="104.5"
       y="124.08"
       width="4.0900002"
       height="28.33"
       style="fill:#263238"
       id="rect1454" />
    <rect
       x="104.5"
       y="124.08"
       width="4.0900002"
       height="28.33"
       style="opacity:0.5;fill:#ffffff"
       id="rect1456" />
    <rect
       x="103.53"
       y="125.43"
       width="3.1400001"
       height="2.3299999"
       style="fill:#263238"
       id="rect1458" />
    <rect
       x="103.53"
       y="130.50999"
       width="3.1400001"
       height="2.3299999"
       style="fill:#263238"
       id="rect1460" />
    <rect
       x="103.53"
       y="135.59"
       width="3.1400001"
       height="2.3299999"
       style="fill:#263238"
       id="rect1462" />
    <rect
       x="103.53"
       y="140.67"
       width="3.1400001"
       height="2.3299999"
       style="fill:#263238"
       id="rect1464" />
    <rect
       x="103.53"
       y="145.75"
       width="3.1400001"
       height="2.3299999"
       style="fill:#263238"
       id="rect1466" />
    <rect
       x="103.53"
       y="125.43"
       width="3.1400001"
       height="2.3299999"
       style="opacity:0.7;fill:#ffffff"
       id="rect1468" />
    <rect
       x="103.53"
       y="130.50999"
       width="3.1400001"
       height="2.3299999"
       style="opacity:0.7;fill:#ffffff"
       id="rect1470" />
    <rect
       x="103.53"
       y="135.59"
       width="3.1400001"
       height="2.3299999"
       style="opacity:0.7;fill:#ffffff"
       id="rect1472" />
    <rect
       x="103.53"
       y="140.67"
       width="3.1400001"
       height="2.3299999"
       style="opacity:0.7;fill:#ffffff"
       id="rect1474" />
    <rect
       x="103.53"
       y="145.75"
       width="3.1400001"
       height="2.3299999"
       style="opacity:0.7;fill:#ffffff"
       id="rect1476" />
    <rect
       x="106.57"
       y="127.76"
       width="3.1400001"
       height="2.3299999"
       style="fill:#263238"
       id="rect1478" />
    <rect
       x="106.57"
       y="132.84"
       width="3.1400001"
       height="2.3299999"
       style="fill:#263238"
       id="rect1480" />
    <rect
       x="106.57"
       y="137.92"
       width="3.1400001"
       height="2.3299999"
       style="fill:#263238"
       id="rect1482" />
    <rect
       x="106.57"
       y="143"
       width="3.1400001"
       height="2.3299999"
       style="fill:#263238"
       id="rect1484" />
    <rect
       x="106.57"
       y="148.08"
       width="3.1400001"
       height="2.3299999"
       style="fill:#263238"
       id="rect1486" />
    <g
       style="opacity:0.8"
       id="g1498">
      <rect
         x="106.57"
         y="127.76"
         width="3.1400001"
         height="2.3299999"
         style="fill:#ffffff"
         id="rect1488" />
      <rect
         x="106.57"
         y="132.84"
         width="3.1400001"
         height="2.3299999"
         style="fill:#ffffff"
         id="rect1490" />
      <rect
         x="106.57"
         y="137.92"
         width="3.1400001"
         height="2.3299999"
         style="fill:#ffffff"
         id="rect1492" />
      <rect
         x="106.57"
         y="143"
         width="3.1400001"
         height="2.3299999"
         style="fill:#ffffff"
         id="rect1494" />
      <rect
         x="106.57"
         y="148.08"
         width="3.1400001"
         height="2.3299999"
         style="fill:#ffffff"
         id="rect1496" />
    </g>
    <path
       d="m 102.17,150.42 v 9.29 h 9 v -9.29 z m 7.55,7.6 h -6 v -5.92 h 6 z"
       style="fill:#263238"
       id="path1500" />
    <path
       d="m 102.17,150.42 v 9.29 h 9 v -9.29 z m 7.55,7.6 h -6 v -5.92 h 6 z"
       style="opacity:0.7;fill:#ffffff"
       id="path1502" />
    <polygon
       points="63.01,180.44 72.29,189.72 113.97,189.72 113.97,180.43 104.7,171.15 63.01,171.15 "
       style="fill:#407bff"
       id="polygon1504" />
    <polygon
       points="63.01,180.44 72.29,189.72 113.97,189.72 113.97,180.43 104.7,171.15 63.01,171.15 "
       style="opacity:0.3;fill:#ffffff"
       id="polygon1506" />
    <rect
       x="72.290001"
       y="189.71001"
       width="41.689999"
       height="9.29"
       style="fill:#407bff"
       id="rect1508" />
    <rect
       x="72.290001"
       y="189.71001"
       width="41.689999"
       height="9.29"
       style="opacity:0.3;fill:#ffffff"
       id="rect1510" />
    <rect
       x="72.290001"
       y="199"
       width="41.689999"
       height="9.29"
       style="fill:#407bff"
       id="rect1512" />
    <rect
       x="72.290001"
       y="199"
       width="41.689999"
       height="9.29"
       style="opacity:0.6;fill:#ffffff"
       id="rect1514" />
    <rect
       x="72.290001"
       y="180.42999"
       width="41.689999"
       height="9.29"
       style="fill:#407bff"
       id="rect1516" />
    <polygon
       points="97.37,180.43 88.09,171.15 78.73,171.15 88.01,180.43 88.01,208.29 97.37,208.29 "
       style="fill:#407bff"
       id="polygon1518" />
    <polygon
       points="97.37,180.43 88.09,171.15 78.73,171.15 88.01,180.43 88.01,208.29 97.37,208.29 "
       style="opacity:0.2"
       id="polygon1520" />
    <path
       d="m 85.52,187.07 v 14.58 H 99.64 V 187.07 Z M 97.37,199 H 88 v -9.29 h 9.36 z"
       style="fill:#263238"
       id="path1522" />
    <path
       d="m 85.52,187.07 v 14.58 H 99.64 V 187.07 Z M 97.37,199 H 88 v -9.29 h 9.36 z"
       style="opacity:0.5;fill:#ffffff"
       id="path1524" />
    <polygon
       points="72.29,189.72 72.29,180.43 63.01,171.15 63.01,180.44 "
       style="fill:#263238"
       id="polygon1526" />
    <polygon
       points="72.29,189.72 72.29,180.43 63.01,171.15 63.01,180.44 "
       style="opacity:0.5;fill:#ffffff"
       id="polygon1528" />
    <polygon
       points="72.29,199 72.29,189.71 63.01,180.43 63.01,189.73 "
       style="fill:#263238"
       id="polygon1530" />
    <polygon
       points="72.29,199 72.29,189.71 63.01,180.43 63.01,189.73 "
       style="opacity:0.6;fill:#ffffff"
       id="polygon1532" />
    <polygon
       points="72.29,208.29 72.29,199 63.01,189.72 63.01,199.01 "
       style="fill:#263238"
       id="polygon1534" />
    <polygon
       points="72.29,208.29 72.29,199 63.01,189.72 63.01,199.01 "
       style="opacity:0.8;fill:#ffffff"
       id="polygon1536" />
  </g>
  <g
     id="freepik--Documents--inject-50"
     transform="matrix(1.1242622,0,0,1.1242622,-29.562729,-19.402816)">
    <rect
       x="388.48001"
       y="213.89"
       width="45.459999"
       height="61.18"
       style="fill:#407bff"
       id="rect1539" />
    <rect
       x="388.48001"
       y="213.89"
       width="45.459999"
       height="61.18"
       style="opacity:0.7;fill:#ffffff"
       id="rect1541" />
    <rect
       x="391.45001"
       y="216.86"
       width="39.52"
       height="15.93"
       style="opacity:0.7;fill:#ffffff"
       id="rect1543" />
    <rect
       x="391.45001"
       y="236.50999"
       width="39.52"
       height="15.93"
       style="opacity:0.7;fill:#ffffff"
       id="rect1545" />
    <polygon
       points="409.13,224.13 413.6,226.65 417.97,222.27 422.63,228.97 427.28,223.3 430.97,227.79 430.97,225.45 427.28,220.96 422.73,226.51 418.18,219.97 413.35,224.8 408.61,222.13 404.29,229.29 399.98,222.13 395.09,224.9 391.45,222.84 391.45,224.54 395.09,226.6 399.46,224.13 404.29,232.17 "
       style="fill:#407bff"
       id="polygon1547" />
    <polygon
       points="409.13,224.13 413.6,226.65 417.97,222.27 422.63,228.97 427.28,223.3 430.97,227.79 430.97,225.45 427.28,220.96 422.73,226.51 418.18,219.97 413.35,224.8 408.61,222.13 404.29,229.29 399.98,222.13 395.09,224.9 391.45,222.84 391.45,224.54 395.09,226.6 399.46,224.13 404.29,232.17 "
       style="opacity:0.5;fill:#ffffff"
       id="polygon1549" />
    <polygon
       points="408.74,245.2 413.21,242.69 418.05,250.72 422.89,242.69 427.25,245.15 430.97,243.06 430.97,241.35 427.25,243.45 422.36,240.68 418.05,247.84 413.74,240.69 409,243.35 404.17,238.52 399.62,245.06 395.06,239.51 391.45,243.92 391.45,246.26 395.06,241.85 399.71,247.52 404.37,240.82 "
       style="fill:#407bff"
       id="polygon1551" />
    <polygon
       points="408.74,245.2 413.21,242.69 418.05,250.72 422.89,242.69 427.25,245.15 430.97,243.06 430.97,241.35 427.25,243.45 422.36,240.68 418.05,247.84 413.74,240.69 409,243.35 404.17,238.52 399.62,245.06 395.06,239.51 391.45,243.92 391.45,246.26 395.06,241.85 399.71,247.52 404.37,240.82 "
       style="opacity:0.5;fill:#ffffff"
       id="polygon1553" />
    <path
       d="m 407.77,256.91 h 22.64 a 0.74,0.74 0 0 0 0,-1.48 h -22.64 a 0.74,0.74 0 0 0 0,1.48 z"
       style="fill:#263238"
       id="path1555" />
    <path
       d="m 407.77,261 h 19.67 a 0.75,0.75 0 0 0 0,-1.49 h -19.67 a 0.75,0.75 0 0 0 0,1.49 z"
       style="fill:#263238"
       id="path1557" />
    <path
       d="m 407.77,265 h 19.67 a 0.75,0.75 0 0 0 0,-1.49 h -19.67 a 0.75,0.75 0 0 0 0,1.49 z"
       style="fill:#263238"
       id="path1559" />
    <path
       d="m 407.77,269 h 20.66 a 0.74,0.74 0 0 0 0,-1.48 h -20.66 a 0.74,0.74 0 0 0 0,1.48 z"
       style="fill:#263238"
       id="path1561" />
    <g
       style="opacity:0.4"
       id="g1571">
      <path
         d="m 407.77,256.91 h 22.64 a 0.74,0.74 0 0 0 0,-1.48 h -22.64 a 0.74,0.74 0 0 0 0,1.48 z"
         style="fill:#ffffff"
         id="path1563" />
      <path
         d="m 407.77,261 h 19.67 a 0.75,0.75 0 0 0 0,-1.49 h -19.67 a 0.75,0.75 0 0 0 0,1.49 z"
         style="fill:#ffffff"
         id="path1565" />
      <path
         d="m 407.77,265 h 19.67 a 0.75,0.75 0 0 0 0,-1.49 h -19.67 a 0.75,0.75 0 0 0 0,1.49 z"
         style="fill:#ffffff"
         id="path1567" />
      <path
         d="m 407.77,269 h 20.66 a 0.74,0.74 0 0 0 0,-1.48 h -20.66 a 0.74,0.74 0 0 0 0,1.48 z"
         style="fill:#ffffff"
         id="path1569" />
    </g>
    <rect
       x="390.28"
       y="119.78"
       width="41.330002"
       height="55.619999"
       style="fill:#407bff"
       id="rect1573" />
    <rect
       x="390.28"
       y="119.78"
       width="41.330002"
       height="55.619999"
       style="opacity:0.6;fill:#ffffff"
       id="rect1575" />
    <rect
       x="392.98001"
       y="122.48"
       width="35.93"
       height="14.48"
       style="opacity:0.7;fill:#ffffff"
       id="rect1577" />
    <path
       d="m 407.93,141.31 h 20.59 a 0.68,0.68 0 0 0 0,-1.35 h -20.59 a 0.68,0.68 0 0 0 0,1.35 z"
       style="fill:#263238"
       id="path1579" />
    <path
       d="m 407.93,145 h 17.89 a 0.68,0.68 0 0 0 0,-1.35 h -17.89 a 0.68,0.68 0 0 0 0,1.35 z"
       style="fill:#263238"
       id="path1581" />
    <path
       d="m 407.93,148.66 h 17.89 a 0.68,0.68 0 0 0 0,-1.35 h -17.89 a 0.68,0.68 0 0 0 0,1.35 z"
       style="fill:#263238"
       id="path1583" />
    <path
       d="m 407.93,152.34 h 18.79 a 0.68,0.68 0 0 0 0,-1.35 h -18.79 a 0.68,0.68 0 0 0 0,1.35 z"
       style="fill:#263238"
       id="path1585" />
    <path
       d="m 407.93,156 h 15.19 a 0.68,0.68 0 0 0 0,-1.35 h -15.19 a 0.68,0.68 0 0 0 0,1.35 z"
       style="fill:#263238"
       id="path1587" />
    <path
       d="m 407.93,159.69 h 20.59 a 0.68,0.68 0 0 0 0,-1.35 h -20.59 a 0.68,0.68 0 0 0 0,1.35 z"
       style="fill:#263238"
       id="path1589" />
    <path
       d="m 407.93,163.36 h 17.89 a 0.68,0.68 0 0 0 0,-1.35 h -17.89 a 0.68,0.68 0 0 0 0,1.35 z"
       style="fill:#263238"
       id="path1591" />
    <path
       d="m 407.93,167 h 17.89 a 0.68,0.68 0 0 0 0,-1.35 h -17.89 a 0.68,0.68 0 0 0 0,1.35 z"
       style="fill:#263238"
       id="path1593" />
    <path
       d="m 407.93,170.71 h 18.79 a 0.68,0.68 0 0 0 0,-1.35 h -18.79 a 0.68,0.68 0 0 0 0,1.35 z"
       style="fill:#263238"
       id="path1595" />
    <g
       style="opacity:0.4"
       id="g1599">
      <path
         d="m 407.93,141.31 h 20.59 a 0.68,0.68 0 0 0 0,-1.35 h -20.59 a 0.68,0.68 0 0 0 0,1.35 z"
         style="fill:#ffffff"
         id="path1597" />
    </g>
    <g
       style="opacity:0.4"
       id="g1603">
      <path
         d="m 407.93,145 h 17.89 a 0.68,0.68 0 0 0 0,-1.35 h -17.89 a 0.68,0.68 0 0 0 0,1.35 z"
         style="fill:#ffffff"
         id="path1601" />
    </g>
    <g
       style="opacity:0.4"
       id="g1607">
      <path
         d="m 407.93,148.66 h 17.89 a 0.68,0.68 0 0 0 0,-1.35 h -17.89 a 0.68,0.68 0 0 0 0,1.35 z"
         style="fill:#ffffff"
         id="path1605" />
    </g>
    <g
       style="opacity:0.4"
       id="g1611">
      <path
         d="m 407.93,152.34 h 18.79 a 0.68,0.68 0 0 0 0,-1.35 h -18.79 a 0.68,0.68 0 0 0 0,1.35 z"
         style="fill:#ffffff"
         id="path1609" />
    </g>
    <g
       style="opacity:0.4"
       id="g1615">
      <path
         d="m 407.93,156 h 15.19 a 0.68,0.68 0 0 0 0,-1.35 h -15.19 a 0.68,0.68 0 0 0 0,1.35 z"
         style="fill:#ffffff"
         id="path1613" />
    </g>
    <g
       style="opacity:0.4"
       id="g1619">
      <path
         d="m 407.93,159.69 h 20.59 a 0.68,0.68 0 0 0 0,-1.35 h -20.59 a 0.68,0.68 0 0 0 0,1.35 z"
         style="fill:#ffffff"
         id="path1617" />
    </g>
    <g
       style="opacity:0.4"
       id="g1623">
      <path
         d="m 407.93,163.36 h 17.89 a 0.68,0.68 0 0 0 0,-1.35 h -17.89 a 0.68,0.68 0 0 0 0,1.35 z"
         style="fill:#ffffff"
         id="path1621" />
    </g>
    <g
       style="opacity:0.4"
       id="g1627">
      <path
         d="m 407.93,167 h 17.89 a 0.68,0.68 0 0 0 0,-1.35 h -17.89 a 0.68,0.68 0 0 0 0,1.35 z"
         style="fill:#ffffff"
         id="path1625" />
    </g>
    <g
       style="opacity:0.4"
       id="g1631">
      <path
         d="m 407.93,170.71 h 18.79 a 0.68,0.68 0 0 0 0,-1.35 h -18.79 a 0.68,0.68 0 0 0 0,1.35 z"
         style="fill:#ffffff"
         id="path1629" />
    </g>
    <rect
       x="392.98001"
       y="140.64"
       width="10.13"
       height="10.13"
       style="fill:#407bff"
       id="rect1633" />
    <rect
       x="392.98001"
       y="140.64"
       width="10.13"
       height="10.13"
       style="opacity:0.3;fill:#ffffff"
       id="rect1635" />
    <rect
       x="401.35001"
       y="130.17"
       width="2.74"
       height="5.48"
       style="fill:#407bff"
       id="rect1637" />
    <rect
       x="406.84"
       y="127.42"
       width="2.74"
       height="8.2200003"
       style="fill:#407bff"
       id="rect1639" />
    <rect
       x="412.32001"
       y="128.8"
       width="2.74"
       height="6.8499999"
       style="fill:#407bff"
       id="rect1641" />
    <rect
       x="417.79999"
       y="124.68"
       width="2.74"
       height="10.97"
       style="fill:#407bff"
       id="rect1643" />
    <rect
       x="370.04001"
       y="165.99001"
       width="41.330002"
       height="55.619999"
       style="fill:#407bff"
       id="rect1645" />
    <rect
       x="370.04001"
       y="165.99001"
       width="41.330002"
       height="55.619999"
       style="opacity:0.8;fill:#ffffff"
       id="rect1647" />
    <path
       d="m 387.69,172 h 20.59 a 0.68,0.68 0 0 0 0,-1.35 h -20.59 a 0.68,0.68 0 0 0 0,1.35 z"
       style="fill:#263238"
       id="path1649" />
    <path
       d="m 387.69,175.63 h 17.89 a 0.68,0.68 0 0 0 0,-1.35 h -17.89 a 0.68,0.68 0 0 0 0,1.35 z"
       style="fill:#263238"
       id="path1651" />
    <path
       d="m 387.69,179.3 h 17.89 a 0.68,0.68 0 0 0 0,-1.35 h -17.89 a 0.68,0.68 0 0 0 0,1.35 z"
       style="fill:#263238"
       id="path1653" />
    <path
       d="m 387.69,183 h 18.79 a 0.68,0.68 0 0 0 0,-1.35 h -18.79 a 0.68,0.68 0 0 0 0,1.35 z"
       style="fill:#263238"
       id="path1655" />
    <path
       d="m 387.69,186.65 h 15.19 a 0.68,0.68 0 0 0 0,-1.35 h -15.19 a 0.68,0.68 0 0 0 0,1.35 z"
       style="fill:#263238"
       id="path1657" />
    <path
       d="m 387.69,190.33 h 20.59 a 0.68,0.68 0 0 0 0,-1.35 h -20.59 a 0.68,0.68 0 0 0 0,1.35 z"
       style="fill:#263238"
       id="path1659" />
    <path
       d="m 387.69,194 h 17.89 a 0.68,0.68 0 0 0 0,-1.35 h -17.89 a 0.68,0.68 0 0 0 0,1.35 z"
       style="fill:#263238"
       id="path1661" />
    <path
       d="m 387.69,197.68 h 17.89 a 0.68,0.68 0 0 0 0,-1.35 h -17.89 a 0.68,0.68 0 0 0 0,1.35 z"
       style="fill:#263238"
       id="path1663" />
    <path
       d="m 387.69,205 h 15.19 a 0.68,0.68 0 0 0 0,-1.35 h -15.19 a 0.68,0.68 0 0 0 0,1.35 z"
       style="fill:#263238"
       id="path1665" />
    <path
       d="m 387.69,208.71 h 20.59 a 0.68,0.68 0 0 0 0,-1.35 h -20.59 a 0.68,0.68 0 0 0 0,1.35 z"
       style="fill:#263238"
       id="path1667" />
    <path
       d="m 387.69,212.38 h 17.89 a 0.68,0.68 0 0 0 0,-1.35 h -17.89 a 0.68,0.68 0 0 0 0,1.35 z"
       style="fill:#263238"
       id="path1669" />
    <path
       d="m 387.69,216.06 h 17.89 a 0.68,0.68 0 0 0 0,-1.35 h -17.89 a 0.68,0.68 0 0 0 0,1.35 z"
       style="fill:#263238"
       id="path1671" />
    <path
       d="m 387.69,201.35 h 18.79 a 0.68,0.68 0 0 0 0,-1.35 h -18.79 a 0.68,0.68 0 0 0 0,1.35 z"
       style="fill:#263238"
       id="path1673" />
    <g
       style="opacity:0.4"
       id="g1701">
      <path
         d="m 387.69,172 h 20.59 a 0.68,0.68 0 0 0 0,-1.35 h -20.59 a 0.68,0.68 0 0 0 0,1.35 z"
         style="fill:#ffffff"
         id="path1675" />
      <path
         d="m 387.69,175.63 h 17.89 a 0.68,0.68 0 0 0 0,-1.35 h -17.89 a 0.68,0.68 0 0 0 0,1.35 z"
         style="fill:#ffffff"
         id="path1677" />
      <path
         d="m 387.69,179.3 h 17.89 a 0.68,0.68 0 0 0 0,-1.35 h -17.89 a 0.68,0.68 0 0 0 0,1.35 z"
         style="fill:#ffffff"
         id="path1679" />
      <path
         d="m 387.69,183 h 18.79 a 0.68,0.68 0 0 0 0,-1.35 h -18.79 a 0.68,0.68 0 0 0 0,1.35 z"
         style="fill:#ffffff"
         id="path1681" />
      <path
         d="m 387.69,186.65 h 15.19 a 0.68,0.68 0 0 0 0,-1.35 h -15.19 a 0.68,0.68 0 0 0 0,1.35 z"
         style="fill:#ffffff"
         id="path1683" />
      <path
         d="m 387.69,190.33 h 20.59 a 0.68,0.68 0 0 0 0,-1.35 h -20.59 a 0.68,0.68 0 0 0 0,1.35 z"
         style="fill:#ffffff"
         id="path1685" />
      <path
         d="m 387.69,194 h 17.89 a 0.68,0.68 0 0 0 0,-1.35 h -17.89 a 0.68,0.68 0 0 0 0,1.35 z"
         style="fill:#ffffff"
         id="path1687" />
      <path
         d="m 387.69,197.68 h 17.89 a 0.68,0.68 0 0 0 0,-1.35 h -17.89 a 0.68,0.68 0 0 0 0,1.35 z"
         style="fill:#ffffff"
         id="path1689" />
      <path
         d="m 387.69,205 h 15.19 a 0.68,0.68 0 0 0 0,-1.35 h -15.19 a 0.68,0.68 0 0 0 0,1.35 z"
         style="fill:#ffffff"
         id="path1691" />
      <path
         d="m 387.69,208.71 h 20.59 a 0.68,0.68 0 0 0 0,-1.35 h -20.59 a 0.68,0.68 0 0 0 0,1.35 z"
         style="fill:#ffffff"
         id="path1693" />
      <path
         d="m 387.69,212.38 h 17.89 a 0.68,0.68 0 0 0 0,-1.35 h -17.89 a 0.68,0.68 0 0 0 0,1.35 z"
         style="fill:#ffffff"
         id="path1695" />
      <path
         d="m 387.69,216.06 h 17.89 a 0.68,0.68 0 0 0 0,-1.35 h -17.89 a 0.68,0.68 0 0 0 0,1.35 z"
         style="fill:#ffffff"
         id="path1697" />
      <path
         d="m 387.69,201.35 h 18.79 a 0.68,0.68 0 0 0 0,-1.35 h -18.79 a 0.68,0.68 0 0 0 0,1.35 z"
         style="fill:#ffffff"
         id="path1699" />
    </g>
    <path
       d="m 376.39,190.57 -1.63,-1.63 a 6.15,6.15 0 0 0 -1.82,4.39 h 2.31 a 3.88,3.88 0 0 1 1.14,-2.76 z"
       style="fill:#407bff"
       id="path1703" />
    <path
       d="m 379.14,197.23 a 3.9,3.9 0 0 1 -3.89,-3.9 h -2.31 a 6.2,6.2 0 0 0 6.2,6.2 z"
       style="fill:#407bff"
       id="path1705" />
    <path
       d="m 379.14,197.23 a 3.9,3.9 0 0 1 -3.89,-3.9 h -2.31 a 6.2,6.2 0 0 0 6.2,6.2 z"
       style="opacity:0.3;fill:#ffffff"
       id="path1707" />
    <path
       d="m 376.39,190.57 a 3.85,3.85 0 0 1 2.75,-1.14 v -2.31 a 6.18,6.18 0 0 0 -4.38,1.82 z"
       style="fill:#407bff"
       id="path1709" />
    <path
       d="m 376.39,190.57 a 3.85,3.85 0 0 1 2.75,-1.14 v -2.31 a 6.18,6.18 0 0 0 -4.38,1.82 z"
       style="opacity:0.5"
       id="path1711" />
    <path
       d="m 383,193.33 a 3.9,3.9 0 0 1 -3.9,3.9 v 2.3 a 6.21,6.21 0 1 0 0,-12.41 v 2.31 a 3.89,3.89 0 0 1 3.9,3.9 z"
       style="fill:#407bff"
       id="path1713" />
    <path
       d="m 381.9,196.08 1.63,1.64 a 6.18,6.18 0 0 0 1.82,-4.39 H 383 a 3.85,3.85 0 0 1 -1.1,2.75 z"
       style="opacity:0.2"
       id="path1715" />
    <path
       d="m 376.39,178.85 -1.63,1.63 a 6.14,6.14 0 0 0 4.38,1.82 V 180 a 3.86,3.86 0 0 1 -2.75,-1.15 z"
       style="fill:#407bff"
       id="path1717" />
    <path
       d="m 383,176.1 a 3.9,3.9 0 0 1 -3.9,3.9 v 2.3 a 6.21,6.21 0 0 0 6.21,-6.2 z"
       style="fill:#407bff"
       id="path1719" />
    <path
       d="m 383,176.1 a 3.9,3.9 0 0 1 -3.9,3.9 v 2.3 a 6.21,6.21 0 0 0 6.21,-6.2 z"
       style="opacity:0.3;fill:#ffffff"
       id="path1721" />
    <path
       d="m 376.39,178.85 a 3.85,3.85 0 0 1 -1.14,-2.75 h -2.31 a 6.14,6.14 0 0 0 1.82,4.38 z"
       style="fill:#407bff"
       id="path1723" />
    <path
       d="m 376.39,178.85 a 3.85,3.85 0 0 1 -1.14,-2.75 h -2.31 a 6.14,6.14 0 0 0 1.82,4.38 z"
       style="opacity:0.5"
       id="path1725" />
    <path
       d="m 379.14,172.2 a 3.89,3.89 0 0 1 3.9,3.9 h 2.31 a 6.21,6.21 0 1 0 -12.41,0 h 2.31 a 3.89,3.89 0 0 1 3.89,-3.9 z"
       style="fill:#407bff"
       id="path1727" />
    <path
       d="m 381.9,173.34 1.63,-1.63 a 6.15,6.15 0 0 0 -4.39,-1.82 v 2.31 a 3.86,3.86 0 0 1 2.76,1.14 z"
       style="opacity:0.2"
       id="path1729" />
    <path
       d="m 381.9,207.8 1.63,-1.63 a 6.15,6.15 0 0 1 1.82,4.39 H 383 a 3.88,3.88 0 0 0 -1.1,-2.76 z"
       style="fill:#407bff"
       id="path1731" />
    <path
       d="m 379.14,214.46 a 3.9,3.9 0 0 0 3.9,-3.9 h 2.31 a 6.21,6.21 0 0 1 -6.21,6.21 z"
       style="fill:#407bff"
       id="path1733" />
    <path
       d="m 379.14,214.46 a 3.9,3.9 0 0 0 3.9,-3.9 h 2.31 a 6.21,6.21 0 0 1 -6.21,6.21 z"
       style="opacity:0.3;fill:#ffffff"
       id="path1735" />
    <path
       d="m 381.9,207.8 a 3.9,3.9 0 0 0 -2.76,-1.14 v -2.31 a 6.19,6.19 0 0 1 4.39,1.82 z"
       style="fill:#407bff"
       id="path1737" />
    <path
       d="m 381.9,207.8 a 3.9,3.9 0 0 0 -2.76,-1.14 v -2.31 a 6.19,6.19 0 0 1 4.39,1.82 z"
       style="opacity:0.5"
       id="path1739" />
    <path
       d="m 375.25,210.56 a 3.9,3.9 0 0 0 3.89,3.9 v 2.31 a 6.21,6.21 0 0 1 0,-12.42 v 2.31 a 3.9,3.9 0 0 0 -3.89,3.9 z"
       style="fill:#407bff"
       id="path1741" />
    <path
       d="m 376.39,213.32 -1.63,1.68 a 6.18,6.18 0 0 1 -1.82,-4.39 h 2.31 a 3.88,3.88 0 0 0 1.14,2.71 z"
       style="opacity:0.2"
       id="path1743" />
  </g>
  <g
     id="freepik--Device--inject-50"
     transform="matrix(1.1242622,0,0,1.1242622,-29.562729,-19.402816)">
    <path
       d="m 262.44,276.73 h 24.19 a 2.65,2.65 0 0 1 2.65,2.65 v 1.47 a 2.65,2.65 0 0 1 -2.65,2.65 h -24.19 z"
       style="fill:#263238"
       id="path1746" />
    <path
       d="m 215.15,276.73 h 51.47 a 2.46,2.46 0 0 1 2.46,2.46 V 281 a 2.46,2.46 0 0 1 -2.46,2.46 h -51.47 a 2.47,2.47 0 0 1 -2.47,-2.47 v -1.79 a 2.46,2.46 0 0 1 2.47,-2.47 z"
       id="path1748" />
    <path
       d="m 215.15,276.73 h 51.47 a 2.46,2.46 0 0 1 2.46,2.46 V 281 a 2.46,2.46 0 0 1 -2.46,2.46 h -51.47 a 2.47,2.47 0 0 1 -2.47,-2.47 v -1.79 a 2.46,2.46 0 0 1 2.47,-2.47 z"
       style="opacity:0.5;fill:#ffffff"
       id="path1750" />
    <polygon
       points="260.01,245.54 255.32,245.54 255.32,276.74 268.36,276.74 "
       style="fill:#263238"
       id="polygon1752" />
    <polygon
       points="237.19,245.54 258.11,245.54 266.46,276.74 239.84,276.74 "
       id="polygon1754" />
    <polygon
       points="237.19,245.54 258.11,245.54 266.46,276.74 239.84,276.74 "
       style="opacity:0.3;fill:#ffffff"
       id="polygon1756" />
    <path
       d="m 333.51,155.89 h -12.1 L 312,263 h 12.1 a 5.11,5.11 0 0 0 5,-4.59 l 8.56,-97.9 a 4.13,4.13 0 0 0 -4.15,-4.62 z"
       style="fill:#263238"
       id="path1758" />
    <path
       d="M 321.35,263 H 174.87 a 4.13,4.13 0 0 1 -4.18,-4.59 l 8.56,-97.9 a 5.11,5.11 0 0 1 5,-4.58 h 146.47 a 4.13,4.13 0 0 1 4.18,4.58 l -8.56,97.9 a 5.11,5.11 0 0 1 -4.99,4.59 z"
       style="fill:#263238"
       id="path1760" />
    <path
       d="M 321.35,263 H 174.87 a 4.13,4.13 0 0 1 -4.18,-4.59 l 8.56,-97.9 a 5.11,5.11 0 0 1 5,-4.58 h 146.47 a 4.13,4.13 0 0 1 4.18,4.58 l -8.56,97.9 a 5.11,5.11 0 0 1 -4.99,4.59 z"
       style="opacity:0.7;fill:#ffffff"
       id="path1762" />
    <path
       d="M 317.44,250.46 H 181 a 3.58,3.58 0 0 1 -3.63,-4 l 7.11,-81.34 a 4.44,4.44 0 0 1 4.33,-4 h 136.44 a 3.58,3.58 0 0 1 3.63,4 l -7.11,81.34 a 4.44,4.44 0 0 1 -4.33,4 z"
       style="opacity:0.9;fill:#fafafa"
       id="path1764" />
    <polygon
       points="277.77,180.33 282.55,180.33 281.71,189.88 276.94,189.88 "
       style="fill:#407bff"
       id="polygon1766" />
    <polygon
       points="277.77,180.33 282.55,180.33 281.71,189.88 276.94,189.88 "
       style="opacity:0.2"
       id="polygon1768" />
    <polygon
       points="287.74,175.56 292.51,175.56 291.26,189.88 286.49,189.88 "
       style="fill:#407bff"
       id="polygon1770" />
    <polygon
       points="297.08,177.95 301.85,177.95 300.81,189.88 296.03,189.88 "
       style="fill:#407bff"
       id="polygon1772" />
    <polygon
       points="307.25,170.79 312.03,170.79 310.36,189.88 305.58,189.88 "
       style="fill:#407bff"
       id="polygon1774" />
    <polygon
       points="307.25,170.79 312.03,170.79 310.36,189.88 305.58,189.88 "
       style="opacity:0.4"
       id="polygon1776" />
    <path
       d="m 315.13,189 h -42 q 0.79,-9.1 1.6,-18.21 c 0.1,-1.13 -1.67,-1.13 -1.77,0 q -0.82,9.54 -1.67,19.09 a 0.89,0.89 0 0 0 0.88,0.88 h 43 A 0.88022724,0.88022724 0 0 0 315.13,189 Z"
       style="fill:#407bff"
       id="path1778" />
    <path
       d="m 315.13,189 h -42 q 0.79,-9.1 1.6,-18.21 c 0.1,-1.13 -1.67,-1.13 -1.77,0 q -0.82,9.54 -1.67,19.09 a 0.89,0.89 0 0 0 0.88,0.88 h 43 A 0.88022724,0.88022724 0 0 0 315.13,189 Z"
       style="opacity:0.5;fill:#ffffff"
       id="path1780" />
    <path
       d="m 203,184.71 -3.11,2.87 a 9.92,9.92 0 0 0 7.42,3.18 l 0.35,-4 A 6.24,6.24 0 0 1 203,184.71 Z"
       style="fill:#407bff"
       id="path1782" />
    <path
       d="m 203,184.71 -3.11,2.87 a 9.92,9.92 0 0 0 7.42,3.18 l 0.35,-4 A 6.24,6.24 0 0 1 203,184.71 Z"
       style="opacity:0.5"
       id="path1784" />
    <path
       d="m 215.05,179.88 a 7.62,7.62 0 0 1 -7.44,6.84 l -0.35,4 a 12.12,12.12 0 0 0 11.84,-10.88 z"
       style="fill:#407bff"
       id="path1786" />
    <path
       d="m 215.05,179.88 a 7.62,7.62 0 0 1 -7.44,6.84 l -0.35,4 a 12.12,12.12 0 0 0 11.84,-10.88 z"
       style="opacity:0.1"
       id="path1788" />
    <path
       d="m 203,184.71 a 6.28,6.28 0 0 1 -1.58,-4.83 h -4 a 10,10 0 0 0 2.51,7.7 z"
       style="fill:#407bff"
       id="path1790" />
    <path
       d="m 208.81,173 a 6.16,6.16 0 0 1 6.24,6.84 h 4 A 9.82,9.82 0 0 0 209.17,169 12.12,12.12 0 0 0 197.33,179.89 h 4 a 7.61,7.61 0 0 1 7.48,-6.89 z"
       style="fill:#407bff"
       id="path1792" />
    <path
       d="m 208.81,173 a 6.16,6.16 0 0 1 6.24,6.84 h 4 A 9.82,9.82 0 0 0 209.17,169 12.12,12.12 0 0 0 197.33,179.89 h 4 a 7.61,7.61 0 0 1 7.48,-6.89 z"
       style="opacity:0.2;fill:#ffffff"
       id="path1794" />
    <path
       d="m 213.47,175 3.11,-2.86 a 9.9,9.9 0 0 0 -7.41,-3.19 l -0.36,4 a 6.22,6.22 0 0 1 4.66,2.05 z"
       style="opacity:0.6;fill:#ffffff"
       id="path1796" />
    <path
       d="m 233.27,184.71 -3.11,2.87 a 9.93,9.93 0 0 0 7.42,3.18 l 0.36,-4 a 6.25,6.25 0 0 1 -4.67,-2.05 z"
       style="fill:#407bff"
       id="path1798" />
    <path
       d="m 233.27,184.71 -3.11,2.87 a 9.93,9.93 0 0 0 7.42,3.18 l 0.36,-4 a 6.25,6.25 0 0 1 -4.67,-2.05 z"
       style="opacity:0.5"
       id="path1800" />
    <path
       d="m 245.37,179.88 a 7.62,7.62 0 0 1 -7.43,6.84 l -0.36,4 a 12.12,12.12 0 0 0 11.84,-10.88 z"
       style="fill:#407bff"
       id="path1802" />
    <path
       d="m 245.37,179.88 a 7.62,7.62 0 0 1 -7.43,6.84 l -0.36,4 a 12.12,12.12 0 0 0 11.84,-10.88 z"
       style="opacity:0.1"
       id="path1804" />
    <path
       d="m 233.27,184.71 a 6.31,6.31 0 0 1 -1.58,-4.83 h -4 a 10,10 0 0 0 2.51,7.7 z"
       style="fill:#407bff"
       id="path1806" />
    <path
       d="m 239.13,173 a 6.16,6.16 0 0 1 6.24,6.84 h 4 A 9.82,9.82 0 0 0 239.49,169 12.12,12.12 0 0 0 227.65,179.89 h 4 a 7.61,7.61 0 0 1 7.48,-6.89 z"
       style="fill:#407bff"
       id="path1808" />
    <path
       d="m 239.13,173 a 6.16,6.16 0 0 1 6.24,6.84 h 4 A 9.82,9.82 0 0 0 239.49,169 12.12,12.12 0 0 0 227.65,179.89 h 4 a 7.61,7.61 0 0 1 7.48,-6.89 z"
       style="opacity:0.2;fill:#ffffff"
       id="path1810" />
    <path
       d="m 243.79,175 3.11,-2.86 a 9.9,9.9 0 0 0 -7.41,-3.19 l -0.36,4 a 6.22,6.22 0 0 1 4.66,2.05 z"
       style="opacity:0.6;fill:#ffffff"
       id="path1812" />
    <path
       d="m 278.83,225.3 h -5.7 l 0.49,-5.7 h 5.71 z m -4.36,-1.24 h 3.22 l 0.29,-3.22 h -3.22 z"
       style="fill:#407bff"
       id="path1814" />
    <path
       d="m 278.07,234 h -5.7 l 0.49,-5.7 h 5.71 z m -4.35,-1.24 h 3.22 l 0.28,-3.22 H 274 Z"
       style="fill:#407bff"
       id="path1816" />
    <path
       d="m 277.31,242.65 h -5.7 l 0.5,-5.69 h 5.7 z M 273,241.42 h 3.22 l 0.28,-3.23 h -3.22 z"
       style="fill:#407bff"
       id="path1818" />
    <path
       d="m 282.78,224 a 1.25,1.25 0 0 1 -1.27,-1.39 1.55,1.55 0 0 1 1.51,-1.39 h 19.07 a 1.25,1.25 0 0 1 1.27,1.39 1.54,1.54 0 0 1 -1.51,1.39 z"
       style="fill:#407bff"
       id="path1820" />
    <path
       d="m 282.78,224 a 1.25,1.25 0 0 1 -1.27,-1.39 1.55,1.55 0 0 1 1.51,-1.39 h 19.07 a 1.25,1.25 0 0 1 1.27,1.39 1.54,1.54 0 0 1 -1.51,1.39 z"
       style="opacity:0.7;fill:#ffffff"
       id="path1822" />
    <path
       d="m 281.27,241.2 a 1.27,1.27 0 0 1 -1.27,-1.39 1.55,1.55 0 0 1 1.52,-1.39 h 16 a 1.25,1.25 0 0 1 1.26,1.39 1.55,1.55 0 0 1 -1.51,1.39 z"
       style="fill:#407bff"
       id="path1824" />
    <path
       d="m 281.27,241.2 a 1.27,1.27 0 0 1 -1.27,-1.39 1.55,1.55 0 0 1 1.52,-1.39 h 16 a 1.25,1.25 0 0 1 1.26,1.39 1.55,1.55 0 0 1 -1.51,1.39 z"
       style="opacity:0.4;fill:#ffffff"
       id="path1826" />
    <path
       d="m 282,232.52 a 1.26,1.26 0 0 1 -1.27,-1.39 1.55,1.55 0 0 1 1.52,-1.39 H 297 a 1.26,1.26 0 0 1 1.27,1.39 1.55,1.55 0 0 1 -1.51,1.39 z"
       style="fill:#407bff"
       id="path1828" />
    <path
       d="m 282,232.52 a 1.26,1.26 0 0 1 -1.27,-1.39 1.55,1.55 0 0 1 1.52,-1.39 H 297 a 1.26,1.26 0 0 1 1.27,1.39 1.55,1.55 0 0 1 -1.51,1.39 z"
       style="opacity:0.2;fill:#ffffff"
       id="path1830" />
    <path
       d="m 263.53,233.56 q -2.14,-3 -4.31,-5.89 a 0.91,0.91 0 0 0 -1.4,-0.18 l -4.57,5 c -1.2,-2 -2.39,-3.93 -3.59,-5.9 a 0.9,0.9 0 0 0 -1.4,-0.19 c -1.58,1.45 -3.12,2.95 -4.74,4.36 -0.48,-0.26 -1,-0.56 -1.42,-0.84 l -2.6,-1.54 a 0.91,0.91 0 0 0 -1.22,0.32 l -4.62,6.69 q -1.72,-3.34 -3.44,-6.69 A 0.91,0.91 0 0 0 229,228.38 l -2.21,1.18 c -0.44,0.25 -2,1 -2.38,1.33 a 18.1,18.1 0 0 0 -1.92,-1.14 l -2.31,-1.37 a 0.89185201,0.89185201 0 0 0 -0.9,1.54 c 1.28,0.76 3.56,2.87 5.07,2.86 1.51,-0.01 3.31,-1.44 4.74,-2.37 l 3.69,7.16 a 0.9,0.9 0 0 0 1.54,0 l 5,-7.23 3.88,2.29 a 0.91,0.91 0 0 0 1.08,-0.14 l 4.42,-4.06 3.65,6 a 0.9,0.9 0 0 0 1.4,0.18 l 4.64,-5.12 3.61,4.94 c 0.67,0.94 2.21,0.05 1.53,-0.87 z"
       style="fill:#407bff"
       id="path1832" />
    <path
       d="M 262.09,240.87 H 219.6 q 0.81,-9.21 1.61,-18.42 c 0.1,-1.14 -1.68,-1.14 -1.78,0 l -1.69,19.31 a 0.9,0.9 0 0 0 0.89,0.89 h 43.46 a 0.89,0.89 0 0 0 0,-1.78 z"
       style="fill:#407bff"
       id="path1834" />
    <path
       d="M 262.09,240.87 H 219.6 q 0.81,-9.21 1.61,-18.42 c 0.1,-1.14 -1.68,-1.14 -1.78,0 l -1.69,19.31 a 0.9,0.9 0 0 0 0.89,0.89 h 43.46 a 0.89,0.89 0 0 0 0,-1.78 z"
       style="opacity:0.5;fill:#ffffff"
       id="path1836" />
    <polygon
       points="234.21,195.34 310.04,195.34 308.35,214.69 232.52,214.69 "
       style="fill:#407bff"
       id="polygon1838" />
    <polygon
       points="234.21,195.34 310.04,195.34 308.35,214.69 232.52,214.69 "
       style="opacity:0.9;fill:#ffffff"
       id="polygon1840" />
    <path
       d="m 309.69,216.16 h -78.77 l 2,-22.29 h 78.77 z m -75.57,-2.94 H 307 l 1.44,-16.4 h -72.88 z"
       style="fill:#263238"
       id="path1842" />
    <path
       d="m 249.65,207.61 -0.14,1.54 h -6.39 l 0.72,-8.26 h 6.24 l -0.13,1.53 h -4.34 l -0.16,1.8 h 3.83 l -0.13,1.48 h -3.83 l -0.17,1.91 z"
       style="fill:#407bff"
       id="path1844" />
    <path
       d="m 256.15,209.15 -1.74,-2.87 -2.21,2.87 H 250 l 3.42,-4.2 -2.55,-4.06 h 2.17 l 1.67,2.68 2.09,-2.68 h 2.07 l -3.23,4 2.71,4.27 z"
       style="fill:#407bff"
       id="path1846" />
    <path
       d="m 261.31,202.45 h -2.64 l 0.14,-1.56 H 266 l -0.13,1.56 h -2.64 l -0.59,6.7 h -1.91 z"
       style="fill:#407bff"
       id="path1848" />
    <path
       d="m 271.57,209.15 -1.39,-2.3 h -1.76 l -0.2,2.3 h -1.91 l 0.72,-8.26 h 3.57 a 4.47,4.47 0 0 1 1.88,0.36 2.54,2.54 0 0 1 1.15,1 2.76,2.76 0 0 1 0.3,1.6 3.08,3.08 0 0 1 -0.58,1.58 3.15,3.15 0 0 1 -1.35,1 l 1.62,2.66 z m 0.07,-6.33 a 1.88,1.88 0 0 0 -1.28,-0.37 h -1.56 l -0.25,2.87 h 1.56 a 2.13,2.13 0 0 0 1.34,-0.37 1.47,1.47 0 0 0 0.54,-1.06 1.23,1.23 0 0 0 -0.35,-1.07 z"
       style="fill:#407bff"
       id="path1850" />
    <path
       d="m 280.57,207.38 h -3.83 l -0.89,1.77 h -2 l 4.4,-8.26 h 1.89 l 3,8.26 h -2 z m -0.48,-1.46 -1,-3.16 -1.58,3.16 z"
       style="fill:#407bff"
       id="path1852" />
    <path
       d="m 285.6,208.74 a 3.59,3.59 0 0 1 -1.47,-1.52 3.85,3.85 0 0 1 -0.39,-2.2 4.54,4.54 0 0 1 0.77,-2.2 4.64,4.64 0 0 1 1.74,-1.52 5,5 0 0 1 2.34,-0.55 4.62,4.62 0 0 1 1.91,0.37 3.56,3.56 0 0 1 1.36,1.09 l -1.33,1.13 a 2.4,2.4 0 0 0 -2,-1 2.94,2.94 0 0 0 -1.39,0.33 2.57,2.57 0 0 0 -1,0.94 2.9,2.9 0 0 0 -0.46,1.37 2.58,2.58 0 0 0 0.22,1.37 2.07,2.07 0 0 0 0.85,0.93 2.54,2.54 0 0 0 1.34,0.34 2.87,2.87 0 0 0 2.16,-1 l 1.13,1.13 a 4.3,4.3 0 0 1 -1.56,1.1 5.1,5.1 0 0 1 -2,0.38 4.52,4.52 0 0 1 -2.22,-0.49 z"
       style="fill:#407bff"
       id="path1854" />
    <path
       d="m 294.75,202.45 h -2.64 l 0.14,-1.56 h 7.19 l -0.13,1.56 h -2.65 l -0.58,6.7 h -1.91 z"
       style="fill:#407bff"
       id="path1856" />
  </g>
  <g
     id="freepik--Desk--inject-50"
     transform="matrix(1.1242622,0,0,1.1242622,-29.562729,-19.402816)">
    <rect
       x="156.75999"
       y="290.32999"
       width="205.63"
       height="114.97"
       style="fill:#407bff"
       id="rect1859" />
    <rect
       x="141.58"
       y="290.32999"
       width="19.18"
       height="114.97"
       transform="rotate(180,151.17,347.815)"
       style="fill:#407bff"
       id="rect1861" />
    <rect
       x="141.58"
       y="290.32999"
       width="19.18"
       height="114.97"
       transform="rotate(180,151.17,347.815)"
       style="opacity:0.3;fill:#ffffff"
       id="rect1863" />
    <rect
       x="137.55"
       y="290.32999"
       width="210.56"
       height="10.17"
       style="fill:#407bff"
       id="rect1865" />
    <rect
       x="137.55"
       y="290.32999"
       width="210.56"
       height="10.17"
       style="opacity:0.6;fill:#ffffff"
       id="rect1867" />
    <rect
       x="133.53"
       y="290.32999"
       width="8.0500002"
       height="114.97"
       style="fill:#407bff"
       id="rect1869" />
    <rect
       x="133.53"
       y="290.32999"
       width="8.0500002"
       height="114.97"
       style="opacity:0.5;fill:#ffffff"
       id="rect1871" />
    <rect
       x="353.73001"
       y="290.32999"
       width="19.18"
       height="114.97"
       transform="rotate(180,363.32,347.815)"
       style="fill:#407bff"
       id="rect1873" />
    <rect
       x="353.73001"
       y="290.32999"
       width="19.18"
       height="114.97"
       transform="rotate(180,363.32,347.815)"
       style="opacity:0.3;fill:#ffffff"
       id="rect1875" />
    <rect
       x="360.34"
       y="283.70001"
       width="17.389999"
       height="8.8299999"
       transform="rotate(180,369.04,288.11)"
       style="fill:#407bff"
       id="rect1877" />
    <rect
       x="360.34"
       y="283.70001"
       width="17.389999"
       height="8.8299999"
       transform="rotate(180,369.04,288.11)"
       style="opacity:0.3;fill:#ffffff"
       id="rect1879" />
    <rect
       x="253.32001"
       y="305.98999"
       width="86.870003"
       height="99.309998"
       style="fill:#407bff"
       id="rect1881" />
    <rect
       x="253.32001"
       y="305.98999"
       width="86.870003"
       height="99.309998"
       style="opacity:0.5;fill:#ffffff"
       id="rect1883" />
    <rect
       x="340.19"
       y="305.98999"
       width="5.4899998"
       height="99.309998"
       style="fill:#407bff"
       id="rect1885" />
    <rect
       x="340.19"
       y="305.98999"
       width="5.4899998"
       height="99.309998"
       style="opacity:0.2;fill:#ffffff"
       id="rect1887" />
    <rect
       x="258.81"
       y="338.60999"
       width="75.889999"
       height="22.969999"
       style="fill:#407bff"
       id="rect1889" />
    <rect
       x="258.81"
       y="311.39999"
       width="75.889999"
       height="22.969999"
       style="fill:#407bff"
       id="rect1891" />
    <rect
       x="258.81"
       y="365.82001"
       width="75.889999"
       height="22.969999"
       style="fill:#407bff"
       id="rect1893" />
    <g
       style="opacity:0.7"
       id="g1901">
      <rect
         x="258.81"
         y="338.60999"
         width="75.889999"
         height="22.969999"
         style="fill:#ffffff"
         id="rect1895" />
      <rect
         x="258.81"
         y="311.39999"
         width="75.889999"
         height="22.969999"
         style="fill:#ffffff"
         id="rect1897" />
      <rect
         x="258.81"
         y="365.82001"
         width="75.889999"
         height="22.969999"
         style="fill:#ffffff"
         id="rect1899" />
    </g>
    <rect
       x="345.67999"
       y="290.32999"
       width="8.0500002"
       height="114.97"
       style="fill:#407bff"
       id="rect1903" />
    <rect
       x="156.75999"
       y="290.32999"
       width="205.63"
       height="114.97"
       style="opacity:0.1;fill:#ffffff"
       id="rect1905" />
    <rect
       x="345.67999"
       y="290.32999"
       width="8.0500002"
       height="114.97"
       style="opacity:0.5;fill:#ffffff"
       id="rect1907" />
    <rect
       x="126.91"
       y="283.70001"
       width="233.42999"
       height="8.8299999"
       style="fill:#407bff"
       id="rect1909" />
    <rect
       x="126.91"
       y="283.70001"
       width="233.42999"
       height="8.8299999"
       style="opacity:0.6;fill:#ffffff"
       id="rect1911" />
    <path
       d="m 297,320.39 h -2.63 a 2.5,2.5 0 0 0 0,5 H 297 a 2.5,2.5 0 0 0 0,-5 z"
       style="fill:#407bff"
       id="path1913" />
    <path
       d="m 297,347.6 h -2.63 a 2.5,2.5 0 0 0 0,5 H 297 a 2.5,2.5 0 0 0 0,-5 z"
       style="fill:#407bff"
       id="path1915" />
    <path
       d="m 297,374.81 h -2.63 a 2.5,2.5 0 0 0 0,5 H 297 a 2.5,2.5 0 0 0 0,-5 z"
       style="fill:#407bff"
       id="path1917" />
    <path
       d="m 296.84,322.89 a 2.5,2.5 0 1 1 -2.5,-2.5 2.5,2.5 0 0 1 2.5,2.5 z"
       style="opacity:0.3;fill:#fafafa"
       id="path1919" />
    <path
       d="m 296.84,350.1 a 2.5,2.5 0 1 1 -2.5,-2.5 2.5,2.5 0 0 1 2.5,2.5 z"
       style="opacity:0.3;fill:#fafafa"
       id="path1921" />
    <path
       d="m 296.84,377.31 a 2.5,2.5 0 1 1 -2.5,-2.5 2.5,2.5 0 0 1 2.5,2.5 z"
       style="opacity:0.3;fill:#fafafa"
       id="path1923" />
  </g>
  <g
     id="freepik--Character--inject-50"
     transform="matrix(1.1242622,0,0,1.1242622,-29.562729,-19.402816)">
    <path
       d="m 209.34,183.11 c -1.43,2 1.72,8.45 1.72,8.45 l -14.19,1.71 2.78,-15.47 c 0,0 11.35,2.93 9.69,5.31 z"
       style="fill:#ce7a63"
       id="path1926" />
    <path
       d="m 209.12,186 a 4.05,4.05 0 0 1 0.22,-2.9 c 1,-1.48 -3,-3.17 -6.13,-4.24 0.79,1.52 2.88,5.32 5.91,7.14 z"
       style="opacity:0.2"
       id="path1928" />
    <polygon
       points="238.38,410.17 234.38,396.24 243.53,394.49 245.04,408.92 "
       style="fill:#ce7a63"
       id="polygon1930" />
    <path
       d="m 244.9,406.45 -7.83,1.55 a 0.65,0.65 0 0 0 -0.52,0.62 l -0.14,6.65 a 1.07,1.07 0 0 0 1,1.1 0.82,0.82 0 0 0 0.22,0 c 2.82,-0.61 5.3,-1.27 8.81,-2 4.15,-0.83 3.19,-0.12 8.08,-1 2.95,-0.55 2.82,-4 1.54,-3.91 -5.84,0.43 -6.78,-1.18 -9.39,-2.78 a 2.64,2.64 0 0 0 -1.77,-0.23 z"
       style="fill:#263238"
       id="path1932" />
    <polygon
       points="243.53,394.49 234.38,396.24 237.02,405.44 244.57,404.45 "
       style="opacity:0.2"
       id="polygon1934" />
    <polygon
       points="175,408.56 176.7,391.05 185.93,391.56 181.39,409.46 "
       style="fill:#ce7a63"
       id="polygon1936" />
    <path
       d="m 182.24,407.21 -8,-0.56 a 0.65,0.65 0 0 0 -0.66,0.46 l -1.9,6.37 a 1.08,1.08 0 0 0 0.71,1.34 h 0.23 c 2.87,0.15 5.44,0.18 9,0.43 4.22,0.3 3.11,0.73 8.07,1.15 3,0.25 3.77,-3.11 2.51,-3.36 -5.74,-1.14 -6.22,-2.94 -8.31,-5.17 a 2.6,2.6 0 0 0 -1.65,-0.66 z"
       style="fill:#263238"
       id="path1938" />
    <path
       d="m 175.39,404.49 7,1.07 3.34,-13.19 c -3.06,-0.33 -8.08,-0.83 -9.06,-0.93 z"
       style="opacity:0.2"
       id="path1940" />
    <path
       d="m 192.84,254.53 c 0,0 -2.2,6.4 -2.52,22 -0.2,9.3 -1.11,24 -1.81,34.39 -0.2,3 -0.39,5.68 -0.54,7.71 a 24.11,24.11 0 0 1 -1.78,7.5 c -0.68,1.66 -1.53,3.94 -2.41,6.77 A 106.1,106.1 0 0 0 180,350.5 c -2.33,17.44 -5,51.24 -5,51.24 l 8.63,1.12 21.26,-78.77 22.65,-69.62 z"
       style="fill:#263238"
       id="path1942" />
    <path
       d="m 215.39,292.09 -0.91,-6.86 -7.42,-6.23 -2.49,-1.23 a 83.27,83.27 0 0 1 4.33,33.64 z"
       style="opacity:0.2"
       id="path1944" />
    <path
       d="m 234.27,254.85 10.39,146.3 -8.8,1.5 c 0,0 -11.76,-40.49 -13.75,-62.87 a 57.05,57.05 0 0 1 -0.26,-7.14 28.32,28.32 0 0 0 -1.19,-9 l -1.24,-4.17 -6.93,-23.47 a 40.19,40.19 0 0 0 -6.86,-13.54 c -3.61,-4.55 -8.07,-13.37 -6.22,-28 L 232,252.17 Z"
       style="fill:#263238"
       id="path1946" />
    <path
       d="m 201.73,245.61 c 0,0 5.05,-1 6.75,-0.87 a 32.89,32.89 0 0 1 5.41,1.77 2.32,2.32 0 0 1 0.85,3.92 c 0,0 -2.77,3.56 -4.16,3.86 -2.77,0.58 -10.71,-3.67 -10.71,-3.67 z"
       style="fill:#ce7a63"
       id="path1948" />
    <polygon
       points="201.37,252.47 203.84,244.56 201.48,243.19 198.68,252.24 "
       style="fill:#263238"
       id="polygon1950" />
    <polygon
       points="201.37,252.47 203.84,244.56 201.48,243.19 198.68,252.24 "
       style="opacity:0.2;fill:#ffffff"
       id="polygon1952" />
    <path
       d="m 184.86,200.07 a 2.93,2.93 0 0 0 -5,0.58 c -3.15,6.74 -11.1,24.61 -11.13,33.29 0,10.81 31.75,17.21 31.75,17.21 l 1.92,-6.21 -21.84,-13.44 6.29,-14.83 c 0,0 1.56,-11.73 -1.99,-16.6 z"
       style="fill:#407bff"
       id="path1954" />
    <path
       d="m 184.86,200.07 a 2.93,2.93 0 0 0 -5,0.58 c -3.15,6.74 -11.1,24.61 -11.13,33.29 0,10.81 31.75,17.21 31.75,17.21 l 1.92,-6.21 -21.84,-13.44 6.29,-14.83 c 0,0 1.56,-11.73 -1.99,-16.6 z"
       style="opacity:0.1"
       id="path1956" />
    <g
       style="opacity:0.4"
       id="g1962">
      <path
         d="m 185.51,201.15 -3.43,0.47 -2,1.41 2.35,24 4.39,-10.34 c 0,0 1.39,-10.22 -1.31,-15.54 z"
         id="path1958" />
      <path
         d="m 192.13,238.61 -9.08,-5.61 1.32,13.48 c 1.9,0.71 3.8,1.34 5.6,1.9 z"
         id="path1960" />
    </g>
    <path
       d="m 233.78,254.77 c 0,0 -15.65,5.12 -41.28,1 L 180.21,204 a 9,9 0 0 1 4.52,-9.82 c 5.27,-2.92 15.71,-5.66 36.3,-4.53 a 11.49,11.49 0 0 1 10.54,8.83 z"
       style="fill:#407bff"
       id="path1964" />
    <path
       d="m 192.68,191.79 1.56,-3.67 c 0,0 6.17,-3.12 16.63,-1.65 l 2.49,2.88 c 0,0 -11.71,0.28 -20.68,2.44 z"
       style="fill:#263238"
       id="path1966" />
    <path
       d="m 216.76,164.9 c 0.14,0.58 -0.06,1.13 -0.45,1.21 -0.39,0.08 -0.85,-0.33 -1,-0.9 -0.15,-0.57 0,-1.13 0.44,-1.21 0.44,-0.08 0.86,0.32 1.01,0.9 z"
       style="fill:#263238"
       id="path1968" />
    <path
       d="m 216.23,166.66 4,3.91 a 4.27,4.27 0 0 1 -3.62,1.14 z"
       style="fill:#ba4d3c"
       id="path1970" />
    <path
       d="m 193.43,167.51 c 1.53,7.83 2,11.19 6.61,14.76 6.78,3.39 16.47,1.9 17.36,-6.22 0.81,-7.3 -1.82,-18.86 -10.16,-21.12 a 11.09,11.09 0 0 0 -13.65,7.58 10.57,10.57 0 0 0 -0.16,5 z"
       style="fill:#ce7a63"
       id="path1972" />
    <path
       d="m 213.81,163.06 a 0.32,0.32 0 0 0 0.27,-0.14 2.48,2.48 0 0 1 1.95,-1.14 0.3,0.3 0 0 0 0.32,-0.3 0.32,0.32 0 0 0 -0.32,-0.32 3,3 0 0 0 -2.49,1.4 0.33,0.33 0 0 0 0.09,0.44 v 0 a 0.43,0.43 0 0 0 0.18,0.06 z"
       style="fill:#263238"
       id="path1974" />
    <path
       d="m 233.27,229.25 -1.05,-19 -6.78,-9 -3.71,-3.44 -2.86,2 c 0,0 0.39,10.52 14.4,29.44 z"
       style="opacity:0.4"
       id="path1976" />
    <path
       d="m 235.47,202.29 c 3.76,6.9 5.21,11 6.5,12.69 a 0.77,0.77 0 0 0 0.73,0.31 l 21.95,-3.19 a 0.78,0.78 0 0 1 0.86,0.53 l 1.77,5.43 a 0.78,0.78 0 0 1 -0.5,1 l -20.58,7 a 10.7,10.7 0 0 1 -10.95,-1.92 58.25,58.25 0 0 1 -14,-18.38 c -1.58,-3.12 -5.25,-8.9 0.78,-14 4.97,-4.23 10.97,5.95 13.44,10.53 z"
       style="fill:#407bff"
       id="path1978" />
    <path
       d="m 235.47,202.29 c 3.76,6.9 5.21,11 6.5,12.69 a 0.77,0.77 0 0 0 0.73,0.31 l 21.95,-3.19 a 0.78,0.78 0 0 1 0.86,0.53 l 1.77,5.43 a 0.78,0.78 0 0 1 -0.5,1 l -20.58,7 a 10.7,10.7 0 0 1 -10.95,-1.92 58.25,58.25 0 0 1 -14,-18.38 c -1.58,-3.12 -5.25,-8.9 0.78,-14 4.97,-4.23 10.97,5.95 13.44,10.53 z"
       style="opacity:0.1;fill:#ffffff"
       id="path1980" />
    <path
       d="m 265.29,212.62 4.52,-5.32 a 3.83,3.83 0 0 1 1.87,-1.21 l 10.65,-3.1 a 0.79,0.79 0 0 1 0.91,0.4 v 0 a 0.78,0.78 0 0 1 -0.4,1.08 l -4.4,1.8 a 0.77,0.77 0 0 0 -0.48,0.78 l 0.22,2.66 a 3.89,3.89 0 0 1 -2.26,3.85 l -3.2,1.46 -0.37,0.14 -5.5,1.85 a 0.77,0.77 0 0 1 -1,-0.56 l -0.73,-3.15 a 0.79,0.79 0 0 1 0.17,-0.68 z"
       style="fill:#ce7a63"
       id="path1982" />
    <path
       d="m 264,212.07 2.71,6.84 a 0.79,0.79 0 0 0 1.07,0.42 l 0.9,-0.44 a 0.78,0.78 0 0 0 0.38,-1 l -2.58,-6.56 a 0.8,0.8 0 0 0 -0.85,-0.49 l -1,0.16 a 0.78,0.78 0 0 0 -0.63,1.07 z"
       style="fill:#263238"
       id="path1984" />
    <polygon
       points="245.87,402.58 245.58,398.74 234.14,400.57 235.5,404.18 "
       style="fill:#407bff"
       id="polygon1986" />
    <polygon
       points="245.87,402.58 245.58,398.74 234.14,400.57 235.5,404.18 "
       style="opacity:0.2"
       id="polygon1988" />
    <polygon
       points="184.25,404.3 185.06,400.53 174.01,399.11 173.85,402.91 "
       style="fill:#407bff"
       id="polygon1990" />
    <polygon
       points="184.25,404.3 185.06,400.53 174.01,399.11 173.85,402.91 "
       style="opacity:0.2"
       id="polygon1992" />
    <path
       d="m 198.79,182.51 c 0,0 1.16,-1.65 4.66,0.26 0,0 5,-5.57 5.12,-10.78 0,0 3.67,-0.67 3.37,-3.05 -0.3,-2.38 -2.06,-5.47 -1.69,-7.62 0.37,-2.15 3.94,-7.79 0.91,-10.3 -3.03,-2.51 -3.39,0.48 -5.11,0.8 -1.72,0.32 -12.08,0.7 -13.41,8 a 10.06,10.06 0 0 0 -0.69,12.46 c 4.53,7.06 6.84,10.23 6.84,10.23 z"
       style="fill:#263238"
       id="path1994" />
    <path
       d="m 208.73,167.1 9.08,-5 c 0,0 2.28,5.94 1.18,6.24 -1.1,0.3 -2.53,-4.37 -2.53,-4.37 L 210,167 Z"
       style="fill:#407bff"
       id="path1996" />
    <path
       d="m 216.69,164.09 0.69,-0.41 c 0,0 1.87,4.2 1.36,4.57 -0.51,0.37 -2.05,-4.16 -2.05,-4.16 z"
       style="opacity:0.7;fill:#ffffff"
       id="path1998" />
    <path
       d="m 210,167.28 a 6.17,6.17 0 0 1 2.64,3.95 c 0.4,2.12 -1.6,3 -3.55,2.24 -1.76,-0.68 -4.08,-2.61 -3.59,-4.67 a 2.85,2.85 0 0 1 4.5,-1.52 z"
       style="fill:#ce7a63"
       id="path2000" />
  </g>
</svg>
