<?xml version="1.0" encoding="UTF-8" standalone="no"?>
<svg
   viewBox="0 0 500 500"
   version="1.1"
   id="svg296"
   sodipodi:docname="hiw_3.svg"
   inkscape:version="1.1 (c4e8f9e, 2021-05-24)"
   xmlns:inkscape="http://www.inkscape.org/namespaces/inkscape"
   xmlns:sodipodi="http://sodipodi.sourceforge.net/DTD/sodipodi-0.dtd"
   xmlns="http://www.w3.org/2000/svg"
   xmlns:svg="http://www.w3.org/2000/svg">
  <defs
     id="defs300" />
  <sodipodi:namedview
     id="namedview298"
     pagecolor="#ffffff"
     bordercolor="#666666"
     borderopacity="1.0"
     inkscape:pageshadow="2"
     inkscape:pageopacity="0.0"
     inkscape:pagecheckerboard="0"
     showgrid="false"
     inkscape:zoom="1.506"
     inkscape:cx="250"
     inkscape:cy="249.66799"
     inkscape:window-width="1792"
     inkscape:window-height="984"
     inkscape:window-x="0"
     inkscape:window-y="25"
     inkscape:window-maximized="1"
     inkscape:current-layer="svg296" />
  <g
     id="freepik--background-complete--inject-13"
     transform="matrix(1.1318896,0,0,1.1318896,-32.080256,-27.110502)">
    <rect
       y="382.39999"
       width="500"
       height="0.25"
       style="fill:#e0e0e0"
       id="rect9"
       x="0" />
    <rect
       x="85.910004"
       y="392.98999"
       width="33.740002"
       height="0.25"
       style="fill:#e0e0e0"
       id="rect11" />
    <rect
       x="58.549999"
       y="393.10999"
       width="20.02"
       height="0.25"
       style="fill:#e0e0e0"
       id="rect13" />
    <rect
       x="208.33"
       y="387.75"
       width="94.790001"
       height="0.25"
       style="fill:#e0e0e0"
       id="rect15" />
    <rect
       x="137.56"
       y="400.07999"
       width="30.219999"
       height="0.25"
       style="fill:#e0e0e0"
       id="rect17" />
    <rect
       x="335"
       y="391.19"
       width="78.669998"
       height="0.25"
       style="fill:#e0e0e0"
       id="rect19" />
    <path
       d="M 237,337.8 H 43.91 a 5.71,5.71 0 0 1 -5.7,-5.71 V 60.66 A 5.71,5.71 0 0 1 43.91,55 H 237 a 5.71,5.71 0 0 1 5.71,5.71 V 332.09 A 5.71,5.71 0 0 1 237,337.8 Z M 43.91,55.2 a 5.46,5.46 0 0 0 -5.45,5.46 v 271.43 a 5.46,5.46 0 0 0 5.45,5.46 H 237 a 5.47,5.47 0 0 0 5.46,-5.46 V 60.66 A 5.47,5.47 0 0 0 237,55.2 Z"
       style="fill:#e0e0e0"
       id="path21" />
    <path
       d="m 453.31,337.8 h -193.1 a 5.72,5.72 0 0 1 -5.71,-5.71 V 60.66 A 5.72,5.72 0 0 1 260.21,55 h 193.1 a 5.71,5.71 0 0 1 5.69,5.66 v 271.43 a 5.71,5.71 0 0 1 -5.69,5.71 z M 260.21,55.2 a 5.47,5.47 0 0 0 -5.46,5.46 v 271.43 a 5.47,5.47 0 0 0 5.46,5.46 h 193.1 a 5.47,5.47 0 0 0 5.46,-5.46 V 60.66 a 5.47,5.47 0 0 0 -5.46,-5.46 z"
       style="fill:#e0e0e0"
       id="path23" />
    <rect
       x="395.73999"
       y="265.78"
       width="25.48"
       height="116.62"
       style="fill:#e0e0e0"
       id="rect25" />
    <polygon
       points="416.38,382.4 421.22,382.4 421.22,368.63 411.31,368.63 "
       style="fill:#f0f0f0"
       id="polygon27" />
    <rect
       x="300.51999"
       y="265.78"
       width="25.48"
       height="116.62"
       style="fill:#e0e0e0"
       id="rect29" />
    <rect
       x="321.76999"
       y="265.78"
       width="99.449997"
       height="108.17"
       style="fill:#f0f0f0"
       id="rect31" />
    <rect
       x="377.42001"
       y="316.69"
       width="35.759998"
       height="44.349998"
       transform="rotate(-90,395.295,338.865)"
       style="fill:#e0e0e0"
       id="rect33" />
    <rect
       x="329.82001"
       y="316.69"
       width="35.759998"
       height="44.349998"
       transform="rotate(-90,347.7,338.86)"
       style="fill:#e0e0e0"
       id="rect35" />
    <path
       d="m 352.09,324.84 h -8.78 a 13.86,13.86 0 0 1 -10.07,-4.34 h 28.92 a 13.86,13.86 0 0 1 -10.07,4.34 z"
       style="fill:#f0f0f0"
       id="path37" />
    <path
       d="m 400.13,324.84 h -8.77 a 13.88,13.88 0 0 1 -10.08,-4.34 h 28.93 a 13.9,13.9 0 0 1 -10.08,4.34 z"
       style="fill:#f0f0f0"
       id="path39" />
    <rect
       x="377.42001"
       y="269.63"
       width="35.759998"
       height="44.349998"
       transform="rotate(-90,395.295,291.805)"
       style="fill:#e0e0e0"
       id="rect41" />
    <rect
       x="329.82001"
       y="269.63"
       width="35.759998"
       height="44.349998"
       transform="rotate(-90,347.7,291.81)"
       style="fill:#e0e0e0"
       id="rect43" />
    <path
       d="m 352.09,277.78 h -8.78 a 13.89,13.89 0 0 1 -10.07,-4.33 h 28.92 a 13.89,13.89 0 0 1 -10.07,4.33 z"
       style="fill:#f0f0f0"
       id="path45" />
    <path
       d="m 400.13,277.78 h -8.77 a 13.91,13.91 0 0 1 -10.08,-4.33 h 28.93 a 13.93,13.93 0 0 1 -10.08,4.33 z"
       style="fill:#f0f0f0"
       id="path47" />
    <polygon
       points="326.61,382.4 321.77,382.4 321.77,368.63 331.69,368.63 "
       style="fill:#f0f0f0"
       id="polygon49" />
    <path
       d="m 346.37,247.51 c 0,4.46 3.1,7.56 -1.36,7.56 -4.46,0 -14.78,-3.1 -14.78,-7.56 a 8.07,8.07 0 0 1 16.14,0 z"
       style="fill:#e0e0e0"
       id="path51" />
    <path
       d="m 360.18,251.36 c 0,4.45 3.1,7.56 -1.36,7.56 -4.46,0 -14.82,-3.11 -14.82,-7.56 a 8.07,8.07 0 1 1 16.14,0 z"
       style="fill:#e0e0e0"
       id="path53" />
    <path
       d="m 373.41,249 c 0,4.45 3.1,7.56 -1.36,7.56 -4.46,0 -14.78,-3.11 -14.78,-7.56 a 8.07,8.07 0 0 1 16.14,0 z"
       style="fill:#e0e0e0"
       id="path55" />
    <path
       d="m 325.29,250 c 0,0 0.66,15.74 25.95,15.74 25.29,0 25.94,-15.74 25.94,-15.74 z"
       style="fill:#e6e6e6"
       id="path57" />
    <rect
       x="294.04999"
       y="73.989998"
       width="128.23"
       height="141.89999"
       style="fill:#e0e0e0"
       id="rect59" />
    <path
       d="M 436,69.61 H 285.75 a 1.27,1.27 0 0 0 -1.28,1.27 v 0 a 1.28,1.28 0 0 0 1.28,1.28 H 436 a 1.27,1.27 0 0 0 1.27,-1.28 v 0 A 1.27,1.27 0 0 0 436,69.61 Z"
       style="fill:#e0e0e0"
       id="path61" />
    <rect
       x="296.59"
       y="73.989998"
       width="131.13"
       height="141.89999"
       style="fill:#e6e6e6"
       id="rect63" />
    <rect
       x="294.04999"
       y="215.89"
       width="128.23"
       height="10.11"
       style="fill:#e0e0e0"
       id="rect65" />
    <rect
       x="305.64999"
       y="215.89"
       width="131.13"
       height="10.11"
       style="fill:#e6e6e6"
       id="rect67" />
    <rect
       x="298.82001"
       y="86.989998"
       width="126.66"
       height="115.89"
       transform="rotate(90,362.155,144.935)"
       style="fill:#f5f5f5"
       id="rect69" />
    <polygon
       points="330.52,208.27 375.23,81.61 396.33,81.61 351.62,208.27 "
       style="fill:#fafafa"
       id="polygon71" />
    <polygon
       points="356.15,208.27 400.86,81.61 409.09,81.61 364.38,208.27 "
       style="fill:#fafafa"
       id="polygon73" />
    <rect
       x="356.29001"
       y="144.46001"
       width="126.66"
       height="0.97000003"
       transform="rotate(90,419.62,144.94)"
       style="fill:#e0e0e0"
       id="rect75" />
    <rect
       x="291.19"
       y="67.330002"
       width="13.11"
       height="122.22"
       style="fill:#ebebeb"
       id="rect77" />
    <rect
       x="299.19"
       y="67.330002"
       width="10.21"
       height="122.22"
       style="fill:#e0e0e0"
       id="rect79" />
    <rect
       x="304.29999"
       y="67.330002"
       width="13.11"
       height="122.22"
       style="fill:#ebebeb"
       id="rect81" />
    <rect
       x="312.29999"
       y="67.330002"
       width="10.21"
       height="122.22"
       style="fill:#e0e0e0"
       id="rect83" />
    <rect
       x="317.41"
       y="67.330002"
       width="13.11"
       height="122.22"
       style="fill:#ebebeb"
       id="rect85" />
    <rect
       x="407.67001"
       y="67.330002"
       width="7.5500002"
       height="122.22"
       style="fill:#ebebeb"
       id="rect87" />
    <rect
       x="412.28"
       y="67.330002"
       width="5.8899999"
       height="122.22"
       style="fill:#e0e0e0"
       id="rect89" />
    <rect
       x="415.22"
       y="67.330002"
       width="7.5500002"
       height="122.22"
       style="fill:#ebebeb"
       id="rect91" />
    <rect
       x="419.82999"
       y="67.330002"
       width="5.8899999"
       height="122.22"
       style="fill:#e0e0e0"
       id="rect93" />
    <rect
       x="422.78"
       y="67.330002"
       width="7.5500002"
       height="122.22"
       style="fill:#ebebeb"
       id="rect95" />
    <rect
       x="96.709999"
       y="105.64"
       width="13.66"
       height="37.27"
       style="fill:#e6e6e6"
       id="rect97" />
    <polygon
       points="78.04,151.44 73.7,163.28 78.04,163.28 104.6,151.44 "
       style="fill:#f0f0f0"
       id="polygon99" />
    <polygon
       points="73.7,151.44 73.7,163.28 100.27,151.44 "
       style="fill:#e0e0e0"
       id="polygon101" />
    <polygon
       points="182.2,151.44 177.87,163.28 182.2,163.28 208.77,151.44 "
       style="fill:#f0f0f0"
       id="polygon103" />
    <polygon
       points="177.87,151.44 177.87,163.28 204.43,151.44 "
       style="fill:#e0e0e0"
       id="polygon105" />
    <rect
       x="54.200001"
       y="142.99001"
       width="28.889999"
       height="9.0100002"
       transform="rotate(180,68.65,147.495)"
       style="fill:#e0e0e0"
       id="rect107" />
    <rect
       x="83.089996"
       y="142.99001"
       width="143.63"
       height="9.0100002"
       style="fill:#f0f0f0"
       id="rect109" />
    <polygon
       points="133.12,142.91 99.87,142.91 95.76,97.74 129.01,97.74 "
       style="fill:#e0e0e0"
       id="polygon111" />
    <polygon
       points="134.84,142.91 101.6,142.91 97.48,97.74 130.73,97.74 "
       style="fill:#f0f0f0"
       id="polygon113" />
    <polygon
       points="106.14,137.91 102.94,102.74 126.19,102.74 129.39,137.91 "
       style="fill:#fafafa"
       id="polygon115" />
    <path
       d="m 148.26,128.24 c 0,0 0.61,14.67 24.18,14.67 23.57,0 24.18,-14.67 24.18,-14.67 z"
       style="fill:#e6e6e6"
       id="path117" />
    <path
       d="M 123.76,379.16 H 87.33 a 3.85,3.85 0 0 1 -2.29,-7 l 0.59,0.8 a 2.86,2.86 0 0 0 1.7,5.15 h 36.43 a 8.43,8.43 0 0 0 8.42,-8.42 V 261.88 a 9.18,9.18 0 0 1 9.16,-9.17 h 10.9 v 1 h -10.9 a 8.18,8.18 0 0 0 -8.16,8.17 v 107.86 a 9.44,9.44 0 0 1 -9.42,9.42 z"
       style="fill:#e0e0e0"
       id="path119" />
    <rect
       x="179.84"
       y="254.77"
       width="65.610001"
       height="127.63"
       style="fill:#e0e0e0"
       id="rect121" />
    <rect
       x="242.50999"
       y="254.77"
       width="5.4099998"
       height="127.63"
       style="fill:#ebebeb"
       id="rect123" />
    <rect
       x="119.14"
       y="254.77"
       width="130.46001"
       height="9.5699997"
       transform="rotate(180,184.365,259.555)"
       style="fill:#ebebeb"
       id="rect125" />
    <rect
       x="52.740002"
       y="254.77"
       width="65.610001"
       height="127.63"
       style="fill:#e0e0e0"
       id="rect127" />
    <rect
       x="115.4"
       y="254.77"
       width="5.4099998"
       height="127.63"
       style="fill:#ebebeb"
       id="rect129" />
    <polygon
       points="98.03,216.67 159.17,216.67 168.03,252.77 106.89,252.77 "
       style="fill:#e0e0e0"
       id="polygon131" />
    <polygon
       points="106.89,252.77 107.14,254.77 168.28,254.77 168.04,252.77 "
       style="fill:#e0e0e0"
       id="polygon133" />
    <polygon
       points="99.92,216.67 161.06,216.67 169.92,252.77 108.78,252.77 "
       style="fill:#f0f0f0"
       id="polygon135" />
    <polygon
       points="110.07,251.12 102.02,218.32 159.76,218.32 167.81,251.12 "
       style="fill:#fafafa"
       id="polygon137" />
    <polygon
       points="124.71,252.77 124.95,254.77 192.28,254.77 192.03,252.77 "
       style="fill:#f0f0f0"
       id="polygon139" />
    <path
       d="m 77.07,245.67 c 0,0 -9,-15.51 3.49,-27.86 0,0 3.25,2.13 3.2,5 -0.05,2.87 -3.48,3.58 -2.75,6 0.73,2.42 4,4.72 1.86,6.69 -2.14,1.97 0.34,3.72 0.2,6.14 -0.14,2.42 -6,4.03 -6,4.03 z"
       style="fill:#f0f0f0"
       id="path141" />
    <path
       d="m 77.75,247.09 c 0,0 3.65,-17.56 -12.09,-25.34 0,0 -2.42,3.05 -1.47,5.74 0.95,2.69 4.44,2.29 4.49,4.79 0.05,2.5 -2.3,5.73 0.35,6.93 2.65,1.2 0.84,3.64 1.74,5.88 0.9,2.24 6.98,2 6.98,2 z"
       style="fill:#f0f0f0"
       id="path143" />
    <path
       d="m 64,243.2 c 0,0 0.3,11.57 11.77,11.57 11.47,0 11.74,-11.57 11.74,-11.57 z"
       style="fill:#e0e0e0"
       id="path145" />
    <path
       d="m 225.74,382.4 h -2.28 l -6.53,-32.16 -1.14,-5.63 -7.12,-35 h -27.29 l -14.79,72.79 h -2.28 l 15.07,-74.18 a 1.1,1.1 0 0 1 1.09,-0.89 h 29.11 a 1.1,1.1 0 0 1 1.09,0.89 l 6.25,30.78 1.15,5.63 z"
       style="fill:#ebebeb"
       id="path147" />
    <path
       d="m 269.55,382.4 h -2.29 l -14.79,-72.83 h -27.28 l -7.12,35.06 -1.14,5.61 -6.53,32.16 h -2.28 l 7.67,-37.79 1.13,-5.61 6.26,-30.78 a 1.1,1.1 0 0 1 1.09,-0.89 h 29.11 a 1.12,1.12 0 0 1 1.1,0.89 z"
       style="fill:#ebebeb"
       id="path149" />
    <path
       d="m 202.29,308.45 h 50.14 A 17.59,17.59 0 0 0 270,291.22 l 1.87,-76.2 A 12.82,12.82 0 0 0 259.07,202 h -31.43 a 12.82,12.82 0 0 0 -12.73,11.36 z"
       style="fill:#e6e6e6"
       id="path151" />
    <path
       d="m 173.7,298.84 h 53.43 a 2.5,2.5 0 0 1 2.5,2.5 v 0.24 a 6.87,6.87 0 0 1 -6.87,6.87 H 173.7 Z"
       transform="rotate(180,201.665,303.645)"
       style="fill:#e6e6e6"
       id="path153" />
  </g>
  <g
     id="freepik--Shadow--inject-13"
     transform="matrix(1.1318896,0,0,1.1318896,-32.080256,-27.110502)">
    <ellipse
       cx="250"
       cy="416.23999"
       rx="193.89"
       ry="11.32"
       style="fill:#f5f5f5"
       id="ellipse156" />
  </g>
  <g
     id="freepik--Character--inject-13"
     transform="matrix(1.1318896,0,0,1.1318896,-32.080256,-27.110502)">
    <path
       d="m 276.44,170.82 0.65,0.55 c 0.24,0.21 0.51,0.41 0.77,0.61 0.52,0.41 1,0.82 1.6,1.21 1.08,0.79 2.23,1.51 3.38,2.23 a 50.75,50.75 0 0 0 7.27,3.71 55.45,55.45 0 0 0 7.73,2.64 c 0.66,0.18 1.34,0.3 2,0.45 l 1,0.22 c 0.21,0 0,0 0,0.05 a 1.1,1.1 0 0 0 -0.38,0.17 c -0.09,0.09 -0.09,0.09 -0.05,0.07 a 3.72,3.72 0 0 0 0.46,-0.95 15.42,15.42 0 0 0 0.65,-3.55 c 0.12,-1.31 0.16,-2.69 0.15,-4.08 0,-2.79 -0.22,-5.64 -0.44,-8.5 -0.22,-2.86 -0.57,-5.73 -0.94,-8.61 -0.37,-2.88 -0.78,-5.76 -1.21,-8.6 l 3.76,-0.86 a 159.32,159.32 0 0 1 4,17.36 84.71,84.71 0 0 1 1.09,9 45.23,45.23 0 0 1 0.11,4.68 21.81,21.81 0 0 1 -0.65,5.11 9.89,9.89 0 0 1 -1.36,3 6.53,6.53 0 0 1 -1.59,1.61 5.83,5.83 0 0 1 -2.39,1 6.74,6.74 0 0 1 -2.24,0 l -1.15,-0.19 c -0.77,-0.13 -1.55,-0.23 -2.31,-0.4 a 56.37,56.37 0 0 1 -9,-2.58 57.55,57.55 0 0 1 -8.45,-4.06 c -1.35,-0.81 -2.67,-1.66 -3.95,-2.59 -0.64,-0.46 -1.27,-1 -1.9,-1.44 -0.31,-0.26 -0.62,-0.51 -0.93,-0.79 -0.31,-0.28 -0.6,-0.51 -1,-0.89 z"
       style="fill:#e4897b"
       id="path159" />
    <path
       d="m 265.57,166.27 c 11,-1.49 19.84,7.38 19.84,7.38 l -10.06,15.52 c 0,0 -10.78,-6.9 -12.68,-11.6 -1.96,-4.89 -2.73,-10.57 2.9,-11.3 z"
       style="fill:#407bff"
       id="path161" />
    <path
       d="m 265.57,166.27 c 11,-1.49 19.84,7.38 19.84,7.38 l -10.06,15.52 c 0,0 -10.78,-6.9 -12.68,-11.6 -1.96,-4.89 -2.73,-10.57 2.9,-11.3 z"
       style="opacity:0.6;fill:#fafafa"
       id="path163" />
    <path
       d="m 299.17,149.79 -3.65,-7.32 9.57,-0.08 c 0,0 0.19,5.11 -2.23,8 z"
       style="fill:#e4897b"
       id="path165" />
    <polygon
       points="297.22,134.6 304.34,135.87 305.09,142.39 295.52,142.47 "
       style="fill:#e4897b"
       id="polygon167" />
    <polygon
       points="226.67,407.87 235.63,408.73 241.83,387.69 232.87,386.82 "
       style="fill:#e4897b"
       id="polygon169" />
    <polygon
       points="169.7,376.75 176.34,382.99 190.68,367.23 184.04,360.99 "
       style="fill:#e4897b"
       id="polygon171" />
    <path
       d="m 179.41,380 -5,-9 a 0.73,0.73 0 0 0 -0.9,-0.33 l -7.69,2.92 a 1.48,1.48 0 0 0 -0.71,2.08 c 1.79,3.1 2.82,4.51 5,8.46 1.35,2.44 4,8 5.85,11.38 1.85,3.38 5.28,1.69 4.81,0.13 -2.14,-7 -1.73,-10.93 -1.13,-14 A 2.4,2.4 0 0 0 179.41,380 Z"
       style="fill:#263238"
       id="path173" />
    <path
       d="m 236.68,406 h -10.86 a 0.89,0.89 0 0 0 -0.85,0.66 l -2.37,8.59 a 1.36,1.36 0 0 0 1.33,1.72 c 3.83,0 5.64,0 10.42,0 h 14.59 c 4,0 4.8,-4 3.16,-4.38 -7.36,-1.62 -11.61,-3.87 -13.88,-6 A 2.26,2.26 0 0 0 236.68,406 Z"
       style="fill:#263238"
       id="path175" />
    <polygon
       points="241.83,387.69 238.63,398.54 229.41,398.54 232.86,386.83 "
       style="fill:#ce6f64"
       id="polygon177" />
    <polygon
       points="184.03,361 190.68,367.23 183.28,375.35 176.64,369.12 "
       style="fill:#ce6f64"
       id="polygon179" />
    <path
       d="m 276.41,160.06 c -0.07,-7.27 -6.65,-9.81 -6.65,-9.81 0,0 8.23,-15.58 4,-25.92 -4.23,-10.34 -18.17,-12.16 -22.59,-7.33 -7.77,-0.33 -10.24,10.83 -10.24,10.83 0,0 -6.5,1.09 -8.25,5.82 -1.75,4.73 3.58,10.06 3.58,10.06 0,0 -7.42,1 -10.15,6.71 -2.73,5.71 -1.05,13.29 7.15,19.83 11.92,9.5 33.83,-2.42 33.83,-2.42 0,0 9.4,0.59 9.32,-7.77 z"
       style="fill:#263238"
       id="path181" />
    <path
       d="m 275,167.29 c 0,0 4,1.75 -9.36,54.52 l -37,-3.21 c 1.92,-15 2.75,-24.32 -1.78,-55.88 a 109,109 0 0 1 15.91,-0.71 119.11,119.11 0 0 1 16.82,1.45 158.55,158.55 0 0 1 15.41,3.83 z"
       style="fill:#407bff"
       id="path183" />
    <path
       d="m 275,167.29 c 0,0 4,1.75 -9.36,54.52 l -37,-3.21 c 1.92,-15 2.75,-24.32 -1.78,-55.88 a 109,109 0 0 1 15.91,-0.71 119.11,119.11 0 0 1 16.82,1.45 158.55,158.55 0 0 1 15.41,3.83 z"
       style="opacity:0.6;fill:#fafafa"
       id="path185" />
    <path
       d="m 265.41,164.71 c -1.92,-0.46 -4,-0.9 -5.9,-1.25 A 119.11,119.11 0 0 0 242.69,162 c -1.93,-0.07 -3.86,-0.07 -5.67,0 l 1.24,2.36 c 0.22,0.42 5.5,10.27 15.53,15.86 l 2.76,1.54 2.57,-1.83 c 6.48,-4.63 7.44,-10.65 6.29,-15.22 z"
       style="fill:#fafafa"
       id="path187" />
    <path
       d="m 246,143.21 c 0.59,5.51 0.79,15.52 -3.3,18.8 0,0 4.68,8.89 13.54,13.82 7.84,-5.58 3.28,-12.37 3.28,-12.37 -5.91,-2 -5.37,-6.42 -4,-10.54 z"
       style="fill:#e4897b"
       id="path189" />
    <path
       d="m 249.89,147.17 5.66,5.75 a 17.5,17.5 0 0 0 -0.78,2.94 c -2.27,-0.53 -5.57,-2.9 -5.61,-5.34 a 9.84,9.84 0 0 1 0.73,-3.35 z"
       style="fill:#ce6f64"
       id="path191" />
    <path
       d="m 245.76,130.71 c -1.09,9 -1.74,12.81 1.93,18.22 5.52,8.12 16.84,7.48 20.59,-1 3.38,-7.66 4.59,-21.12 -3.5,-26.27 a 12.39,12.39 0 0 0 -19.02,9.05 z"
       style="fill:#e4897b"
       id="path193" />
    <path
       d="m 252.74,119.62 c 6.95,1.8 0.08,22.94 -11,16.81 0,0 0.5,-8.93 3.58,-12.72 a 11.5,11.5 0 0 1 7.42,-4.09 z"
       style="fill:#263238"
       id="path195" />
    <path
       d="m 252,120.79 c 3,4.88 25.25,14.13 17.77,3.63 -7.48,-10.5 -17.77,-3.63 -17.77,-3.63 z"
       style="fill:#263238"
       id="path197" />
    <path
       d="m 242.9,138.5 a 6.68,6.68 0 0 0 1.59,4.82 c 1.54,1.75 3.57,0.69 4.21,-1.43 0.57,-1.9 0.46,-5.1 -1.59,-6.08 a 3,3 0 0 0 -4.21,2.69 z"
       style="fill:#e4897b"
       id="path199" />
    <path
       d="m 265.6,221.81 c 0,0 12.53,55.44 4.17,94.52 -5.6,26.18 -25.81,79.06 -25.81,79.06 l -15.8,-0.4 c 0,0 15.29,-55.5 18.46,-77.32 5.41,-37.34 -8.14,-98.21 -8.14,-98.21 z"
       style="fill:#263238"
       id="path201" />
    <path
       d="m 251.15,233 -7.9,12.46 a 381.36,381.36 0 0 1 4.52,44.63 c 11.11,-19.89 5.85,-46.56 3.38,-57.09 z"
       style="fill:#263238"
       id="path203" />
    <polygon
       points="245.26,396.21 225.74,395.71 226.87,389.72 248.18,390.73 "
       style="fill:#407bff"
       id="polygon205" />
    <polygon
       points="245.26,396.21 225.74,395.71 226.87,389.72 248.18,390.73 "
       style="opacity:0.6;fill:#fafafa"
       id="polygon207" />
    <path
       d="m 257.5,221.21 c 0,0 -7.35,58.8 -23.29,90.9 C 221.34,338 187,375 187,375 l -8.78,-9.05 c 0,0 23.2,-40.11 32.77,-57.34 23.46,-42.23 4.28,-74.45 17.58,-90 z"
       style="fill:#263238"
       id="path209" />
    <polygon
       points="187.88,376.16 176.54,365.11 180.31,359.99 192.66,372.76 "
       style="fill:#407bff"
       id="polygon211" />
    <polygon
       points="187.88,376.16 176.54,365.11 180.31,359.99 192.66,372.76 "
       style="opacity:0.6;fill:#fafafa"
       id="polygon213" />
    <path
       d="m 228.19,216.38 -1.95,3.17 c -0.16,0.25 0.13,0.54 0.55,0.57 l 38.85,3.36 c 0.34,0 0.63,-0.11 0.67,-0.32 l 0.62,-3.28 c 0,-0.23 -0.23,-0.45 -0.6,-0.48 l -37.51,-3.25 a 0.68,0.68 0 0 0 -0.63,0.23 z"
       style="fill:#407bff"
       id="path215" />
    <path
       d="m 228.19,216.38 -1.95,3.17 c -0.16,0.25 0.13,0.54 0.55,0.57 l 38.85,3.36 c 0.34,0 0.63,-0.11 0.67,-0.32 l 0.62,-3.28 c 0,-0.23 -0.23,-0.45 -0.6,-0.48 l -37.51,-3.25 a 0.68,0.68 0 0 0 -0.63,0.23 z"
       style="opacity:0.3"
       id="path217" />
    <path
       d="m 232.87,221 -1,-0.09 c -0.2,0 -0.34,-0.13 -0.32,-0.26 l 0.85,-4.26 c 0,-0.13 0.21,-0.22 0.41,-0.2 l 1,0.09 c 0.2,0 0.34,0.13 0.32,0.26 l -0.84,4.26 c -0.04,0.14 -0.22,0.2 -0.42,0.2 z"
       style="fill:#263238"
       id="path219" />
    <path
       d="m 262.79,223.6 -1,-0.09 c -0.2,0 -0.34,-0.13 -0.32,-0.26 l 0.85,-4.27 c 0,-0.12 0.21,-0.21 0.41,-0.19 l 1,0.09 c 0.2,0 0.34,0.13 0.32,0.25 l -0.84,4.27 c -0.04,0.13 -0.21,0.21 -0.42,0.2 z"
       style="fill:#263238"
       id="path221" />
    <path
       d="m 247.83,222.3 -1,-0.08 c -0.2,0 -0.34,-0.14 -0.32,-0.26 l 0.85,-4.27 c 0,-0.12 0.21,-0.21 0.41,-0.19 l 1,0.08 c 0.2,0 0.34,0.14 0.32,0.26 l -0.84,4.27 c -0.04,0.12 -0.25,0.21 -0.42,0.19 z"
       style="fill:#263238"
       id="path223" />
    <path
       d="m 258.83,135.68 c -0.13,0.72 0.15,1.38 0.62,1.47 0.47,0.09 1,-0.43 1.1,-1.16 0.1,-0.73 -0.14,-1.39 -0.62,-1.47 -0.48,-0.08 -0.93,0.48 -1.1,1.16 z"
       style="fill:#263238"
       id="path225" />
    <path
       d="m 267,137.18 c -0.13,0.72 0.15,1.38 0.62,1.47 0.47,0.09 1,-0.43 1.1,-1.16 0.1,-0.73 -0.14,-1.39 -0.62,-1.47 -0.48,-0.08 -0.92,0.43 -1.1,1.16 z"
       style="fill:#263238"
       id="path227" />
    <path
       d="m 267.93,136 1.83,-0.18 c 0,0 -1.14,1.18 -1.83,0.18 z"
       style="fill:#263238"
       id="path229" />
    <path
       d="m 264.64,138 a 20,20 0 0 0 1.75,5.11 3.17,3.17 0 0 1 -2.68,0 z"
       style="fill:#de5753"
       id="path231" />
    <path
       d="m 260.67,145.51 v 0 a 6.17,6.17 0 0 1 -4.58,-3.35 0.18,0.18 0 0 1 0.1,-0.23 0.17,0.17 0 0 1 0.23,0.09 5.88,5.88 0 0 0 4.31,3.13 0.18,0.18 0 0 1 0,0.36 z"
       style="fill:#263238"
       id="path233" />
    <path
       d="m 256.88,130 a 0.36,0.36 0 0 1 -0.22,-0.65 4.22,4.22 0 0 1 3.81,-0.77 0.36,0.36 0 0 1 0.22,0.46 0.36,0.36 0 0 1 -0.46,0.22 3.49,3.49 0 0 0 -3.13,0.66 0.4,0.4 0 0 1 -0.22,0.08 z"
       style="fill:#263238"
       id="path235" />
    <path
       d="m 271.68,134.42 a 0.37,0.37 0 0 1 -0.28,-0.13 3.54,3.54 0 0 0 -2.9,-1.37 0.37,0.37 0 0 1 -0.4,-0.32 0.35,0.35 0 0 1 0.32,-0.39 4.21,4.21 0 0 1 3.54,1.62 0.37,0.37 0 0 1 0,0.51 0.4,0.4 0 0 1 -0.28,0.08 z"
       style="fill:#263238"
       id="path237" />
    <path
       d="m 229.59,176 a 89.89,89.89 0 0 1 -5,8.68 c -1.8,2.76 -3.7,5.46 -5.75,8.06 a 86.54,86.54 0 0 1 -6.65,7.45 c -1.22,1.15 -2.41,2.32 -3.72,3.4 l -1,0.82 -0.24,0.2 -0.32,0.25 a 7.37,7.37 0 0 1 -0.66,0.48 12.29,12.29 0 0 1 -2.94,1.48 15,15 0 0 1 -6.09,0.67 23.64,23.64 0 0 1 -5.4,-1.19 42,42 0 0 1 -9.19,-4.53 84.71,84.71 0 0 1 -15.14,-12.54 l 2.66,-2.79 c 2.39,1.92 4.91,3.83 7.49,5.56 a 76.8,76.8 0 0 0 7.88,4.84 41.6,41.6 0 0 0 8.16,3.41 c 2.7,0.75 5.41,0.88 7.28,0.1 a 8,8 0 0 0 2.77,-2 c 1.11,-1 2.14,-2.11 3.19,-3.19 2.05,-2.23 3.95,-4.62 5.82,-7 1.87,-2.38 3.56,-5 5.2,-7.6 0.83,-1.3 1.62,-2.62 2.4,-3.94 0.78,-1.32 1.53,-2.71 2.18,-3.95 z"
       style="fill:#e4897b"
       id="path239" />
    <path
       d="m 172.68,187.63 -3.56,-7.36 -5.92,7.52 c 0,0 3.92,3.27 7.73,3.15 z"
       style="fill:#e4897b"
       id="path241" />
    <polygon
       points="165.23,178.12 161.88,184.53 163.2,187.79 169.12,180.27 "
       style="fill:#e4897b"
       id="polygon243" />
    <path
       d="m 226.78,162.72 c -4.54,0.8 -10.91,13.83 -10.91,13.83 l 12.47,11.27 c 0,0 8.08,-10.85 7.6,-16.77 -0.41,-5.05 -3.38,-9.35 -9.16,-8.33 z"
       style="fill:#407bff"
       id="path245" />
    <path
       d="m 226.78,162.72 c -4.54,0.8 -10.91,13.83 -10.91,13.83 l 12.47,11.27 c 0,0 8.08,-10.85 7.6,-16.77 -0.41,-5.05 -3.38,-9.35 -9.16,-8.33 z"
       style="opacity:0.6;fill:#fafafa"
       id="path247" />
    <path
       d="m 181.16,384.83 a 1,1 0 0 1 -0.35,-0.06 c -1.09,-0.36 -1.8,-2.37 -2.13,-3.54 a 0.18,0.18 0 0 1 0.06,-0.19 0.2,0.2 0 0 1 0.2,0 c 0.33,0.17 3.23,1.73 3.32,2.87 a 0.67,0.67 0 0 1 -0.31,0.64 1.3,1.3 0 0 1 -0.79,0.28 z m -2,-3.28 c 0.5,1.61 1.15,2.67 1.77,2.88 a 0.85,0.85 0 0 0 0.82,-0.19 0.33,0.33 0 0 0 0.16,-0.32 c -0.06,-0.7 -1.76,-1.81 -2.76,-2.37 z"
       style="fill:#407bff"
       id="path249" />
    <path
       d="m 181.61,382 a 6.5,6.5 0 0 1 -2.85,-0.67 0.16,0.16 0 0 1 -0.09,-0.15 0.18,0.18 0 0 1 0.1,-0.16 c 0.09,0 2.39,-1.31 3.63,-0.87 a 1.07,1.07 0 0 1 0.67,0.64 0.72,0.72 0 0 1 -0.16,0.89 2.1,2.1 0 0 1 -1.3,0.32 z m -2.36,-0.82 c 1,0.42 2.89,0.68 3.43,0.22 0.09,-0.07 0.17,-0.2 0.06,-0.48 a 0.73,0.73 0 0 0 -0.46,-0.43 c -0.85,-0.3 -2.38,0.37 -3.03,0.69 z"
       style="fill:#407bff"
       id="path251" />
    <path
       d="m 241.5,407.76 a 14.7,14.7 0 0 1 -3,-0.38 0.18,0.18 0 0 1 -0.14,-0.16 0.17,0.17 0 0 1 0.1,-0.18 c 0.45,-0.21 4.38,-2 5.38,-1.36 a 0.61,0.61 0 0 1 0.26,0.56 1.35,1.35 0 0 1 -0.54,1 3.6,3.6 0 0 1 -2.06,0.52 z m -2.34,-0.62 c 1.17,0.22 3.33,0.5 4.22,-0.17 a 1,1 0 0 0 0.4,-0.75 0.26,0.26 0 0 0 -0.1,-0.24 c -0.56,-0.38 -2.89,0.44 -4.52,1.16 z"
       style="fill:#407bff"
       id="path253" />
    <path
       d="m 238.58,407.38 a 0.16,0.16 0 0 1 -0.12,0 0.19,0.19 0 0 1 -0.06,-0.18 c 0,-0.16 0.94,-4.05 3.07,-3.8 0.54,0.06 0.68,0.33 0.71,0.54 0.14,1 -2.35,3 -3.53,3.47 z m 2.7,-3.67 c -1.37,0 -2.16,2.26 -2.43,3.17 1.29,-0.68 3.06,-2.3 3,-2.93 0,-0.05 0,-0.19 -0.39,-0.23 z"
       style="fill:#407bff"
       id="path255" />
    <path
       d="m 259.72,134.52 1.83,-0.19 c 0,0 -1.14,1.2 -1.83,0.19 z"
       style="fill:#263238"
       id="path257" />
    <path
       d="M 184.49,77.53 155.18,267 320.1,292.48 349.41,103 Z m 67.76,107.77 a 38.72,38.72 0 1 1 44.18,-32.3 38.72,38.72 0 0 1 -44.18,32.3 z"
       style="opacity:0.6;fill:#407bff"
       id="path259" />
    <path
       d="m 315.12,285.29 h -0.25 L 149.7,259.7 v -0.25 L 179.09,69.76 h 0.24 L 344.5,95.35 v 0.25 z m -164.85,-26 164.43,25.43 29.23,-189 L 179.5,70.33 Z"
       style="opacity:0.3;mix-blend-mode:multiply;fill:#407bff"
       id="path261" />
    <path
       d="m 258.19,187.26 a 40.47,40.47 0 0 1 -6.17,-0.48 v 0 a 40.16,40.16 0 1 1 6.17,0.48 z m -5.71,-3.44 a 37.21,37.21 0 1 0 -31.09,-42.47 37.26,37.26 0 0 0 31.09,42.47 z"
       style="fill:#fafafa"
       id="path263" />
    <rect
       x="183.2"
       y="194.17999"
       width="36.759998"
       height="8.2600002"
       transform="rotate(8.79,201.68674,198.41985)"
       style="fill:#407bff"
       id="rect265" />
    <rect
       x="183.2"
       y="194.17999"
       width="36.759998"
       height="8.2600002"
       transform="rotate(8.79,201.68674,198.41985)"
       style="opacity:0.6;fill:#fafafa"
       id="rect267" />
    <rect
       x="224.38"
       y="199.63"
       width="24.870001"
       height="8.2600002"
       transform="rotate(8.79,236.92101,203.89173)"
       style="fill:#407bff"
       id="rect269" />
    <rect
       x="224.38"
       y="199.63"
       width="24.870001"
       height="8.2600002"
       transform="rotate(8.79,236.92101,203.89173)"
       style="opacity:0.6;fill:#fafafa"
       id="rect271" />
    <rect
       x="180.07001"
       y="218.07001"
       width="132.92999"
       height="8.2600002"
       transform="rotate(8.79,246.648,222.31785)"
       style="fill:#fafafa"
       id="rect273" />
    <rect
       x="177.78"
       y="230.32001"
       width="66.099998"
       height="8.2600002"
       transform="matrix(0.99,0.15,-0.15,0.99,38.32,-29.48)"
       style="fill:#fafafa"
       id="rect275" />
    <rect
       x="254.41"
       y="240.48"
       width="44.220001"
       height="8.2600002"
       transform="rotate(8.79,276.64176,244.74864)"
       style="fill:#fafafa"
       id="rect277" />
    <rect
       x="174.86"
       y="250.75"
       width="106.27"
       height="8.2600002"
       transform="rotate(8.79,228.09028,255.02414)"
       style="fill:#fafafa"
       id="rect279" />
    <path
       d="m 351.17,292.48 h -1 a 29.86,29.86 0 0 0 -0.91,-7.36 l 1,-0.24 a 30.78,30.78 0 0 1 0.91,7.6 z m -3.92,-12.92 A 30.36,30.36 0 0 0 337.58,268 l 0.58,-0.81 a 31.44,31.44 0 0 1 10,11.92 z"
       style="fill:#407bff"
       id="path281" />
    <path
       d="m 351.17,292.48 h -1 a 29.86,29.86 0 0 0 -0.91,-7.36 l 1,-0.24 a 30.78,30.78 0 0 1 0.91,7.6 z m -3.92,-12.92 A 30.36,30.36 0 0 0 337.58,268 l 0.58,-0.81 a 31.44,31.44 0 0 1 10,11.92 z"
       style="opacity:0.6;fill:#fafafa"
       id="path283" />
    <path
       d="m 320.1,264.91 a 27.57,27.57 0 1 0 27.57,27.57 27.57,27.57 0 0 0 -27.57,-27.57 z m 0,51.57 a 24,24 0 1 1 24,-24 24,24 0 0 1 -24,24 z"
       style="fill:#407bff"
       id="path285" />
    <path
       d="m 320.1,264.91 a 27.57,27.57 0 1 0 27.57,27.57 27.57,27.57 0 0 0 -27.57,-27.57 z m 0,51.57 a 24,24 0 1 1 24,-24 24,24 0 0 1 -24,24 z"
       style="opacity:0.6;fill:#fafafa"
       id="path287" />
    <circle
       cx="320.10001"
       cy="292.48001"
       r="23.99"
       style="fill:#407bff"
       id="circle289" />
    <circle
       cx="320.10001"
       cy="292.48001"
       r="23.99"
       style="opacity:0.2"
       id="circle291" />
    <polygon
       points="316.37,307.66 302.29,293.58 305.83,290.05 316.37,300.59 334.38,282.58 337.91,286.12 "
       style="fill:#fafafa"
       id="polygon293" />
  </g>
</svg>
