<?xml version="1.0" encoding="UTF-8" standalone="no"?>
<svg
   viewBox="0 0 500 500"
   version="1.1"
   id="svg663"
   sodipodi:docname="hiw_111.svg"
   inkscape:version="1.1 (c4e8f9e, 2021-05-24)"
   xmlns:inkscape="http://www.inkscape.org/namespaces/inkscape"
   xmlns:sodipodi="http://sodipodi.sourceforge.net/DTD/sodipodi-0.dtd"
   xmlns="http://www.w3.org/2000/svg"
   xmlns:svg="http://www.w3.org/2000/svg">
  <defs
     id="defs667" />
  <sodipodi:namedview
     id="namedview665"
     pagecolor="#ffffff"
     bordercolor="#666666"
     borderopacity="1.0"
     inkscape:pageshadow="2"
     inkscape:pageopacity="0.0"
     inkscape:pagecheckerboard="0"
     showgrid="false"
     inkscape:zoom="1.506"
     inkscape:cx="250"
     inkscape:cy="249.66799"
     inkscape:window-width="1792"
     inkscape:window-height="984"
     inkscape:window-x="0"
     inkscape:window-y="25"
     inkscape:window-maximized="1"
     inkscape:current-layer="svg663" />
  <g
     id="freepik--background-complete--inject-9"
     transform="matrix(1.122178,0,0,1.122178,-27.224435,-24.640106)">
    <rect
       x="416.78"
       y="398.48999"
       width="33.119999"
       height="0.25"
       style="fill:#ebebeb"
       id="rect9" />
    <rect
       x="322.53"
       y="401.20999"
       width="8.6899996"
       height="0.25"
       style="fill:#ebebeb"
       id="rect11" />
    <rect
       x="396.59"
       y="389.20999"
       width="19.190001"
       height="0.25"
       style="fill:#ebebeb"
       id="rect13" />
    <rect
       x="52.459999"
       y="390.89001"
       width="43.189999"
       height="0.25"
       style="fill:#ebebeb"
       id="rect15" />
    <rect
       x="104.56"
       y="390.89001"
       width="6.3299999"
       height="0.25"
       style="fill:#ebebeb"
       id="rect17" />
    <rect
       x="131.47"
       y="395.10999"
       width="93.68"
       height="0.25"
       style="fill:#ebebeb"
       id="rect19" />
    <path
       d="M 237,337.8 H 43.92 a 5.71,5.71 0 0 1 -5.71,-5.71 V 60.66 A 5.71,5.71 0 0 1 43.92,55 H 237 a 5.71,5.71 0 0 1 5.71,5.71 V 332.09 A 5.71,5.71 0 0 1 237,337.8 Z M 43.92,55.2 a 5.47,5.47 0 0 0 -5.46,5.46 v 271.43 a 5.47,5.47 0 0 0 5.46,5.46 H 237 a 5.47,5.47 0 0 0 5.46,-5.46 V 60.66 A 5.47,5.47 0 0 0 237,55.2 Z"
       style="fill:#ebebeb"
       id="path21" />
    <path
       d="m 453.31,337.8 h -193.1 a 5.72,5.72 0 0 1 -5.71,-5.71 V 60.66 A 5.72,5.72 0 0 1 260.21,55 h 193.1 a 5.71,5.71 0 0 1 5.69,5.66 v 271.43 a 5.71,5.71 0 0 1 -5.69,5.71 z M 260.21,55.2 a 5.47,5.47 0 0 0 -5.46,5.46 v 271.43 a 5.47,5.47 0 0 0 5.46,5.46 h 193.1 a 5.47,5.47 0 0 0 5.46,-5.46 V 60.66 a 5.47,5.47 0 0 0 -5.46,-5.46 z"
       style="fill:#ebebeb"
       id="path23" />
    <rect
       y="382.39999"
       width="500"
       height="0.25"
       style="fill:#ebebeb"
       id="rect25"
       x="0" />
    <rect
       x="78.32"
       y="123.62"
       width="1.65"
       height="128.71001"
       style="fill:#e0e0e0"
       id="rect27" />
    <rect
       x="181.07001"
       y="123.62"
       width="1.65"
       height="128.71001"
       style="fill:#e0e0e0"
       id="rect29" />
    <polygon
       points="71.86,131.71 69.38,125.93 191.66,125.93 189.18,131.71 "
       style="fill:#ebebeb"
       id="polygon31" />
    <polygon
       points="71.86,139.64 69.38,133.86 191.66,133.86 189.18,139.64 "
       style="fill:#ebebeb"
       id="polygon33" />
    <polygon
       points="71.86,147.57 69.38,141.79 191.66,141.79 189.18,147.57 "
       style="fill:#ebebeb"
       id="polygon35" />
    <polygon
       points="71.86,155.5 69.38,149.72 191.66,149.72 189.18,155.5 "
       style="fill:#ebebeb"
       id="polygon37" />
    <polygon
       points="71.86,163.43 69.38,157.66 191.66,157.66 189.18,163.43 "
       style="fill:#ebebeb"
       id="polygon39" />
    <polygon
       points="71.86,171.36 69.38,165.59 191.66,165.59 189.18,171.36 "
       style="fill:#ebebeb"
       id="polygon41" />
    <polygon
       points="71.86,179.3 69.38,173.52 191.66,173.52 189.18,179.3 "
       style="fill:#ebebeb"
       id="polygon43" />
    <polygon
       points="71.86,187.23 69.38,181.45 191.66,181.45 189.18,187.23 "
       style="fill:#ebebeb"
       id="polygon45" />
    <polygon
       points="71.86,195.16 69.38,189.38 191.66,189.38 189.18,195.16 "
       style="fill:#ebebeb"
       id="polygon47" />
    <polygon
       points="71.86,203.09 69.38,197.31 191.66,197.31 189.18,203.09 "
       style="fill:#ebebeb"
       id="polygon49" />
    <polygon
       points="71.86,211.02 69.38,205.24 191.66,205.24 189.18,211.02 "
       style="fill:#ebebeb"
       id="polygon51" />
    <polygon
       points="71.86,218.95 69.38,213.18 191.66,213.18 189.18,218.95 "
       style="fill:#ebebeb"
       id="polygon53" />
    <polygon
       points="71.86,226.88 69.38,221.11 191.66,221.11 189.18,226.88 "
       style="fill:#ebebeb"
       id="polygon55" />
    <polygon
       points="71.86,234.81 69.38,229.04 191.66,229.04 189.18,234.81 "
       style="fill:#ebebeb"
       id="polygon57" />
    <polygon
       points="71.86,242.75 69.38,236.97 191.66,236.97 189.18,242.75 "
       style="fill:#ebebeb"
       id="polygon59" />
    <polygon
       points="71.86,250.68 69.38,244.9 191.66,244.9 189.18,250.68 "
       style="fill:#ebebeb"
       id="polygon61" />
    <rect
       x="69.379997"
       y="250.67999"
       width="122.28"
       height="3.3"
       style="fill:#e0e0e0"
       id="rect63" />
    <rect
       x="65.120003"
       y="118.7"
       width="130.81"
       height="7.6999998"
       style="fill:#e0e0e0"
       id="rect65" />
    <path
       d="m 66.46,196.24 v 0 A 1.33,1.33 0 0 1 65.13,194.9 V 150 a 1.32,1.32 0 0 1 1.33,-1.33 v 0 a 1.33,1.33 0 0 1 1.33,1.33 v 44.9 a 1.34,1.34 0 0 1 -1.33,1.34 z"
       style="fill:#e0e0e0"
       id="path67" />
    <rect
       x="65.980003"
       y="124.85"
       width="0.95999998"
       height="26.68"
       style="fill:#e0e0e0"
       id="rect69" />
    <rect
       x="319.54001"
       y="123.62"
       width="1.65"
       height="128.71001"
       style="fill:#e0e0e0"
       id="rect71" />
    <rect
       x="422.28"
       y="123.62"
       width="1.65"
       height="128.71001"
       style="fill:#e0e0e0"
       id="rect73" />
    <polygon
       points="313.07,131.71 310.6,125.93 432.88,125.93 430.4,131.71 "
       style="fill:#ebebeb"
       id="polygon75" />
    <polygon
       points="313.07,139.64 310.6,133.86 432.88,133.86 430.4,139.64 "
       style="fill:#ebebeb"
       id="polygon77" />
    <polygon
       points="313.07,147.57 310.6,141.79 432.88,141.79 430.4,147.57 "
       style="fill:#ebebeb"
       id="polygon79" />
    <polygon
       points="313.07,155.5 310.6,149.72 432.88,149.72 430.4,155.5 "
       style="fill:#ebebeb"
       id="polygon81" />
    <polygon
       points="313.07,163.43 310.6,157.66 432.88,157.66 430.4,163.43 "
       style="fill:#ebebeb"
       id="polygon83" />
    <polygon
       points="313.07,171.36 310.6,165.59 432.88,165.59 430.4,171.36 "
       style="fill:#ebebeb"
       id="polygon85" />
    <polygon
       points="313.07,179.3 310.6,173.52 432.88,173.52 430.4,179.3 "
       style="fill:#ebebeb"
       id="polygon87" />
    <polygon
       points="313.07,187.23 310.6,181.45 432.88,181.45 430.4,187.23 "
       style="fill:#ebebeb"
       id="polygon89" />
    <polygon
       points="313.07,195.16 310.6,189.38 432.88,189.38 430.4,195.16 "
       style="fill:#ebebeb"
       id="polygon91" />
    <polygon
       points="313.07,203.09 310.6,197.31 432.88,197.31 430.4,203.09 "
       style="fill:#ebebeb"
       id="polygon93" />
    <polygon
       points="313.07,211.02 310.6,205.24 432.88,205.24 430.4,211.02 "
       style="fill:#ebebeb"
       id="polygon95" />
    <polygon
       points="313.07,218.95 310.6,213.18 432.88,213.18 430.4,218.95 "
       style="fill:#ebebeb"
       id="polygon97" />
    <polygon
       points="313.07,226.88 310.6,221.11 432.88,221.11 430.4,226.88 "
       style="fill:#ebebeb"
       id="polygon99" />
    <polygon
       points="313.07,234.81 310.6,229.04 432.88,229.04 430.4,234.81 "
       style="fill:#ebebeb"
       id="polygon101" />
    <polygon
       points="313.07,242.75 310.6,236.97 432.88,236.97 430.4,242.75 "
       style="fill:#ebebeb"
       id="polygon103" />
    <polygon
       points="313.07,250.68 310.6,244.9 432.88,244.9 430.4,250.68 "
       style="fill:#ebebeb"
       id="polygon105" />
    <rect
       x="310.60001"
       y="250.67999"
       width="122.28"
       height="3.3"
       style="fill:#e0e0e0"
       id="rect107" />
    <rect
       x="306.32999"
       y="118.7"
       width="130.81"
       height="7.6999998"
       style="fill:#e0e0e0"
       id="rect109" />
    <path
       d="m 307.68,196.24 v 0 a 1.33,1.33 0 0 1 -1.33,-1.34 V 150 a 1.32,1.32 0 0 1 1.33,-1.33 v 0 A 1.33,1.33 0 0 1 309,150 v 44.9 a 1.34,1.34 0 0 1 -1.32,1.34 z"
       style="fill:#e0e0e0"
       id="path111" />
    <rect
       x="307.20001"
       y="124.85"
       width="0.95999998"
       height="26.68"
       style="fill:#e0e0e0"
       id="rect113" />
    <rect
       x="110.34"
       y="105.11"
       width="279.32001"
       height="158"
       style="fill:#e0e0e0"
       id="rect115" />
    <rect
       x="107.25"
       y="260.35999"
       width="285.5"
       height="6.5999999"
       rx="1.64"
       style="fill:#ebebeb"
       id="rect117" />
    <rect
       x="116.75"
       y="109.91"
       width="266.48999"
       height="151.95"
       style="fill:#fafafa"
       id="rect119" />
    <path
       d="M 264.67,290.13 251.5,275.64 V 267 a 1.5,1.5 0 1 0 -3,0 v 8.67 l -13.17,14.49 c -1.37,1.51 0.75,3.84 2.12,2.34 q 5.52,-6.09 11.05,-12.16 v 10.87 a 1.5,1.5 0 1 0 3,0 v -10.9 q 5.52,6.07 11.05,12.16 c 1.37,1.53 3.45,-0.83 2.12,-2.34 z"
       style="fill:#e6e6e6"
       id="path121" />
    <rect
       x="99.870003"
       y="97.860001"
       width="300.26999"
       height="14.5"
       rx="4.1399999"
       style="fill:#f0f0f0"
       id="rect123" />
    <rect
       x="68.800003"
       y="293.45999"
       width="118.06"
       height="40.75"
       style="fill:#ebebeb"
       id="rect125" />
    <rect
       x="68.800003"
       y="334.20999"
       width="118.06"
       height="40.75"
       style="fill:#ebebeb"
       id="rect127" />
    <polygon
       points="128.34,293.46 105.74,293.46 91.05,334.21 113.66,334.21 "
       style="fill:#f0f0f0"
       id="polygon129" />
    <polygon
       points="134.32,293.46 119.63,334.21 124.6,334.21 139.29,293.46 "
       style="fill:#f0f0f0"
       id="polygon131" />
    <polygon
       points="113.66,334.21 91.05,334.21 76.36,374.96 98.97,374.96 "
       style="fill:#f0f0f0"
       id="polygon133" />
    <polygon
       points="119.63,334.21 104.94,374.96 109.91,374.96 124.6,334.21 "
       style="fill:#f0f0f0"
       id="polygon135" />
    <rect
       x="125.76"
       y="238.64"
       width="4.1199999"
       height="118.06"
       transform="rotate(90,127.825,297.665)"
       style="fill:#e0e0e0"
       id="rect137" />
    <rect
       x="125.76"
       y="279.07001"
       width="4.1199999"
       height="118.06"
       transform="rotate(90,127.825,338.095)"
       style="fill:#e0e0e0"
       id="rect139" />
    <path
       d="m 130.84,319.05 a 1.77,1.77 0 1 0 0,-3.54 h -6 a 1.77,1.77 0 1 0 0,3.54 z"
       style="fill:#e0e0e0"
       id="path141" />
    <path
       d="m 130.84,318.42 a 1.77,1.77 0 1 0 0,-3.54 h -6 a 1.77,1.77 0 1 0 0,3.54 z"
       style="fill:#f5f5f5"
       id="path143" />
    <path
       d="m 130.84,356.67 a 1.78,1.78 0 0 0 0,-3.55 h -6 a 1.78,1.78 0 0 0 0,3.55 z"
       style="fill:#e0e0e0"
       id="path145" />
    <path
       d="m 130.84,356 a 1.77,1.77 0 1 0 0,-3.54 h -6 a 1.77,1.77 0 1 0 0,3.54 z"
       style="fill:#f5f5f5"
       id="path147" />
    <path
       d="m 66.73,291.63 v 85.11 h 122.18 v -85.11 z m 118.06,81 H 70.86 v -36.27 h 113.93 z m 0,-40.38 H 70.86 V 296 h 113.93 z"
       style="fill:#f5f5f5"
       id="path149" />
    <rect
       x="190.97"
       y="293.45999"
       width="118.06"
       height="40.75"
       style="fill:#ebebeb"
       id="rect151" />
    <rect
       x="190.97"
       y="334.20999"
       width="118.06"
       height="40.75"
       style="fill:#ebebeb"
       id="rect153" />
    <polygon
       points="297.19,293.46 274.59,293.46 259.9,334.21 282.5,334.21 "
       style="fill:#f0f0f0"
       id="polygon155" />
    <polygon
       points="303.17,293.46 288.48,334.21 293.44,334.21 308.13,293.46 "
       style="fill:#f0f0f0"
       id="polygon157" />
    <polygon
       points="282.5,334.21 259.9,334.21 245.21,374.96 267.82,374.96 "
       style="fill:#f0f0f0"
       id="polygon159" />
    <polygon
       points="288.48,334.21 273.79,374.96 278.76,374.96 293.44,334.21 "
       style="fill:#f0f0f0"
       id="polygon161" />
    <rect
       x="247.94"
       y="238.63"
       width="4.1199999"
       height="118.06"
       transform="rotate(90,250,297.66)"
       style="fill:#e0e0e0"
       id="rect163" />
    <rect
       x="247.94"
       y="279.07001"
       width="4.1199999"
       height="118.06"
       transform="rotate(90,250.005,338.095)"
       style="fill:#e0e0e0"
       id="rect165" />
    <path
       d="m 253,319.05 a 1.77,1.77 0 0 0 0,-3.54 h -6 a 1.77,1.77 0 1 0 0,3.54 z"
       style="fill:#e0e0e0"
       id="path167" />
    <path
       d="m 253,318.42 a 1.77,1.77 0 0 0 0,-3.54 h -6 a 1.77,1.77 0 1 0 0,3.54 z"
       style="fill:#f5f5f5"
       id="path169" />
    <path
       d="m 253,356.67 a 1.78,1.78 0 0 0 0,-3.55 h -6 a 1.78,1.78 0 0 0 0,3.55 z"
       style="fill:#e0e0e0"
       id="path171" />
    <path
       d="m 253,356 a 1.77,1.77 0 0 0 0,-3.54 h -6 a 1.77,1.77 0 1 0 0,3.54 z"
       style="fill:#f5f5f5"
       id="path173" />
    <path
       d="m 188.91,291.63 v 85.11 h 122.18 v -85.11 z m 118.06,81 H 193 v -36.27 h 114 z m 0,-40.38 H 193 V 296 h 114 z"
       style="fill:#f5f5f5"
       id="path175" />
    <rect
       x="313.14999"
       y="293.45999"
       width="118.06"
       height="40.75"
       style="fill:#ebebeb"
       id="rect177" />
    <rect
       x="313.14999"
       y="334.20999"
       width="118.06"
       height="40.75"
       style="fill:#ebebeb"
       id="rect179" />
    <polygon
       points="402.6,293.46 379.99,293.46 365.3,334.21 387.91,334.21 "
       style="fill:#f0f0f0"
       id="polygon181" />
    <polygon
       points="408.57,293.46 393.88,334.21 398.85,334.21 413.54,293.46 "
       style="fill:#f0f0f0"
       id="polygon183" />
    <polygon
       points="387.91,334.21 365.3,334.21 350.61,374.96 373.22,374.96 "
       style="fill:#f0f0f0"
       id="polygon185" />
    <polygon
       points="393.88,334.21 379.19,374.96 384.16,374.96 398.85,334.21 "
       style="fill:#f0f0f0"
       id="polygon187" />
    <rect
       x="370.12"
       y="238.63"
       width="4.1199999"
       height="118.06"
       transform="rotate(90,372.175,297.665)"
       style="fill:#e0e0e0"
       id="rect189" />
    <rect
       x="370.12"
       y="279.07001"
       width="4.1199999"
       height="118.06"
       transform="rotate(90,372.175,338.095)"
       style="fill:#e0e0e0"
       id="rect191" />
    <path
       d="m 375.2,319.05 a 1.77,1.77 0 1 0 0,-3.54 h -6 a 1.77,1.77 0 1 0 0,3.54 z"
       style="fill:#e0e0e0"
       id="path193" />
    <path
       d="m 375.2,318.42 a 1.77,1.77 0 1 0 0,-3.54 h -6 a 1.77,1.77 0 1 0 0,3.54 z"
       style="fill:#f5f5f5"
       id="path195" />
    <path
       d="m 375.2,356.67 a 1.78,1.78 0 0 0 0,-3.55 h -6 a 1.78,1.78 0 0 0 0,3.55 z"
       style="fill:#e0e0e0"
       id="path197" />
    <path
       d="m 375.2,356 a 1.77,1.77 0 1 0 0,-3.54 h -6 a 1.77,1.77 0 1 0 0,3.54 z"
       style="fill:#f5f5f5"
       id="path199" />
    <path
       d="m 311.09,291.63 v 85.11 h 122.18 v -85.11 z m 118.05,81 H 315.21 v -36.27 h 113.93 z m 0,-40.38 H 315.21 V 296 h 113.93 z"
       style="fill:#f5f5f5"
       id="path201" />
    <polygon
       points="78.55,382.87 76.76,376.74 423.24,376.74 421.45,382.87 "
       style="fill:#e0e0e0"
       id="polygon203" />
  </g>
  <g
     id="freepik--Shadow--inject-9"
     transform="matrix(1.122178,0,0,1.122178,-27.224435,-24.640106)">
    <ellipse
       id="freepik--path--inject-9"
       cx="250"
       cy="412.39001"
       rx="193.89"
       ry="11.32"
       style="fill:#f5f5f5" />
  </g>
  <g
     id="freepik--Form--inject-9"
     transform="matrix(1.122178,0,0,1.122178,-27.224435,-24.640106)">
    <path
       d="m 132.74,240 h 222 a 9.88,9.88 0 0 0 10,-11 L 352.79,92.68 a 12.2,12.2 0 0 0 -11.91,-11 h -222 a 9.88,9.88 0 0 0 -10,11 l 11.93,136.37 A 12.2,12.2 0 0 0 132.74,240 Z"
       style="fill:#263238"
       id="path208" />
    <path
       d="m 132.74,240 h 222 a 9.88,9.88 0 0 0 10,-11 L 352.79,92.68 a 12.2,12.2 0 0 0 -11.91,-11 h -222 a 9.88,9.88 0 0 0 -10,11 l 11.93,136.37 A 12.2,12.2 0 0 0 132.74,240 Z"
       style="opacity:0.7;fill:#ffffff"
       id="path210" />
    <polygon
       points="349.45,226.05 337.44,88.83 120.97,88.83 132.98,226.05 "
       style="fill:#407bff"
       id="polygon212" />
    <path
       d="m 136,236.79 h 222 a 9.88,9.88 0 0 0 10,-11 L 356,89.46 A 12.2,12.2 0 0 0 344.08,78.51 h -222 a 9.88,9.88 0 0 0 -10,10.95 L 124,225.83 a 12.21,12.21 0 0 0 12,10.96 z"
       style="fill:#407bff"
       id="path214" />
    <polygon
       points="349.45,226.05 337.44,88.83 120.97,88.83 132.98,226.05 "
       style="fill:#407bff"
       id="polygon216" />
    <polygon
       points="349.45,226.26 337.44,89.04 120.97,89.04 132.98,226.26 "
       style="opacity:0.4;fill:#ffffff"
       id="polygon218" />
    <polygon
       points="122.06,101.4 120.97,89.04 337.44,89.04 338.52,101.4 "
       style="fill:#407bff"
       id="polygon220" />
    <polygon
       points="122.06,101.4 120.97,89.04 337.44,89.04 338.52,101.4 "
       style="opacity:0.5"
       id="polygon222" />
    <path
       d="m 130.12,94.12 0.1,1.11 h 1.94 l 0.07,0.78 h -1.95 l 0.14,1.53 h -1 l -0.37,-4.2 h 3.17 l 0.07,0.78 z"
       style="fill:#ffffff"
       id="path224" />
    <path
       d="m 132.79,95.44 a 2,2 0 0 1 2.11,-2.17 2.41,2.41 0 0 1 2.48,2.17 2,2 0 0 1 -2.1,2.18 2.42,2.42 0 0 1 -2.49,-2.18 z m 3.61,0 a 1.42,1.42 0 0 0 -1.4,-1.34 1.16,1.16 0 0 0 -1.2,1.34 1.43,1.43 0 0 0 1.44,1.35 1.16,1.16 0 0 0 1.16,-1.35 z"
       style="fill:#ffffff"
       id="path226" />
    <path
       d="m 141,97.54 -0.91,-1.17 h -0.9 l 0.1,1.17 h -1 l -0.37,-4.2 h 1.82 a 1.74,1.74 0 0 1 2,1.53 1.23,1.23 0 0 1 -0.75,1.32 l 1.01,1.35 z m -1.21,-3.41 H 139 l 0.12,1.47 h 0.8 c 0.59,0 0.86,-0.28 0.83,-0.73 -0.03,-0.45 -0.39,-0.74 -0.98,-0.74 z"
       style="fill:#ffffff"
       id="path228" />
    <path
       d="m 146.53,97.54 -0.22,-2.54 -1.06,2.08 h -0.44 l -1.4,-2 0.21,2.46 h -0.91 l -0.37,-4.2 h 0.81 L 145,96 l 1.32,-2.61 h 0.79 l 0.38,4.2 z"
       style="fill:#ffffff"
       id="path230" />
    <path
       d="m 136.24,111.2 0.08,0.92 h 1.62 l 0.06,0.65 h -1.62 l 0.11,1.28 h -0.81 l -0.31,-3.51 H 138 l 0.06,0.66 z"
       style="fill:#407bff"
       id="path232" />
    <path
       d="m 138.37,110.54 a 0.4,0.4 0 0 1 0.45,-0.43 0.48,0.48 0 0 1 0.52,0.42 0.41,0.41 0 0 1 -0.45,0.45 0.49,0.49 0 0 1 -0.52,-0.44 z m 0.16,0.82 h 0.78 l 0.24,2.69 h -0.78 z"
       style="fill:#407bff"
       id="path234" />
    <path
       d="m 141.71,111.31 0.06,0.73 h -0.18 c -0.43,0 -0.69,0.24 -0.65,0.76 l 0.11,1.27 h -0.78 l -0.23,-2.69 h 0.74 v 0.35 a 1,1 0 0 1 0.93,-0.42 z"
       style="fill:#407bff"
       id="path236" />
    <path
       d="m 142.14,113.8 0.21,-0.56 a 2,2 0 0 0 1,0.26 c 0.36,0 0.48,-0.1 0.47,-0.25 0,-0.44 -1.63,0 -1.72,-1.06 0,-0.51 0.39,-0.88 1.17,-0.88 a 2.37,2.37 0 0 1 1.06,0.24 l -0.21,0.56 a 1.66,1.66 0 0 0 -0.8,-0.2 c -0.35,0 -0.49,0.11 -0.48,0.25 0,0.46 1.63,0 1.72,1.07 0,0.5 -0.39,0.86 -1.19,0.86 a 2.48,2.48 0 0 1 -1.23,-0.29 z"
       style="fill:#407bff"
       id="path238" />
    <path
       d="m 146.8,113.92 a 1.08,1.08 0 0 1 -0.62,0.17 1,1 0 0 1 -1.09,-1 L 145,112 h -0.41 l -0.06,-0.61 h 0.42 l -0.06,-0.65 h 0.78 l 0.06,0.65 h 0.67 l 0.05,0.61 h -0.67 l 0.1,1.09 a 0.35,0.35 0 0 0 0.36,0.36 0.52,0.52 0 0 0 0.31,-0.1 z"
       style="fill:#407bff"
       id="path240" />
    <path
       d="m 151.63,110.54 0.3,3.51 h -0.66 l -1.94,-2.13 0.19,2.13 h -0.8 l -0.31,-3.51 h 0.67 l 1.93,2.13 -0.19,-2.13 z"
       style="fill:#407bff"
       id="path242" />
    <path
       d="m 155,112.51 0.14,1.54 h -0.74 v -0.34 a 0.81,0.81 0 0 1 -0.79,0.38 1,1 0 0 1 -1.08,-0.82 c 0,-0.47 0.27,-0.8 1.09,-0.8 h 0.62 c 0,-0.34 -0.25,-0.53 -0.67,-0.53 a 1.15,1.15 0 0 0 -0.75,0.25 l -0.33,-0.55 a 1.91,1.91 0 0 1 1.13,-0.33 1.23,1.23 0 0 1 1.38,1.2 z m -0.72,0.69 v -0.28 h -0.54 c -0.36,0 -0.47,0.14 -0.45,0.32 0.02,0.18 0.19,0.32 0.47,0.32 a 0.52,0.52 0 0 0 0.47,-0.36 z"
       style="fill:#407bff"
       id="path244" />
    <path
       d="m 160.2,112.51 0.14,1.54 h -0.78 l -0.13,-1.42 c 0,-0.44 -0.25,-0.64 -0.56,-0.64 -0.31,0 -0.58,0.23 -0.54,0.71 l 0.12,1.35 h -0.78 l -0.12,-1.42 c 0,-0.44 -0.24,-0.64 -0.57,-0.64 -0.33,0 -0.57,0.23 -0.53,0.71 l 0.12,1.35 h -0.78 l -0.24,-2.69 h 0.75 v 0.3 a 1,1 0 0 1 0.81,-0.35 1.13,1.13 0 0 1 0.93,0.44 1.1,1.1 0 0 1 0.93,-0.44 1.16,1.16 0 0 1 1.23,1.2 z"
       style="fill:#407bff"
       id="path246" />
    <path
       d="m 163.59,112.92 h -2 a 0.8,0.8 0 0 0 0.82,0.54 0.82,0.82 0 0 0 0.65,-0.26 l 0.46,0.45 a 1.3,1.3 0 0 1 -1.08,0.44 1.55,1.55 0 0 1 -1.65,-1.39 1.24,1.24 0 0 1 1.31,-1.39 1.58,1.58 0 0 1 1.53,1.61 z m -2.09,-0.45 h 1.33 a 0.72,0.72 0 0 0 -0.71,-0.56 0.57,0.57 0 0 0 -0.62,0.56 z"
       style="fill:#407bff"
       id="path248" />
    <path
       d="m 144.18,180.25 0.06,0.65 h -2.71 l -0.31,-3.5 h 2.65 l 0.06,0.65 h -1.85 l 0.07,0.76 h 1.63 l 0.05,0.63 h -1.62 l 0.07,0.81 z"
       style="fill:#407bff"
       id="path250" />
    <path
       d="m 149.24,179.36 0.14,1.54 h -0.78 l -0.13,-1.42 c 0,-0.44 -0.25,-0.64 -0.56,-0.64 -0.31,0 -0.58,0.23 -0.54,0.71 l 0.12,1.35 h -0.78 l -0.12,-1.42 c 0,-0.44 -0.24,-0.64 -0.57,-0.64 -0.33,0 -0.57,0.23 -0.53,0.71 l 0.12,1.35 h -0.78 l -0.24,-2.69 h 0.75 v 0.31 a 1,1 0 0 1 0.81,-0.35 1.1,1.1 0 0 1 0.93,0.44 1.08,1.08 0 0 1 0.93,-0.44 1.15,1.15 0 0 1 1.23,1.19 z"
       style="fill:#407bff"
       id="path252" />
    <path
       d="m 152.32,179.36 0.14,1.54 h -0.73 v -0.34 a 0.81,0.81 0 0 1 -0.79,0.38 1,1 0 0 1 -1.08,-0.82 c 0,-0.47 0.27,-0.8 1.09,-0.8 h 0.62 c 0,-0.34 -0.25,-0.53 -0.67,-0.53 a 1.15,1.15 0 0 0 -0.75,0.25 l -0.33,-0.55 a 1.91,1.91 0 0 1 1.13,-0.32 1.23,1.23 0 0 1 1.37,1.19 z m -0.72,0.69 v -0.28 H 151 c -0.36,0 -0.47,0.14 -0.45,0.32 0.02,0.18 0.19,0.32 0.47,0.32 a 0.52,0.52 0 0 0 0.58,-0.36 z"
       style="fill:#407bff"
       id="path254" />
    <path
       d="m 152.76,177.4 a 0.4,0.4 0 0 1 0.44,-0.44 0.49,0.49 0 0 1 0.53,0.42 0.41,0.41 0 0 1 -0.45,0.45 0.49,0.49 0 0 1 -0.52,-0.43 z m 0.16,0.81 h 0.78 l 0.24,2.69 h -0.78 z"
       style="fill:#407bff"
       id="path256" />
    <path
       d="m 154.34,177.19 h 0.78 l 0.32,3.71 h -0.78 z"
       style="fill:#407bff"
       id="path258" />
    <path
       d="m 139.7,133.57 h -1.63 l -0.25,0.75 H 137 l 1.26,-3.5 h 0.8 l 1.87,3.5 h -0.85 z m -0.31,-0.61 -0.68,-1.34 -0.43,1.34 z"
       style="fill:#407bff"
       id="path260" />
    <path
       d="m 143.62,130.61 0.33,3.71 h -0.75 v -0.31 a 0.93,0.93 0 0 1 -0.81,0.35 1.44,1.44 0 0 1 -1.49,-1.36 1.18,1.18 0 0 1 1.22,-1.39 1.12,1.12 0 0 1 0.83,0.33 l -0.11,-1.31 z m -0.56,2.37 a 0.75,0.75 0 0 0 -0.75,-0.75 0.62,0.62 0 0 0 -0.62,0.75 0.75,0.75 0 0 0 0.75,0.74 0.61,0.61 0 0 0 0.62,-0.72 z"
       style="fill:#407bff"
       id="path262" />
    <path
       d="m 147.08,130.61 0.33,3.71 h -0.75 v -0.31 a 0.93,0.93 0 0 1 -0.81,0.35 1.44,1.44 0 0 1 -1.46,-1.38 1.18,1.18 0 0 1 1.22,-1.39 1.12,1.12 0 0 1 0.83,0.33 l -0.11,-1.31 z m -0.56,2.37 a 0.75,0.75 0 0 0 -0.75,-0.75 0.62,0.62 0 0 0 -0.62,0.75 0.75,0.75 0 0 0 0.75,0.74 0.61,0.61 0 0 0 0.62,-0.72 z"
       style="fill:#407bff"
       id="path264" />
    <path
       d="m 149.56,131.59 0.06,0.72 h -0.18 c -0.43,0 -0.69,0.24 -0.65,0.75 l 0.11,1.27 h -0.78 l -0.23,-2.69 h 0.74 V 132 a 1,1 0 0 1 0.93,-0.41 z"
       style="fill:#407bff"
       id="path266" />
    <path
       d="m 152.76,133.2 h -2 a 0.8,0.8 0 0 0 0.82,0.54 0.86,0.86 0 0 0 0.65,-0.26 l 0.46,0.45 a 1.32,1.32 0 0 1 -1.08,0.43 1.54,1.54 0 0 1 -1.65,-1.38 1.23,1.23 0 0 1 1.31,-1.39 1.47,1.47 0 0 1 1.52,1.4 1.41,1.41 0 0 1 -0.03,0.21 z m -2.09,-0.46 H 152 a 0.72,0.72 0 0 0 -0.71,-0.56 0.58,0.58 0 0 0 -0.62,0.56 z"
       style="fill:#407bff"
       id="path268" />
    <path
       d="m 153.11,134.07 0.21,-0.56 a 1.91,1.91 0 0 0 1,0.26 c 0.36,0 0.48,-0.09 0.47,-0.24 0,-0.44 -1.63,0 -1.72,-1.07 0,-0.51 0.38,-0.87 1.17,-0.87 a 2.37,2.37 0 0 1 1.06,0.24 l -0.21,0.55 a 1.66,1.66 0 0 0 -0.8,-0.2 c -0.35,0 -0.49,0.11 -0.48,0.25 0,0.46 1.63,0 1.72,1.08 0,0.5 -0.39,0.85 -1.19,0.85 a 2.37,2.37 0 0 1 -1.23,-0.29 z"
       style="fill:#407bff"
       id="path270" />
    <path
       d="m 155.76,134.07 0.21,-0.56 a 1.94,1.94 0 0 0 1,0.26 c 0.36,0 0.49,-0.09 0.48,-0.24 0,-0.44 -1.63,0 -1.73,-1.07 0,-0.51 0.39,-0.87 1.17,-0.87 a 2.33,2.33 0 0 1 1.06,0.24 l -0.21,0.55 a 1.65,1.65 0 0 0 -0.79,-0.2 c -0.35,0 -0.49,0.11 -0.48,0.25 0,0.46 1.63,0 1.72,1.08 0,0.5 -0.39,0.85 -1.2,0.85 a 2.43,2.43 0 0 1 -1.23,-0.29 z"
       style="fill:#407bff"
       id="path272" />
    <path
       d="m 146.3,200.69 c 0.07,0.78 -0.48,1.26 -1.41,1.26 h -0.71 l 0.09,1 h -0.82 l -0.3,-3.5 h 1.51 a 1.45,1.45 0 0 1 1.64,1.24 z m -0.82,0 c 0,-0.39 -0.31,-0.61 -0.8,-0.61 H 144 l 0.1,1.21 h 0.66 c 0.52,0 0.75,-0.22 0.72,-0.6 z"
       style="fill:#407bff"
       id="path274" />
    <path
       d="m 149.23,201.38 0.14,1.54 h -0.73 v -0.34 a 0.81,0.81 0 0 1 -0.79,0.38 1,1 0 0 1 -1.08,-0.82 c 0,-0.47 0.27,-0.8 1.09,-0.8 h 0.62 c 0,-0.34 -0.25,-0.53 -0.67,-0.53 a 1.17,1.17 0 0 0 -0.75,0.25 l -0.33,-0.55 a 1.93,1.93 0 0 1 1.13,-0.32 1.23,1.23 0 0 1 1.37,1.19 z m -0.72,0.69 v -0.28 H 148 c -0.36,0 -0.47,0.14 -0.45,0.32 0.02,0.18 0.19,0.32 0.47,0.32 a 0.52,0.52 0 0 0 0.49,-0.36 z"
       style="fill:#407bff"
       id="path276" />
    <path
       d="m 149.79,202.67 0.21,-0.56 a 2,2 0 0 0 1,0.26 c 0.36,0 0.49,-0.1 0.47,-0.25 0,-0.44 -1.62,0 -1.72,-1.06 0,-0.51 0.39,-0.87 1.17,-0.87 a 2.36,2.36 0 0 1 1.06,0.23 l -0.21,0.56 a 1.66,1.66 0 0 0 -0.8,-0.2 c -0.35,0 -0.49,0.11 -0.47,0.25 0,0.46 1.62,0 1.72,1.07 0,0.5 -0.39,0.86 -1.2,0.86 a 2.48,2.48 0 0 1 -1.23,-0.29 z"
       style="fill:#407bff"
       id="path278" />
    <path
       d="m 152.44,202.67 0.21,-0.56 a 2.05,2.05 0 0 0 1,0.26 c 0.36,0 0.49,-0.1 0.48,-0.25 0,-0.44 -1.63,0 -1.72,-1.06 -0.05,-0.51 0.38,-0.87 1.17,-0.87 a 2.32,2.32 0 0 1 1.05,0.23 l -0.21,0.56 a 1.65,1.65 0 0 0 -0.79,-0.2 c -0.35,0 -0.49,0.11 -0.48,0.25 0,0.46 1.63,0 1.72,1.07 0,0.5 -0.39,0.86 -1.2,0.86 a 2.54,2.54 0 0 1 -1.23,-0.29 z"
       style="fill:#407bff"
       id="path280" />
    <path
       d="m 159.42,200.23 -0.74,2.69 h -0.75 l -0.75,-1.67 -0.48,1.67 H 156 l -1.21,-2.69 h 0.73 l 0.8,1.82 0.5,-1.82 h 0.66 l 0.8,1.82 0.5,-1.82 z"
       style="fill:#407bff"
       id="path282" />
    <path
       d="m 159.62,201.57 a 1.25,1.25 0 0 1 1.36,-1.38 1.53,1.53 0 0 1 1.6,1.38 1.25,1.25 0 0 1 -1.36,1.39 1.54,1.54 0 0 1 -1.6,-1.39 z m 2.17,0 a 0.75,0.75 0 0 0 -0.75,-0.74 0.62,0.62 0 0 0 -0.63,0.74 0.76,0.76 0 0 0 0.76,0.75 0.62,0.62 0 0 0 0.62,-0.75 z"
       style="fill:#407bff"
       id="path284" />
    <path
       d="m 164.65,200.19 0.06,0.72 h -0.18 c -0.43,0 -0.69,0.23 -0.65,0.75 l 0.12,1.27 h -0.79 l -0.23,-2.69 h 0.74 v 0.35 a 1,1 0 0 1 0.93,-0.4 z"
       style="fill:#407bff"
       id="path286" />
    <path
       d="m 167.74,199.21 0.33,3.71 h -0.75 v -0.31 a 1,1 0 0 1 -0.81,0.35 1.44,1.44 0 0 1 -1.46,-1.39 1.18,1.18 0 0 1 1.22,-1.38 1.15,1.15 0 0 1 0.84,0.32 l -0.12,-1.3 z m -0.56,2.36 a 0.75,0.75 0 0 0 -0.75,-0.74 0.61,0.61 0 0 0 -0.62,0.74 0.75,0.75 0 0 0 0.75,0.75 0.62,0.62 0 0 0 0.62,-0.75 z"
       style="fill:#407bff"
       id="path288" />
    <path
       d="m 283.22,216.53 h -19.73 a 7.53,7.53 0 0 1 -7.36,-6.76 v 0 A 6.1,6.1 0 0 1 262.3,203 H 282 a 7.54,7.54 0 0 1 7.36,6.77 v 0 a 6.1,6.1 0 0 1 -6.14,6.76 z"
       style="fill:#407bff"
       id="path290" />
    <path
       d="m 266.45,211.23 0.22,-0.62 a 2.2,2.2 0 0 0 1.19,0.37 c 0.48,0 0.66,-0.16 0.64,-0.38 -0.05,-0.65 -2.05,-0.2 -2.17,-1.5 -0.05,-0.6 0.39,-1.09 1.38,-1.09 a 2.47,2.47 0 0 1 1.25,0.31 l -0.2,0.61 a 2.14,2.14 0 0 0 -1,-0.27 c -0.48,0 -0.65,0.18 -0.63,0.4 0.05,0.64 2.05,0.2 2.16,1.48 0.05,0.59 -0.39,1.09 -1.39,1.09 a 2.77,2.77 0 0 1 -1.45,-0.4 z"
       style="fill:#ffffff"
       id="path292" />
    <path
       d="m 272.14,210 0.13,1.53 h -0.73 v -0.34 a 0.79,0.79 0 0 1 -0.79,0.38 1,1 0 0 1 -1.07,-0.82 c 0,-0.47 0.26,-0.8 1.08,-0.8 h 0.62 c 0,-0.34 -0.24,-0.53 -0.66,-0.53 a 1.18,1.18 0 0 0 -0.76,0.25 l -0.33,-0.55 a 2,2 0 0 1 1.14,-0.32 1.23,1.23 0 0 1 1.37,1.2 z m -0.72,0.68 v -0.28 h -0.53 c -0.37,0 -0.47,0.14 -0.46,0.32 0.01,0.18 0.2,0.33 0.47,0.33 a 0.54,0.54 0 0 0 0.52,-0.33 z"
       style="fill:#ffffff"
       id="path294" />
    <path
       d="m 275.36,208.88 -0.9,2.69 h -0.8 l -1.37,-2.69 h 0.8 l 0.91,1.83 0.61,-1.83 z"
       style="fill:#ffffff"
       id="path296" />
    <path
       d="m 278.36,210.44 h -2 a 0.78,0.78 0 0 0 0.81,0.54 0.83,0.83 0 0 0 0.66,-0.26 l 0.45,0.46 a 1.3,1.3 0 0 1 -1.07,0.43 1.56,1.56 0 0 1 -1.66,-1.39 1.24,1.24 0 0 1 1.32,-1.38 1.5,1.5 0 0 1 1.52,1.6 z m -2.08,-0.45 h 1.32 a 0.71,0.71 0 0 0 -0.71,-0.56 0.57,0.57 0 0 0 -0.61,0.57 z"
       style="fill:#ffffff"
       id="path298" />
    <path
       d="M 320.77,216.53 H 301 a 7.53,7.53 0 0 1 -7.36,-6.76 v 0 a 6.11,6.11 0 0 1 6.18,-6.77 h 19.73 a 7.54,7.54 0 0 1 7.36,6.77 v 0 a 6.09,6.09 0 0 1 -6.14,6.76 z"
       style="fill:#407bff"
       id="path300" />
    <path
       d="m 298.59,209.82 a 1.62,1.62 0 0 1 1.74,-1.81 2,2 0 0 1 1.49,0.62 l -0.47,0.48 a 1.25,1.25 0 0 0 -0.92,-0.41 1,1 0 0 0 -1,1.12 1.19,1.19 0 0 0 1.22,1.12 1,1 0 0 0 0.84,-0.42 l 0.56,0.48 a 1.63,1.63 0 0 1 -1.39,0.63 2,2 0 0 1 -2.07,-1.81 z"
       style="fill:#ffffff"
       id="path302" />
    <path
       d="m 302.16,210.22 a 1.24,1.24 0 0 1 1.36,-1.38 1.53,1.53 0 0 1 1.59,1.38 1.25,1.25 0 0 1 -1.35,1.39 1.53,1.53 0 0 1 -1.6,-1.39 z m 2.16,0 a 0.75,0.75 0 0 0 -0.75,-0.74 0.61,0.61 0 0 0 -0.62,0.74 0.75,0.75 0 0 0 0.75,0.75 0.62,0.62 0 0 0 0.62,-0.75 z"
       style="fill:#ffffff"
       id="path304" />
    <path
       d="m 308.37,210 0.13,1.54 h -0.78 l -0.12,-1.42 c 0,-0.44 -0.26,-0.64 -0.6,-0.64 -0.34,0 -0.63,0.23 -0.59,0.73 l 0.12,1.33 h -0.78 l -0.24,-2.69 h 0.75 v 0.31 a 1.07,1.07 0 0 1 0.86,-0.35 1.17,1.17 0 0 1 1.25,1.19 z"
       style="fill:#ffffff"
       id="path306" />
    <path
       d="m 310.93,211.44 a 1,1 0 0 1 -0.62,0.17 1,1 0 0 1 -1.09,-1 l -0.1,-1.11 h -0.41 l -0.06,-0.6 h 0.42 l -0.06,-0.66 h 0.78 l 0.06,0.66 h 0.67 l 0.05,0.6 h -0.67 l 0.1,1.09 a 0.35,0.35 0 0 0 0.36,0.36 0.52,0.52 0 0 0 0.31,-0.1 z"
       style="fill:#ffffff"
       id="path308" />
    <path
       d="m 311,208.07 a 0.4,0.4 0 0 1 0.45,-0.44 0.48,0.48 0 0 1 0.52,0.42 0.41,0.41 0 0 1 -0.45,0.45 0.49,0.49 0 0 1 -0.52,-0.43 z m 0.16,0.81 h 0.78 l 0.24,2.69 h -0.78 z"
       style="fill:#ffffff"
       id="path310" />
    <path
       d="m 315.5,210 0.14,1.54 h -0.78 l -0.13,-1.42 c 0,-0.44 -0.25,-0.64 -0.6,-0.64 -0.35,0 -0.63,0.23 -0.58,0.73 l 0.11,1.33 h -0.78 l -0.23,-2.69 h 0.74 v 0.31 a 1.09,1.09 0 0 1 0.86,-0.35 1.16,1.16 0 0 1 1.25,1.19 z"
       style="fill:#ffffff"
       id="path312" />
    <path
       d="m 318.82,208.88 0.23,2.69 h -0.74 v -0.32 a 1,1 0 0 1 -0.8,0.36 1.19,1.19 0 0 1 -1.26,-1.21 l -0.13,-1.52 h 0.78 l 0.12,1.41 c 0,0.44 0.26,0.65 0.6,0.65 0.34,0 0.6,-0.24 0.56,-0.73 l -0.12,-1.33 z"
       style="fill:#ffffff"
       id="path314" />
    <path
       d="m 322.3,210.44 h -2 a 0.79,0.79 0 0 0 0.82,0.54 0.82,0.82 0 0 0 0.65,-0.26 l 0.46,0.46 a 1.32,1.32 0 0 1 -1.08,0.43 1.55,1.55 0 0 1 -1.65,-1.39 1.23,1.23 0 0 1 1.31,-1.38 1.57,1.57 0 0 1 1.53,1.6 z m -2.09,-0.45 h 1.33 a 0.72,0.72 0 0 0 -0.71,-0.56 0.58,0.58 0 0 0 -0.62,0.57 z"
       style="fill:#ffffff"
       id="path316" />
    <path
       d="m 242.05,179.84 c -0.08,-0.87 0.68,-1.5 1.77,-1.5 a 2.17,2.17 0 0 1 1.49,0.51 l -0.49,0.4 a 1.35,1.35 0 0 0 -0.91,-0.34 c -0.65,0 -1.09,0.38 -1,0.93 a 1.1,1.1 0 0 0 1.2,0.93 1.14,1.14 0 0 0 0.86,-0.34 l 0.55,0.4 a 2.14,2.14 0 0 1 -3.43,-1 z"
       style="fill:#407bff"
       id="path318" />
    <path
       d="m 245.62,180.18 c -0.06,-0.67 0.52,-1.15 1.38,-1.15 a 1.43,1.43 0 0 1 1.57,1.15 c 0.06,0.67 -0.52,1.15 -1.37,1.15 a 1.43,1.43 0 0 1 -1.58,-1.15 z m 2.16,0 a 0.69,0.69 0 0 0 -0.74,-0.62 c -0.39,0 -0.67,0.23 -0.63,0.62 a 0.69,0.69 0 0 0 0.74,0.62 0.56,0.56 0 0 0 0.63,-0.62 z"
       style="fill:#407bff"
       id="path320" />
    <path
       d="m 251.83,180 0.11,1.27 h -0.78 l -0.1,-1.17 a 0.53,0.53 0 0 0 -0.59,-0.53 c -0.38,0 -0.63,0.19 -0.6,0.6 l 0.1,1.1 h -0.78 l -0.2,-2.23 h 0.75 v 0.26 a 1.23,1.23 0 0 1 0.87,-0.29 1.08,1.08 0 0 1 1.22,0.99 z"
       style="fill:#407bff"
       id="path322" />
    <path
       d="m 254.37,181.19 a 1.26,1.26 0 0 1 -0.62,0.14 c -0.64,0 -1,-0.27 -1.08,-0.8 l -0.08,-0.92 h -0.41 l -0.05,-0.5 h 0.42 l -0.05,-0.54 h 0.78 l 0.05,0.54 H 254 v 0.5 h -0.67 l 0.08,0.91 a 0.32,0.32 0 0 0 0.36,0.29 0.59,0.59 0 0 0 0.31,-0.08 z"
       style="fill:#407bff"
       id="path324" />
    <path
       d="m 257.09,180 0.11,1.27 h -0.73 V 181 a 0.9,0.9 0 0 1 -0.8,0.31 c -0.63,0 -1,-0.29 -1.06,-0.68 -0.06,-0.39 0.27,-0.67 1.09,-0.67 h 0.63 c 0,-0.27 -0.24,-0.44 -0.66,-0.44 a 1.36,1.36 0 0 0 -0.76,0.21 l -0.32,-0.45 a 2.21,2.21 0 0 1 1.14,-0.27 c 0.8,-0.01 1.27,0.33 1.36,0.99 z m -0.73,0.57 v -0.23 h -0.54 c -0.36,0 -0.47,0.11 -0.45,0.26 0.02,0.15 0.18,0.27 0.46,0.27 a 0.54,0.54 0 0 0 0.53,-0.28 z"
       style="fill:#407bff"
       id="path326" />
    <path
       d="m 257.64,180.18 c -0.06,-0.67 0.52,-1.15 1.4,-1.15 a 1.4,1.4 0 0 1 1.25,0.57 l -0.58,0.27 a 0.78,0.78 0 0 0 -0.63,-0.31 c -0.4,0 -0.69,0.23 -0.65,0.62 a 0.7,0.7 0 0 0 0.76,0.62 0.61,0.61 0 0 0 0.57,-0.31 l 0.63,0.27 a 1.18,1.18 0 0 1 -1.15,0.57 c -0.88,0 -1.55,-0.48 -1.6,-1.15 z"
       style="fill:#407bff"
       id="path328" />
    <path
       d="m 262.66,181.19 a 1.33,1.33 0 0 1 -0.63,0.14 c -0.63,0 -1,-0.27 -1.07,-0.8 l -0.08,-0.92 h -0.42 v -0.5 h 0.41 l -0.05,-0.54 h 0.79 v 0.54 h 0.67 l 0.05,0.5 h -0.67 l 0.08,0.91 c 0,0.19 0.15,0.29 0.36,0.29 a 0.62,0.62 0 0 0 0.31,-0.08 z"
       style="fill:#407bff"
       id="path330" />
    <path
       d="m 267.53,178.39 0.26,2.9 h -0.67 l -1.9,-1.76 0.15,1.76 h -0.8 l -0.25,-2.9 H 265 l 1.9,1.76 -0.16,-1.76 z"
       style="fill:#407bff"
       id="path332" />
    <path
       d="m 271.08,179.06 0.19,2.23 h -0.74 v -0.26 a 1.14,1.14 0 0 1 -0.81,0.3 1.09,1.09 0 0 1 -1.24,-1 l -0.11,-1.26 h 0.78 l 0.1,1.17 a 0.53,0.53 0 0 0 0.59,0.54 0.51,0.51 0 0 0 0.57,-0.6 l -0.09,-1.11 z"
       style="fill:#407bff"
       id="path334" />
    <path
       d="m 276.43,180 0.11,1.27 h -0.78 l -0.1,-1.17 a 0.51,0.51 0 0 0 -0.56,-0.53 0.48,0.48 0 0 0 -0.54,0.58 l 0.1,1.12 h -0.78 l -0.11,-1.17 a 0.5,0.5 0 0 0 -0.55,-0.53 0.48,0.48 0 0 0 -0.54,0.58 l 0.09,1.12 H 272 l -0.19,-2.23 h 0.74 v 0.26 a 1.11,1.11 0 0 1 0.82,-0.29 1.18,1.18 0 0 1 0.91,0.36 1.23,1.23 0 0 1 0.94,-0.36 1.06,1.06 0 0 1 1.21,0.99 z"
       style="fill:#407bff"
       id="path336" />
    <path
       d="m 280.07,180.18 c 0.07,0.7 -0.48,1.15 -1.24,1.15 A 1.27,1.27 0 0 1 278,181 v 0.25 h -0.74 l -0.27,-3.07 h 0.78 l 0.09,1.08 a 1.11,1.11 0 0 1 0.79,-0.27 1.33,1.33 0 0 1 1.42,1.19 z m -0.79,0 a 0.69,0.69 0 0 0 -0.74,-0.62 0.56,0.56 0 0 0 -0.63,0.62 0.7,0.7 0 0 0 0.74,0.62 0.56,0.56 0 0 0 0.63,-0.62 z"
       style="fill:#407bff"
       id="path338" />
    <path
       d="m 283.23,180.36 h -2 a 0.79,0.79 0 0 0 0.81,0.45 0.92,0.92 0 0 0 0.66,-0.22 l 0.45,0.38 a 1.49,1.49 0 0 1 -1.08,0.36 c -0.93,0 -1.58,-0.49 -1.64,-1.15 -0.06,-0.66 0.52,-1.15 1.34,-1.15 a 1.37,1.37 0 0 1 1.5,1.16 z m -2.08,-0.38 h 1.33 a 0.69,0.69 0 0 0 -0.71,-0.46 0.55,0.55 0 0 0 -0.62,0.48 z"
       style="fill:#407bff"
       id="path340" />
    <path
       d="m 285.32,179 0.05,0.6 h -0.18 c -0.43,0 -0.7,0.19 -0.66,0.62 l 0.09,1 h -0.78 l -0.19,-2.23 h 0.74 v 0.3 a 1.09,1.09 0 0 1 0.93,-0.29 z"
       style="fill:#407bff"
       id="path342" />
    <path
       d="m 139.06,155.79 0.23,-0.5 a 2.49,2.49 0 0 0 1.18,0.3 c 0.48,0 0.66,-0.13 0.65,-0.31 -0.05,-0.54 -2.05,-0.17 -2.15,-1.25 0,-0.49 0.4,-0.9 1.4,-0.9 a 2.89,2.89 0 0 1 1.24,0.25 l -0.21,0.51 a 2.47,2.47 0 0 0 -1,-0.22 c -0.48,0 -0.65,0.14 -0.63,0.33 0,0.53 2.05,0.16 2.14,1.23 0,0.49 -0.41,0.9 -1.41,0.9 a 3,3 0 0 1 -1.44,-0.34 z"
       style="fill:#407bff"
       id="path344" />
    <path
       d="m 144.22,156 a 1.16,1.16 0 0 1 -0.62,0.14 c -0.64,0 -1,-0.27 -1.08,-0.8 l -0.08,-0.91 H 142 v -0.5 h 0.42 l -0.05,-0.55 h 0.78 l 0.05,0.55 h 0.67 v 0.5 h -0.67 l 0.08,0.9 a 0.32,0.32 0 0 0 0.36,0.3 0.59,0.59 0 0 0 0.31,-0.08 z"
       style="fill:#407bff"
       id="path346" />
    <path
       d="m 146.94,154.81 0.11,1.27 h -0.73 v -0.28 c -0.12,0.21 -0.39,0.31 -0.79,0.31 -0.63,0 -1,-0.29 -1.06,-0.67 -0.06,-0.38 0.27,-0.67 1.09,-0.67 h 0.62 c 0,-0.28 -0.24,-0.44 -0.66,-0.44 a 1.35,1.35 0 0 0 -0.75,0.21 l -0.32,-0.46 a 2.27,2.27 0 0 1 1.13,-0.27 c 0.8,0 1.3,0.32 1.36,1 z m -0.73,0.57 v -0.23 h -0.54 c -0.36,0 -0.47,0.11 -0.46,0.26 0.01,0.15 0.19,0.27 0.47,0.27 a 0.55,0.55 0 0 0 0.53,-0.3 z"
       style="fill:#407bff"
       id="path348" />
    <path
       d="m 149.48,156 a 1.16,1.16 0 0 1 -0.62,0.14 c -0.64,0 -1,-0.27 -1.08,-0.8 l -0.08,-0.91 h -0.42 v -0.5 h 0.42 v -0.55 h 0.78 l 0.05,0.55 h 0.67 v 0.5 h -0.67 l 0.08,0.9 a 0.32,0.32 0 0 0 0.36,0.3 0.59,0.59 0 0 0 0.31,-0.08 z"
       style="fill:#407bff"
       id="path350" />
    <path
       d="m 152.38,155.15 h -2 a 0.8,0.8 0 0 0 0.81,0.45 1,1 0 0 0 0.65,-0.22 l 0.45,0.37 a 1.44,1.44 0 0 1 -1.08,0.36 c -0.93,0 -1.58,-0.48 -1.64,-1.15 -0.06,-0.67 0.52,-1.15 1.34,-1.15 a 1.37,1.37 0 0 1 1.5,1.16 1.08,1.08 0 0 1 -0.03,0.18 z m -2.08,-0.38 h 1.33 a 0.69,0.69 0 0 0 -0.7,-0.47 c -0.36,0 -0.6,0.18 -0.63,0.47 z"
       style="fill:#407bff"
       id="path352" />
    <path
       d="M 236.21,110.54 H 237 l 0.25,2.85 H 239 l 0.05,0.66 h -2.56 z"
       style="fill:#407bff"
       id="path354" />
    <path
       d="m 241.76,112.51 0.13,1.54 h -0.73 v -0.34 a 0.79,0.79 0 0 1 -0.79,0.38 1,1 0 0 1 -1.07,-0.82 c 0,-0.47 0.26,-0.8 1.08,-0.8 H 241 c 0,-0.34 -0.24,-0.53 -0.66,-0.53 a 1.18,1.18 0 0 0 -0.76,0.25 l -0.33,-0.55 a 2,2 0 0 1 1.14,-0.33 1.23,1.23 0 0 1 1.37,1.2 z m -0.72,0.69 v -0.28 h -0.53 c -0.37,0 -0.47,0.14 -0.46,0.32 0.01,0.18 0.2,0.32 0.47,0.32 A 0.53,0.53 0 0 0 241,113.2 Z"
       style="fill:#407bff"
       id="path356" />
    <path
       d="m 242.31,113.8 0.21,-0.56 a 2.05,2.05 0 0 0 1,0.26 c 0.36,0 0.49,-0.1 0.48,-0.25 0,-0.44 -1.63,0 -1.72,-1.06 -0.05,-0.51 0.38,-0.88 1.17,-0.88 a 2.29,2.29 0 0 1 1.05,0.24 l -0.21,0.56 a 1.65,1.65 0 0 0 -0.79,-0.2 c -0.35,0 -0.49,0.11 -0.48,0.25 0,0.46 1.63,0 1.72,1.07 0,0.5 -0.39,0.86 -1.2,0.86 a 2.54,2.54 0 0 1 -1.23,-0.29 z"
       style="fill:#407bff"
       id="path358" />
    <path
       d="m 247,113.92 a 1.14,1.14 0 0 1 -0.63,0.17 1,1 0 0 1 -1.09,-1 l -0.09,-1.1 h -0.42 l -0.05,-0.61 h 0.41 l -0.05,-0.65 h 0.78 l 0.06,0.65 h 0.67 l 0.05,0.61 H 246 l 0.09,1.09 a 0.35,0.35 0 0 0 0.37,0.36 0.52,0.52 0 0 0 0.31,-0.1 z"
       style="fill:#407bff"
       id="path360" />
    <path
       d="m 251.8,110.54 0.31,3.51 h -0.67 l -1.93,-2.13 0.19,2.13 h -0.81 l -0.3,-3.51 h 0.67 l 1.93,2.13 -0.19,-2.13 z"
       style="fill:#407bff"
       id="path362" />
    <path
       d="m 255.13,112.51 0.13,1.54 h -0.73 v -0.34 a 0.79,0.79 0 0 1 -0.79,0.38 1,1 0 0 1 -1.07,-0.82 c 0,-0.47 0.26,-0.8 1.08,-0.8 h 0.62 c 0,-0.34 -0.24,-0.53 -0.66,-0.53 a 1.18,1.18 0 0 0 -0.76,0.25 l -0.33,-0.55 a 2,2 0 0 1 1.14,-0.33 1.23,1.23 0 0 1 1.37,1.2 z m -0.72,0.69 v -0.28 h -0.53 c -0.37,0 -0.47,0.14 -0.46,0.32 0.01,0.18 0.2,0.32 0.47,0.32 a 0.53,0.53 0 0 0 0.52,-0.36 z"
       style="fill:#407bff"
       id="path364" />
    <path
       d="m 260.38,112.51 0.13,1.54 h -0.78 l -0.12,-1.42 c 0,-0.44 -0.25,-0.64 -0.57,-0.64 -0.32,0 -0.57,0.23 -0.53,0.71 l 0.12,1.35 h -0.78 l -0.13,-1.42 c 0,-0.44 -0.24,-0.64 -0.56,-0.64 -0.32,0 -0.57,0.23 -0.53,0.71 l 0.12,1.35 H 256 l -0.23,-2.69 h 0.74 v 0.3 a 1,1 0 0 1 0.82,-0.35 1.19,1.19 0 0 0 1.85,0 1.16,1.16 0 0 1 1.2,1.2 z"
       style="fill:#407bff"
       id="path366" />
    <path
       d="m 263.76,112.92 h -2 a 0.78,0.78 0 0 0 0.82,0.54 0.82,0.82 0 0 0 0.65,-0.26 l 0.45,0.45 a 1.26,1.26 0 0 1 -1.07,0.44 1.56,1.56 0 0 1 -1.66,-1.39 1.25,1.25 0 0 1 1.32,-1.39 1.51,1.51 0 0 1 1.52,1.61 z m -2.08,-0.45 H 263 a 0.71,0.71 0 0 0 -0.71,-0.56 0.57,0.57 0 0 0 -0.61,0.56 z"
       style="fill:#407bff"
       id="path368" />
    <polygon
       points="136.2,125.16 135.49,117.08 229.46,117.08 230.17,125.16 "
       style="fill:#ffffff"
       id="polygon370" />
    <polygon
       points="139.86,167.01 139.15,158.93 233.13,158.93 233.83,167.01 "
       style="fill:#ffffff"
       id="polygon372" />
    <polygon
       points="142,191.47 141.29,183.39 235.27,183.39 235.97,191.47 "
       style="fill:#ffffff"
       id="polygon374" />
    <polygon
       points="143.96,213.81 143.25,205.73 237.22,205.73 237.93,213.81 "
       style="fill:#ffffff"
       id="polygon376" />
    <polygon
       points="243.05,191.47 242.35,183.39 336.32,183.39 337.03,191.47 "
       style="fill:#ffffff"
       id="polygon378" />
    <polygon
       points="137.94,145.12 137.24,137.04 332.26,137.04 332.97,145.12 "
       style="fill:#ffffff"
       id="polygon380" />
    <polygon
       points="237.25,125.16 236.55,117.08 330.52,117.08 331.23,125.16 "
       style="fill:#ffffff"
       id="polygon382" />
    <polygon
       points="257.22,190.62 256.64,183.95 263.88,183.95 264.47,190.62 "
       style="fill:#e0e0e0"
       id="polygon384" />
    <polygon
       points="260.72,188.72 258.2,186.15 262.78,186.15 "
       style="fill:#263238"
       id="polygon386" />
    <path
       d="m 247.34,187.43 h -0.87 l 0.07,0.85 h -0.64 l -0.08,-0.85 H 245 l -0.05,-0.61 h 0.86 l -0.07,-0.85 h 0.64 l 0.08,0.85 h 0.87 z"
       style="fill:#263238"
       id="path388" />
    <path
       d="m 250.36,187.81 c 0,0.59 -0.36,1.13 -1.35,1.13 a 2.58,2.58 0 0 1 -1.37,-0.38 l 0.26,-0.62 a 1.82,1.82 0 0 0 1,0.32 c 0.4,0 0.64,-0.17 0.61,-0.45 -0.03,-0.28 -0.23,-0.43 -0.69,-0.43 h -0.37 v -0.54 l 0.65,-0.81 h -1.49 l -0.06,-0.65 H 250 v 0.52 l -0.71,0.9 a 1.11,1.11 0 0 1 1.07,1.01 z"
       style="fill:#263238"
       id="path390" />
    <path
       d="m 253.36,188.22 0.06,0.66 h -2.65 l -0.05,-0.53 1.24,-1.27 c 0.29,-0.3 0.33,-0.48 0.31,-0.65 -0.02,-0.17 -0.23,-0.43 -0.6,-0.43 a 0.76,0.76 0 0 0 -0.69,0.35 l -0.62,-0.38 a 1.46,1.46 0 0 1 1.33,-0.65 c 0.78,0 1.34,0.4 1.39,1 a 1.29,1.29 0 0 1 -0.49,1.11 l -0.74,0.76 z"
       style="fill:#263238"
       id="path392" />
    <polygon
       points="268.78,188.92 268.54,186.15 316.3,186.15 316.54,188.92 "
       style="fill:#263238"
       id="polygon394" />
    <polygon
       points="144.26,188.92 144.02,186.15 191.78,186.15 192.03,188.92 "
       style="fill:#263238"
       id="polygon396" />
    <polygon
       points="142.12,164.35 141.87,161.59 163.73,161.59 163.98,164.35 "
       style="fill:#263238"
       id="polygon398" />
    <polygon
       points="138.45,122.5 138.21,119.74 160.07,119.74 160.31,122.5 "
       style="fill:#263238"
       id="polygon400" />
    <polygon
       points="239.94,122.5 239.69,119.74 261.55,119.74 261.8,122.5 "
       style="fill:#263238"
       id="polygon402" />
    <polygon
       points="140.2,142.47 139.96,139.7 312.24,139.7 312.48,142.47 "
       style="fill:#263238"
       id="polygon404" />
    <path
       d="m 149,210 0.8,0.41 -0.29,0.58 -0.81,-0.46 0.08,0.85 h -0.65 l -0.07,-0.86 -0.73,0.47 -0.39,-0.58 0.73,-0.41 -0.8,-0.42 0.29,-0.58 0.81,0.47 -0.09,-0.86 h 0.66 l 0.06,0.86 0.73,-0.47 0.4,0.58 z"
       style="fill:#263238"
       id="path406" />
    <path
       d="m 154.06,210 0.8,0.41 -0.29,0.58 -0.81,-0.46 0.08,0.85 h -0.65 l -0.07,-0.86 -0.73,0.47 -0.39,-0.58 0.73,-0.41 -0.8,-0.42 0.28,-0.58 0.82,0.47 -0.09,-0.86 h 0.66 l 0.06,0.86 0.73,-0.47 0.4,0.58 z"
       style="fill:#263238"
       id="path408" />
    <path
       d="m 159.08,210 0.8,0.41 -0.3,0.58 -0.81,-0.46 0.09,0.85 h -0.66 l -0.06,-0.86 -0.73,0.47 -0.39,-0.58 0.73,-0.41 -0.8,-0.42 0.28,-0.58 0.81,0.47 -0.08,-0.86 h 0.66 l 0.06,0.86 0.73,-0.47 0.39,0.58 z"
       style="fill:#263238"
       id="path410" />
    <path
       d="m 164.1,210 0.8,0.41 -0.3,0.58 -0.81,-0.46 0.09,0.85 h -0.66 l -0.06,-0.86 -0.73,0.47 -0.39,-0.58 0.73,-0.41 -0.8,-0.42 0.28,-0.58 0.81,0.47 -0.08,-0.86 h 0.66 l 0.06,0.86 0.73,-0.47 0.39,0.58 z"
       style="fill:#263238"
       id="path412" />
    <path
       d="m 169.12,210 0.8,0.41 -0.3,0.58 -0.81,-0.46 0.09,0.85 h -0.66 l -0.07,-0.86 -0.73,0.47 -0.38,-0.58 0.73,-0.41 -0.8,-0.42 0.28,-0.58 0.81,0.47 -0.08,-0.86 h 0.66 l 0.06,0.86 0.73,-0.47 0.39,0.58 z"
       style="fill:#263238"
       id="path414" />
    <path
       d="m 174.14,210 0.79,0.41 -0.29,0.58 -0.81,-0.46 0.09,0.85 h -0.66 l -0.07,-0.86 -0.73,0.47 -0.38,-0.58 0.72,-0.41 -0.8,-0.42 0.29,-0.58 0.81,0.47 -0.08,-0.86 h 0.66 l 0.06,0.86 0.73,-0.47 0.39,0.58 z"
       style="fill:#263238"
       id="path416" />
    <path
       d="m 179.15,210 0.8,0.41 -0.29,0.58 -0.81,-0.46 0.09,0.85 h -0.66 l -0.07,-0.86 -0.73,0.47 -0.38,-0.58 0.72,-0.41 -0.8,-0.42 0.29,-0.58 0.81,0.47 -0.08,-0.86 h 0.66 l 0.06,0.86 0.73,-0.47 0.39,0.58 z"
       style="fill:#263238"
       id="path418" />
    <polygon
       points="349.45,226.05 337.44,88.83 120.97,88.83 132.98,226.05 "
       style="opacity:0.1;fill:#ffffff"
       id="polygon420" />
    <polygon
       points="209.97,236.72 195.74,236.72 153.93,78.58 167.68,78.58 "
       style="opacity:0.1;isolation:isolate;fill:#ffffff"
       id="polygon422" />
    <polygon
       points="188.01,236.72 159.8,236.72 117.99,78.58 145.73,78.58 "
       style="opacity:0.1;isolation:isolate;fill:#ffffff"
       id="polygon424" />
    <rect
       x="139.02"
       y="74.32"
       width="6.1599998"
       height="1.28"
       transform="matrix(1,-0.01,0.01,1,-0.62,1.19)"
       style="fill:#407bff"
       id="rect426" />
    <rect
       x="150.64"
       y="74.18"
       width="17.879999"
       height="1.28"
       transform="rotate(-0.48,159.63978,74.676616)"
       style="fill:#407bff"
       id="rect428" />
    <path
       d="m 359.83,160.6 a 5.94,5.94 0 0 1 -6,6.59 7.34,7.34 0 0 1 -7.17,-6.59 6,6 0 0 1 6,-6.59 7.34,7.34 0 0 1 7.17,6.59 z"
       style="opacity:0.5"
       id="path430" />
    <path
       d="m 125.14,184 v 0 a 1.41,1.41 0 0 1 -1.38,-1.27 l -4.38,-50.08 a 1.15,1.15 0 0 1 1.16,-1.27 v 0 a 1.41,1.41 0 0 1 1.38,1.27 l 4.38,50.08 a 1.15,1.15 0 0 1 -1.16,1.27 z"
       style="opacity:0.5"
       id="path432" />
  </g>
  <g
     id="freepik--Plant--inject-9"
     transform="matrix(1.122178,0,0,1.122178,-27.224435,-24.640106)">
    <path
       d="m 141.4,410 h -20.84 l -2.31,-4.37 a 76.09,76.09 0 0 1 -8.85,-34.44 v -1.05 h 43.18 a 76.22,76.22 0 0 1 -9.47,36.79 z"
       style="fill:#407bff"
       id="path435" />
    <path
       d="m 141.4,410 h -20.84 l -2.31,-4.37 a 76.09,76.09 0 0 1 -8.85,-34.44 v -1.05 h 43.18 a 76.22,76.22 0 0 1 -9.47,36.79 z"
       style="opacity:0.7;fill:#ffffff"
       id="path437" />
    <path
       d="m 96.37,371 a 22.81,22.81 0 0 0 13,3.95 3.43,3.43 0 0 0 1.61,-0.31 1.62,1.62 0 0 0 0.85,-1.46 2.31,2.31 0 0 0 -1.14,-1.61 37.8,37.8 0 0 0 -9.45,-5.14 36.1,36.1 0 0 0 -5.12,-1.43 c -1.4,-0.29 -2.89,-1 -4.31,-1 -0.27,3.05 2.51,5.63 4.56,7 z"
       style="fill:#407bff"
       id="path439" />
    <path
       d="m 151.93,353.47 a 11.46,11.46 0 0 1 7.7,-4.44 0.67,0.67 0 0 1 0.5,0.08 0.94,0.94 0 0 1 0.22,0.71 18.43,18.43 0 0 1 -3.35,10.93 8.43,8.43 0 0 1 -3.79,3.2 4.21,4.21 0 0 1 -3.47,-0.2 c -1.05,-0.6 -0.86,-1.46 -0.75,-2.65 a 14.67,14.67 0 0 1 2.94,-7.63 z"
       style="fill:#407bff"
       id="path441" />
    <path
       d="m 151.93,353.47 a 11.46,11.46 0 0 1 7.7,-4.44 0.67,0.67 0 0 1 0.5,0.08 0.94,0.94 0 0 1 0.22,0.71 18.43,18.43 0 0 1 -3.35,10.93 8.43,8.43 0 0 1 -3.79,3.2 4.21,4.21 0 0 1 -3.47,-0.2 c -1.05,-0.6 -0.86,-1.46 -0.75,-2.65 a 14.67,14.67 0 0 1 2.94,-7.63 z"
       style="opacity:0.2"
       id="path443" />
    <path
       d="m 133.08,355.26 a 20.22,20.22 0 0 0 2.56,-9.43 22.33,22.33 0 0 0 -1.6,-8.32 46,46 0 0 0 -3.46,-6.75 c -0.4,6.4 -0.52,12.84 -0.34,19.27 a 14.22,14.22 0 0 0 0.48,4 c 0.4,1.2 1.22,2.13 2,1.83 z"
       style="fill:#407bff"
       id="path445" />
    <path
       d="m 138.67,335.7 c -2.72,4 -4.44,9.88 -4.66,15.91 a 18.21,18.21 0 0 0 0.66,6.23 c 0.63,1.86 1.87,3.28 3.15,3.09 1.28,-0.19 2.39,-2 3.15,-3.86 1.26,-3.06 2.79,-7.43 2.07,-11.21 a 22.76,22.76 0 0 0 -4.37,-10.16 z"
       style="fill:#407bff"
       id="path447" />
    <path
       d="m 138.67,335.7 c -2.72,4 -4.44,9.88 -4.66,15.91 a 18.21,18.21 0 0 0 0.66,6.23 c 0.63,1.86 1.87,3.28 3.15,3.09 1.28,-0.19 2.39,-2 3.15,-3.86 1.26,-3.06 2.79,-7.43 2.07,-11.21 a 22.76,22.76 0 0 0 -4.37,-10.16 z"
       style="opacity:0.1"
       id="path449" />
    <path
       d="m 146.94,358.19 c 2.23,-2.07 3.14,-5.54 3,-8.81 a 35.45,35.45 0 0 0 -2,-9.48 39.8,39.8 0 0 0 -5.22,9.9 13.64,13.64 0 0 0 -0.95,4.27 5.64,5.64 0 0 0 1.36,4 2.7,2.7 0 0 0 3.6,0.37 l -0.37,0.22 z"
       style="fill:#407bff"
       id="path451" />
    <g
       style="opacity:0.2"
       id="g455">
      <path
         d="m 146.94,358.19 c 2.23,-2.07 3.14,-5.54 3,-8.81 a 35.45,35.45 0 0 0 -2,-9.48 39.8,39.8 0 0 0 -5.22,9.9 13.64,13.64 0 0 0 -0.95,4.27 5.64,5.64 0 0 0 1.36,4 2.7,2.7 0 0 0 3.6,0.37 l -0.37,0.22 z"
         id="path453" />
    </g>
    <path
       d="m 152,345.38 c 0.55,4 1.1,8.16 0.42,12.17 -0.68,4.01 -2.84,7.93 -6.21,9.35 -1.4,0.58 -3.21,0.59 -4.15,-0.73 a 4,4 0 0 1 -0.41,-3.26 11.31,11.31 0 0 1 1.44,-3 c 2.69,-4.37 8.3,-15 8.87,-14.53 z"
       style="fill:#407bff"
       id="path457" />
    <path
       d="m 152,345.38 c 0.55,4 1.1,8.16 0.42,12.17 -0.68,4.01 -2.84,7.93 -6.21,9.35 -1.4,0.58 -3.21,0.59 -4.15,-0.73 a 4,4 0 0 1 -0.41,-3.26 11.31,11.31 0 0 1 1.44,-3 c 2.69,-4.37 8.3,-15 8.87,-14.53 z"
       style="fill:#407bff"
       id="path459" />
    <g
       style="opacity:0.1"
       id="g463">
      <path
         d="m 152,345.38 c 0.55,4 1.1,8.16 0.42,12.17 -0.68,4.01 -2.84,7.93 -6.21,9.35 -1.4,0.58 -3.21,0.59 -4.15,-0.73 a 4,4 0 0 1 -0.41,-3.26 11.31,11.31 0 0 1 1.44,-3 c 2.69,-4.37 8.3,-15 8.87,-14.53 z"
         id="path461" />
    </g>
    <path
       d="m 141.6,350.83 a 24.7,24.7 0 0 1 2.88,7.75 13.54,13.54 0 0 1 -1,8.19 7.24,7.24 0 0 1 -6.05,4.26 5.68,5.68 0 0 1 -4.84,-3 c -1.15,-2 -0.31,-3.85 0.57,-5.82 1.95,-4.46 5.25,-7.99 8.44,-11.38 z"
       style="fill:#407bff"
       id="path465" />
    <path
       d="m 166.35,358.28 a 4.66,4.66 0 0 1 0.2,3.92 9.56,9.56 0 0 1 -2.18,3.22 26.76,26.76 0 0 1 -22.5,8.61 2.15,2.15 0 0 1 -1.79,-0.92 2,2 0 0 1 0.56,-2.24 4.72,4.72 0 0 1 2.09,-0.87 35.83,35.83 0 0 0 11.76,-5.36 c 3.65,-2.52 7.97,-4.26 11.86,-6.36 z"
       style="fill:#407bff"
       id="path467" />
    <path
       d="m 166.35,358.28 a 4.66,4.66 0 0 1 0.2,3.92 9.56,9.56 0 0 1 -2.18,3.22 26.76,26.76 0 0 1 -22.5,8.61 2.15,2.15 0 0 1 -1.79,-0.92 2,2 0 0 1 0.56,-2.24 4.72,4.72 0 0 1 2.09,-0.87 35.83,35.83 0 0 0 11.76,-5.36 c 3.65,-2.52 7.97,-4.26 11.86,-6.36 z"
       style="opacity:0.1"
       id="path469" />
    <path
       d="m 152,358.27 c 0.6,-0.89 1.36,-1.92 2.35,-1.81 0.76,0.09 1.32,0.86 1.64,1.66 1.29,3.22 -0.25,7.18 -2.71,9.36 -2.46,2.18 -5.62,3 -8.66,3.77 l -3.14,0.79 c -1.24,0.32 -3.74,-0.1 -2.63,-2.07 0.75,-1.32 3.24,-2.07 4.39,-2.85 a 32.66,32.66 0 0 0 8.76,-8.85 z"
       style="fill:#407bff"
       id="path471" />
    <path
       d="m 164.92,371 a 22.79,22.79 0 0 1 -13,3.95 3.37,3.37 0 0 1 -1.6,-0.31 1.61,1.61 0 0 1 -0.86,-1.46 2.34,2.34 0 0 1 1.14,-1.61 37.69,37.69 0 0 1 9.46,-5.14 35.6,35.6 0 0 1 5.15,-1.48 c 1.4,-0.29 2.89,-1 4.31,-1 0.23,3.1 -2.52,5.68 -4.6,7.05 z"
       style="fill:#407bff"
       id="path473" />
    <path
       d="m 152.29,383.09 a 20,20 0 0 0 10.7,-4.52 c 0.6,-0.48 1.26,-1.24 1,-2 a 1.74,1.74 0 0 0 -1.24,-0.94 c -3.63,-1.22 -7.35,-2.45 -11.14,-2.28 a 12.82,12.82 0 0 0 -5.22,1.34 c -1.28,0.65 -3.93,2.24 -4.3,4 -0.37,1.76 2.93,3.08 4.15,3.56 a 14,14 0 0 0 6.05,0.84 z"
       style="fill:#407bff"
       id="path475" />
    <path
       d="m 152.29,383.09 a 20,20 0 0 0 10.7,-4.52 c 0.6,-0.48 1.26,-1.24 1,-2 a 1.74,1.74 0 0 0 -1.24,-0.94 c -3.63,-1.22 -7.35,-2.45 -11.14,-2.28 a 12.82,12.82 0 0 0 -5.22,1.34 c -1.28,0.65 -3.93,2.24 -4.3,4 -0.37,1.76 2.93,3.08 4.15,3.56 a 14,14 0 0 0 6.05,0.84 z"
       style="opacity:0.1"
       id="path477" />
    <path
       d="m 137.11,373.57 a 33.84,33.84 0 0 1 11.39,-0.57 6.43,6.43 0 0 1 2.74,0.79 3.21,3.21 0 0 1 1.55,2.53 3.32,3.32 0 0 1 -1.41,2.67 7.55,7.55 0 0 1 -2.68,1.01 c -2.74,0.72 -5.55,1.42 -8.35,1 a 8.46,8.46 0 0 1 -5.79,-3.18 c -1.73,-2.4 0.54,-3.82 2.55,-4.25 z"
       style="fill:#407bff"
       id="path479" />
    <path
       d="m 137.11,373.57 a 33.84,33.84 0 0 1 11.39,-0.57 6.43,6.43 0 0 1 2.74,0.79 3.21,3.21 0 0 1 1.55,2.53 3.32,3.32 0 0 1 -1.41,2.67 7.55,7.55 0 0 1 -2.68,1.01 c -2.74,0.72 -5.55,1.42 -8.35,1 a 8.46,8.46 0 0 1 -5.79,-3.18 c -1.73,-2.4 0.54,-3.82 2.55,-4.25 z"
       style="opacity:0.1;fill:#ffffff"
       id="path481" />
    <path
       d="m 125.71,373.54 a 5.82,5.82 0 0 1 -1.86,-2.05 2.68,2.68 0 0 1 0.17,-2.78 c 0.87,-1 5.69,-2.47 6.9,-2.75 a 4.81,4.81 0 0 1 3,0.64 q 2.09,1 4.09,2.07 a 6.23,6.23 0 0 1 1.86,1.37 2.76,2.76 0 0 1 0.65,2.32 3.28,3.28 0 0 1 -2.37,2.09 21.5,21.5 0 0 1 -8,1.27 c 0.18,-0.04 -3.24,-1.27 -4.44,-2.18 z"
       style="fill:#407bff"
       id="path483" />
    <g
       style="opacity:0.1"
       id="g487">
      <path
         d="m 125.71,373.54 a 5.82,5.82 0 0 1 -1.86,-2.05 2.68,2.68 0 0 1 0.17,-2.78 c 0.87,-1 5.69,-2.47 6.9,-2.75 a 4.81,4.81 0 0 1 3,0.64 q 2.09,1 4.09,2.07 a 6.23,6.23 0 0 1 1.86,1.37 2.76,2.76 0 0 1 0.65,2.32 3.28,3.28 0 0 1 -2.37,2.09 21.5,21.5 0 0 1 -8,1.27 c 0.18,-0.04 -3.24,-1.27 -4.44,-2.18 z"
         id="path485" />
    </g>
    <path
       d="m 135.5,375.44 a 4.54,4.54 0 0 1 2.88,2.42 3.48,3.48 0 0 1 -0.56,3.81 4.18,4.18 0 0 1 -2.53,0.84 l -3.3,0.33 a 2.63,2.63 0 0 1 -2,-0.35 c -0.77,-0.62 -0.84,-1.86 -0.83,-2.93 a 8.89,8.89 0 0 1 0.37,-3 2.13,2.13 0 0 1 2.38,-1.64 25.75,25.75 0 0 1 3.59,0.52 z"
       style="fill:#407bff"
       id="path489" />
    <path
       d="m 109.36,353.47 a 11.42,11.42 0 0 0 -7.7,-4.44 0.67,0.67 0 0 0 -0.5,0.08 1,1 0 0 0 -0.22,0.71 18.5,18.5 0 0 0 3.31,10.93 8.43,8.43 0 0 0 3.75,3.25 4.21,4.21 0 0 0 3.47,-0.2 c 1,-0.6 0.86,-1.46 0.75,-2.65 a 14.5,14.5 0 0 0 -2.86,-7.68 z"
       style="fill:#407bff"
       id="path491" />
    <path
       d="m 109.36,353.47 a 11.42,11.42 0 0 0 -7.7,-4.44 0.67,0.67 0 0 0 -0.5,0.08 1,1 0 0 0 -0.22,0.71 18.5,18.5 0 0 0 3.31,10.93 8.43,8.43 0 0 0 3.75,3.25 4.21,4.21 0 0 0 3.47,-0.2 c 1,-0.6 0.86,-1.46 0.75,-2.65 a 14.5,14.5 0 0 0 -2.86,-7.68 z"
       style="opacity:0.2"
       id="path493" />
    <path
       d="m 128.21,355.26 a 20.22,20.22 0 0 1 -2.56,-9.43 22.53,22.53 0 0 1 1.6,-8.32 48,48 0 0 1 3.46,-6.75 c 0.4,6.4 0.52,12.84 0.35,19.27 a 14.6,14.6 0 0 1 -0.49,4 c -0.39,1.2 -1.22,2.13 -2,1.83 z"
       style="fill:#407bff"
       id="path495" />
    <path
       d="m 122.62,335.7 c 2.73,4 4.44,9.88 4.66,15.91 a 18,18 0 0 1 -0.66,6.23 c -0.63,1.86 -1.86,3.28 -3.15,3.09 -1.29,-0.19 -2.39,-2 -3.14,-3.86 -1.27,-3.06 -2.8,-7.43 -2.08,-11.21 a 22.76,22.76 0 0 1 4.37,-10.16 z"
       style="fill:#407bff"
       id="path497" />
    <path
       d="m 122.62,335.7 c 2.73,4 4.44,9.88 4.66,15.91 a 18,18 0 0 1 -0.66,6.23 c -0.63,1.86 -1.86,3.28 -3.15,3.09 -1.29,-0.19 -2.39,-2 -3.14,-3.86 -1.27,-3.06 -2.8,-7.43 -2.08,-11.21 a 22.76,22.76 0 0 1 4.37,-10.16 z"
       style="opacity:0.1"
       id="path499" />
    <path
       d="m 114.35,358.19 c -2.23,-2.07 -3.13,-5.54 -3,-8.81 a 35.43,35.43 0 0 1 2,-9.48 39.48,39.48 0 0 1 5.22,9.9 13.64,13.64 0 0 1 1,4.27 5.64,5.64 0 0 1 -1.36,4 2.7,2.7 0 0 1 -3.6,0.37 l 0.38,0.22 z"
       style="fill:#407bff"
       id="path501" />
    <g
       style="opacity:0.2"
       id="g505">
      <path
         d="m 114.35,358.19 c -2.23,-2.07 -3.13,-5.54 -3,-8.81 a 35.43,35.43 0 0 1 2,-9.48 39.48,39.48 0 0 1 5.22,9.9 13.64,13.64 0 0 1 1,4.27 5.64,5.64 0 0 1 -1.36,4 2.7,2.7 0 0 1 -3.6,0.37 l 0.38,0.22 z"
         id="path503" />
    </g>
    <path
       d="m 109.28,345.38 c -0.56,4 -1.11,8.16 -0.42,12.17 0.69,4.01 2.83,7.93 6.2,9.35 1.41,0.58 3.21,0.59 4.15,-0.73 a 4,4 0 0 0 0.41,-3.26 11.31,11.31 0 0 0 -1.44,-3 c -2.69,-4.37 -8.3,-15 -8.87,-14.53 z"
       style="fill:#407bff"
       id="path507" />
    <path
       d="m 109.28,345.38 c -0.56,4 -1.11,8.16 -0.42,12.17 0.69,4.01 2.83,7.93 6.2,9.35 1.41,0.58 3.21,0.59 4.15,-0.73 a 4,4 0 0 0 0.41,-3.26 11.31,11.31 0 0 0 -1.44,-3 c -2.69,-4.37 -8.3,-15 -8.87,-14.53 z"
       style="fill:#407bff"
       id="path509" />
    <g
       style="opacity:0.1"
       id="g513">
      <path
         d="m 109.28,345.38 c -0.56,4 -1.11,8.16 -0.42,12.17 0.69,4.01 2.83,7.93 6.2,9.35 1.41,0.58 3.21,0.59 4.15,-0.73 a 4,4 0 0 0 0.41,-3.26 11.31,11.31 0 0 0 -1.44,-3 c -2.69,-4.37 -8.3,-15 -8.87,-14.53 z"
         id="path511" />
    </g>
    <path
       d="m 119.7,350.83 a 24.22,24.22 0 0 0 -2.88,7.75 13.47,13.47 0 0 0 1,8.19 c 1.24,2.45 3.57,4.24 6.05,4.26 a 5.68,5.68 0 0 0 4.84,-3 c 1.15,-2 0.31,-3.85 -0.57,-5.82 -1.96,-4.46 -5.25,-7.99 -8.44,-11.38 z"
       style="fill:#407bff"
       id="path515" />
    <path
       d="m 94.93,358.6 a 4.55,4.55 0 0 0 -0.19,3.84 9.53,9.53 0 0 0 2.13,3.16 26.22,26.22 0 0 0 22.06,8.4 2.1,2.1 0 0 0 1.75,-0.9 1.93,1.93 0 0 0 -0.54,-2.2 4.7,4.7 0 0 0 -2,-0.85 35.19,35.19 0 0 1 -11.54,-5.25 c -3.6,-2.44 -7.86,-4.15 -11.67,-6.2 z"
       style="fill:#407bff"
       id="path517" />
    <path
       d="m 94.93,358.6 a 4.55,4.55 0 0 0 -0.19,3.84 9.53,9.53 0 0 0 2.13,3.16 26.22,26.22 0 0 0 22.06,8.4 2.1,2.1 0 0 0 1.75,-0.9 1.93,1.93 0 0 0 -0.54,-2.2 4.7,4.7 0 0 0 -2,-0.85 35.19,35.19 0 0 1 -11.54,-5.25 c -3.6,-2.44 -7.86,-4.15 -11.67,-6.2 z"
       style="opacity:0.1"
       id="path519" />
    <path
       d="m 108.62,358 c -0.59,-0.88 -1.34,-1.9 -2.3,-1.78 -0.75,0.08 -1.31,0.84 -1.62,1.62 -1.26,3.17 0.25,7.05 2.66,9.19 2.41,2.14 5.52,3 8.51,3.71 l 3.08,0.78 c 1.22,0.31 3.67,-0.11 2.58,-2 -0.73,-1.29 -3.18,-2 -4.31,-2.8 a 32,32 0 0 1 -8.6,-8.72 z"
       style="fill:#407bff"
       id="path521" />
    <path
       d="m 109,383.09 a 20,20 0 0 1 -10.69,-4.52 c -0.61,-0.48 -1.27,-1.24 -1,-2 a 1.76,1.76 0 0 1 1.24,-0.94 c 3.64,-1.22 7.35,-2.45 11.14,-2.28 a 12.78,12.78 0 0 1 5.22,1.34 c 1.28,0.65 3.93,2.24 4.31,4 0.38,1.76 -2.94,3.08 -4.16,3.56 a 14,14 0 0 1 -6.06,0.84 z"
       style="fill:#407bff"
       id="path523" />
    <path
       d="m 109,383.09 a 20,20 0 0 1 -10.69,-4.52 c -0.61,-0.48 -1.27,-1.24 -1,-2 a 1.76,1.76 0 0 1 1.24,-0.94 c 3.64,-1.22 7.35,-2.45 11.14,-2.28 a 12.78,12.78 0 0 1 5.22,1.34 c 1.28,0.65 3.93,2.24 4.31,4 0.38,1.76 -2.94,3.08 -4.16,3.56 a 14,14 0 0 1 -6.06,0.84 z"
       style="opacity:0.1"
       id="path525" />
    <path
       d="m 124.18,373.57 a 33.84,33.84 0 0 0 -11.39,-0.62 6.47,6.47 0 0 0 -2.74,0.79 3.21,3.21 0 0 0 -1.55,2.53 3.32,3.32 0 0 0 1.41,2.67 7.55,7.55 0 0 0 2.68,1.09 c 2.74,0.72 5.55,1.42 8.35,1 a 8.51,8.51 0 0 0 5.8,-3.18 c 1.72,-2.43 -0.55,-3.85 -2.56,-4.28 z"
       style="fill:#407bff"
       id="path527" />
    <path
       d="m 124.18,373.57 a 33.84,33.84 0 0 0 -11.39,-0.62 6.47,6.47 0 0 0 -2.74,0.79 3.21,3.21 0 0 0 -1.55,2.53 3.32,3.32 0 0 0 1.41,2.67 7.55,7.55 0 0 0 2.68,1.09 c 2.74,0.72 5.55,1.42 8.35,1 a 8.51,8.51 0 0 0 5.8,-3.18 c 1.72,-2.43 -0.55,-3.85 -2.56,-4.28 z"
       style="opacity:0.1;fill:#ffffff"
       id="path529" />
    <path
       d="m 135.59,373.54 a 6,6 0 0 0 1.86,-2.05 2.71,2.71 0 0 0 -0.18,-2.78 c -0.87,-1 -5.69,-2.47 -6.9,-2.75 a 4.82,4.82 0 0 0 -3,0.64 c -1.38,0.64 -2.75,1.33 -4.09,2.07 a 6.23,6.23 0 0 0 -1.86,1.37 2.79,2.79 0 0 0 -0.65,2.32 3.28,3.28 0 0 0 2.37,2.09 21.5,21.5 0 0 0 8,1.27 c -0.14,-0.04 3.25,-1.27 4.45,-2.18 z"
       style="fill:#407bff"
       id="path531" />
    <g
       style="opacity:0.1"
       id="g535">
      <path
         d="m 135.59,373.54 a 6,6 0 0 0 1.86,-2.05 2.71,2.71 0 0 0 -0.18,-2.78 c -0.87,-1 -5.69,-2.47 -6.9,-2.75 a 4.82,4.82 0 0 0 -3,0.64 c -1.38,0.64 -2.75,1.33 -4.09,2.07 a 6.23,6.23 0 0 0 -1.86,1.37 2.79,2.79 0 0 0 -0.65,2.32 3.28,3.28 0 0 0 2.37,2.09 21.5,21.5 0 0 0 8,1.27 c -0.14,-0.04 3.25,-1.27 4.45,-2.18 z"
         id="path533" />
    </g>
    <path
       d="m 125.79,375.44 a 4.53,4.53 0 0 0 -2.87,2.42 3.48,3.48 0 0 0 0.55,3.81 4.21,4.21 0 0 0 2.54,0.84 l 3.29,0.33 a 2.66,2.66 0 0 0 2,-0.35 c 0.76,-0.62 0.83,-1.86 0.82,-2.93 a 8.42,8.42 0 0 0 -0.37,-3 2.13,2.13 0 0 0 -2.38,-1.64 26,26 0 0 0 -3.58,0.52 z"
       style="fill:#407bff"
       id="path537" />
    <path
       d="m 131.22,351.86 a 2.21,2.21 0 0 0 -0.57,-0.36 0.5,0.5 0 0 1 0.19,0 0.28,0.28 0 0 1 0.12,0 v 0 a 0.26,0.26 0 0 1 0.11,0.08 0.36,0.36 0 0 1 0.08,0.12 0.27,0.27 0 0 1 0.06,0.12 c 0,0 0.01,0.02 0.01,0.04 z"
       style="fill:#407bff"
       id="path539" />
    <path
       d="m 131.23,351.86 v 0 a 2.21,2.21 0 0 0 -0.57,-0.36 0.5,0.5 0 0 1 0.19,0 0.28,0.28 0 0 1 0.12,0 v 0 a 0.26,0.26 0 0 1 0.11,0.08 0.36,0.36 0 0 1 0.08,0.12 0.27,0.27 0 0 1 0.06,0.12 c 0,0 0,0.02 0.01,0.04 z"
       style="opacity:0.1;fill:#407bff"
       id="path541" />
    <path
       d="m 135.33,363 a 9,9 0 0 1 -1.7,3 3.81,3.81 0 0 1 -2.86,1.39 h -0.26 a 3.8,3.8 0 0 1 -2.85,-1.39 9.38,9.38 0 0 1 -1.71,-3 9.91,9.91 0 0 1 -0.7,-4.63 8.11,8.11 0 0 1 2.32,-4.45 c 0.3,0 1.27,-1.12 1.57,-1.35 l 0.08,-0.06 0.1,-0.08 c 0.2,-0.17 0.48,-0.41 0.75,-0.62 0.27,-0.21 0.25,-0.18 0.37,-0.25 l 0.1,-0.05 0.11,-0.05 a 2.21,2.21 0 0 1 0.57,0.36 v 0 c 0.37,0.27 0.73,0.61 0.92,0.75 0.19,0.14 1.27,1.35 1.58,1.35 a 8,8 0 0 1 2.31,4.45 9.67,9.67 0 0 1 -0.7,4.63 z"
       style="fill:#407bff"
       id="path543" />
    <path
       d="m 130.65,351.5 -0.11,0.05 -0.1,0.05 c -0.12,0.07 -0.24,0.16 -0.37,0.25 0.08,-0.23 0.21,-0.37 0.38,-0.39 a 0.51,0.51 0 0 1 0.2,0.04 z"
       style="fill:#407bff"
       id="path545" />
    <g
       style="opacity:0.2"
       id="g551">
      <path
         d="m 135.33,363 a 9,9 0 0 1 -1.7,3 3.81,3.81 0 0 1 -2.86,1.39 h -0.26 a 3.8,3.8 0 0 1 -2.85,-1.39 9.38,9.38 0 0 1 -1.71,-3 9.91,9.91 0 0 1 -0.7,-4.63 8.11,8.11 0 0 1 2.32,-4.45 c 0.3,0 1.27,-1.12 1.57,-1.35 0.3,-0.23 0.57,-0.49 0.93,-0.76 a 2.35,2.35 0 0 1 0.58,-0.35 2.24,2.24 0 0 1 0.58,0.36 c 0.37,0.27 0.73,0.61 0.92,0.75 0.19,0.14 1.27,1.35 1.58,1.35 a 8,8 0 0 1 2.31,4.45 9.67,9.67 0 0 1 -0.71,4.63 z"
         style="fill:#ffffff"
         id="path547" />
      <path
         d="m 130.65,351.5 a 2.35,2.35 0 0 0 -0.58,0.35 c 0.08,-0.23 0.21,-0.37 0.38,-0.39 a 0.51,0.51 0 0 1 0.2,0.04 z"
         style="fill:#ffffff"
         id="path549" />
    </g>
    <path
       d="m 131.23,351.86 a 2.24,2.24 0 0 0 -0.58,-0.36 0.5,0.5 0 0 1 0.19,0 c 0.16,-0.02 0.3,0.12 0.39,0.36 z"
       style="opacity:0.1;fill:#ffffff"
       id="path553" />
  </g>
  <g
     id="freepik--Character--inject-9"
     transform="matrix(1.122178,0,0,1.122178,-27.224435,-24.640106)">
    <path
       d="M 320.6,261.68 H 348 c 0.89,0 1.29,-0.72 0.89,-1.61 L 342,244.6 a 2.85,2.85 0 0 0 -2.34,-1.61 h -27.38 c -0.89,0 -1.29,0.72 -0.9,1.61 l 6.88,15.47 a 2.83,2.83 0 0 0 2.34,1.61 z"
       style="fill:#407bff"
       id="path556" />
    <path
       d="M 320.6,261.68 H 348 c 0.89,0 1.29,-0.72 0.89,-1.61 L 342,244.6 a 2.85,2.85 0 0 0 -2.34,-1.61 h -27.38 c -0.89,0 -1.29,0.72 -0.9,1.61 l 6.88,15.47 a 2.83,2.83 0 0 0 2.34,1.61 z"
       style="opacity:0.2"
       id="path558" />
    <path
       d="m 311.1,243 h 1.18 c -0.89,0 -1.29,0.72 -0.9,1.61 l 6.88,15.47 a 2.83,2.83 0 0 0 2.34,1.61 h -1.19 a 2.83,2.83 0 0 1 -2.33,-1.61 L 310.2,244.6 c -0.4,-0.89 0.01,-1.6 0.9,-1.6 z"
       style="fill:#407bff"
       id="path560" />
    <path
       d="m 311.1,243 h 1.18 c -0.89,0 -1.29,0.72 -0.9,1.61 l 6.88,15.47 a 2.83,2.83 0 0 0 2.34,1.61 h -1.19 a 2.83,2.83 0 0 1 -2.33,-1.61 L 310.2,244.6 c -0.4,-0.89 0.01,-1.6 0.9,-1.6 z"
       style="opacity:0.4"
       id="path562" />
    <polygon
       points="345.92,259.9 339.18,244.77 314.37,244.77 321.11,259.9 "
       style="fill:#263238"
       id="polygon564" />
    <polygon
       points="345.92,259.9 339.18,244.77 314.37,244.77 321.11,259.9 "
       style="opacity:0.8;fill:#ffffff"
       id="polygon566" />
    <polygon
       points="308.17,397.31 299.58,396.18 300.83,387.4 309.85,389.4 "
       style="fill:#fab27b"
       id="polygon568" />
    <path
       d="m 295.21,396.18 c -1.12,-0.11 -2.26,-0.43 -2.58,-0.95 a 0.8,0.8 0 0 1 0.1,-0.92 1.14,1.14 0 0 1 0.73,-0.44 c 1.54,-0.26 4.51,1.84 4.64,1.93 a 0.22,0.22 0 0 1 0.08,0.24 0.23,0.23 0 0 1 -0.19,0.16 16.14,16.14 0 0 1 -2.78,-0.02 z M 294,394.29 a 1.13,1.13 0 0 0 -0.41,0 0.57,0.57 0 0 0 -0.45,0.26 c -0.19,0.25 -0.14,0.38 -0.09,0.46 0.36,0.63 2.63,0.86 4.33,0.82 A 9.89,9.89 0 0 0 294,394.29 Z"
       style="fill:#407bff"
       id="path570" />
    <path
       d="m 298,396.19 a 0.15,0.15 0 0 1 -0.09,0 c -1,-0.58 -3,-2.75 -2.71,-3.74 0,-0.25 0.26,-0.53 0.85,-0.53 a 1.6,1.6 0 0 1 1.15,0.48 c 1.06,1.06 1.06,3.52 1.06,3.63 a 0.19,0.19 0 0 1 -0.11,0.18 0.2,0.2 0 0 1 -0.15,-0.02 z m -1.85,-3.87 h -0.12 c -0.38,0 -0.42,0.15 -0.45,0.2 -0.11,0.61 1.16,2.27 2.21,3 a 5.13,5.13 0 0 0 -0.92,-2.88 1.22,1.22 0 0 0 -0.72,-0.34 z"
       style="fill:#407bff"
       id="path572" />
    <path
       d="m 299,395 9.84,1 a 0.8,0.8 0 0 1 0.71,0.69 l 1,8.18 a 1.32,1.32 0 0 1 -1.14,1.49 h -0.28 c -3.54,-0.41 -6.68,-0.91 -11.09,-1.34 -5.22,-0.51 -3.95,0.24 -10.09,-0.27 -3.7,-0.31 -4,-4.58 -2.37,-4.63 7.25,-0.2 8.2,-2.29 11.22,-4.58 A 3.24,3.24 0 0 1 299,395 Z"
       style="fill:#263238"
       id="path574" />
    <polygon
       points="309.15,392.72 309.85,389.4 300.83,387.4 300.17,392.02 "
       style="opacity:0.2"
       id="polygon576" />
    <polygon
       points="298.97,386.23 312.15,387.27 327.49,325.5 307.45,323.93 "
       style="fill:#263238"
       id="polygon578" />
    <polygon
       points="298.97,386.23 312.15,387.27 327.49,325.5 307.45,323.93 "
       style="opacity:0.3"
       id="polygon580" />
    <path
       d="m 313.36,386.35 -15.88,-1.25 a 3.44,3.44 0 0 0 0.13,3.92 l 15.33,1.38 c 0,0 1.52,-0.88 0.42,-4.05 z"
       style="fill:#407bff"
       id="path582" />
    <path
       d="m 322.61,262.35 -3.23,-7.8 a 2.34,2.34 0 0 0 -1.16,-0.92 L 316.6,253 a 2.36,2.36 0 0 1 -0.91,-0.61 l -0.75,-0.81 a 2.33,2.33 0 0 0 -2.65,-0.55 l -0.7,0.3 a 2.32,2.32 0 0 0 -1.37,1.7 c -0.42,2.3 -0.75,7.33 3.41,10.71 l 4.65,1.91 z"
       style="fill:#fab27b"
       id="path584" />
    <polygon
       points="324.46,274.99 328.79,270.41 322.61,262.35 318.28,265.69 "
       style="fill:#fab27b"
       id="polygon586" />
    <path
       d="m 355.68,243.58 c -0.31,-0.63 -5.28,1.22 -11.09,4.14 -5.81,2.92 -10.27,5.8 -9.95,6.43 0.32,0.63 5.29,-1.22 11.1,-4.14 5.81,-2.92 10.26,-5.79 9.94,-6.43 z"
       style="fill:#263238"
       id="path588" />
    <path
       d="m 348.26,246 1.57,-0.69 1,2 c -0.47,0.28 -1,0.56 -1.49,0.85 z"
       style="fill:#407bff"
       id="path590" />
    <path
       d="m 348.26,246 1.57,-0.69 1,2 c -0.47,0.28 -1,0.56 -1.49,0.85 z"
       style="opacity:0.5;fill:#ffffff"
       id="path592" />
    <path
       d="m 353.9,243.39 c 0.28,-1.32 -5,1 -5.26,1.16 -0.26,0.16 -0.62,-0.4 -0.25,-0.58 0.37,-0.18 6.71,-3.22 6.14,-0.5 -0.08,0.39 -0.71,0.32 -0.63,-0.08 z"
       style="fill:#407bff"
       id="path594" />
    <g
       style="opacity:0.2"
       id="g598">
      <path
         d="m 353.9,243.39 c 0.28,-1.32 -5,1 -5.26,1.16 -0.26,0.16 -0.62,-0.4 -0.25,-0.58 0.37,-0.18 6.71,-3.22 6.14,-0.5 -0.08,0.39 -0.71,0.32 -0.63,-0.08 z"
         id="path596" />
    </g>
    <path
       d="m 354.18,264.53 -5.12,-8.7 a 16.42,16.42 0 0 0 -2.44,-8.43 19.66,19.66 0 0 0 -1.92,-1.72 24.91,24.91 0 0 0 -4,2.49 c -1.86,1.43 -2.35,2.46 -0.08,5.93 a 18.7,18.7 0 0 0 4.13,4.49 l 4.84,9.86 z"
       style="fill:#fab27b"
       id="path600" />
    <path
       d="M 355.33,263.48 353.11,260 a 10.34,10.34 0 0 0 -6.78,5.25 l 1.88,4.06 z"
       style="fill:#407bff"
       id="path602" />
    <path
       d="m 381,244.05 c -3.87,0.26 -7.24,-0.42 -13.86,20.43 a 27.85,27.85 0 0 1 -4.4,7.74 l -7.28,-10 c 0,0 -4.77,0.28 -8.07,6.11 0,0 5.62,18.83 16.16,17.47 10.54,-1.36 16.42,-13.46 18.74,-20.69 2.32,-7.23 7.32,-21.64 -1.29,-21.06 z"
       style="fill:#263238"
       id="path604" />
    <polygon
       points="361.52,240.98 372.35,241.03 372.59,232.89 362.24,234.54 "
       style="fill:#fab27b"
       id="polygon606" />
    <path
       d="m 362,237.65 c 2.73,-0.72 4.55,-3.94 4.55,-3.94 l -2.3,0.45 -2,0.38 z"
       style="opacity:0.2"
       id="path608" />
    <path
       d="m 359.28,216.43 c -0.2,0.51 -0.1,1 0.24,1.17 0.34,0.17 0.82,-0.19 1,-0.69 0.18,-0.5 0.1,-1 -0.25,-1.16 -0.35,-0.16 -0.78,0.17 -0.99,0.68 z"
       style="fill:#263238"
       id="path610" />
    <path
       d="m 360.62,217.8 -4.15,3 a 3.9,3.9 0 0 0 3.13,1.51 z"
       style="fill:#ed893e"
       id="path612" />
    <path
       d="m 361.27,213.34 a 0.28,0.28 0 0 1 0.23,0.15 2.27,2.27 0 0 0 1.67,1.23 0.27,0.27 0 0 1 0.26,0.3 0.31,0.31 0 0 1 -0.32,0.27 2.78,2.78 0 0 1 -2.13,-1.53 0.29,0.29 0 0 1 0.12,-0.39 v 0 a 0.25,0.25 0 0 1 0.17,-0.03 z"
       style="fill:#263238"
       id="path614" />
    <path
       d="m 380,222.36 c -2.43,6.91 -3.31,9.89 -8,12.52 -6.6,2.18 -15.19,-0.47 -14.92,-7.95 0.23,-6.73 4.16,-16.88 12,-17.81 a 10.17,10.17 0 0 1 11.39,8.69 9.79,9.79 0 0 1 -0.47,4.55 z"
       style="fill:#fab27b"
       id="path616" />
    <path
       d="m 383.42,228 a 52.87,52.87 0 0 0 -5,4.79 11.24,11.24 0 0 1 -3.4,2.48 11.5,11.5 0 0 1 -8.27,0.34 v 0 c 0,0 -7.21,-6.37 -2.4,-18.2 a 6.91,6.91 0 0 1 0.31,-11.47 c 2.27,-1.44 5.79,-0.53 7.89,1.15 a 8.88,8.88 0 0 1 8,2.35 18.06,18.06 0 0 1 4.42,7.41 13.8,13.8 0 0 1 0.93,7.3 7,7 0 0 1 -2.48,3.85 z"
       style="fill:#263238"
       id="path618" />
    <path
       d="m 365,220 a 5.7,5.7 0 0 0 -2.93,3.23 c -0.64,1.88 1.06,2.93 2.93,2.51 1.69,-0.39 4.05,-1.83 3.88,-3.77 A 2.61,2.61 0 0 0 365,220 Z"
       style="fill:#fab27b"
       id="path620" />
    <path
       d="m 374.73,236.76 c -2.4,-1 -6.73,-1.14 -13,-0.17 a 2.12,2.12 0 0 0 -1.48,1.44 1.23,1.23 0 0 0 0.79,1.66 c -0.05,0.91 -0.28,1.91 -0.33,2.83 a 37.44,37.44 0 0 1 5.48,0.3 68.45,68.45 0 0 1 8.41,1.12 11.47,11.47 0 0 1 -0.27,-4 1.45,1.45 0 0 0 1.46,-1.14 2.17,2.17 0 0 0 -1.06,-2.04 z"
       style="fill:#407bff"
       id="path622" />
    <path
       d="m 374.73,236.76 c -2.4,-1 -6.73,-1.14 -13,-0.17 a 2.12,2.12 0 0 0 -1.48,1.44 1.23,1.23 0 0 0 0.79,1.66 c -0.05,0.91 -0.28,1.91 -0.33,2.83 a 37.44,37.44 0 0 1 5.48,0.3 68.45,68.45 0 0 1 8.41,1.12 11.47,11.47 0 0 1 -0.27,-4 1.45,1.45 0 0 0 1.46,-1.14 2.17,2.17 0 0 0 -1.06,-2.04 z"
       style="fill:#407bff"
       id="path624" />
    <path
       d="m 345.16,305.36 c 0,0 -2.22,-29.7 -2.08,-51.13 0.1,-15.81 11.44,-13 26,-12.9 11.58,0.06 15.52,1.06 17.1,7.37 1.58,6.31 -6.18,56.83 -6.18,56.83 z"
       style="fill:#407bff"
       id="path626" />
    <path
       d="m 345.16,305.36 c 0,0 -2.22,-29.7 -2.08,-51.13 0.1,-15.81 11.44,-13 26,-12.9 11.58,0.06 15.52,1.06 17.1,7.37 1.58,6.31 -6.18,56.83 -6.18,56.83 z"
       style="opacity:0.5"
       id="path628" />
    <path
       d="m 323.76,263.43 a 4.46,4.46 0 0 0 -2.68,1 8.66,8.66 0 0 0 -2.75,3.69 v 0 a 12.36,12.36 0 0 0 -3.87,-4 l -0.09,-0.05 c 0.51,-7 6.27,-6.49 6.27,-6.49 l 0.14,0.36 a 30.49,30.49 0 0 0 2.98,5.49 z"
       style="fill:#407bff"
       id="path630" />
    <path
       d="m 323.76,263.43 a 4.46,4.46 0 0 0 -2.68,1 8.66,8.66 0 0 0 -2.75,3.69 v 0 a 12.36,12.36 0 0 0 -3.87,-4 l -0.09,-0.05 c 0.51,-7 6.27,-6.49 6.27,-6.49 l 0.14,0.36 a 30.49,30.49 0 0 0 2.98,5.49 z"
       style="opacity:0.2"
       id="path632" />
    <path
       d="m 339.1,288.39 c -10.63,-0.23 -20.82,-17.8 -20.82,-17.8 a 4.12,4.12 0 0 1 0.05,-2.44 8.66,8.66 0 0 1 2.75,-3.69 4.46,4.46 0 0 1 2.68,-1 5,5 0 0 1 1.94,0.27 c 0,0 7.84,9.67 9.75,8.8 1.91,-0.87 2.64,-4.08 3.34,-8.09 3.73,-21.42 7.82,-22.07 11.41,-22.16 7.46,-0.23 -1.69,46.31 -11.1,46.11 z"
       style="fill:#407bff"
       id="path634" />
    <g
       style="opacity:0.1"
       id="g638">
      <path
         d="m 339.1,288.39 c -10.63,-0.23 -20.82,-17.8 -20.82,-17.8 a 4.12,4.12 0 0 1 0.05,-2.44 8.66,8.66 0 0 1 2.75,-3.69 4.46,4.46 0 0 1 2.68,-1 5,5 0 0 1 1.94,0.27 c 0,0 7.84,9.67 9.75,8.8 1.91,-0.87 2.64,-4.08 3.34,-8.09 3.73,-21.42 7.82,-22.07 11.41,-22.16 7.46,-0.23 -1.69,46.31 -11.1,46.11 z"
         style="fill:#ffffff"
         id="path636" />
    </g>
    <path
       d="m 380,305.53 c 0,0 0.91,9.05 0.78,12.23 -0.67,16.87 -16.65,22.83 -29.39,20.49 l -45.26,-4.91 c -1.84,6.13 -23.16,39.89 -23.16,39.89 l -11.21,-6.44 c 0,0 11.62,-27.87 19.12,-47.26 4.29,-11.07 38.29,-11.4 51.13,-9.12 3.91,1 3.15,-5.05 3.15,-5.05 z"
       style="fill:#263238"
       id="path640" />
    <polygon
       points="275.83,380.99 267.84,377.02 271.99,368.89 280.11,373.85 "
       style="fill:#fab27b"
       id="polygon642" />
    <path
       d="m 263.59,375.55 c -1,-0.48 -2,-1.17 -2.19,-1.78 a 0.83,0.83 0 0 1 0.41,-0.87 1.16,1.16 0 0 1 0.85,-0.18 c 1.59,0.26 3.77,3.3 3.87,3.43 a 0.23,0.23 0 0 1 0,0.26 0.23,0.23 0 0 1 -0.24,0.09 16.33,16.33 0 0 1 -2.7,-0.95 z M 263,373.29 a 1.51,1.51 0 0 0 -0.41,-0.13 0.6,0.6 0 0 0 -0.52,0.1 c -0.26,0.18 -0.27,0.33 -0.24,0.42 0.14,0.73 2.27,1.73 3.94,2.25 A 10.24,10.24 0 0 0 263,373.29 Z"
       style="fill:#407bff"
       id="path644" />
    <path
       d="m 266.26,376.48 a 0.1,0.1 0 0 1 -0.08,-0.05 c -0.8,-0.91 -2,-3.68 -1.38,-4.55 0.12,-0.22 0.42,-0.42 1,-0.22 a 1.62,1.62 0 0 1 1,0.85 c 0.68,1.38 -0.14,3.77 -0.18,3.88 a 0.2,0.2 0 0 1 -0.17,0.14 0.17,0.17 0 0 1 -0.19,-0.05 z m -0.5,-4.38 -0.11,-0.06 c -0.37,-0.14 -0.46,0 -0.5,0 -0.32,0.55 0.36,2.6 1.13,3.7 a 5.16,5.16 0 0 0 0.06,-3.11 1.15,1.15 0 0 0 -0.58,-0.57 z"
       style="fill:#407bff"
       id="path646" />
    <path
       d="m 267.7,375.71 9.26,4.23 a 0.83,0.83 0 0 1 0.46,0.91 l -1.77,8.3 a 1.36,1.36 0 0 1 -1.65,1.05 0.9,0.9 0 0 1 -0.28,-0.08 c -3.31,-1.59 -6.19,-3.13 -10.34,-5 -4.9,-2.24 -3.93,-1.08 -9.73,-3.64 -3.49,-1.54 -2.32,-5.78 -0.76,-5.3 7.12,2.24 8.75,0.52 12.46,-0.7 a 3.25,3.25 0 0 1 2.35,0.23 z"
       style="fill:#263238"
       id="path648" />
    <polygon
       points="280.11,373.85 271.99,368.89 269.99,372.82 277.93,377.48 "
       style="opacity:0.2"
       id="polygon650" />
    <path
       d="m 284.75,373.81 -13.9,-8.67 a 3.54,3.54 0 0 0 -1.75,3.64 l 13.35,8.53 c 0,0 1.8,-0.08 2.3,-3.5 z"
       style="fill:#407bff"
       id="path652" />
    <path
       d="m 363.35,340.86 h 23 a 17,17 0 0 0 17,-15.69 l 3.28,-41.4 a 11.54,11.54 0 0 0 -11.51,-12.45 h -12.7 a 33.62,33.62 0 0 0 -32.21,24 l -8.83,29.57 a 11.71,11.71 0 0 1 -11.21,8.35 h -16.11 a 7.63,7.63 0 0 0 -7.63,7.63 h 56.92 z"
       style="fill:#407bff"
       id="path654" />
    <path
       d="m 353,340.86 c 0.63,9.85 2.33,45.73 -0.21,53.63 -2.23,6.95 -12.44,8.61 -18.48,12.29 -1,0.62 -0.66,2.59 0.46,2.59 h 47 c 1.12,0 1.47,-2 0.45,-2.59 -6,-3.68 -16.25,-5.34 -18.48,-12.29 -2.54,-7.9 -0.84,-43.78 -0.21,-53.63 z"
       style="fill:#407bff"
       id="path656" />
    <path
       d="m 353.42,348.31 h 9.67 c 0.16,-3 0.31,-5.6 0.43,-7.45 H 353 c 0.1,1.85 0.26,4.43 0.42,7.45 z"
       style="opacity:0.2"
       id="path658" />
    <path
       d="m 363.35,340.86 h 23 a 17,17 0 0 0 17,-15.69 l 3.28,-41.4 a 11.54,11.54 0 0 0 -11.51,-12.45 h -12.7 a 33.62,33.62 0 0 0 -32.21,24 l -8.83,29.57 a 11.71,11.71 0 0 1 -11.21,8.35 h -16.11 a 7.63,7.63 0 0 0 -7.63,7.63 h 56.92 z"
       style="opacity:0.7;fill:#ffffff"
       id="path660" />
  </g>
</svg>
