<svg xmlns="http://www.w3.org/2000/svg" xmlns:xlink="http://www.w3.org/1999/xlink" width="1000" zoomAndPan="magnify" viewBox="0 0 750 247.499998" height="330" preserveAspectRatio="xMidYMid meet" version="1.0"><defs><filter x="0%" y="0%" width="100%" height="100%" id="efd984d5b3"><feColorMatrix values="0 0 0 0 1 0 0 0 0 1 0 0 0 0 1 0 0 0 1 0" color-interpolation-filters="sRGB"/></filter><g/><clipPath id="4daedaa212"><path d="M 26 74.253906 L 111.078125 74.253906 L 111.078125 209.671875 L 26 209.671875 Z M 26 74.253906 " clip-rule="nonzero"/></clipPath><clipPath id="97de25d83d"><path d="M 111.078125 141.964844 L 25.453125 209.671875 L 25.453125 74.253906 L 111.078125 141.964844 " clip-rule="nonzero"/></clipPath><clipPath id="52a4411955"><path d="M 26 37.324219 L 111.078125 37.324219 L 111.078125 172.742188 L 26 172.742188 Z M 26 37.324219 " clip-rule="nonzero"/></clipPath><clipPath id="26c87334c3"><path d="M 111.078125 105.035156 L 25.453125 172.742188 L 25.453125 37.324219 L 111.078125 105.035156 " clip-rule="nonzero"/></clipPath><mask id="fa4a1594de"><g filter="url(#efd984d5b3)"><rect x="-75" width="900" fill="#000000" y="-24.75" height="296.999997" fill-opacity="0.498"/></g></mask><clipPath id="03279d9a4f"><path d="M 2 0.253906 L 87.078125 0.253906 L 87.078125 135.671875 L 2 135.671875 Z M 2 0.253906 " clip-rule="nonzero"/></clipPath><clipPath id="c0d03eaaa0"><path d="M 87.078125 67.964844 L 1.453125 135.671875 L 1.453125 0.253906 L 87.078125 67.964844 " clip-rule="nonzero"/></clipPath><clipPath id="73f683fd79"><rect x="0" width="88" y="0" height="136"/></clipPath></defs><g clip-path="url(#4daedaa212)"><g clip-path="url(#97de25d83d)"><path fill="#fd7883" d="M 111.078125 74.253906 L 111.078125 209.671875 L 26.441406 209.671875 L 26.441406 74.253906 Z M 111.078125 74.253906 " fill-opacity="1" fill-rule="nonzero"/></g></g><g clip-path="url(#52a4411955)"><g clip-path="url(#26c87334c3)"><path fill="#3545d4" d="M 111.078125 37.324219 L 111.078125 172.742188 L 26.441406 172.742188 L 26.441406 37.324219 Z M 111.078125 37.324219 " fill-opacity="1" fill-rule="nonzero"/></g></g><g mask="url(#fa4a1594de)"><g transform="matrix(1, 0, 0, 1, 24, 74)"><g clip-path="url(#73f683fd79)"><g clip-path="url(#03279d9a4f)"><g clip-path="url(#c0d03eaaa0)"><path fill="#fd7883" d="M 87.078125 0.253906 L 87.078125 135.671875 L 2.441406 135.671875 L 2.441406 0.253906 Z M 87.078125 0.253906 " fill-opacity="1" fill-rule="nonzero"/></g></g></g></g></g><g fill="#000000" fill-opacity="1"><g transform="translate(120.189406, 170.66459)"><g><path d="M 55.613281 -47.304688 C 57.988281 -51.414062 59.8125 -51.140625 59.8125 -63.558594 C 59.8125 -75.886719 47.578125 -86.023438 36.34375 -86.023438 L 22.738281 -86.023438 C 22.554688 -86.023438 22.28125 -86.023438 22.097656 -85.929688 C 11.324219 -85.566406 4.566406 -77.347656 4.566406 -67.300781 L 4.566406 0.640625 C 8.949219 0.640625 12.695312 -0.546875 15.617188 -2.648438 C 17.808594 -1.097656 20.636719 0 24.65625 0 L 42.191406 0 C 55.339844 0 62.738281 -13.242188 62.738281 -23.558594 L 62.738281 -31.324219 C 62.738281 -37.625 60.542969 -43.285156 55.613281 -47.304688 Z M 35.796875 -69.402344 C 39.085938 -69.402344 42.191406 -66.753906 42.191406 -63.46875 L 42.191406 -57.441406 C 42.191406 -54.152344 39.542969 -51.59375 36.34375 -51.59375 L 22.921875 -51.59375 L 22.921875 -69.402344 Z M 45.203125 -24.109375 C 45.203125 -20.089844 41.734375 -17.078125 37.988281 -16.894531 L 22.921875 -16.894531 C 22.921875 -17.078125 22.921875 -17.351562 22.921875 -17.535156 L 22.921875 -35.980469 L 37.988281 -35.980469 C 41.734375 -36.164062 45.203125 -32.691406 45.203125 -28.765625 Z M 45.203125 -24.109375 "/></g></g></g><g fill="#000000" fill-opacity="1"><g transform="translate(187.580566, 170.66459)"><g><path d="M 52.144531 -28.675781 C 54.425781 -29.863281 56.433594 -31.230469 58.171875 -32.875 C 61.09375 -35.523438 63.285156 -38.8125 64.929688 -42.738281 C 66.570312 -46.664062 67.300781 -51.230469 67.300781 -56.34375 L 67.300781 -56.617188 C 67.300781 -61.457031 66.570312 -65.75 65.109375 -69.585938 C 63.648438 -73.421875 61.550781 -76.617188 58.808594 -79.265625 C 56.160156 -81.914062 52.78125 -83.832031 48.945312 -85.199219 C 45.113281 -86.570312 40.726562 -87.300781 36.070312 -87.300781 L 23.46875 -87.300781 C 14.0625 -87.300781 3.742188 -78.441406 3.742188 -67.484375 L 3.742188 0 C 15.25 0 24.65625 -10.777344 24.65625 -24.199219 L 24.65625 -24.929688 L 33.238281 -24.929688 L 44.5625 -8.035156 C 50.316406 0.546875 60.636719 2.558594 69.21875 -3.195312 Z M 24.65625 -67.121094 L 34.425781 -67.121094 C 38.261719 -67.121094 41.183594 -66.113281 43.285156 -64.105469 C 45.386719 -62.1875 46.480469 -59.265625 46.480469 -55.523438 L 46.480469 -55.25 C 46.480469 -51.777344 45.386719 -49.039062 43.285156 -46.9375 C 41.183594 -44.929688 38.261719 -43.832031 34.519531 -43.832031 L 24.65625 -43.832031 Z M 24.65625 -67.121094 "/></g></g></g><g fill="#000000" fill-opacity="1"><g transform="translate(259.902789, 170.66459)"><g><path d="M 4.566406 -67.667969 L 4.566406 0.367188 C 15.617188 0.367188 24.472656 -7.851562 24.472656 -17.898438 L 24.472656 -85.929688 C 13.515625 -85.929688 4.566406 -77.710938 4.566406 -67.667969 Z M 4.566406 -67.667969 "/></g></g></g><g fill="#000000" fill-opacity="1"><g transform="translate(289.215209, 170.66459)"><g><path d="M 57.894531 -67.300781 L 57.894531 -35.886719 L 23.195312 -85.929688 C 12.875 -85.929688 4.566406 -77.53125 4.566406 -67.300781 L 4.566406 0.457031 C 14.886719 0.457031 23.195312 -7.851562 23.195312 -18.171875 L 23.195312 -52.78125 L 57.894531 -6.300781 L 57.894531 0.457031 C 68.214844 0.457031 76.980469 -7.945312 76.980469 -18.265625 L 76.980469 -85.929688 C 66.664062 -85.929688 57.894531 -77.53125 57.894531 -67.300781 Z M 57.894531 -67.300781 "/></g></g></g><g fill="#000000" fill-opacity="1"><g transform="translate(370.942983, 170.66459)"><g><path d="M 6.117188 -11.230469 C 7.398438 -8.492188 9.496094 -6.027344 11.960938 -4.109375 C 15.066406 -1.828125 18.8125 -0.367188 23.011719 0 L 51.503906 0 C 59.082031 -1.371094 65.660156 -7.851562 65.660156 -16.621094 L 65.75 -29.679688 C 65.75 -35.25 67.851562 -48.945312 53.878906 -48.945312 L 35.980469 -48.945312 C 35.980469 -39.90625 40.820312 -34.335938 48.492188 -32.964844 C 48.492188 -32.417969 48.398438 -31.777344 48.398438 -31.230469 L 48.398438 -18.265625 L 28.949219 -18.265625 C 26.027344 -18.265625 24.199219 -20.179688 23.835938 -23.011719 L 23.835938 -54.972656 C 23.742188 -55.25 23.742188 -55.613281 23.742188 -55.886719 L 23.742188 -61.730469 C 23.742188 -62.097656 23.742188 -62.371094 23.835938 -62.554688 C 24.199219 -65.203125 26.574219 -67.210938 29.132812 -67.484375 L 41.550781 -67.484375 L 41.550781 -65.292969 C 51.230469 -65.292969 57.441406 -72.050781 57.441406 -81 L 57.441406 -85.839844 L 20.730469 -85.839844 C 11.140625 -85.292969 4.566406 -78.261719 4.566406 -67.484375 C 4.566406 -67.484375 4.566406 -67.394531 4.566406 -67.300781 L 4.566406 -18.539062 C 4.566406 -15.890625 5.113281 -13.515625 6.117188 -11.230469 Z M 6.117188 -11.230469 "/></g></g></g><g fill="#000000" fill-opacity="1"><g transform="translate(441.530221, 170.66459)"><g><path d="M 17.988281 -85.382812 C 7.761719 -85.382812 -0.457031 -77.804688 -0.457031 -66.753906 L 23.378906 -66.753906 L 23.378906 0 C 34.425781 0 43.375 -8.21875 43.375 -18.355469 L 43.375 -66.753906 L 48.765625 -66.753906 C 58.992188 -66.753906 67.210938 -74.332031 67.210938 -85.382812 Z M 17.988281 -85.382812 "/></g></g></g><g fill="#000000" fill-opacity="1"><g transform="translate(508.464828, 170.66459)"><g><path d="M 56.253906 -82.917969 C 49.769531 -79.8125 45.292969 -73.601562 45.292969 -66.390625 L 45.292969 -20.273438 C 45.292969 -17.625 43.195312 -15.339844 40.453125 -15.25 C 40.453125 -15.25 40.453125 -15.25 40.363281 -15.25 L 29.953125 -15.25 C 28.492188 -15.25 27.304688 -15.707031 26.484375 -16.527344 C 25.476562 -17.441406 24.929688 -18.71875 24.929688 -20.089844 L 24.929688 -66.390625 C 24.929688 -73.421875 20.636719 -79.628906 14.335938 -82.734375 C 11.414062 -84.195312 8.128906 -85.109375 4.566406 -85.109375 L 4.566406 -16.984375 C 4.566406 -12.144531 6.574219 -7.671875 9.953125 -4.382812 C 10.320312 -4.019531 10.683594 -3.652344 11.140625 -3.289062 C 14.519531 0.0898438 19.359375 1.734375 24.65625 2.191406 C 27.667969 2.464844 31.046875 2.648438 34.519531 2.648438 C 35.339844 2.648438 36.34375 2.648438 37.53125 2.648438 C 41.914062 2.648438 43.195312 2.464844 45.660156 2.191406 C 49.039062 1.917969 52.144531 1.003906 54.792969 -0.457031 C 61.273438 -3.652344 65.660156 -9.863281 65.660156 -16.984375 L 65.660156 -85.109375 C 62.28125 -85.109375 59.082031 -84.289062 56.253906 -82.917969 Z M 56.253906 -82.917969 "/></g></g></g><g fill="#000000" fill-opacity="1"><g transform="translate(578.778109, 170.66459)"><g><path d="M 57.894531 -67.300781 L 57.894531 -35.886719 L 23.195312 -85.929688 C 12.875 -85.929688 4.566406 -77.53125 4.566406 -67.300781 L 4.566406 0.457031 C 14.886719 0.457031 23.195312 -7.851562 23.195312 -18.171875 L 23.195312 -52.78125 L 57.894531 -6.300781 L 57.894531 0.457031 C 68.214844 0.457031 76.980469 -7.945312 76.980469 -18.265625 L 76.980469 -85.929688 C 66.664062 -85.929688 57.894531 -77.53125 57.894531 -67.300781 Z M 57.894531 -67.300781 "/></g></g></g><g fill="#000000" fill-opacity="1"><g transform="translate(660.505873, 170.66459)"><g><path d="M 23.46875 -33.878906 L 43.195312 -33.878906 L 47.667969 -52.691406 L 23.46875 -52.691406 L 23.46875 -65.75 L 41.824219 -65.75 C 52.964844 -65.75 60.363281 -74.789062 60.363281 -86.023438 L 23.285156 -86.023438 C 12.417969 -86.023438 3.5625 -77.164062 3.5625 -66.207031 L 3.5625 -19.359375 C 3.5625 -8.585938 12.144531 0 22.921875 0 L 36.164062 0 C 47.304688 0 55.980469 -9.039062 55.980469 -20.273438 L 23.46875 -20.273438 Z M 23.46875 -33.878906 "/></g></g></g></svg>