<svg xmlns="http://www.w3.org/2000/svg" xmlns:xlink="http://www.w3.org/1999/xlink" width="1020" zoomAndPan="magnify" viewBox="0 0 765 247.499998" height="330" preserveAspectRatio="xMidYMid meet" version="1.0"><defs><filter x="0%" y="0%" width="100%" height="100%" id="9ba009a23e"><feColorMatrix values="0 0 0 0 1 0 0 0 0 1 0 0 0 0 1 0 0 0 1 0" color-interpolation-filters="sRGB"/></filter><g/><clipPath id="2b5440c045"><path d="M 12 74.253906 L 96.945312 74.253906 L 96.945312 209.671875 L 12 209.671875 Z M 12 74.253906 " clip-rule="nonzero"/></clipPath><clipPath id="99597c656f"><path d="M 96.945312 141.964844 L 11.320312 209.671875 L 11.320312 74.253906 L 96.945312 141.964844 " clip-rule="nonzero"/></clipPath><clipPath id="50b77850b5"><path d="M 12 37.324219 L 96.945312 37.324219 L 96.945312 172.742188 L 12 172.742188 Z M 12 37.324219 " clip-rule="nonzero"/></clipPath><clipPath id="0f8bf64218"><path d="M 96.945312 105.035156 L 11.320312 172.742188 L 11.320312 37.324219 L 96.945312 105.035156 " clip-rule="nonzero"/></clipPath><mask id="a6b5bd4eec"><g filter="url(#9ba009a23e)"><rect x="-76.5" width="918" fill="#000000" y="-24.75" height="296.999997" fill-opacity="0.498"/></g></mask><clipPath id="5ce08e3142"><path d="M 2 0.253906 L 86.945312 0.253906 L 86.945312 135.671875 L 2 135.671875 Z M 2 0.253906 " clip-rule="nonzero"/></clipPath><clipPath id="130fc3739d"><path d="M 86.945312 67.964844 L 1.320312 135.671875 L 1.320312 0.253906 L 86.945312 67.964844 " clip-rule="nonzero"/></clipPath><clipPath id="0c4e1b4d0a"><rect x="0" width="88" y="0" height="136"/></clipPath></defs><g clip-path="url(#2b5440c045)"><g clip-path="url(#99597c656f)"><path fill="#fd7883" d="M 96.945312 74.253906 L 96.945312 209.671875 L 12.308594 209.671875 L 12.308594 74.253906 Z M 96.945312 74.253906 " fill-opacity="1" fill-rule="nonzero"/></g></g><g clip-path="url(#50b77850b5)"><g clip-path="url(#0f8bf64218)"><path fill="#ffffff" d="M 96.945312 37.324219 L 96.945312 172.742188 L 12.308594 172.742188 L 12.308594 37.324219 Z M 96.945312 37.324219 " fill-opacity="1" fill-rule="nonzero"/></g></g><g mask="url(#a6b5bd4eec)"><g transform="matrix(1, 0, 0, 1, 10, 74)"><g clip-path="url(#0c4e1b4d0a)"><g clip-path="url(#5ce08e3142)"><g clip-path="url(#130fc3739d)"><path fill="#fd7883" d="M 86.945312 0.253906 L 86.945312 135.671875 L 2.308594 135.671875 L 2.308594 0.253906 Z M 86.945312 0.253906 " fill-opacity="1" fill-rule="nonzero"/></g></g></g></g></g><g fill="#ffffff" fill-opacity="1"><g transform="translate(111.941962, 170.655233)"><g><path d="M 55.617188 -47.304688 C 57.988281 -51.414062 59.816406 -51.140625 59.816406 -63.5625 C 59.816406 -75.890625 47.578125 -86.027344 36.347656 -86.027344 L 22.738281 -86.027344 C 22.558594 -86.027344 22.28125 -86.027344 22.101562 -85.933594 C 11.324219 -85.570312 4.566406 -77.351562 4.566406 -67.304688 L 4.566406 0.640625 C 8.949219 0.640625 12.695312 -0.546875 15.617188 -2.648438 C 17.808594 -1.097656 20.640625 0 24.65625 0 L 42.191406 0 C 55.339844 0 62.738281 -13.242188 62.738281 -23.5625 L 62.738281 -31.324219 C 62.738281 -37.625 60.546875 -43.285156 55.617188 -47.304688 Z M 35.796875 -69.40625 C 39.085938 -69.40625 42.191406 -66.757812 42.191406 -63.46875 L 42.191406 -57.441406 C 42.191406 -54.15625 39.542969 -51.597656 36.347656 -51.597656 L 22.921875 -51.597656 L 22.921875 -69.40625 Z M 45.203125 -24.109375 C 45.203125 -20.089844 41.734375 -17.078125 37.992188 -16.894531 L 22.921875 -16.894531 C 22.921875 -17.078125 22.921875 -17.351562 22.921875 -17.535156 L 22.921875 -35.980469 L 37.992188 -35.980469 C 41.734375 -36.164062 45.203125 -32.695312 45.203125 -28.765625 Z M 45.203125 -24.109375 "/></g></g></g><g fill="#ffffff" fill-opacity="1"><g transform="translate(184.355605, 170.655233)"><g><path d="M 52.144531 -28.675781 C 54.429688 -29.863281 56.4375 -31.234375 58.171875 -32.875 C 61.09375 -35.523438 63.285156 -38.8125 64.929688 -42.738281 C 66.574219 -46.667969 67.304688 -51.230469 67.304688 -56.347656 L 67.304688 -56.621094 C 67.304688 -61.460938 66.574219 -65.753906 65.113281 -69.589844 C 63.652344 -73.421875 61.550781 -76.621094 58.8125 -79.269531 C 56.164062 -81.917969 52.785156 -83.835938 48.949219 -85.203125 C 45.113281 -86.574219 40.730469 -87.304688 36.074219 -87.304688 L 23.46875 -87.304688 C 14.0625 -87.304688 3.746094 -78.445312 3.746094 -67.488281 L 3.746094 0 C 15.25 0 24.65625 -10.777344 24.65625 -24.199219 L 24.65625 -24.929688 L 33.242188 -24.929688 L 44.566406 -8.035156 C 50.320312 0.546875 60.636719 2.558594 69.222656 -3.195312 Z M 24.65625 -67.121094 L 34.429688 -67.121094 C 38.265625 -67.121094 41.1875 -66.117188 43.285156 -64.109375 C 45.386719 -62.191406 46.484375 -59.269531 46.484375 -55.523438 L 46.484375 -55.25 C 46.484375 -51.78125 45.386719 -49.039062 43.285156 -46.941406 C 41.1875 -44.929688 38.265625 -43.835938 34.519531 -43.835938 L 24.65625 -43.835938 Z M 24.65625 -67.121094 "/></g></g></g><g fill="#ffffff" fill-opacity="1"><g transform="translate(261.700283, 170.655233)"><g><path d="M 4.566406 -67.671875 L 4.566406 0.367188 C 15.617188 0.367188 24.472656 -7.855469 24.472656 -17.898438 L 24.472656 -85.933594 C 13.515625 -85.933594 4.566406 -77.714844 4.566406 -67.671875 Z M 4.566406 -67.671875 "/></g></g></g><g fill="#ffffff" fill-opacity="1"><g transform="translate(296.035359, 170.655233)"><g><path d="M 57.898438 -67.304688 L 57.898438 -35.890625 L 23.195312 -85.933594 C 12.875 -85.933594 4.566406 -77.535156 4.566406 -67.304688 L 4.566406 0.457031 C 14.886719 0.457031 23.195312 -7.855469 23.195312 -18.171875 L 23.195312 -52.785156 L 57.898438 -6.300781 L 57.898438 0.457031 C 68.21875 0.457031 76.984375 -7.945312 76.984375 -18.265625 L 76.984375 -85.933594 C 66.664062 -85.933594 57.898438 -77.535156 57.898438 -67.304688 Z M 57.898438 -67.304688 "/></g></g></g><g fill="#ffffff" fill-opacity="1"><g transform="translate(382.785544, 170.655233)"><g><path d="M 6.117188 -11.234375 C 7.398438 -8.492188 9.496094 -6.027344 11.964844 -4.109375 C 15.066406 -1.828125 18.8125 -0.367188 23.011719 0 L 51.507812 0 C 59.085938 -1.371094 65.660156 -7.855469 65.660156 -16.621094 L 65.753906 -29.679688 C 65.753906 -35.25 67.851562 -48.949219 53.878906 -48.949219 L 35.980469 -48.949219 C 35.980469 -39.90625 40.820312 -34.335938 48.492188 -32.96875 C 48.492188 -32.417969 48.402344 -31.78125 48.402344 -31.234375 L 48.402344 -18.265625 L 28.949219 -18.265625 C 26.027344 -18.265625 24.199219 -20.183594 23.835938 -23.011719 L 23.835938 -54.976562 C 23.742188 -55.25 23.742188 -55.617188 23.742188 -55.890625 L 23.742188 -61.734375 C 23.742188 -62.101562 23.742188 -62.375 23.835938 -62.554688 C 24.199219 -65.203125 26.574219 -67.214844 29.132812 -67.488281 L 41.550781 -67.488281 L 41.550781 -65.296875 C 51.230469 -65.296875 57.441406 -72.054688 57.441406 -81.003906 L 57.441406 -85.84375 L 20.730469 -85.84375 C 11.140625 -85.296875 4.566406 -78.265625 4.566406 -67.488281 C 4.566406 -67.488281 4.566406 -67.394531 4.566406 -67.304688 L 4.566406 -18.539062 C 4.566406 -15.890625 5.113281 -13.515625 6.117188 -11.234375 Z M 6.117188 -11.234375 "/></g></g></g><g fill="#ffffff" fill-opacity="1"><g transform="translate(458.395221, 170.655233)"><g><path d="M 17.992188 -85.386719 C 7.761719 -85.386719 -0.457031 -77.808594 -0.457031 -66.757812 L 23.378906 -66.757812 L 23.378906 0 C 34.429688 0 43.378906 -8.21875 43.378906 -18.355469 L 43.378906 -66.757812 L 48.765625 -66.757812 C 58.996094 -66.757812 67.214844 -74.335938 67.214844 -85.386719 Z M 17.992188 -85.386719 "/></g></g></g><g fill="#ffffff" fill-opacity="1"><g transform="translate(530.352298, 170.655233)"><g><path d="M 56.253906 -82.921875 C 49.769531 -79.816406 45.296875 -73.605469 45.296875 -66.390625 L 45.296875 -20.273438 C 45.296875 -17.625 43.195312 -15.34375 40.457031 -15.25 C 40.457031 -15.25 40.457031 -15.25 40.363281 -15.25 L 29.953125 -15.25 C 28.492188 -15.25 27.304688 -15.707031 26.484375 -16.53125 C 25.480469 -17.441406 24.929688 -18.722656 24.929688 -20.089844 L 24.929688 -66.390625 C 24.929688 -73.421875 20.640625 -79.632812 14.335938 -82.738281 C 11.414062 -84.199219 8.128906 -85.113281 4.566406 -85.113281 L 4.566406 -16.984375 C 4.566406 -12.144531 6.574219 -7.671875 9.953125 -4.382812 C 10.320312 -4.019531 10.683594 -3.652344 11.140625 -3.289062 C 14.519531 0.0898438 19.359375 1.734375 24.65625 2.191406 C 27.671875 2.464844 31.050781 2.648438 34.519531 2.648438 C 35.34375 2.648438 36.347656 2.648438 37.535156 2.648438 C 41.917969 2.648438 43.195312 2.464844 45.660156 2.191406 C 49.039062 1.917969 52.144531 1.003906 54.792969 -0.457031 C 61.277344 -3.652344 65.660156 -9.863281 65.660156 -16.984375 L 65.660156 -85.113281 C 62.28125 -85.113281 59.085938 -84.292969 56.253906 -82.921875 Z M 56.253906 -82.921875 "/></g></g></g><g fill="#ffffff" fill-opacity="1"><g transform="translate(605.688031, 170.655233)"><g><path d="M 57.898438 -67.304688 L 57.898438 -35.890625 L 23.195312 -85.933594 C 12.875 -85.933594 4.566406 -77.535156 4.566406 -67.304688 L 4.566406 0.457031 C 14.886719 0.457031 23.195312 -7.855469 23.195312 -18.171875 L 23.195312 -52.785156 L 57.898438 -6.300781 L 57.898438 0.457031 C 68.21875 0.457031 76.984375 -7.945312 76.984375 -18.265625 L 76.984375 -85.933594 C 66.664062 -85.933594 57.898438 -77.535156 57.898438 -67.304688 Z M 57.898438 -67.304688 "/></g></g></g><g fill="#ffffff" fill-opacity="1"><g transform="translate(692.438204, 170.655233)"><g><path d="M 23.46875 -33.878906 L 43.195312 -33.878906 L 47.671875 -52.695312 L 23.46875 -52.695312 L 23.46875 -65.753906 L 41.824219 -65.753906 C 52.96875 -65.753906 60.363281 -74.792969 60.363281 -86.027344 L 23.289062 -86.027344 C 12.421875 -86.027344 3.5625 -77.167969 3.5625 -66.210938 L 3.5625 -19.359375 C 3.5625 -8.585938 12.144531 0 22.921875 0 L 36.164062 0 C 47.304688 0 55.980469 -9.039062 55.980469 -20.273438 L 23.46875 -20.273438 Z M 23.46875 -33.878906 "/></g></g></g></svg>