<svg xmlns="http://www.w3.org/2000/svg" xmlns:xlink="http://www.w3.org/1999/xlink" viewBox="0 0 500 500"><defs><clipPath id="freepik--clip-path--inject-2"><rect x="179.18" y="112.32" width="168.47" height="328.77" rx="14.52" style="fill:#263238;stroke:#263238;stroke-linecap:round;stroke-linejoin:round"></rect></clipPath><clipPath id="freepik--clip-path-2--inject-2"><rect x="186.67" y="134.65" width="153.49" height="286.93" style="fill:#92E3A9;stroke:#263238;stroke-linecap:round;stroke-linejoin:round"></rect></clipPath><clipPath id="freepik--clip-path-3--inject-2"><path d="M242.3,272.22s4.25,22.92,3.4,30.56-2.55,10.61-18.25,13.58-31,5.94-29.71,24.62,14.85,53.47,14.85,53.47,1.7,18.25,9.76,29.71H404S377.26,378.75,365,356.68,345,316.36,335.67,307.45s-48.81-4.24-48.81-4.24-3-19.53-3.82-31.84-.84-15.27-.84-15.27S261,276,242.3,272.22Z" style="fill:#fff;stroke:#263238;stroke-linecap:round;stroke-linejoin:round"></path></clipPath><clipPath id="freepik--clip-path-4--inject-2"><path d="M251.41,176.71a33.1,33.1,0,0,0-21,19.87c-6.26,16.2-.5,17.73-3.27,29.61-5.08,21.75,6.21,41.79,12.1,47.68S249.2,282,256.19,282s24.29-16.92,27.6-23.55,1.47-32,0-41.22S259.87,180.76,251.41,176.71Z" style="fill:#fff;stroke:#263238;stroke-linecap:round;stroke-linejoin:round"></path></clipPath><clipPath id="freepik--clip-path-5--inject-2"><circle cx="206.89" cy="150.31" r="10.6" transform="translate(-45.69 190.32) rotate(-45)" style="fill:#fff"></circle></clipPath></defs><g id="freepik--background-simple--inject-2"><path d="M88,198.67s-14.4,63.52,27.23,119.22S229,395.6,286.91,415s112-2.2,132-50.89S397.65,288.82,388.19,225s-2.37-82.16-44.89-131S214.17,45.73,155.93,95.2,88,198.67,88,198.67Z" style="fill:#92E3A9"></path><path d="M88,198.67s-14.4,63.52,27.23,119.22S229,395.6,286.91,415s112-2.2,132-50.89S397.65,288.82,388.19,225s-2.37-82.16-44.89-131S214.17,45.73,155.93,95.2,88,198.67,88,198.67Z" style="fill:#fff;opacity:0.7000000000000001"></path></g><g id="freepik--Graphics--inject-2"><line x1="149.61" y1="143.95" x2="149.61" y2="152.82" style="fill:none;stroke:#263238;stroke-linecap:round;stroke-linejoin:round"></line><line x1="154.04" y1="148.39" x2="145.17" y2="148.39" style="fill:none;stroke:#263238;stroke-linecap:round;stroke-linejoin:round"></line><line x1="371.3" y1="120.55" x2="371.3" y2="129.42" style="fill:none;stroke:#263238;stroke-linecap:round;stroke-linejoin:round"></line><line x1="375.74" y1="124.98" x2="366.87" y2="124.98" style="fill:none;stroke:#263238;stroke-linecap:round;stroke-linejoin:round"></line><line x1="393.26" y1="359.85" x2="393.26" y2="368.72" style="fill:none;stroke:#263238;stroke-linecap:round;stroke-linejoin:round"></line><line x1="397.7" y1="364.29" x2="388.83" y2="364.29" style="fill:none;stroke:#263238;stroke-linecap:round;stroke-linejoin:round"></line><line x1="266.78" y1="70.3" x2="266.78" y2="79.17" style="fill:none;stroke:#263238;stroke-linecap:round;stroke-linejoin:round"></line><line x1="271.21" y1="74.73" x2="262.34" y2="74.73" style="fill:none;stroke:#263238;stroke-linecap:round;stroke-linejoin:round"></line><line x1="245.3" y1="51.88" x2="245.3" y2="60.75" style="fill:none;stroke:#263238;stroke-linecap:round;stroke-linejoin:round"></line><line x1="249.74" y1="56.32" x2="240.87" y2="56.32" style="fill:none;stroke:#263238;stroke-linecap:round;stroke-linejoin:round"></line><line x1="124.76" y1="209.17" x2="124.76" y2="218.04" style="fill:none;stroke:#263238;stroke-linecap:round;stroke-linejoin:round"></line><line x1="129.19" y1="213.61" x2="120.32" y2="213.61" style="fill:none;stroke:#263238;stroke-linecap:round;stroke-linejoin:round"></line><circle cx="360" cy="88.58" r="7.33" transform="translate(191.32 418.72) rotate(-76.76)" style="fill:none;stroke:#263238;stroke-linecap:round;stroke-linejoin:round"></circle><line x1="129.96" y1="398.03" x2="129.96" y2="406.9" style="fill:none;stroke:#263238;stroke-linecap:round;stroke-linejoin:round"></line><line x1="134.39" y1="402.47" x2="125.52" y2="402.47" style="fill:none;stroke:#263238;stroke-linecap:round;stroke-linejoin:round"></line><circle cx="118.65" cy="366.06" r="7.33" transform="translate(-264.86 397.72) rotate(-76.76)" style="fill:none;stroke:#263238;stroke-linecap:round;stroke-linejoin:round"></circle><circle cx="133.04" cy="158.31" r="7.33" transform="translate(-51.9 65.8) rotate(-23.38)" style="fill:none;stroke:#263238;stroke-linecap:round;stroke-linejoin:round"></circle><circle cx="374.86" cy="349.22" r="7.33" transform="translate(-104.78 169.15) rotate(-22.39)" style="fill:none;stroke:#263238;stroke-linecap:round;stroke-linejoin:round"></circle><circle cx="389.11" cy="266.78" r="7.33" transform="translate(-76.92 193.36) rotate(-25.48)" style="fill:none;stroke:#263238;stroke-linecap:round;stroke-linejoin:round"></circle><path d="M400.66,163.58a1.67,1.67,0,0,1-3.33,0,1.67,1.67,0,1,1,3.33,0Z" style="fill:none;stroke:#263238;stroke-linecap:round;stroke-linejoin:round"></path><path d="M380,374.28a1.67,1.67,0,1,1-1.67-1.67A1.67,1.67,0,0,1,380,374.28Z" style="fill:none;stroke:#263238;stroke-linecap:round;stroke-linejoin:round"></path><path d="M360.72,302.58a1.67,1.67,0,0,1-3.33,0,1.67,1.67,0,1,1,3.33,0Z" style="fill:none;stroke:#263238;stroke-linecap:round;stroke-linejoin:round"></path><path d="M379.34,256.23a1.67,1.67,0,0,1-3.33,0,1.67,1.67,0,1,1,3.33,0Z" style="fill:none;stroke:#263238;stroke-linecap:round;stroke-linejoin:round"></path><path d="M227.29,66.42a1.67,1.67,0,1,1-1.67-1.67A1.67,1.67,0,0,1,227.29,66.42Z" style="fill:none;stroke:#263238;stroke-linecap:round;stroke-linejoin:round"></path></g><g id="freepik--Plants--inject-2"><path d="M397.4,134.52s1.78-5.21-3-15S386.31,104,386.31,104s-7.74,10.73-3.45,20.34a135.45,135.45,0,0,0,11.34,19.57Z" style="fill:#92E3A9"></path><path d="M375.71,163.43s1.78-5.21-3-15-8.07-15.55-8.07-15.55-7.73,10.74-3.45,20.34a135.45,135.45,0,0,0,11.34,19.57Z" style="fill:#92E3A9"></path><path d="M393.91,143.23s2.32-5,12.56-8.73,16.58-5.65,16.58-5.65-1.84,13.1-11.58,17.08a135.16,135.16,0,0,1-21.73,6.28Z" style="fill:#92E3A9"></path><path d="M368,177.28s2.83-4.72,13.4-7.37S398.5,166,398.5,166s-3.21,12.83-13.31,15.76a135,135,0,0,1-22.27,4Z" style="fill:#92E3A9"></path><path d="M356.12,220s1.78-5.21,11.56-10,15.89-7.37,15.89-7.37-.45,13.23-9.71,18.21a135.42,135.42,0,0,1-20.94,8.55Z" style="fill:#92E3A9"></path><path d="M352.51,230.16s2.5-4.9-.87-15.27-5.77-16.53-5.77-16.53-9.19,9.52-6.31,19.64A135.18,135.18,0,0,0,348,239Z" style="fill:#92E3A9"></path><path d="M335,258s1.78-5.2,11.56-10,15.89-7.36,15.89-7.36-.44,13.22-9.7,18.2a135.33,135.33,0,0,1-21,8.55Z" style="fill:#92E3A9"></path><path d="M330.46,287.13s.4-5.48,8.65-12.61,13.51-11.15,13.51-11.15,2.92,12.91-4.78,20.07A135.5,135.5,0,0,1,329.74,297Z" style="fill:#92E3A9"></path><path d="M398.52,133.41A158.72,158.72,0,0,1,391,148.9c-8,13.9-18.45,21-25.93,33.52S360,215,351.84,231.56s-18.12,23.83-20.14,36-2.58,46.85-2.58,46.85" style="fill:none;stroke:#263238;stroke-linecap:round;stroke-linejoin:round;stroke-width:0.5px"></path><line x1="392.66" y1="146.67" x2="402.58" y2="143.32" style="fill:none;stroke:#263238;stroke-linecap:round;stroke-linejoin:round;stroke-width:0.5px"></line><line x1="395.4" y1="139.85" x2="394.1" y2="132.88" style="fill:none;stroke:#263238;stroke-linecap:round;stroke-linejoin:round;stroke-width:0.5px"></line><path d="M365.72,182s8.26-2.69,16.71-5.31" style="fill:none;stroke:#263238;stroke-linecap:round;stroke-linejoin:round;stroke-width:0.5px"></path><path d="M372.51,172.8s-1.81-12.61-5.59-21.86" style="fill:none;stroke:#263238;stroke-linecap:round;stroke-linejoin:round;stroke-width:0.5px"></path><path d="M353.85,227.48a85.68,85.68,0,0,1,20.49-14" style="fill:none;stroke:#263238;stroke-linecap:round;stroke-linejoin:round;stroke-width:0.5px"></path><path d="M350.07,234.35a97.74,97.74,0,0,0-2.51-16c-1.9-7-2.2-7.89-2.2-7.89" style="fill:none;stroke:#263238;stroke-linecap:round;stroke-linejoin:round;stroke-width:0.5px"></path><path d="M331.7,267.58a91.81,91.81,0,0,1,10-10,80.65,80.65,0,0,1,11.11-7.43" style="fill:none;stroke:#263238;stroke-linecap:round;stroke-linejoin:round;stroke-width:0.5px"></path><path d="M329.74,297s1.36-6.5,5.91-10.86,10-10.25,12.24-12.55" style="fill:none;stroke:#263238;stroke-linecap:round;stroke-linejoin:round;stroke-width:0.5px"></path><path d="M325.9,187.79s.55-3.46,6.16-7.53,9.16-6.35,9.16-6.35,1.16,8.34-4.11,12.47a86,86,0,0,1-12.2,7.64Z" style="fill:#92E3A9"></path><path d="M329.49,210.51s.55-3.46,6.16-7.53,9.17-6.35,9.17-6.35S346,205,340.71,209.1a86.38,86.38,0,0,1-12.21,7.64Z" style="fill:#92E3A9"></path><path d="M325.27,193.73s.18-3.5-4.47-8.65-7.64-8.11-7.64-8.11-2.87,7.92,1.43,13.05a86.42,86.42,0,0,0,10.35,10Z" style="fill:#92E3A9"></path><path d="M329.7,220.59s-.19-3.49-5.34-8.13-8.46-7.26-8.46-7.26-2,8.17,2.79,12.83A86.34,86.34,0,0,0,330,226.89Z" style="fill:#92E3A9"></path><path d="M323.68,248.15s.55-3.45-3.52-9.07-6.75-8.87-6.75-8.87-3.68,7.57,0,13.13a85.09,85.09,0,0,0,9.24,11Z" style="fill:#92E3A9"></path><path d="M322.69,255s.05-3.51,5-8.33,8.17-7.59,8.17-7.59,2.33,8.09-2.3,12.93a86.69,86.69,0,0,1-11,9.29Z" style="fill:#92E3A9"></path><path d="M322.84,284.43s1.51-3.17,8-5.49,10.58-3.51,10.58-3.51-1.24,8.33-7.46,10.81a86.43,86.43,0,0,1-13.86,3.88Z" style="fill:#92E3A9"></path><path d="M324.26,275.84s.55-3.46-3.52-9.07-6.75-8.88-6.75-8.88-3.68,7.57.05,13.13a85.43,85.43,0,0,0,9.23,11Z" style="fill:#92E3A9"></path><path d="M318.13,293.57s1.41-3.21-1.11-9.67-4.28-10.3-4.28-10.3-5.48,6.4-3.28,12.72a85.19,85.19,0,0,0,6.14,13Z" style="fill:#92E3A9"></path><path d="M325.6,186.84a98.75,98.75,0,0,0-.38,10.95c.34,10.19,4.11,17.33,4.61,26.57s-6.83,19.87-7.18,31.58,3.1,18.8.6,26.25-12.49,27.13-12.49,27.13" style="fill:none;stroke:#263238;stroke-linecap:round;stroke-linejoin:round;stroke-width:0.5px"></path><line x1="324.95" y1="196.04" x2="320.37" y2="191.2" style="fill:none;stroke:#263238;stroke-linecap:round;stroke-linejoin:round;stroke-width:0.5px"></line><line x1="325.44" y1="191.39" x2="328.24" y2="187.85" style="fill:none;stroke:#263238;stroke-linecap:round;stroke-linejoin:round;stroke-width:0.5px"></line><path d="M329.6,223.9s-3.85-4-7.82-8" style="fill:none;stroke:#263238;stroke-linecap:round;stroke-linejoin:round;stroke-width:0.5px"></path><path d="M328.5,216.74a70.73,70.73,0,0,1,9.66-10.64" style="fill:none;stroke:#263238;stroke-linecap:round;stroke-linejoin:round;stroke-width:0.5px"></path><path d="M322.73,253.05a54.79,54.79,0,0,0-7.36-14" style="fill:none;stroke:#263238;stroke-linecap:round;stroke-linejoin:round;stroke-width:0.5px"></path><path d="M322.81,258a61.67,61.67,0,0,1,6.16-8.23c3.15-3.36,3.59-3.79,3.59-3.79" style="fill:none;stroke:#263238;stroke-linecap:round;stroke-linejoin:round;stroke-width:0.5px"></path><path d="M321.07,287.75s5.25-3.27,8.13-4.18a33.44,33.44,0,0,0,5.06-2.06" style="fill:none;stroke:#263238;stroke-linecap:round;stroke-linejoin:round;stroke-width:0.5px"></path><path d="M323.25,282.19a58.26,58.26,0,0,0-2.67-8.58,50.89,50.89,0,0,0-4-7.48" style="fill:none;stroke:#263238;stroke-linecap:round;stroke-linejoin:round;stroke-width:0.5px"></path><path d="M315.6,299.34a15,15,0,0,0-.09-7.87c-1.27-3.81-2.6-8.75-3.16-10.71" style="fill:none;stroke:#263238;stroke-linecap:round;stroke-linejoin:round;stroke-width:0.5px"></path><path d="M143.53,242.43s-1.65-4.76-10.6-9.11-14.55-6.67-14.55-6.67.45,12.08,8.93,16.6A124,124,0,0,0,146.49,251Z" style="fill:#92E3A9"></path><path d="M144.14,275.45s-1.64-4.76-10.6-9.11S119,259.67,119,259.67s.46,12.08,8.94,16.6A124.13,124.13,0,0,0,147.1,284Z" style="fill:#92E3A9"></path><path d="M145.91,250.66s-1.13-4.89,4.14-13.34,8.77-13.39,8.77-13.39,6,10.48,1.26,18.81A124.46,124.46,0,0,1,148,259.48Z" style="fill:#92E3A9"></path><path d="M146.37,289.75s-.61-5,5.52-12.83S162,264.53,162,264.53s4.9,11.05-.73,18.83a123.85,123.85,0,0,1-13.83,15.38Z" style="fill:#92E3A9"></path><path d="M161.79,327.21s-1.64-4.75,2.71-13.71,7.31-14.23,7.31-14.23,7.11,9.78,3.23,18.57a123.29,123.29,0,0,1-10.29,17.93Z" style="fill:#92E3A9"></path><path d="M164.91,336.58s-1-4.94-9.2-10.52-13.45-8.67-13.45-8.67-1.27,12,6.48,17.7a124.07,124.07,0,0,0,17.88,10.38Z" style="fill:#92E3A9"></path><path d="M167.91,366.49s-1.64-4.75,2.71-13.7,7.31-14.24,7.31-14.24,7.11,9.78,3.24,18.57a123.91,123.91,0,0,1-10.3,17.93Z" style="fill:#92E3A9"></path><path d="M181,390s-2.8-4.18-.85-13.95,3.46-15.62,3.46-15.62,9.36,7.66,7.83,17.15a123.83,123.83,0,0,1-5.41,19.95Z" style="fill:#92E3A9"></path><path d="M143.71,241A141.68,141.68,0,0,1,147,256.39c2.07,14.49-1.47,25.54.15,38.72s14.64,26.38,18.07,42.85.33,27.35,5.73,37.27,24.45,35.22,24.45,35.22" style="fill:none;stroke:#263238;stroke-linecap:round;stroke-linejoin:round;stroke-width:0.5px"></path><line x1="146.94" y1="253.85" x2="152.2" y2="245.86" style="fill:none;stroke:#263238;stroke-linecap:round;stroke-linejoin:round;stroke-width:0.5px"></line><line x1="145.08" y1="247.39" x2="140.23" y2="243.1" style="fill:none;stroke:#263238;stroke-linecap:round;stroke-linejoin:round;stroke-width:0.5px"></line><path d="M147.34,294.41s4.45-6.58,9.06-13.22" style="fill:none;stroke:#263238;stroke-linecap:round;stroke-linejoin:round;stroke-width:0.5px"></path><path d="M147.1,284s-8.39-8.07-16.31-12.62" style="fill:none;stroke:#263238;stroke-linecap:round;stroke-linejoin:round;stroke-width:0.5px"></path><path d="M164.37,333.89a78.48,78.48,0,0,1,6.89-21.62" style="fill:none;stroke:#263238;stroke-linecap:round;stroke-linejoin:round;stroke-width:0.5px"></path><path d="M165.51,341a88.53,88.53,0,0,0-10.78-10.09c-5.29-4-6-4.46-6-4.46" style="fill:none;stroke:#263238;stroke-linecap:round;stroke-linejoin:round;stroke-width:0.5px"></path><path d="M170.94,375.23a84.06,84.06,0,0,1,1.62-12.81,74.3,74.3,0,0,1,3.83-11.59" style="fill:none;stroke:#263238;stroke-linecap:round;stroke-linejoin:round;stroke-width:0.5px"></path><path d="M186.06,397.55a21.63,21.63,0,0,1-1.85-11.15c.83-5.7,1.47-13,1.78-15.93" style="fill:none;stroke:#263238;stroke-linecap:round;stroke-linejoin:round;stroke-width:0.5px"></path><path d="M121.93,321s-1.55-2.8.21-8.89,3-9.72,3-9.72,5.52,5.36,4,11.29A79.07,79.07,0,0,1,124.71,326Z" style="fill:#92E3A9"></path><path d="M137.28,335.35s-1.55-2.81.21-8.89,3-9.73,3-9.73,5.52,5.36,4,11.3a78.55,78.55,0,0,1-4.5,12.36Z" style="fill:#92E3A9"></path><path d="M124.81,325.63S123,323,116.73,321.9s-10.06-1.55-10.06-1.55,2.38,7.32,8.36,8.6a78.58,78.58,0,0,0,13.08,1.4Z" style="fill:#92E3A9"></path><path d="M143.1,342.49s-2.1-2.41-8.42-2.85-10.18-.49-10.18-.49,3.14,7,9.22,7.68a78.86,78.86,0,0,0,13.16,0Z" style="fill:#92E3A9"></path><path d="M154.24,365.74s-1.54-2.8-7.63-4.56-9.85-2.61-9.85-2.61,1.6,7.53,7.41,9.44A79,79,0,0,0,157,370.78Z" style="fill:#92E3A9"></path><path d="M157.35,371.2s-1.93-2.55-1.06-8.83,1.63-10.05,1.63-10.05,6.22,4.52,5.61,10.6a78.93,78.93,0,0,1-2.71,12.88Z" style="fill:#92E3A9"></path><path d="M174,392.35s-.7-3.12,2.7-8.47,5.66-8.47,5.66-8.47,3.79,6.7.7,12A78.63,78.63,0,0,1,175.27,398Z" style="fill:#92E3A9"></path><path d="M170.21,385.36s-1.54-2.8-7.63-4.56-9.85-2.6-9.85-2.6,1.6,7.53,7.41,9.44A79,79,0,0,0,173,390.41Z" style="fill:#92E3A9"></path><path d="M175.76,401.58s-.79-3.1-6.24-6.34-8.86-5-8.86-5-.36,7.68,4.77,11a78.72,78.72,0,0,0,11.74,5.94Z" style="fill:#92E3A9"></path><path d="M121.17,320.47a93.56,93.56,0,0,0,5.88,8.11c6,7.15,12.71,10.18,18.25,16.56s6.25,18.16,12.57,26.79,12.8,11.81,15.19,18.58,6.24,26.57,6.24,26.57" style="fill:none;stroke:#263238;stroke-linecap:round;stroke-linejoin:round;stroke-width:0.5px"></path><line x1="125.88" y1="327.47" x2="119.86" y2="326.56" style="fill:none;stroke:#263238;stroke-linecap:round;stroke-linejoin:round;stroke-width:0.5px"></line><line x1="123.62" y1="323.84" x2="123.65" y2="319.72" style="fill:none;stroke:#263238;stroke-linecap:round;stroke-linejoin:round;stroke-width:0.5px"></line><path d="M144.89,344.94s-5-.7-10.11-1.35" style="fill:none;stroke:#263238;stroke-linecap:round;stroke-linejoin:round;stroke-width:0.5px"></path><path d="M140.07,340.39a64,64,0,0,1,1-13.09" style="fill:none;stroke:#263238;stroke-linecap:round;stroke-linejoin:round;stroke-width:0.5px"></path><path d="M156.31,369.8a49.83,49.83,0,0,0-13.16-5.94" style="fill:none;stroke:#263238;stroke-linecap:round;stroke-linejoin:round;stroke-width:0.5px"></path><path d="M159.17,373.35A56.33,56.33,0,0,1,159,364c.38-4.19.46-4.74.46-4.74" style="fill:none;stroke:#263238;stroke-linecap:round;stroke-linejoin:round;stroke-width:0.5px"></path><path d="M174.61,395.74a46.55,46.55,0,0,1,3.51-7.58,32,32,0,0,0,2.49-4.33" style="fill:none;stroke:#263238;stroke-linecap:round;stroke-linejoin:round;stroke-width:0.5px"></path><path d="M173.06,390.51a53.19,53.19,0,0,0-6.75-4.68,46.47,46.47,0,0,0-7.11-3.13" style="fill:none;stroke:#263238;stroke-linecap:round;stroke-linejoin:round;stroke-width:0.5px"></path><path d="M177.17,407.17a13.71,13.71,0,0,0-4.48-5.62c-3.05-2-6.79-4.85-8.29-5.95" style="fill:none;stroke:#263238;stroke-linecap:round;stroke-linejoin:round;stroke-width:0.5px"></path></g><g id="freepik--Device--inject-2"><rect x="179.18" y="112.32" width="168.47" height="328.77" rx="14.52" style="fill:#263238"></rect><g style="clip-path:url(#freepik--clip-path--inject-2)"><path d="M193.7,112.32a14.52,14.52,0,0,0-14.52,14.52V426.57a14.5,14.5,0,0,0,5.21,11.14l98.29-325.39Z" style="fill:#fff;opacity:0.1"></path><path d="M269.14,431.58a5.73,5.73,0,1,0-5.72,5.73A5.72,5.72,0,0,0,269.14,431.58Z" style="fill:none;stroke:#fff;stroke-linecap:round;stroke-linejoin:round"></path></g><rect x="179.18" y="112.32" width="168.47" height="328.77" rx="14.52" style="fill:none;stroke:#263238;stroke-linecap:round;stroke-linejoin:round"></rect><rect x="186.67" y="134.65" width="153.49" height="286.93" style="fill:#92E3A9"></rect><g style="clip-path:url(#freepik--clip-path-2--inject-2)"><path d="M286.44,173.34c-22.92-12.31-39.05-3.82-39.05-3.82s-18.25,3.39-31.83,26.31-23.34,68.75-10.18,92.52,39,33.1,68.33,30.56,49.23-42.87,49.23-73.42S309.36,185.64,286.44,173.34ZM208.35,280.71a94.69,94.69,0,0,1-.43-30.13s5.1,41.59,9.34,50.93C217.26,301.51,211.32,296,208.35,280.71Z" style="fill:#263238;stroke:#263238;stroke-linecap:round;stroke-linejoin:round"></path><path d="M228.75,195.17s-18.64,27.38-20.83,55.41" style="fill:none;stroke:#8c8c8c;stroke-linecap:round;stroke-linejoin:round"></path><path d="M242.3,272.22s4.25,22.92,3.4,30.56-2.55,10.61-18.25,13.58-31,5.94-29.71,24.62,14.85,53.47,14.85,53.47,1.7,18.25,9.76,29.71H404S377.26,378.75,365,356.68,345,316.36,335.67,307.45s-48.81-4.24-48.81-4.24-3-19.53-3.82-31.84-.84-15.27-.84-15.27S261,276,242.3,272.22Z" style="fill:#fff"></path><g style="clip-path:url(#freepik--clip-path-3--inject-2)"><g style="opacity:0.2"><path d="M242.3,272.22s1.66,9,2.7,17.57a23.81,23.81,0,0,0,7.25,3.68c13.43,4.32,26.37,0,26.37,0l6.35-3.88c-.76-5.94-1.55-12.78-1.93-18.22-.84-12.3-.84-15.27-.84-15.27S261,276,242.3,272.22Z"></path><path d="M381.93,386.37c-6.25-10.78-12.55-21.75-17-29.69-12.3-22.07-19.94-40.32-29.28-49.23-4-3.86-13.75-5.17-23.45-5.42l12,14,56.58,78.16Z"></path></g></g><path d="M242.3,272.22s4.25,22.92,3.4,30.56-2.55,10.61-18.25,13.58-31,5.94-29.71,24.62,14.85,53.47,14.85,53.47,1.7,18.25,9.76,29.71H404S377.26,378.75,365,356.68,345,316.36,335.67,307.45s-48.81-4.24-48.81-4.24-3-19.53-3.82-31.84-.84-15.27-.84-15.27S261,276,242.3,272.22Z" style="fill:none;stroke:#263238;stroke-linecap:round;stroke-linejoin:round"></path><path d="M354.87,424.16l-16.23-22.49s-6.79,8.49-22.07,1.27-22.49-25.89-22.49-39.47c0-12.89,3.44-56.73,3.79-61.17-2.45.14-4.63.3-6.39.45-.63,4.49-6.61,46.43-11.83,63.69-5.52,18.25-16.13,24.19-36.92,17s-9.77-43.29-8.49-51.35c.79-5,4-13.76,6.37-19.69a25.92,25.92,0,0,1-6.17,2.4,339.15,339.15,0,0,0-17.6,45.3,117.58,117.58,0,0,0-4.56,33.56l.31.81s1.7,18.25,9.76,29.71Z" style="fill:gray;stroke:#263238;stroke-linecap:round;stroke-linejoin:round"></path><path d="M251.41,176.71a33.1,33.1,0,0,0-21,19.87c-6.26,16.2-.5,17.73-3.27,29.61-5.08,21.75,6.21,41.79,12.1,47.68S249.2,282,256.19,282s24.29-16.92,27.6-23.55,1.47-32,0-41.22S259.87,180.76,251.41,176.71Z" style="fill:#fff"></path><g style="clip-path:url(#freepik--clip-path-4--inject-2)"><path d="M251.41,176.71l-.65.19c.06,4.71.79,14.42,5.32,22.11,6.24,10.55,13.91,13.42,21.58,25.89S282,247,275.75,258s-13.43,19.66-22.06,20.62a37,37,0,0,1-9.1-.12,18.57,18.57,0,0,0,11.6,3.47c7,0,24.29-16.92,27.6-23.55s1.47-32,0-41.22S259.87,180.76,251.41,176.71Z" style="opacity:0.2"></path></g><path d="M251.41,176.71a33.1,33.1,0,0,0-21,19.87c-6.26,16.2-.5,17.73-3.27,29.61-5.08,21.75,6.21,41.79,12.1,47.68S249.2,282,256.19,282s24.29-16.92,27.6-23.55,1.47-32,0-41.22S259.87,180.76,251.41,176.71Z" style="fill:none;stroke:#263238;stroke-linecap:round;stroke-linejoin:round"></path><path d="M247.42,224.06l-2.4,8.39c-.8,2.79-6.39,3.19-4.79,6s9.19,3.6,10.39,3.6" style="fill:none;stroke:#263238;stroke-linecap:round;stroke-linejoin:round"></path><path d="M263.26,233.56a14.42,14.42,0,0,1,8-2.06" style="fill:none;stroke:#263238;stroke-linecap:round;stroke-linejoin:round"></path><path d="M232.53,230.72s4.39-.25,7,2.07" style="fill:none;stroke:#263238;stroke-linecap:round;stroke-linejoin:round"></path><circle cx="272.97" cy="236.25" r="1.19" style="fill:none;stroke:#263238;stroke-linecap:round;stroke-linejoin:round;stroke-width:0.5px"></circle><circle cx="264.65" cy="238.08" r="0.6" style="fill:none;stroke:#263238;stroke-linecap:round;stroke-linejoin:round;stroke-width:0.5px"></circle><circle cx="270.4" cy="240.53" r="0.6" style="fill:none;stroke:#263238;stroke-linecap:round;stroke-linejoin:round;stroke-width:0.5px"></circle><circle cx="234.61" cy="234.9" r="0.6" style="fill:none;stroke:#263238;stroke-linecap:round;stroke-linejoin:round;stroke-width:0.5px"></circle><circle cx="230.35" cy="238.69" r="0.6" style="fill:none;stroke:#263238;stroke-linecap:round;stroke-linejoin:round;stroke-width:0.5px"></circle><path d="M230.94,234.6a.6.6,0,0,1-1.2,0,.6.6,0,0,1,1.2,0Z" style="fill:none;stroke:#263238;stroke-linecap:round;stroke-linejoin:round;stroke-width:0.5px"></path><path d="M229.7,212.77s3.34-5.9,12.53-1.9" style="fill:none;stroke:#263238;stroke-linecap:round;stroke-linejoin:round;stroke-width:2px"></path><path d="M255,209.67s11.59-6.39,19.58,3.6" style="fill:none;stroke:#263238;stroke-linecap:round;stroke-linejoin:round;stroke-width:2px"></path><path d="M243.43,250.83s12.38,9.08,21.44-3.25" style="fill:none;stroke:#263238;stroke-linecap:round;stroke-linejoin:round"></path><ellipse cx="237.94" cy="226.43" rx="2.12" ry="3.43" style="fill:#263238"></ellipse><path d="M268,227.16c0,1.9-.95,3.43-2.13,3.43s-2.12-1.53-2.12-3.43.95-3.43,2.12-3.43S268,225.27,268,227.16Z" style="fill:#263238"></path><path d="M260.61,223.26s4.79-2.4,8.79.8" style="fill:none;stroke:#263238;stroke-linecap:round;stroke-linejoin:round;stroke-width:2px"></path><path d="M231,223.26s6.39-4.8,10.39.8" style="fill:none;stroke:#263238;stroke-linecap:round;stroke-linejoin:round;stroke-width:2px"></path><path d="M283.79,217.19s4.75,23.09-14.25,53.6c-13.41,21.53-17.27,34.83-17.27,51.81s10.83,26,10.83,26-2.55,20.37,8.06,33.1,19.95,13.58,26.31,13.58a63,63,0,0,0,13.16-1.7l-7.21-3.39a25.13,25.13,0,0,0,22.91-10.61,38.23,38.23,0,0,0,7.22-26.31s3.39,5.51-.43,18.24c0,0,3.4,0,5.1-10.61s1.69-21.22-3.4-30.13-5.52-12.31-5.52-12.31.85,2.13,5.52,2.55a16.65,16.65,0,0,0,8.91-2.12s-5.94-2.55-8.06-6.37-3.82-7.64-3.82-7.64l4.24.85a72,72,0,0,1-10.18-19.95c-3.4-11,5.52-27.16.85-50.08a103.3,103.3,0,0,0-17.83-39.47" style="fill:#263238;stroke:#263238;stroke-linecap:round;stroke-linejoin:round"></path><path d="M301.19,276.64c-9.45,18.65-23.89,27.82-25,46.08-1.43,24.46,8.65,44.57,32.61,37.88,20.62-5.75,12.95-36-1.44-35.48-8.64.29-10.07,9.11-10.07,9.11" style="fill:none;stroke:#8c8c8c;stroke-linecap:round;stroke-linejoin:round"></path><path d="M297.41,199.7c6.4,11.66,14.22,31.34,10.94,54A75.32,75.32,0,0,1,304.87,268" style="fill:none;stroke:#8c8c8c;stroke-linecap:round;stroke-linejoin:round"></path><path d="M290.13,188.46s1.47,1.8,3.59,5.06" style="fill:none;stroke:#8c8c8c;stroke-linecap:round;stroke-linejoin:round"></path><path d="M272,313.62c-3.11,12.77-6.47,32-2.93,45.54,5.76,22.06,25.42,27.82,45.08,16.79" style="fill:none;stroke:#8c8c8c;stroke-linecap:round;stroke-linejoin:round"></path><path d="M275.75,300.18s-.78,2.31-1.86,6.12" style="fill:none;stroke:#8c8c8c;stroke-linecap:round;stroke-linejoin:round"></path><path d="M306.43,198.05s14.87,28.77,15.83,55.14-19.66,37.4-21.58,48.43,1,16.79,1,16.79" style="fill:none;stroke:#8c8c8c;stroke-linecap:round;stroke-linejoin:round"></path><path d="M251.41,176.71s.13,12.52,16.8,27.44,19.3,14.47,19.3,14.47-22.81-16.23-23.25-36" style="fill:#263238;stroke:#263238;stroke-linecap:round;stroke-linejoin:round"></path><path d="M250.26,384.89a91.21,91.21,0,0,1,8.17-20.13" style="fill:none;stroke:#263238;stroke-linecap:round;stroke-linejoin:round"></path><circle cx="206.89" cy="150.31" r="10.6" transform="translate(-45.69 190.32) rotate(-45)" style="fill:#fff"></circle><g style="clip-path:url(#freepik--clip-path-5--inject-2)"><path d="M201.87,141c3.48-1.87,5.94-.58,5.94-.58s2.77.52,4.84,4,3.55,10.46,1.55,14.07-5.94,5-10.4,4.65-7.48-6.52-7.48-11.16S198.38,142.87,201.87,141Zm11.87,16.33a14.19,14.19,0,0,0,.07-4.58s-.78,6.32-1.42,7.74A6,6,0,0,0,213.74,157.33Z" style="fill:#263238"></path><path d="M205.24,163.29c4.14,0,7.32-1.66,9-4.76,2-3.69.47-10.73-1.55-14.15a8.23,8.23,0,0,0-4.89-4c-.18-.09-2.64-1.22-6,.59s-5.59,6.16-5.59,11c0,4.42,2.87,10.84,7.56,11.24A14.16,14.16,0,0,0,205.24,163.29Zm.37-23.21a5.09,5.09,0,0,1,2.16.42h0a8,8,0,0,1,4.79,4c2,3.38,3.56,10.34,1.54,14-1.87,3.39-5.53,5-10.31,4.61-4.59-.4-7.41-6.73-7.41-11.08,0-4.83,2.16-9.11,5.51-10.9A7.71,7.71,0,0,1,205.61,140.08Zm2.2.34Zm4.33,20.42.31-.28a6.3,6.3,0,0,0,1.38-3.21,14.62,14.62,0,0,0,.06-4.61l-.09-.56-.07.56c0,.06-.78,6.33-1.42,7.72Zm1.67-7.43a14.26,14.26,0,0,1-.15,3.91,7.37,7.37,0,0,1-1,2.73A59.07,59.07,0,0,0,213.81,153.41Z" style="fill:#263238"></path><path d="M207.2,141.52a5,5,0,0,1,3.19,3c1,2.46.07,2.69.49,4.5a8.52,8.52,0,0,1-1.84,7.25,3.21,3.21,0,0,1-2.57,1.23c-1.06,0-3.7-2.57-4.2-3.58s-.22-4.87,0-6.27S205.91,142.13,207.2,141.52Z" style="fill:#fff"></path><path d="M206.47,157.61a3.31,3.31,0,0,0,2.63-1.26A8.68,8.68,0,0,0,211,149a4.48,4.48,0,0,1-.07-1.68,5.66,5.66,0,0,0-3.67-5.9h-.06c-1.29.62-4.73,4.75-5,6.22s-.5,5.3,0,6.32S205.35,157.61,206.47,157.61Zm.73-16a5.47,5.47,0,0,1,3.52,5.72,5.09,5.09,0,0,0,.08,1.74,8.49,8.49,0,0,1-1.82,7.17,3.11,3.11,0,0,1-2.51,1.21c-1.05,0-3.64-2.56-4.12-3.54s-.22-4.8,0-6.21S206,142.24,207.2,141.6Z" style="fill:#263238"></path><path d="M207.32,151.53s1.35-.07,1.65-.59c.17-.3-.11-.47-.33-.61s-.35-.2-.39-.36l-.37-1.28-.16.05.37,1.28c.06.21.27.34.46.46s.36.23.27.38c-.21.38-1.29.51-1.5.51Z" style="fill:#263238"></path><path d="M210.5,147.16a.12.12,0,0,0,.08,0,.15.15,0,0,0,.06-.22s-.6-1-2.11-.36a.16.16,0,0,0-.09.22.16.16,0,0,0,.22.08c1.23-.53,1.68.19,1.69.22A.19.19,0,0,0,210.5,147.16Z" style="fill:#263238"></path><path d="M203.67,147.24a.16.16,0,0,0,.13-.06,2.2,2.2,0,0,1,2.77-.51.15.15,0,0,0,.22-.06.17.17,0,0,0-.06-.23,2.57,2.57,0,0,0-3.19.59.16.16,0,0,0,0,.23A.13.13,0,0,0,203.67,147.24Z" style="fill:#263238"></path><path d="M206.9,153.36a2.9,2.9,0,0,0,1.56-.51s0-.07,0-.11a.08.08,0,0,0-.12,0,2.17,2.17,0,0,1-3.14-.48.09.09,0,0,0-.12,0,.08.08,0,0,0,0,.11A2.22,2.22,0,0,0,206.9,153.36Z" style="fill:#263238"></path><path d="M208.92,149.08c0,.29.15.52.32.52s.33-.23.33-.52-.15-.53-.33-.53S208.92,148.79,208.92,149.08Z" style="fill:#263238"></path><path d="M204.67,149.19c0,.29.15.52.33.52s.32-.23.32-.52-.15-.52-.32-.52S204.67,148.9,204.67,149.19Z" style="fill:#263238"></path><path d="M204.46,148.88a.17.17,0,0,0,.1,0,1.16,1.16,0,0,1,1.16-.11.18.18,0,0,0,.23-.07.17.17,0,0,0-.08-.22,1.45,1.45,0,0,0-1.51.14.16.16,0,0,0,.1.29Z" style="fill:#263238"></path><path d="M208.71,148.88a.15.15,0,0,0,.14-.07.75.75,0,0,1,.5-.33,1.21,1.21,0,0,1,.84.25.17.17,0,0,0,.24,0,.16.16,0,0,0,0-.23,1.63,1.63,0,0,0-1.09-.31,1.08,1.08,0,0,0-.72.47.17.17,0,0,0,.13.26Z" style="fill:#263238"></path><path d="M202.27,147.67s-.72,3.51,2.17,8.15c2,3.28,2.62,5.3,2.62,7.88a5.38,5.38,0,0,1-1.64,4s.39,3.1-1.23,5a4.75,4.75,0,0,1-4,2.07,9.49,9.49,0,0,1-2-.26l1.1-.52a3.81,3.81,0,0,1-3.49-1.61,5.83,5.83,0,0,1-1.1-4s-.51.84.07,2.77c0,0-.52,0-.78-1.61a7,7,0,0,1,.52-4.58,6.18,6.18,0,0,0,.84-1.87s-.13.32-.84.38a2.46,2.46,0,0,1-1.35-.32,3,3,0,0,0,1.22-1c.32-.58.58-1.16.58-1.16l-.64.13a11.18,11.18,0,0,0,1.55-3c.51-1.68-.84-4.13-.13-7.62a15.73,15.73,0,0,1,2.71-6" style="fill:#263238"></path><path d="M200.19,174.84a4.9,4.9,0,0,0,4.07-2.09c1.51-1.82,1.28-4.67,1.25-5.06a5.55,5.55,0,0,0,1.64-4c0-2.72-.69-4.79-2.64-7.92-2.84-4.56-2.16-8.06-2.16-8.09a.08.08,0,1,0-.16,0s-.69,3.59,2.18,8.21C206.3,159,207,161,207,163.7a5.4,5.4,0,0,1-1.61,3.9l0,0v0s.36,3.08-1.21,5a4.67,4.67,0,0,1-3.94,2,8.78,8.78,0,0,1-1.75-.21l1.4-.66-.57.09a3.74,3.74,0,0,1-3.4-1.58,5.74,5.74,0,0,1-1.08-3.94l.06-.4-.22.35a3.58,3.58,0,0,0,0,2.66,2.38,2.38,0,0,1-.56-1.47,6.77,6.77,0,0,1,.5-4.53,6,6,0,0,0,.85-1.9l.08-.64-.24.6s-.13.27-.77.33a2.36,2.36,0,0,1-1.16-.24,2.67,2.67,0,0,0,1.11-.93c.32-.57.59-1.16.59-1.17l.06-.14-.59.12a11.23,11.23,0,0,0,1.44-2.89,6.53,6.53,0,0,0-.07-2.73,13.13,13.13,0,0,1-.06-4.89,15.74,15.74,0,0,1,2.69-6,.08.08,0,0,0,0-.12.08.08,0,0,0-.12,0,15.81,15.81,0,0,0-2.72,6,13.52,13.52,0,0,0,.05,5,6.34,6.34,0,0,1,.08,2.65,10.93,10.93,0,0,1-1.54,3l-.13.17.7-.14c-.1.21-.29.61-.51,1a2.86,2.86,0,0,1-1.19.93l-.15.07.14.08a2.62,2.62,0,0,0,1.41.34,1.48,1.48,0,0,0,.67-.2,10.4,10.4,0,0,1-.75,1.56,6.86,6.86,0,0,0-.53,4.63c.26,1.64.8,1.69.86,1.69h.11l0-.11a5,5,0,0,1-.25-2,5.93,5.93,0,0,0,1.13,3.32,3.94,3.94,0,0,0,3.15,1.66l-.94.44.23.06A9.92,9.92,0,0,0,200.19,174.84Z" style="fill:#263238"></path><path d="M207.2,141.52s0,1.9-2.56,4.17-2.93,2.2-2.93,2.2,3.47-2.47,3.53-5.47" style="fill:#263238"></path><path d="M201.71,148c.11,0,.67-.15,3-2.22,2.53-2.27,2.58-4.15,2.58-4.23a.09.09,0,0,0-.08-.09s-.09,0-.09.08-.05,1.9-2.52,4.12a25.22,25.22,0,0,1-2.13,1.75c1-.91,2.82-2.81,2.86-5,0,0,0-.08-.08-.08a.07.07,0,0,0-.08.08c-.07,2.92-3.47,5.38-3.5,5.4l-.16.12.19,0Z" style="fill:#263238"></path></g><path d="M240.62,148H223.51a1,1,0,0,1,0-2h17.11a1,1,0,0,1,0,2Z" style="fill:#fff"></path><path d="M256.25,152.07H223.51a1,1,0,0,1,0-2h32.74a1,1,0,0,1,0,2Z" style="fill:#fff"></path><rect x="277.9" y="139.87" width="20.35" height="10.91" rx="2.5" style="fill:#fff"></rect><rect x="304.62" y="139.87" width="26.06" height="10.91" rx="2.5" style="fill:#263238"></rect><path d="M280.67,148.36a.42.42,0,0,1-.13-.31v-4.66a.37.37,0,0,1,.13-.31.49.49,0,0,1,.62,0,.41.41,0,0,1,.13.31v4.4h2.35a.31.31,0,0,1,.25.11.37.37,0,0,1,0,.48.31.31,0,0,1-.25.11H281A.46.46,0,0,1,280.67,148.36Z" style="fill:#263238"></path><path d="M285,148.37a.4.4,0,0,1-.12-.31v-4.68a.4.4,0,0,1,.12-.31.49.49,0,0,1,.62,0,.37.37,0,0,1,.13.31v4.68a.36.36,0,0,1-.13.31.49.49,0,0,1-.62,0Z" style="fill:#263238"></path><path d="M288.68,148.39a1,1,0,0,1-.3-.47l-1.59-4.46a.78.78,0,0,1,0-.14.32.32,0,0,1,.13-.27.45.45,0,0,1,.31-.11.4.4,0,0,1,.24.07.42.42,0,0,1,.16.21l1.51,4.37,1.52-4.37a.42.42,0,0,1,.16-.21.4.4,0,0,1,.24-.07.45.45,0,0,1,.31.11.32.32,0,0,1,.13.27.36.36,0,0,1,0,.14l-1.59,4.46a1,1,0,0,1-.3.47.73.73,0,0,1-.45.14A.7.7,0,0,1,288.68,148.39Z" style="fill:#263238"></path><path d="M292.48,148.36a.41.41,0,0,1-.13-.3v-4.67a.41.41,0,0,1,.12-.3.37.37,0,0,1,.29-.13h2.84a.31.31,0,0,1,.25.11.37.37,0,0,1,0,.48.31.31,0,0,1-.25.11h-2.38v1.65h2.24a.36.36,0,0,1,.26.1.35.35,0,0,1,.08.24.36.36,0,0,1-.09.24.3.3,0,0,1-.25.1h-2.24v1.8h2.47a.3.3,0,0,1,.25.11.37.37,0,0,1,0,.48.3.3,0,0,1-.25.11h-2.91A.45.45,0,0,1,292.48,148.36Z" style="fill:#263238"></path><path d="M306.62,144.57a.42.42,0,0,1-.28-.1.44.44,0,0,1-.07-.62,4.25,4.25,0,0,1,2.87-1.53,4.1,4.1,0,0,1,3.16,1.5.44.44,0,0,1,0,.63.43.43,0,0,1-.62,0,3.31,3.31,0,0,0-2.48-1.23,3.42,3.42,0,0,0-2.22,1.2A.42.42,0,0,1,306.62,144.57Z" style="fill:#fff"></path><path d="M310.77,144.53a.85.85,0,0,1-.72.41.87.87,0,0,1-.87-.87.85.85,0,0,1,.22-.56,2,2,0,0,0-.35,0,2,2,0,1,0,1.95,2A1.83,1.83,0,0,0,310.77,144.53Z" style="fill:#fff"></path><path d="M314.3,147.27a.23.23,0,0,1-.15-.22.33.33,0,0,1,0-.13.28.28,0,0,1,.09-.1.19.19,0,0,1,.12,0l.07,0a1.83,1.83,0,0,0,.76.18.9.9,0,0,0,.57-.16.54.54,0,0,0,.22-.47.7.7,0,0,0-.26-.56,1,1,0,0,0-.65-.21h-.22a.18.18,0,0,1-.15-.07.24.24,0,0,1,0-.32.16.16,0,0,1,.15-.07h.2a1,1,0,0,0,.61-.17.57.57,0,0,0,.23-.49.52.52,0,0,0-.21-.45.8.8,0,0,0-.51-.16,2.18,2.18,0,0,0-.43.05,2.12,2.12,0,0,0-.36.13l-.07,0a.22.22,0,0,1-.17-.09.34.34,0,0,1-.07-.19.18.18,0,0,1,.09-.17,1.41,1.41,0,0,1,.45-.17,2,2,0,0,1,.59-.08,1.69,1.69,0,0,1,.66.12,1,1,0,0,1,.66,1,.91.91,0,0,1-.65.9,1,1,0,0,1,.55.36,1.18,1.18,0,0,1,.19.67,1.12,1.12,0,0,1-.11.5,1,1,0,0,1-.31.36,1.27,1.27,0,0,1-.44.2,1.72,1.72,0,0,1-.52.07A2.1,2.1,0,0,1,314.3,147.27Z" style="fill:#fff"></path><path d="M317.36,148.26h0l.23-1.34c0-.1.09-.15.21-.16h.33s.07,0,.08,0a.09.09,0,0,1,0,.07,0,0,0,0,1,0,0v0l-.47,1.34a.19.19,0,0,1-.05.09.12.12,0,0,1-.09,0h-.19C317.38,148.34,317.36,148.32,317.36,148.26Z" style="fill:#fff"></path><path d="M320.32,147.35a.28.28,0,0,1-.09-.22v-3l-.58.37a.28.28,0,0,1-.12,0,.24.24,0,0,1-.23-.23.2.2,0,0,1,.11-.18l1-.6a.29.29,0,0,1,.17,0,.32.32,0,0,1,.21.08.3.3,0,0,1,.09.23v3.39a.29.29,0,0,1-.1.22.33.33,0,0,1-.22.08A.35.35,0,0,1,320.32,147.35Z" style="fill:#fff"></path><path d="M323,147.38a2,2,0,0,1-.53-.33.16.16,0,0,1-.06-.13.32.32,0,0,1,.08-.2.22.22,0,0,1,.17-.09.15.15,0,0,1,.11,0,1.35,1.35,0,0,0,.87.31.78.78,0,0,0,.6-.21.85.85,0,0,0,.2-.61.76.76,0,0,0-.2-.56.69.69,0,0,0-.52-.21.87.87,0,0,0-.42.1,1.07,1.07,0,0,0-.34.23.05.05,0,0,1,0,0h-.06a.68.68,0,0,1-.26-.07c-.09,0-.14-.1-.14-.16v-1.79c0-.19.1-.28.31-.28h1.82a.21.21,0,0,1,.17.07.25.25,0,0,1,.06.16.25.25,0,0,1-.06.17.21.21,0,0,1-.17.07H323v1.27l0,0,.1-.07.16-.09a1.15,1.15,0,0,1,.24-.07,1.66,1.66,0,0,1,.32,0,1.15,1.15,0,0,1,.89.36,1.27,1.27,0,0,1,.35.92,1.24,1.24,0,0,1-.39.95,1.4,1.4,0,0,1-1,.36A1.92,1.92,0,0,1,323,147.38Z" style="fill:#fff"></path><path d="M326.51,147.41a1,1,0,0,1-.38-.23,1.23,1.23,0,0,1-.26-.33,1.5,1.5,0,0,1-.18-.43,4,4,0,0,1-.09-.48,4.45,4.45,0,0,1,0-.53,4.09,4.09,0,0,1,0-.63,3.28,3.28,0,0,1,.14-.56,1.47,1.47,0,0,1,.27-.46,1,1,0,0,1,.41-.3,1.29,1.29,0,0,1,.57-.11,1.34,1.34,0,0,1,.58.11,1.12,1.12,0,0,1,.41.3,1.68,1.68,0,0,1,.26.46,2.19,2.19,0,0,1,.14.56,4,4,0,0,1,.05.63,6.07,6.07,0,0,1,0,.63,2.73,2.73,0,0,1-.15.56,1.29,1.29,0,0,1-.26.46,1.09,1.09,0,0,1-.41.31,1.34,1.34,0,0,1-.58.12A1.48,1.48,0,0,1,326.51,147.41Zm.79-.49a.59.59,0,0,0,.22-.19.87.87,0,0,0,.14-.27,1.59,1.59,0,0,0,.09-.33c0-.13,0-.25,0-.36s0-.23,0-.36,0-.22,0-.31a1.71,1.71,0,0,0,0-.31,1.92,1.92,0,0,0-.05-.29,2,2,0,0,0-.1-.26,1.1,1.1,0,0,0-.14-.21,1,1,0,0,0-.2-.13.76.76,0,0,0-.27-.05.75.75,0,0,0-.26.05.77.77,0,0,0-.2.13,1.1,1.1,0,0,0-.14.21,2.6,2.6,0,0,0-.1.25,2.34,2.34,0,0,0-.05.3,1.71,1.71,0,0,0,0,.31,4.81,4.81,0,0,0,0,.62,1.8,1.8,0,0,0,0,.31,1.92,1.92,0,0,0,.05.29,1.17,1.17,0,0,0,.1.26.69.69,0,0,0,.14.22.66.66,0,0,0,.46.18A.67.67,0,0,0,327.3,146.92Z" style="fill:#fff"></path><line x1="320.32" y1="404.52" x2="310.48" y2="393.13" style="fill:#fff"></line><path d="M320.32,405a.48.48,0,0,1-.37-.17l-9.85-11.4a.49.49,0,0,1,0-.7.51.51,0,0,1,.71.05l9.84,11.4a.49.49,0,0,1-.38.82Z" style="fill:#263238"></path><path d="M228.51,340.56h-17.1a1,1,0,0,1,0-2h17.1a1,1,0,0,1,0,2Z" style="fill:#fff"></path><path d="M244.14,344.69H211.41a1,1,0,0,1,0-2h32.73a1,1,0,0,1,0,2Z" style="fill:#fff"></path><path d="M208.83,342.26a7.34,7.34,0,1,1-7.34-7.34A7.34,7.34,0,0,1,208.83,342.26Z" style="fill:#fff"></path><path d="M201.49,350.09a7.84,7.84,0,1,1,7.84-7.84A7.85,7.85,0,0,1,201.49,350.09Zm0-14.67a6.84,6.84,0,1,0,6.84,6.83A6.85,6.85,0,0,0,201.49,335.42Z" style="fill:#fff"></path><path d="M228.51,360.07h-17.1a1,1,0,0,1,0-2h17.1a1,1,0,0,1,0,2Z" style="fill:#fff"></path><path d="M244.14,364.2H211.41a1,1,0,0,1,0-2h32.73a1,1,0,0,1,0,2Z" style="fill:#fff"></path><path d="M208.83,362.06a7.34,7.34,0,1,1-7.34-7.33A7.34,7.34,0,0,1,208.83,362.06Z" style="fill:#fff"></path><path d="M201.49,369.9a7.84,7.84,0,1,1,7.84-7.84A7.85,7.85,0,0,1,201.49,369.9Zm0-14.67a6.84,6.84,0,1,0,6.84,6.83A6.84,6.84,0,0,0,201.49,355.23Z" style="fill:#fff"></path><path d="M228.51,380.54h-17.1a1,1,0,0,1,0-2h17.1a1,1,0,0,1,0,2Z" style="fill:#fff"></path><path d="M244.14,384.67H211.41a1,1,0,0,1,0-2h32.73a1,1,0,0,1,0,2Z" style="fill:#fff"></path><circle cx="201.49" cy="381.87" r="7.34" style="fill:#fff"></circle><path d="M201.49,389.71a7.84,7.84,0,1,1,7.84-7.84A7.85,7.85,0,0,1,201.49,389.71Zm0-14.68a6.84,6.84,0,1,0,6.84,6.84A6.85,6.85,0,0,0,201.49,375Z" style="fill:#fff"></path><path d="M306.93,410.29H204.61a8.63,8.63,0,0,1,0-17.26H306.93a8.63,8.63,0,0,1,0,17.26ZM204.61,394a7.63,7.63,0,0,0,0,15.26H306.93a7.63,7.63,0,0,0,0-15.26Z" style="fill:#fff"></path><path d="M202.81,404.55a2.48,2.48,0,0,1-.9-1,3.31,3.31,0,0,1-.31-1.47,3.37,3.37,0,0,1,.32-1.49,2.49,2.49,0,0,1,.94-1,2.65,2.65,0,0,1,1.41-.37,2.9,2.9,0,0,1,1.41.36.42.42,0,0,1,.16.13.31.31,0,0,1,0,.34.41.41,0,0,1-.12.14.37.37,0,0,1-.17.05h-.07l-.06,0-.12-.06-.18-.08-.2-.07-.29-.06-.33,0a1.79,1.79,0,0,0-.78.17,1.41,1.41,0,0,0-.56.46,2.19,2.19,0,0,0-.32.69,3.5,3.5,0,0,0,0,1.74,2,2,0,0,0,.33.69,1.47,1.47,0,0,0,.56.45,1.89,1.89,0,0,0,.81.16,2.22,2.22,0,0,0,.45-.05l.36-.12.34-.17a.28.28,0,0,1,.38.06.36.36,0,0,1,.09.24.35.35,0,0,1-.2.32,2.8,2.8,0,0,1-1.57.43A2.55,2.55,0,0,1,202.81,404.55Z" style="fill:#fff"></path><path d="M207.84,404.74a1.66,1.66,0,0,1-.62-.44,2,2,0,0,1-.37-.63,2.38,2.38,0,0,1-.13-.76,2.45,2.45,0,0,1,.13-.78,2,2,0,0,1,.37-.63,1.74,1.74,0,0,1,.63-.44,2.24,2.24,0,0,1,.84-.15,2,2,0,0,1,1.07.27,1.68,1.68,0,0,1,.68.72,2.21,2.21,0,0,1,.22,1,2.37,2.37,0,0,1-.12.76,2,2,0,0,1-.37.63,1.66,1.66,0,0,1-.62.44,2.36,2.36,0,0,1-1.71,0Zm1.74-.76a2,2,0,0,0,0-2.15,1.06,1.06,0,0,0-.88-.39,1.08,1.08,0,0,0-.88.39,1.67,1.67,0,0,0-.31,1.08,1.61,1.61,0,0,0,.32,1.07,1.06,1.06,0,0,0,.87.39A1.08,1.08,0,0,0,209.58,404Z" style="fill:#fff"></path><path d="M211.64,404.74a.31.31,0,0,1-.11-.27v-3.14a.37.37,0,0,1,.11-.27.45.45,0,0,1,.28-.09.44.44,0,0,1,.27.09.29.29,0,0,1,.12.25v.31a1.21,1.21,0,0,1,.51-.54,1.5,1.5,0,0,1,.74-.17,1.37,1.37,0,0,1,.82.23,1.17,1.17,0,0,1,.46.65,1.24,1.24,0,0,1,.52-.66,1.56,1.56,0,0,1,.85-.22,1.69,1.69,0,0,1,.56.08,1.31,1.31,0,0,1,.44.26,1.14,1.14,0,0,1,.31.47,1.71,1.71,0,0,1,.11.67v2.08a.34.34,0,0,1-.11.27.42.42,0,0,1-.28.1.4.4,0,0,1-.28-.1.34.34,0,0,1-.11-.27v-2.1a1,1,0,0,0-.21-.7.76.76,0,0,0-.61-.24,1,1,0,0,0-.76.33,1.29,1.29,0,0,0-.3.92v1.78a.34.34,0,0,1-.12.28.39.39,0,0,1-.28.1.39.39,0,0,1-.27-.1.33.33,0,0,1-.11-.28v-2a1.12,1.12,0,0,0-.22-.75.73.73,0,0,0-.6-.25,1,1,0,0,0-.77.32,1.28,1.28,0,0,0-.29.88v1.84a.32.32,0,0,1-.12.27.4.4,0,0,1-.28.1A.38.38,0,0,1,211.64,404.74Z" style="fill:#fff"></path><path d="M218.84,404.74a.34.34,0,0,1-.11-.27v-3.14a.37.37,0,0,1,.11-.27.45.45,0,0,1,.28-.09.42.42,0,0,1,.27.09.29.29,0,0,1,.12.25v.31a1.21,1.21,0,0,1,.51-.54,1.5,1.5,0,0,1,.74-.17,1.37,1.37,0,0,1,.82.23,1.17,1.17,0,0,1,.46.65,1.24,1.24,0,0,1,.52-.66,1.56,1.56,0,0,1,.85-.22,1.69,1.69,0,0,1,.56.08,1.46,1.46,0,0,1,.45.26,1.12,1.12,0,0,1,.3.47,1.71,1.71,0,0,1,.11.67v2.08a.34.34,0,0,1-.11.27.44.44,0,0,1-.56,0,.34.34,0,0,1-.11-.27v-2.1a1,1,0,0,0-.21-.7.75.75,0,0,0-.6-.24,1,1,0,0,0-.77.33,1.29,1.29,0,0,0-.3.92v1.78a.34.34,0,0,1-.12.28.39.39,0,0,1-.28.1.39.39,0,0,1-.27-.1.33.33,0,0,1-.11-.28v-2a1.07,1.07,0,0,0-.22-.75.73.73,0,0,0-.6-.25,1,1,0,0,0-.77.32,1.28,1.28,0,0,0-.29.88v1.84a.32.32,0,0,1-.12.27.39.39,0,0,1-.28.1A.39.39,0,0,1,218.84,404.74Z" style="fill:#fff"></path><path d="M226.24,404.35a2,2,0,0,1-.54-1.47,2.27,2.27,0,0,1,.12-.75,2.16,2.16,0,0,1,.36-.63,1.61,1.61,0,0,1,.59-.43,1.91,1.91,0,0,1,.8-.16,2,2,0,0,1,.79.15,1.37,1.37,0,0,1,.55.41,2,2,0,0,1,.31.59,2.71,2.71,0,0,1,.12.72.28.28,0,0,1-.07.21.19.19,0,0,1-.18.08h-2.61a1.32,1.32,0,0,0,.35,1,1.26,1.26,0,0,0,.87.33,1.4,1.4,0,0,0,.58-.12,3.06,3.06,0,0,0,.54-.32s.05,0,.08,0l.07,0a.16.16,0,0,1,.12,0,.22.22,0,0,1,.09.1.2.2,0,0,1,0,.13.31.31,0,0,1,0,.13.31.31,0,0,1-.09.11,2.12,2.12,0,0,1-1.46.53A1.87,1.87,0,0,1,226.24,404.35Zm2.42-1.75a1.43,1.43,0,0,0-.29-.83.92.92,0,0,0-.76-.33,1,1,0,0,0-.47.1.88.88,0,0,0-.34.26,1.41,1.41,0,0,0-.21.38,1.84,1.84,0,0,0-.1.42Z" style="fill:#fff"></path><path d="M230.34,404.74a.32.32,0,0,1-.11-.27v-3.13a.34.34,0,0,1,.11-.27.45.45,0,0,1,.55,0,.32.32,0,0,1,.12.26v.28a1,1,0,0,1,.49-.52,1.59,1.59,0,0,1,.77-.17,1.63,1.63,0,0,1,.55.08,1.29,1.29,0,0,1,.45.27,1.06,1.06,0,0,1,.3.47,1.75,1.75,0,0,1,.11.67v2.07a.33.33,0,0,1-.12.27.39.39,0,0,1-.27.1.4.4,0,0,1-.28-.1.32.32,0,0,1-.11-.27v-2.08a1,1,0,0,0-.23-.71.79.79,0,0,0-.61-.24.94.94,0,0,0-.73.32,1.21,1.21,0,0,0-.32.86v1.85a.33.33,0,0,1-.12.27.39.39,0,0,1-.27.1A.4.4,0,0,1,230.34,404.74Z" style="fill:#fff"></path><path d="M235.34,404.59a1.22,1.22,0,0,1-.28-.88v-2.2h-.45a.28.28,0,0,1-.21-.07.25.25,0,0,1,0-.36.29.29,0,0,1,.22-.07h.45l.11-1.08a.36.36,0,0,1,.38-.34.28.28,0,0,1,.21.07.3.3,0,0,1,.09.23V401h.69a.25.25,0,0,1,.21.07.25.25,0,0,1,.07.19.24.24,0,0,1-.07.18.29.29,0,0,1-.21.06h-.69v2a1.12,1.12,0,0,0,.1.55.37.37,0,0,0,.34.18h0l.28,0h0a.3.3,0,0,1,.23.09.34.34,0,0,1,.08.21.23.23,0,0,1,0,.12.22.22,0,0,1,0,.08l-.08.06-.1,0-.13,0h-.47A1,1,0,0,1,235.34,404.59Z" style="fill:#fff"></path><path d="M305.26,406.94a.45.45,0,0,1-.27-.08c-.5-.32-4.91-3.24-4.91-5.8a2.92,2.92,0,0,1,5.14-1.89,2.92,2.92,0,0,1,5.14,1.89c0,2.55-4.33,5.48-4.83,5.8A.43.43,0,0,1,305.26,406.94ZM303,399.15a1.91,1.91,0,0,0-1.92,1.91c0,1.6,2.8,3.84,4.18,4.78,1.36-.94,4.1-3.18,4.1-4.78a1.92,1.92,0,0,0-3.68-.75.5.5,0,0,1-.46.31h0a.5.5,0,0,1-.46-.31A1.91,1.91,0,0,0,303,399.15Z" style="fill:#fff"></path><path d="M330.39,380.38a5.61,5.61,0,0,0-10.78-2.19,5.61,5.61,0,0,0-10.78,2.19c0,5.47,10.88,12.51,10.88,12.51S330.39,385.85,330.39,380.38Z" style="fill:#92E3A9"></path><path d="M336.4,361.16a4.18,4.18,0,0,0-8-1.64,4.19,4.19,0,0,0-8,1.64c0,4.08,8.11,9.32,8.11,9.32S336.4,365.24,336.4,361.16Z" style="fill:#92E3A9"></path><g style="opacity:0.4"><path d="M336.4,361.16a4.18,4.18,0,0,0-8-1.64,4.19,4.19,0,0,0-8,1.64c0,4.08,8.11,9.32,8.11,9.32S336.4,365.24,336.4,361.16Z" style="fill:#fff"></path></g><path d="M332.57,349.45a3,3,0,0,0-5.68-1.16,3,3,0,0,0-5.68,1.16c0,2.88,5.73,6.59,5.73,6.59S332.57,352.33,332.57,349.45Z" style="fill:#92E3A9"></path><g style="opacity:0.7000000000000001"><path d="M332.57,349.45a3,3,0,0,0-5.68-1.16,3,3,0,0,0-5.68,1.16c0,2.88,5.73,6.59,5.73,6.59S332.57,352.33,332.57,349.45Z" style="fill:#fff"></path></g><path d="M338.76,338.54a3,3,0,0,0-5.68-1.15,3,3,0,0,0-5.68,1.15c0,2.89,5.73,6.59,5.73,6.59S338.76,341.43,338.76,338.54Z" style="fill:#92E3A9"></path><g style="opacity:0.5"><path d="M338.76,338.54a3,3,0,0,0-5.68-1.15,3,3,0,0,0-5.68,1.15c0,2.89,5.73,6.59,5.73,6.59S338.76,341.43,338.76,338.54Z" style="fill:#fff"></path></g><path d="M324.61,330.58a3,3,0,0,0-5.68-1.15,3,3,0,0,0-5.68,1.15c0,2.89,5.73,6.59,5.73,6.59S324.61,333.47,324.61,330.58Z" style="fill:#92E3A9"></path><g style="opacity:0.7000000000000001"><path d="M324.61,330.58a3,3,0,0,0-5.68-1.15,3,3,0,0,0-5.68,1.15c0,2.89,5.73,6.59,5.73,6.59S324.61,333.47,324.61,330.58Z" style="fill:#fff"></path></g><path d="M332,320.43a2,2,0,0,0-3.76-.77,2,2,0,0,0-3.76.77c0,1.91,3.79,4.36,3.79,4.36S332,322.34,332,320.43Z" style="fill:#92E3A9"></path><g style="opacity:0.7000000000000001"><path d="M332,320.43a2,2,0,0,0-3.76-.77,2,2,0,0,0-3.76.77c0,1.91,3.79,4.36,3.79,4.36S332,322.34,332,320.43Z" style="fill:#fff"></path></g></g><rect x="186.67" y="134.65" width="153.49" height="286.93" style="fill:none;stroke:#263238;stroke-linecap:round;stroke-linejoin:round"></rect></g></svg>