<?xml version="1.0" encoding="UTF-8" standalone="no"?>
<svg
   width="77.034"
   height="76.874"
   viewBox="0 0 77.034 76.874"
   version="1.1"
   id="svg17"
   sodipodi:docname="sets-shape-2.svg"
   inkscape:version="1.1 (c4e8f9e, 2021-05-24)"
   xmlns:inkscape="http://www.inkscape.org/namespaces/inkscape"
   xmlns:sodipodi="http://sodipodi.sourceforge.net/DTD/sodipodi-0.dtd"
   xmlns="http://www.w3.org/2000/svg"
   xmlns:svg="http://www.w3.org/2000/svg">
  <sodipodi:namedview
     id="namedview19"
     pagecolor="#ffffff"
     bordercolor="#666666"
     borderopacity="1.0"
     inkscape:pageshadow="2"
     inkscape:pageopacity="0.0"
     inkscape:pagecheckerboard="0"
     showgrid="false"
     inkscape:zoom="5.8640811"
     inkscape:cx="66.591848"
     inkscape:cy="40.841863"
     inkscape:window-width="1920"
     inkscape:window-height="1027"
     inkscape:window-x="1920"
     inkscape:window-y="25"
     inkscape:window-maximized="1"
     inkscape:current-layer="svg17" />
  <defs
     id="defs14">
    <linearGradient
       id="linear-gradient"
       x1="0.5"
       x2="0.5"
       y2="1"
       gradientUnits="objectBoundingBox">
      <stop
         offset="0"
         stop-color="#fe8464"
         id="stop9" />
      <stop
         offset="1"
         stop-color="#fe6e9a"
         id="stop11" />
    </linearGradient>
  </defs>
  <path
     id="Path_7"
     data-name="Path 7"
     d="M44.629,1896.9c20.551-4.888,58.959,28.731,58.959,46.987s-53.043,34.067-67.837,28.142S24.078,1901.789,44.629,1896.9Z"
     transform="translate(-26.554 -1896.421)"
     fill="url(#linear-gradient)" />
  <g
     id="g717"
     transform="translate(-0.51158941,-0.17052973)">
    <path
       style="fill:#ffffff;stroke:#ffffff;stroke-width:0.17053"
       d="m 23.66217,61.571994 c -1.488613,-0.823396 -2.159949,-2.704824 -1.515499,-4.247211 0.345778,-0.827562 1.545591,-1.781977 2.401513,-1.91033 1.494641,-0.224135 2.935092,0.557806 3.537887,1.920526 l 0.323084,0.730384 1.484154,-6.82e-4 c 1.170139,-5.12e-4 1.599453,-0.07094 2.029089,-0.332903 0.796832,-0.48586 0.931194,-1.170942 0.87105,-4.441291 l -0.05174,-2.813696 -3.697101,-0.08526 C 24.843422,50.294641 24.719196,50.256744 24.00206,48.853279 23.642268,48.14915 23.618369,47.891557 23.618369,44.717782 v -3.384593 l -3.320993,0.05277 c -4.192484,0.06661 -4.069682,-0.0095 -4.154078,2.575889 l -0.05703,1.747046 0.692986,0.305744 c 0.866457,0.38228 1.625452,1.287002 1.898827,2.2634 0.298264,1.065298 -0.01922,2.104478 -0.909599,2.977268 -1.084796,1.063367 -2.402107,1.286843 -3.703996,0.628364 -1.42619,-0.721349 -2.226568,-2.570609 -1.696335,-3.919357 0.300661,-0.764785 1.309204,-1.792973 1.973892,-2.012339 l 0.550376,-0.181642 0.0571,-1.923936 c 0.05347,-1.801595 0.08748,-1.963728 0.534872,-2.549675 0.822639,-1.07741 1.074087,-1.136967 4.80018,-1.136967 h 3.333798 V 39.136566 38.113388 H 20.43214 c -3.746473,0 -4.34283,-0.168609 -5.086877,-1.438232 -0.375126,-0.640104 -0.423914,-0.919817 -0.423914,-2.430401 v -1.707049 l -0.669633,-0.301962 c -2.912975,-1.313569 -2.619594,-5.315728 0.457249,-6.237572 1.494246,-0.447687 3.407219,0.696498 3.955576,2.365904 0.464188,1.413166 -0.32015,3.075668 -1.7733,3.758729 l -0.776184,0.36485 0.0025,1.491261 c 0.0046,2.717246 0.350141,2.94012 4.559156,2.9405 l 2.941638,2.64e-4 v -3.469038 c 0,-3.284999 0.02075,-3.508908 0.391153,-4.220609 0.277931,-0.534024 0.609237,-0.862636 1.144576,-1.135265 0.707957,-0.360537 0.962209,-0.383692 4.213149,-0.383692 h 3.459725 v -2.973168 c 0,-4.289622 -0.07509,-4.417159 -2.650814,-4.502384 l -1.738128,-0.05751 -0.38805,0.801603 c -0.842162,1.739675 -2.990677,2.333127 -4.646064,1.283311 -3.088383,-1.958595 -1.146412,-6.590513 2.478053,-5.910559 0.734343,0.137763 1.927916,1.150406 2.306989,1.957278 l 0.29088,0.619151 1.875141,0.08526 c 2.062427,0.09378 2.40115,0.218118 3.104548,1.139612 l 0.475888,0.623442 0.0552,3.46698 0.0552,3.46698 h 1.010608 1.010609 v -3.385375 c 0,-3.230033 0.01761,-3.411245 0.383692,-3.949136 0.748973,-1.100469 1.149975,-1.268541 3.250792,-1.362503 l 1.906358,-0.08526 0.315671,-0.6718 c 1.519971,-3.234752 6.251095,-2.2129 6.251095,1.350144 0,2.354637 -2.633012,3.910189 -4.771746,2.819089 -0.706246,-0.3603 -1.462211,-1.225949 -1.565061,-1.792136 -0.05578,-0.307054 -0.216345,-0.345913 -1.610412,-0.389734 -2.830307,-0.08897 -2.966681,0.116831 -2.966681,4.476969 v 2.989747 h 3.399492 c 3.613429,0 4.056347,0.07508 4.842534,0.820865 0.876019,0.831005 0.966577,1.299258 0.966577,4.99797 v 3.389769 h 2.904483 c 4.222888,0 4.598824,-0.242016 4.598824,-2.960588 v -1.442759 l -0.77202,-0.373729 c -1.427646,-0.691112 -2.226427,-2.346392 -1.807322,-3.74524 0.315593,-1.053357 1.246605,-1.989272 2.313348,-2.325533 0.832129,-0.262306 0.953405,-0.262234 1.746027,10e-4 2.917652,0.969089 3.259453,4.604737 0.566324,6.023836 l -0.767384,0.40436 -0.08526,1.838613 c -0.07414,1.598675 -0.1409,1.920703 -0.511589,2.467635 -0.78136,1.152854 -1.367829,1.306073 -4.999201,1.306073 H 46.46933 v 1.023178 1.023179 h 3.333798 c 3.726093,0 3.977541,0.05956 4.800181,1.136967 0.44739,0.585947 0.481402,0.74808 0.53487,2.549675 l 0.0571,1.923936 0.550376,0.181642 c 1.096675,0.361935 2.149165,1.870247 2.149165,3.079945 0,1.649271 -1.626304,3.227954 -3.325329,3.227954 -2.100549,0 -3.779003,-2.19387 -3.145957,-4.112014 0.311099,-0.942642 1.02711,-1.754761 1.878139,-2.130233 l 0.670964,-0.296029 v -1.493924 c 0,-2.741331 -0.204228,-2.874212 -4.417451,-2.874212 H 46.46933 v 3.374461 c 0,3.160715 -0.0243,3.42257 -0.383691,4.133969 -0.211031,0.41773 -0.644441,0.932789 -0.963132,1.144577 -0.556361,0.36973 -0.724988,0.385068 -4.23365,0.385068 h -3.654208 l 0.05567,3.321802 0.05567,3.321803 0.472492,0.472483 c 0.441239,0.441229 0.582461,0.476279 2.134928,0.529866 l 1.662434,0.05739 0.2975,-0.654238 c 0.372067,-0.818222 0.586956,-1.086253 1.230656,-1.534986 1.12689,-0.785572 2.834233,-0.648463 3.932466,0.315799 1.246734,1.094647 1.468715,2.792199 0.543939,4.159685 -0.739722,1.093842 -1.323855,1.408007 -2.646599,1.423426 -0.854204,0.01 -1.201996,-0.07137 -1.729602,-0.404429 -0.712433,-0.44974 -1.300634,-1.168296 -1.403654,-1.714728 -0.05845,-0.310028 -0.234815,-0.348851 -1.938371,-0.426689 -2.153249,-0.09838 -2.668192,-0.314527 -3.38572,-1.421119 -0.447098,-0.689527 -0.449441,-0.710749 -0.449441,-4.069601 V 50.391527 H 35.053606 34.04018 l -0.05239,3.466323 c -0.05099,3.374232 -0.06371,3.483033 -0.478709,4.095243 -0.668162,0.985682 -1.514097,1.305978 -3.449222,1.305978 H 28.42362 l -0.380847,0.786725 c -0.559914,1.156628 -1.607682,1.776493 -2.965661,1.7545 -0.567833,-0.0092 -1.204557,-0.111932 -1.414942,-0.228302 z m 2.510899,-1.229693 c 0.520904,-0.307705 1.026418,-1.209567 1.026418,-1.83118 0,-0.632894 -0.700247,-1.500499 -1.40687,-1.74311 -1.628739,-0.559212 -3.254699,1.207394 -2.499248,2.715433 0.530657,1.059303 1.866114,1.457597 2.8797,0.858857 z m 19.798251,-0.0099 c 0.632624,-0.3737 1.076061,-1.295284 0.943109,-1.960044 -0.363511,-1.817557 -2.621421,-2.327146 -3.642517,-0.822081 -1.207107,1.779239 0.834715,3.883626 2.699408,2.782125 z M 16.95004,50.300327 c 0.635427,-0.723711 0.701895,-1.584644 0.187479,-2.428365 -1.171111,-1.920799 -4.290763,-0.400216 -3.582402,1.746139 0.282821,0.856956 0.92935,1.273095 1.988053,1.279612 0.794181,0.0049 0.927931,-0.0519 1.40687,-0.597386 z m 38.835846,0.300569 c 0.910402,-0.737454 1.024147,-2.108131 0.247109,-2.977786 -0.450989,-0.504746 -0.588077,-0.556913 -1.463491,-0.556913 -0.875414,0 -1.012501,0.05217 -1.463491,0.556913 -0.795095,0.889865 -0.636742,2.286034 0.347223,3.061421 0.40336,0.317857 1.903396,0.264075 2.33265,-0.08364 z M 44.839642,48.648285 c 0.232282,-0.331631 0.265464,-1.526232 0.265464,-9.557414 V 29.91246 L 44.686532,29.493887 44.26796,29.075314 h -9.247996 -9.247998 l -0.394682,0.370785 -0.394683,0.370785 v 9.2262 c 0,8.074433 0.03314,9.273512 0.265464,9.605201 l 0.265465,0.379004 h 9.530323 9.530324 z M 16.904937,30.512674 c 1.609147,-1.706192 -0.45408,-4.192443 -2.462807,-2.967756 -0.673641,0.410708 -1.119693,1.361731 -0.966282,2.060204 0.05973,0.271962 0.338571,0.724443 0.619641,1.005513 0.432901,0.432901 0.642835,0.511035 1.373063,0.511035 0.767542,0 0.924983,-0.06675 1.436385,-0.608996 z m 38.880949,0.306777 c 1.124251,-0.910678 0.965764,-2.720752 -0.295324,-3.372885 -1.974701,-1.021158 -3.825324,1.395312 -2.352895,3.072317 0.478392,0.544858 0.613595,0.602423 1.40687,0.598995 0.572838,-0.0025 1.003932,-0.106112 1.241349,-0.298427 z m -29.543902,-9.60356 c 0.537954,-0.423155 0.957751,-1.179688 0.956866,-1.724404 -0.0015,-0.920187 -1.131529,-2.013097 -2.079883,-2.011555 -0.571084,9.28e-4 -1.443785,0.588544 -1.748119,1.177061 -0.444473,0.859516 -0.339275,1.457363 0.391641,2.225715 0.553952,0.582324 0.762104,0.689299 1.34124,0.689299 0.436972,0 0.849674,-0.129118 1.138255,-0.356116 z m 19.861832,-0.07579 c 1.394678,-1.173543 0.867048,-3.252772 -0.91003,-3.586153 -0.719809,-0.135037 -1.53018,0.275791 -1.97141,0.999435 -0.398548,0.65364 -0.421389,1.161572 -0.08177,1.818327 0.631584,1.22135 2.002438,1.576827 2.96321,0.768391 z"
       id="path517" />
    <path
       style="fill:#ffffff;stroke:#ffffff;stroke-width:0.17053"
       d="m 36.677935,43.857494 c -0.168812,-0.123439 -0.278656,-0.372838 -0.244098,-0.554222 0.05174,-0.271538 0.231318,-0.338689 1.016738,-0.380184 l 0.953904,-0.0504 0.110249,-1.5532 c 0.06064,-0.85426 0.110249,-2.53901 0.110249,-3.743889 v -2.190688 h -1.004933 c -0.759056,0 -1.030259,-0.066 -1.108443,-0.269742 -0.138543,-0.361037 -0.141238,-0.350287 0.164465,-0.655991 0.391794,-0.391794 4.358676,-0.391794 4.75047,0 0.147387,0.147387 0.267976,0.323885 0.267976,0.392219 0,0.298071 -0.456496,0.533514 -1.03442,0.533514 h -0.625149 l -0.112052,2.685843 c -0.06163,1.477213 -0.157595,3.165457 -0.21326,3.751653 l -0.101208,1.065811 h 0.775069 c 0.933483,0 1.40462,0.359117 1.134152,0.864491 -0.159962,0.298891 -0.37684,0.329217 -2.354484,0.329217 -1.531819,0 -2.269384,-0.06661 -2.485225,-0.224434 z"
       id="path556" />
    <path
       style="fill:#ffffff;stroke:#ffffff;stroke-width:0.17053"
       d="m 28.579628,43.845295 c -0.198083,-0.238676 0.145244,-1.445307 1.946315,-6.84035 0.624505,-1.870683 1.258001,-2.98427 1.69769,-2.98427 0.511023,0 1.082321,1.068046 1.879659,3.514038 0.4783,1.467281 0.991173,2.719794 1.21454,2.966091 0.284102,0.313267 0.344198,0.501563 0.226617,0.710039 -0.106111,0.188138 -0.0677,0.644056 0.114015,1.353366 0.259209,1.011795 0.25746,1.081769 -0.03235,1.293685 -0.600079,0.438788 -0.899321,0.159418 -1.244403,-1.161764 l -0.283885,-1.086883 -1.885352,-0.04795 -1.885352,-0.04795 -0.193609,0.6448 c -0.106484,0.35464 -0.239691,0.817007 -0.296014,1.027482 -0.208707,0.779923 -0.870167,1.12681 -1.257868,0.659658 z m 4.485264,-5.348215 c -0.317755,-0.914466 -0.618902,-1.77142 -0.669216,-1.904342 -0.05801,-0.153249 -0.150969,-0.182188 -0.254067,-0.07909 -0.14877,0.148769 -0.865091,2.047354 -1.19871,3.177139 l -0.13848,0.468957 h 1.419105 1.419105 z"
       id="path595" />
  </g>
</svg>
