<?xml version="1.0" encoding="UTF-8" standalone="no"?>
<svg
   width="77.034"
   height="76.874"
   viewBox="0 0 77.034 76.874"
   version="1.1"
   id="svg109"
   sodipodi:docname="steps-shape-3.svg"
   inkscape:version="1.1 (c4e8f9e, 2021-05-24)"
   xmlns:inkscape="http://www.inkscape.org/namespaces/inkscape"
   xmlns:sodipodi="http://sodipodi.sourceforge.net/DTD/sodipodi-0.dtd"
   xmlns="http://www.w3.org/2000/svg"
   xmlns:svg="http://www.w3.org/2000/svg">
  <sodipodi:namedview
     id="namedview111"
     pagecolor="#ffffff"
     bordercolor="#666666"
     borderopacity="1.0"
     inkscape:pageshadow="2"
     inkscape:pageopacity="0.0"
     inkscape:pagecheckerboard="0"
     showgrid="false"
     inkscape:zoom="6.8583499"
     inkscape:cx="43.086166"
     inkscape:cy="44.252627"
     inkscape:window-width="1920"
     inkscape:window-height="1027"
     inkscape:window-x="1919"
     inkscape:window-y="25"
     inkscape:window-maximized="0"
     inkscape:current-layer="svg109" />
  <defs
     id="defs106">
    <linearGradient
       id="linear-gradient"
       x1="0.402"
       y1="-0.215"
       x2="0.5"
       y2="1"
       gradientUnits="objectBoundingBox">
      <stop
         offset="0"
         stop-color="#361cc1"
         id="stop101" />
      <stop
         offset="1"
         stop-color="#2e82ef"
         id="stop103" />
    </linearGradient>
  </defs>
  <path
     id="Path_7"
     data-name="Path 7"
     d="M44.629,1896.9c20.551-4.888,58.959,28.731,58.959,46.987s-53.043,34.067-67.837,28.142S24.078,1901.789,44.629,1896.9Z"
     fill="url(#linear-gradient)"
     transform="translate(-26.554 -1896.421)" />
  <path
     style="fill:#ffffff;stroke:#ffffff;stroke-width:0.145808"
     d=""
     id="path231" />
  <g
     id="g430"
     transform="translate(1.3122691,-0.43742305)">
    <path
       style="fill:#ffffff;stroke:#ffffff;stroke-width:0.145808"
       d="m 26.207034,44.678013 c -2.505027,-2.332227 -4.554595,-4.285584 -4.554595,-4.340794 0,-0.05521 0.574117,-0.669717 1.275817,-1.365569 l 1.275817,-1.265187 3.11499,2.908563 c 1.713245,1.59971 3.168921,2.908563 3.234835,2.908563 0.08485,0 9.764009,-10.465518 11.380457,-12.305041 0.09397,-0.106937 2.901503,2.160051 2.901503,2.342865 0,0.06158 -12.493044,13.726806 -13.473204,14.737352 l -0.601025,0.61966 z"
       id="path270" />
    <path
       style="fill:#ffffff;stroke:#ffffff;stroke-width:0.145808"
       d="M 30.522276,64.257101 C 24.227111,61.045261 18.734735,56.422706 15.53492,51.643278 13.297849,48.301859 12.061526,44.896772 11.739776,41.190666 11.54736,38.974307 11.550891,28.260205 11.74443,27.067458 c 0.277629,-1.710974 1.420156,-3.35112 2.892684,-4.15257 0.395727,-0.215381 1.447603,-0.552644 2.337503,-0.749474 3.33692,-0.738063 6.180954,-1.911963 9.590175,-3.958429 3.146161,-1.888557 3.870827,-2.144746 6.096126,-2.155146 2.183023,-0.0102 3.080796,0.281123 5.487244,1.780602 2.060089,1.28366 5.440161,2.924765 7.270927,3.530207 0.761845,0.251945 2.096387,0.616157 2.965652,0.80936 0.869263,0.193203 1.907889,0.529477 2.308058,0.747276 1.00151,0.545091 2.206744,1.886321 2.623993,2.920083 l 0.34043,0.843436 -0.0025,7.654903 c -0.0024,7.383435 -0.01404,7.707584 -0.328998,9.140451 -1.576897,7.174064 -6.453357,13.325934 -14.832533,18.711893 -1.56099,1.003372 -5.470044,3.058881 -5.817211,3.058881 -0.11537,0 -1.084552,-0.446323 -2.153737,-0.99183 z m 3.460404,-3.727115 c 7.272629,-3.905218 12.772925,-9.484662 14.896544,-15.110897 0.923714,-2.447248 0.955615,-2.779495 1.020324,-10.626317 0.04296,-5.209758 0.01309,-7.311563 -0.108055,-7.604048 -0.331569,-0.80048 -0.75906,-1.027028 -3.015515,-1.598065 -3.518676,-0.890465 -7.011648,-2.397712 -10.376273,-4.47745 -1.919822,-1.186677 -2.453688,-1.385989 -3.738787,-1.395826 -1.198383,-0.0092 -1.76348,0.207643 -3.758132,1.441924 -1.795989,1.111349 -4.943754,2.671105 -6.74002,3.339762 -0.801943,0.298521 -2.441473,0.79219 -3.643402,1.097042 -2.491172,0.63185 -2.890597,0.901845 -3.066163,2.072603 -0.05278,0.351943 -0.0656,3.653182 -0.02851,7.336087 0.07239,7.186556 0.102985,7.522267 0.903556,9.914998 0.499958,1.494265 1.727964,3.842824 2.800006,5.355006 1.176114,1.658982 4.87905,5.340338 6.797052,6.757439 2.239454,1.654603 6.278276,4.130795 6.735609,4.129586 0.08019,-1.46e-4 0.674987,-0.284542 1.321762,-0.631844 z"
       id="path309" />
  </g>
</svg>
