<?xml version="1.0" encoding="UTF-8" standalone="no"?>
<!-- Generator: Adobe Illustrator 16.0.0, SVG Export Plug-In . SVG Version: 6.00 Build 0)  -->

<svg
   version="1.1"
   id="Capa_1"
   x="0px"
   y="0px"
   width="486.949px"
   height="486.949px"
   viewBox="0 0 486.949 486.949"
   style="enable-background:new 0 0 486.949 486.949;"
   xml:space="preserve"
   sodipodi:docname="rank_4.svg"
   inkscape:version="1.1 (c4e8f9e, 2021-05-24)"
   xmlns:inkscape="http://www.inkscape.org/namespaces/inkscape"
   xmlns:sodipodi="http://sodipodi.sourceforge.net/DTD/sodipodi-0.dtd"
   xmlns="http://www.w3.org/2000/svg"
   xmlns:svg="http://www.w3.org/2000/svg"><defs
   id="defs73"><rect
   x="419.172"
   y="124.73"
   width="70.36372"
   height="93.689426"
   id="rect10984" /><rect
   x="108.64201"
   y="115.1088"
   width="265.13824"
   height="290.35871"
   id="rect6842" />
	

		
		
	</defs><sodipodi:namedview
   id="namedview71"
   pagecolor="#ffffff"
   bordercolor="#666666"
   borderopacity="1.0"
   inkscape:pageshadow="2"
   inkscape:pageopacity="0.0"
   inkscape:pagecheckerboard="0"
   showgrid="false"
   inkscape:zoom="1.5463632"
   inkscape:cx="250.58797"
   inkscape:cy="295.53213"
   inkscape:window-width="1792"
   inkscape:window-height="986"
   inkscape:window-x="0"
   inkscape:window-y="26"
   inkscape:window-maximized="0"
   inkscape:current-layer="Capa_1" />
<path
   d="M 486.949,118.757 420.732,21.741 C 307.24,59.008 266.21,32.509 252.398,15.725 H 245.949 241 234.551 C 220.738,32.509 179.709,59.008 66.217,21.742 L 0,118.758 c 0,0 66.965,10.105 46.198,98.557 -61.199,260.664 162.435,212.77 190.647,253.91 h 4.949 3.359 4.948 c 28.213,-41.141 251.846,6.754 190.648,-253.911 -20.765,-88.451 46.2,-98.557 46.2,-98.557 z m -67.777,5.973 c -17.807,26.292 -22.008,60.168 -12.494,100.689 14.557,62.006 12.621,108.295 -5.758,137.583 -21.648,34.504 -65.627,44.312 -104.441,52.969 -20.246,4.516 -38.412,8.566 -53.004,16.343 -14.592,-7.774 -32.76,-11.827 -53.016,-16.345 C 151.658,407.315 107.68,397.506 86.029,363.002 67.652,333.715 65.715,287.426 80.271,225.419 89.785,184.898 85.582,151.021 67.779,124.73 63.049,117.744 57.474,111.512 51.101,106.077 L 80.665,62.762 c 31.438,8.622 59.789,12.986 84.439,12.985 37.578,-0.002 62.426,-10.073 78.371,-21.112 15.947,11.041 40.795,21.113 78.374,21.112 24.654,-0.001 53.002,-4.365 84.436,-12.985 l 29.564,43.315 c -6.372,5.436 -11.949,11.669 -16.677,18.653 z"
   id="path32"
   style="fill:#3446d4;fill-opacity:1" /><path
   d="M 321.848,95.083 C 291.463,95.084 265.167,89.142 243.473,77.4 221.781,89.14 195.488,95.081 165.106,95.083 142.445,95.084 116.988,91.688 89.267,84.975 l -12.353,18.096 c 2.646,3.118 5.123,6.383 7.425,9.782 21.063,31.105 26.245,70.292 15.402,116.474 -13.104,55.813 -11.987,98.131 3.229,122.381 17.212,27.431 55.15,35.892 91.84,44.074 17.346,3.869 33.895,7.561 48.664,13.767 14.768,-6.205 31.312,-9.896 48.646,-13.762 36.702,-8.187 74.647,-16.648 91.858,-44.079 15.215,-24.248 16.332,-66.565 3.229,-122.382 -10.844,-46.182 -5.66,-85.37 15.404,-116.475 2.299,-3.397 4.777,-6.662 7.422,-9.78 L 397.681,84.974 c -27.714,6.712 -53.171,10.109 -75.833,10.109 z"
   id="path34"
   style="fill:#fe7883;fill-opacity:1" />
<g
   id="g40">
</g>
<g
   id="g42">
</g>
<g
   id="g44">
</g>
<g
   id="g46">
</g>
<g
   id="g48">
</g>
<g
   id="g50">
</g>
<g
   id="g52">
</g>
<g
   id="g54">
</g>
<g
   id="g56">
</g>
<g
   id="g58">
</g>
<g
   id="g60">
</g>
<g
   id="g62">
</g>
<g
   id="g64">
</g>
<g
   id="g66">
</g>
<g
   id="g68">
</g>
<g
   id="g282"
   transform="matrix(0.43502876,0,0,0.43502876,262.63626,261.98958)"><path
     d="m 508,254 c 0,16.23 -8.43,29.71 -15.87,41.59 -4.4,7.04 -8.56,13.68 -10.12,19.5 -1.67,6.27 -1.41,14.38 -1.13,22.97 0.45,13.79 0.96,29.42 -6.89,42.97 -7.95,13.75 -21.85,21.14 -34.11,27.66 -7.49,3.98 -14.56,7.74 -19,12.19 -4.45,4.44 -8.21,11.51 -12.19,19 -6.52,12.26 -13.91,26.16 -27.66,34.12 -13.55,7.84 -29.18,7.33 -42.97,6.88 -8.59,-0.28 -16.7,-0.54 -22.97,1.13 -5.81,1.56 -12.46,5.72 -19.5,10.12 C 283.71,499.57 270.23,508 254,508 h -0.11 L 218.535,245.55 253.89,0 H 254 c 16.23,0 29.71,8.43 41.59,15.87 7.04,4.4 13.69,8.56 19.5,10.12 6.27,1.67 14.38,1.41 22.97,1.13 13.79,-0.45 29.42,-0.96 42.97,6.88 13.75,7.96 21.14,21.86 27.66,34.12 3.98,7.49 7.74,14.56 12.19,19 4.44,4.45 11.51,8.21 19,12.19 12.26,6.52 26.16,13.91 34.12,27.66 7.84,13.55 7.33,29.18 6.88,42.97 -0.28,8.59 -0.54,16.7 1.13,22.97 1.56,5.81 5.72,12.46 10.12,19.49 7.44,11.89 15.87,25.37 15.87,41.6 z"
     fill="#00cb76"
     id="path268" /><path
     d="m 253.89,0 v 508 c -16.18,-0.04 -29.63,-8.45 -41.48,-15.87 -7.04,-4.4 -13.69,-8.56 -19.5,-10.12 -6.27,-1.67 -14.38,-1.41 -22.97,-1.13 -13.79,0.45 -29.42,0.96 -42.97,-6.88 -13.75,-7.96 -21.14,-21.86 -27.66,-34.12 -3.98,-7.49 -7.74,-14.56 -12.19,-19 -4.44,-4.45 -11.51,-8.21 -19,-12.19 C 55.86,402.17 41.96,394.78 34,381.03 26.16,367.48 26.67,351.85 27.12,338.06 27.4,329.47 27.66,321.36 25.99,315.09 24.43,309.28 20.27,302.63 15.87,295.6 8.43,283.71 0,270.23 0,254 c 0,-16.23 8.43,-29.71 15.87,-41.59 4.4,-7.04 8.56,-13.68 10.12,-19.5 1.67,-6.27 1.41,-14.38 1.13,-22.97 -0.45,-13.79 -0.96,-29.42 6.89,-42.97 7.95,-13.75 21.85,-21.14 34.11,-27.66 7.49,-3.98 14.56,-7.74 19,-12.19 4.45,-4.44 8.21,-11.51 12.19,-19 6.52,-12.26 13.91,-26.16 27.66,-34.12 13.55,-7.84 29.18,-7.33 42.97,-6.88 8.59,0.28 16.7,0.54 22.97,-1.13 5.81,-1.56 12.46,-5.72 19.5,-10.12 C 224.26,8.45 237.71,0.04 253.89,0 Z"
     fill="#a4e786"
     id="path270" /><path
     d="m 445.08,254 c 0,105.36 -85.72,191.08 -191.08,191.08 h -0.11 l -7.39,-10.724 7.39,-19.276 H 254 C 342.82,415.08 415.08,342.82 415.08,254 415.08,165.18 342.82,92.92 254,92.92 h -0.11 L 241.347,80.772 253.89,62.92 H 254 c 105.36,0 191.08,85.72 191.08,191.08 z"
     fill="#009a85"
     id="path272" /><path
     d="m 344.39,212.93 -90.5,86.88 -7.39,-15.81 7.39,-25.78 69.72,-66.93 z"
     fill="#009a85"
     id="path274" /><g
     fill="#00cb76"
     id="g280"><path
       d="m 253.89,258.22 v 41.59 l -28.21,27.08 -62.29,-62.28 21.22,-21.22 41.5,41.5 z"
       id="path276" /><path
       d="m 253.89,92.92 v -30 C 148.58,62.98 62.92,148.68 62.92,254 c 0,105.32 85.66,191.02 190.97,191.08 v -30 C 165.12,415.02 92.92,342.78 92.92,254 c 0,-88.78 72.2,-161.02 160.97,-161.08 z"
       id="path278" /></g></g><text
   xml:space="preserve"
   id="text6840"
   style="font-style:normal;font-weight:normal;font-size:160px;line-height:1.25;font-family:sans-serif;white-space:pre;shape-inside:url(#rect6842);fill:#000000;fill-opacity:1;stroke:none"
   x="31.484375"
   y="0"
   transform="matrix(1.409996,0,0,1.409996,-93.9792,-72.768693)"><tspan
     x="195.74219"
     y="261.08223"
     id="tspan23800"><tspan
       style="font-family:Chalkboard;-inkscape-font-specification:Chalkboard;text-align:center;text-anchor:middle;fill:#ffcc00"
       id="tspan23798">5</tspan></tspan></text><text
   xml:space="preserve"
   id="text10982"
   style="fill:black;fill-opacity:1;line-height:1.25;stroke:none;font-family:sans-serif;font-style:normal;font-weight:normal;font-size:40px;white-space:pre;shape-inside:url(#rect10984)" /></svg>
